<svg xmlns="http://www.w3.org/2000/svg" xmlns:xlink="http://www.w3.org/1999/xlink" viewBox="0 0 1413.41 338.79"><defs><style>.cls-1{fill:none;}.cls-2{clip-path:url(#clip-path);}.cls-3{fill:url(#linear-gradient);}.cls-4{clip-path:url(#clip-path-2);}.cls-5{fill:url(#linear-gradient-2);}.cls-6{clip-path:url(#clip-path-3);}.cls-7{fill:url(#linear-gradient-3);}.cls-8{clip-path:url(#clip-path-4);}.cls-9{fill:url(#linear-gradient-4);}</style><clipPath id="clip-path"><path class="cls-1" d="M115.6,152.61c-18.78,10-27.7,33.29-18.95,49.47-16.45,6.61-26.75,19.74-26.45,34s13.3,25.57,31.57,24.9c13-.48,25.23-7.7,25.23-7.7s7.71,5.83,14.45,7.07c23.94,4.4,45-10.13,52-28.09,5.81,4.13,14.59,4.84,21.92,1.75s12.89-9.81,13.87-16.8c17.24.8,34.85-14.81,34.13-30.25s-19.56-26.42-36.52-21.28c-1-11.69-11.87-21.24-25-21.86s-27.1,7.76-32,19.18c-9.13-14.26-31.36-19.56-49.48-12.6a42.37,42.37,0,0,0-4.78,2.18"/></clipPath><linearGradient id="linear-gradient" x1="307.28" y1="845.53" x2="308.23" y2="845.53" gradientTransform="matrix(195.73, 78.89, 82.66, -193.94, -129949.02, 139907.35)" gradientUnits="userSpaceOnUse"><stop offset="0" stop-color="#e7e9e9"/><stop offset="0.03" stop-color="#eaebeb"/><stop offset="0.28" stop-color="#f9fafa"/><stop offset="0.48" stop-color="#fff"/><stop offset="0.73" stop-color="#fafafa"/><stop offset="1" stop-color="#ededed"/></linearGradient><clipPath id="clip-path-2"><path class="cls-1" d="M394.3,117.79a23.06,23.06,0,0,0-21.12,18.94,16.94,16.94,0,0,0-20.1,27.09,15.21,15.21,0,0,0-17.33.58c-4.89,3.77-6.39,10.53-5.27,16.61,1.08,5.84,5,12.15,13.52,12.9,4.43.38,13.15-.74,13.15-.74a69.58,69.58,0,0,0,7.26,7.6,33.34,33.34,0,0,0,23.66,7.28,30.33,30.33,0,0,0,21.57-11.91,20.72,20.72,0,0,0,39.19-10.81,15.95,15.95,0,1,0-3.93-30.72A20.37,20.37,0,0,0,417,134.82c-2.36-9.67-11.89-17.05-21.81-17.05l-.87,0"/></clipPath><linearGradient id="linear-gradient-2" x1="309.84" y1="846.35" x2="310.19" y2="846.35" gradientTransform="matrix(0, 367.85, 367.85, 0, -310933.79, -113863.63)" xlink:href="#linear-gradient"/><clipPath id="clip-path-3"><path class="cls-1" d="M1228.31,98.52a40.22,40.22,0,0,0-9.28,6.88,22.29,22.29,0,0,0-10.63-5.87c-14.93-3.67-28,6.08-30.19,18.59a17.87,17.87,0,0,0,3.06,14s-9.28,2.19-15,6.9c-11.4,9.39-13.26,22.37-11.49,34.7,1.87,13.07,11,24.49,22.09,28.86a57.75,57.75,0,0,0,37,2,32.95,32.95,0,0,0,53.41,5.39c8.47,10.56,26.47,11.65,36.13,2.19,9.46,5,21.71,4.59,30.51-1.43s13.48-17.57,10.84-27.84-12.72-18.35-23.43-18.29a31.69,31.69,0,0,0-10.71-29.37,32.51,32.51,0,0,0-31.06-5.57,36.44,36.44,0,0,0-17.26-29.08,37.11,37.11,0,0,0-14.91-5.06,34.89,34.89,0,0,0-19.1,3"/></clipPath><linearGradient id="linear-gradient-3" x1="310.65" y1="848.32" x2="311.31" y2="848.32" gradientTransform="matrix(250.95, 258.24, 258.24, -250.95, -295841.15, 132753.95)" gradientUnits="userSpaceOnUse"><stop offset="0" stop-color="#e7e9e9"/><stop offset="0.03" stop-color="#eaebeb"/><stop offset="0.26" stop-color="#f9fafa"/><stop offset="0.44" stop-color="#fff"/><stop offset="0.71" stop-color="#fafafa"/><stop offset="1" stop-color="#ededed"/></linearGradient><clipPath id="clip-path-4"><path class="cls-1" d="M1029.52,123.74c-11.26.49-21.53,9.7-23.24,20.85-7.85-4.73-19.14-2.5-24.6,4.86s-4.33,18.81,2.47,25a16.74,16.74,0,0,0-19.08.64c-5.39,4.15-7,11.59-5.8,18.28,1.19,6.43,5.48,13.38,14.88,14.2,4.87.42,14.48-.81,14.48-.81a76.58,76.58,0,0,0,8,8.37,36.7,36.7,0,0,0,26,8A33.38,33.38,0,0,0,1046.41,210c4.68,9.37,16.38,14.58,26.47,11.8s17.46-13.26,16.68-23.7a17.55,17.55,0,1,0-4.33-33.81,22.42,22.42,0,0,0-30.74-21.78c-2.6-10.64-13.09-18.77-24-18.77l-1,0"/></clipPath><linearGradient id="linear-gradient-4" x1="311.14" y1="847.46" x2="311.53" y2="847.46" gradientTransform="matrix(0, 367.85, 367.85, 0, -310706.54, -114342.02)" xlink:href="#linear-gradient"/></defs><title>資產 3</title><g id="圖層_2" data-name="圖層 2"><g id="圖層_1-2" data-name="圖層 1"><text></text><g class="cls-2"><polygon class="cls-3" points="103.43 61.44 324.81 134.36 221.38 338.79 0 265.87 103.43 61.44"/></g><g class="cls-4"><rect class="cls-5" x="318.58" y="81.3" width="159.97" height="164.55" transform="translate(13.52 356.84) rotate(-48.97)"/></g><g class="cls-6"><polygon class="cls-7" points="1250.87 0 1413.41 165.35 1253.71 318.76 1091.18 153.41 1250.87 0"/></g><g class="cls-8"><rect class="cls-9" x="946.17" y="83.58" width="176.09" height="181.13" transform="translate(223.91 839.97) rotate(-48.97)"/></g></g></g></svg>