<svg xmlns="http://www.w3.org/2000/svg" viewBox="0 0 140.64 156.27"><defs><style>.cls-1{isolation:isolate;}.cls-2{fill:#d1d2d2;}.cls-2,.cls-5{mix-blend-mode:multiply;}.cls-3{fill:#f6ed6e;}.cls-4{fill:#63300f;}.cls-5{fill:#f1f1f1;}.cls-6{fill:red;}.cls-7{fill:#f6c66c;}.cls-8{fill:#4b4f50;}</style></defs><title>資產 9</title><g class="cls-1"><g id="圖層_2" data-name="圖層 2"><g id="圖層_1-2" data-name="圖層 1"><ellipse class="cls-2" cx="54.97" cy="148.74" rx="54.97" ry="7.53"/><path class="cls-3" d="M89.57,94.08l12.7,50.27s3.32,0,4.36,2.24c0,0,.85,3.18-5.87,2.12s-20.56-36-20.56-36Z"/><path class="cls-3" d="M56.78,0l82.66,11.47s0,39.62-67.45,31.87C72,43.34,48.08,38.66,56.78,0Z"/><path class="cls-4" d="M58.79,2.46s-11.07-6-15,7.31S16.17,60,30.36,64.69C36.93,66.83,45,43,52.17,7.71c0,0,.47-4.91,6.15-2.08C58.32,5.63,62.34,5.09,58.79,2.46Z"/><path d="M139.44,11.47s-4.77-3.07-6,1.28c-1.44,5.07.32,9.79,3,9.79C136.43,22.53,143.37,14.23,139.44,11.47Z"/><ellipse cx="77.75" cy="16.09" rx="2.41" ry="1.72"/><path class="cls-3" d="M56,5.17s-36.41,133-7.82,138.21c16.14,2.93,49.82,5.75,43.6-36.26S73.09,36.46,73.09,36.46Z"/><path class="cls-5" d="M60.25,79.92A32.3,32.3,0,0,1,85,100.23c7.44,18.45-.11,32.67-21.85,43.86Z"/><path class="cls-3" d="M40.75,76.09s14.48-7,32.5,11.6c30.88,31.88-8.74,57.41-10.29,58.19s17.2-.58,17.2,3.39c0,6.3-47.68,6.89-49.19.65s8.29-4,8.29-4S6.73,137.73,40.75,76.09Z"/><path class="cls-6" d="M48.42,36.11S59,40.85,75.94,43.75l1.82,5.14A138.61,138.61,0,0,1,47,42.5Z"/><circle class="cls-7" cx="77.75" cy="49.4" r="3.62"/><path class="cls-8" d="M75.27,49.92a3.79,3.79,0,0,1,.67.71c.18.24.26.53.42.78a2.15,2.15,0,0,0,1.39,1v.08a2,2,0,0,1-1-.13,3,3,0,0,1-.85-.59,2.18,2.18,0,0,1-.63-.81,1.77,1.77,0,0,1-.08-1Z"/><path class="cls-8" d="M80.31,49.95a1.77,1.77,0,0,1-.08,1,2.18,2.18,0,0,1-.62.81,3,3,0,0,1-.85.59,2,2,0,0,1-1,.13v-.08a2.15,2.15,0,0,0,1.39-1c.16-.25.24-.54.42-.78a3.79,3.79,0,0,1,.67-.71Z"/><path class="cls-3" d="M34.44,137.79S1.61,135.4,1.61,141.12s20.73,4,20.73,4"/></g></g></g></svg>