<svg xmlns="http://www.w3.org/2000/svg" viewBox="0 0 156 144"><defs><style>.cls-1{fill:#eceff1;stroke:#939393;stroke-miterlimit:10;stroke-width:3px;}.cls-2{fill:#070707;}</style></defs><title>資產 12</title><g id="圖層_2" data-name="圖層 2"><g id="圖層_1-2" data-name="圖層 1"><ellipse class="cls-1" cx="95.5" cy="137.07" rx="10" ry="5.43"/><ellipse class="cls-1" cx="82.5" cy="117.68" rx="17" ry="9.82"/><ellipse class="cls-1" cx="78" cy="47" rx="76.5" ry="45.5"/><path class="cls-2" d="M36,61.93q-1.27,0-1.29-.79t-.25-9.46q-.22-8.65-.22-9.2t.91-.67l16.88,0q1-.09,1,.41t.3,18q.23,1.52-.7,1.49T36,61.93Zm15.47-2.16-.23-16.08-15,0,.38,16.45Zm-5.41-.33a2.72,2.72,0,0,1-1.36-.7,1.09,1.09,0,0,1-.23-.84l.23-.49.68-.07-.16-1.24H40.53a4.2,4.2,0,0,1-1.69-.42.78.78,0,0,1-.14-.61.86.86,0,0,1,.47-.47l6.09.14,0-1.36q-2.11.09-3.7.21l-3.23.21-.52-.28a.78.78,0,0,1-.14-.61.86.86,0,0,1,.47-.47l4.69-.33-.09-.33-2.91,0q-.84,0-1-.63a21.45,21.45,0,0,1,0-3.4q0-1,.66-1.08l3.09,0,0-.47q-2.91-.09-3.59-.07a2,2,0,0,1-1.2-.3.68.68,0,0,1,.33-1.1l4.45.09a.93.93,0,0,1,.23-.61,1.09,1.09,0,0,1,.84-.23l.47.23.23.61,5-.14a.84.84,0,0,1,.54.52v.38a.86.86,0,0,1-.47.49l-5,.14,0,.42,3.28,0q.47.09.49.91l0,3.21q.14,1-.94,1H44.56l0,.38,4.34-.26a1.63,1.63,0,0,1-.35-1.05.86.86,0,0,1,.47-.47h.42a1.3,1.3,0,0,1,.68.7q.23.7.42,1.48T50.82,54a.86.86,0,0,1-.47.47H50L49.46,54l-.26-.84-2.06.09,0,1.55,1.78,0a.86.86,0,0,1,.47.47v.38a.86.86,0,0,1-.47.47L47,56.14l0,2.55Q46.83,59.61,46.06,59.44Zm-4-.7L40.81,58a1.17,1.17,0,0,1-.23-.87l.23-.47a1.08,1.08,0,0,1,.94-.23l1.22.75a1.13,1.13,0,0,1,.23.87l-.23.47A1.24,1.24,0,0,1,42.08,58.74Zm.66-8.37v-.56l-2,.09v.47Zm0-1.92V48l-1.92,0v.56Zm3.7-.09v-.42l-1.87,0v.42Zm0,2,0-.61-1.87,0v.56Z"/><path class="cls-2" d="M59,62.3l-.47-.23a53.89,53.89,0,0,1-.68-6.18q-.16-3.13-.35-13.09.14-.87.8-.84l4.66.09a2.89,2.89,0,0,1,1.11.11q.46.15.29,1.11L62.94,46.2a10.67,10.67,0,0,1,1.2,2.39,11,11,0,0,1,.53,2.31,12.91,12.91,0,0,1,.07,2.18,2.58,2.58,0,0,1-.53,1.58,1.25,1.25,0,0,1-1.17.45,2.83,2.83,0,0,1-1.31-.54l-1.24-.91a1.09,1.09,0,0,1-.23-.84l.23-.47a1.17,1.17,0,0,1,.87-.23q.75.52,1.55,1a13.13,13.13,0,0,0-.07-2.16,6.65,6.65,0,0,0-.74-2.1,16.83,16.83,0,0,0-.89-1.59,1.32,1.32,0,0,1-.27-.75,2.76,2.76,0,0,1,.4-1.11,6.62,6.62,0,0,0,.59-1.5H59.35q.19,8.79.38,11.78t.38,5.94l-.23.47A1.09,1.09,0,0,1,59,62.3ZM71.75,62a3.37,3.37,0,0,1-1.83-1.17,1.33,1.33,0,0,1-.47-1.12l.23-.47a1.09,1.09,0,0,1,.84-.23l1,.8a16.23,16.23,0,0,0,.32-2,10.06,10.06,0,0,0,0-1.75q-1.55,1.27-2.6,2.17t-2.13,1.75a1.38,1.38,0,0,1-1.17.47l-.47-.23a1.09,1.09,0,0,1-.23-.84l.23-.47q1.22-.94,2.44-1.91t3.75-3.36l-.28-1.36q-1.17,1.22-4.78,4.27a1.24,1.24,0,0,1-.89.23l-.47-.23a1.09,1.09,0,0,1-.23-.84l.23-.47a53.66,53.66,0,0,0,5.2-4.73,6.34,6.34,0,0,0-1.17-1.83,17.52,17.52,0,0,1-2,2.72,1.09,1.09,0,0,1-.84.23L66,51.31a1.24,1.24,0,0,1-.23-.89l1.59-2.18L69,46.06l-3.56.14a1.24,1.24,0,0,1-.66-.28,1.17,1.17,0,0,1-.23-.87l.23-.47a4.78,4.78,0,0,1,1.71-.35l1.8,0a6.46,6.46,0,0,1-.7-2.16l.23-.47a1.09,1.09,0,0,1,.84-.23l.47.23a9.08,9.08,0,0,1,.66,1.29q.28.68.52,1.34l1.36-.09,1.48-2.81a1.09,1.09,0,0,1,.84-.23l.47.23a1.08,1.08,0,0,1,.23.94l-.94,2a11.11,11.11,0,0,0,1.62.07,3.33,3.33,0,0,1,1.52.3,1.09,1.09,0,0,1,.23.84l-.23.49a1.44,1.44,0,0,1-.89.28L71.28,46l-.7,1.17a15.8,15.8,0,0,1,1.34,1.9q.54.91,1,1.85a15.3,15.3,0,0,0,2.44-2.3,1.24,1.24,0,0,1,.89-.23l.47.23a1.24,1.24,0,0,1,.23.89l-.23.47-2.25,2.16a43.15,43.15,0,0,1,3.14,7.2l-.23.47a1.24,1.24,0,0,1-.89.23L76,59.82q-1.64-3.77-2.3-5a11.85,11.85,0,0,1,0,2.63q-.13,1.27-.29,2.34a3.33,3.33,0,0,1-.66,1.66A1.22,1.22,0,0,1,71.75,62Z"/><path class="cls-2" d="M83.82,50.23a1.24,1.24,0,0,1-.66-.28,1.09,1.09,0,0,1-.23-.84l.23-.47q1-.42,1.93-.87a9.72,9.72,0,0,1,2-.68l.47.23a1.09,1.09,0,0,1,.23.84l-.23.47a17.17,17.17,0,0,1-1.82.91A15.82,15.82,0,0,1,83.82,50.23ZM87,43.74a15.36,15.36,0,0,0-1.91-.16,6.69,6.69,0,0,1-1.86-.3,1.09,1.09,0,0,1-.23-.84l.23-.47a1.47,1.47,0,0,1,1.27-.28q.8.09,1.65.12a3.9,3.9,0,0,1,1.56.35A1.09,1.09,0,0,1,88,43l-.23.47A1.52,1.52,0,0,1,87,43.74ZM85.27,59.12q-1,0-1-1l-.28-6a1.22,1.22,0,0,1,.8-.89l11.25,0a4.76,4.76,0,0,1,1.64.28l.33.75v5.79q0,1.2-.87,1.08Zm-.19,3.47a1.24,1.24,0,0,1-.66-.28,1.09,1.09,0,0,1-.23-.84l.23-.47a6.24,6.24,0,0,0,1.68-.94,5.24,5.24,0,0,1,1.14-.74,1.45,1.45,0,0,1,1.05.22,1.24,1.24,0,0,1,.23.89l-.23.47a15.67,15.67,0,0,0-1.55.94A5.18,5.18,0,0,1,85.08,62.59Zm11-9.12v-.94H85.86v.84Zm0,2.11v-.66L86,54.73l.09.84Zm0,2.06v-.7h-10v.8Zm1.41-11.58-.47-.23a1.33,1.33,0,0,1-.23-.91l.56-1.17-5.58.19A9.29,9.29,0,0,1,91,45.71a1.19,1.19,0,0,1-.89.26l-.47-.26a1.09,1.09,0,0,1-.23-.84q.47-1,.84-2t.8-2a1.24,1.24,0,0,1,.89-.23l.47.23A1.38,1.38,0,0,1,92.56,42l6,0a2.5,2.5,0,0,1,.95.18q.43.18.16.94t-.57,1.44a11.5,11.5,0,0,1-.73,1.36A1.13,1.13,0,0,1,97.53,46.06Zm-6.89,4.36-.47-.23a1.09,1.09,0,0,1-.23-.84l.23-.47a7,7,0,0,0,1.95-2.14q.73-1.25,1.57-2.43a1.09,1.09,0,0,1,.84-.23l.47.23a1.24,1.24,0,0,1,.23.89l-.75,1.34,2.89,1.1q1.44.54,2.85,1.1a1.09,1.09,0,0,1,.23.84l-.23.47a1.24,1.24,0,0,1-.89.23q-1.5-.47-3-1.05t-3-1.1q-1.12,1.36-1.55,1.78A1.67,1.67,0,0,1,90.64,50.42Zm7.57,12.26a11.66,11.66,0,0,1-1.92-.82q-.91-.49-1.85-.91a1.09,1.09,0,0,1-.23-.84l.23-.47a1.29,1.29,0,0,1,1-.23l3.45,1.69a1.09,1.09,0,0,1,.23.84l-.23.47A1.52,1.52,0,0,1,98.21,62.68Z"/><path class="cls-2" d="M105.61,47.94a1.24,1.24,0,0,1-.66-.28,1.09,1.09,0,0,1-.23-.84l.23-.47a5.34,5.34,0,0,1,1.83-.3q1,0,5.88-.09a2.31,2.31,0,0,1,1.45.28,1.33,1.33,0,0,1,.23.91l-.23.47a2.21,2.21,0,0,1-1.5.23Zm2.2,13.34q-1.2,0-1.41-.43a28.86,28.86,0,0,1-.56-4.46.93.93,0,0,1,.84-1l6.54-.14q.77.07.83.48t0,4.61q.07,1.17-1.69,1ZM111.26,45a12.21,12.21,0,0,1-2.36-.7,15,15,0,0,0-2.36-.75,1.09,1.09,0,0,1-.23-.84l.23-.47a1.21,1.21,0,0,1,1-.23,13,13,0,0,1,2.29.68,16.53,16.53,0,0,0,2.29.73,1.09,1.09,0,0,1,.23.84l-.23.47A1.37,1.37,0,0,1,111.26,45Zm-2.55,6.12a3.72,3.72,0,0,1-1.87-.28,1.14,1.14,0,0,1-.28-.89l.23-.47a3.4,3.4,0,0,1,1.88-.23l4.05,0,.47.23a1.09,1.09,0,0,1,.23.84l-.23.47a7.15,7.15,0,0,1-2.18.33Q109.86,51.08,108.71,51.12Zm-1,3.47a1.24,1.24,0,0,1-.66-.28,1.09,1.09,0,0,1-.23-.84L107,53a12.2,12.2,0,0,1,2.87-.52q1.51-.09,3-.09l.47.23a1.09,1.09,0,0,1,.23.84l-.23.47a12.93,12.93,0,0,1-2.84.35A15.56,15.56,0,0,0,107.68,54.59Zm4.57,4.9V57l-4.43.14.23,2.37ZM124,61.65a15.57,15.57,0,0,1-1.45-3.81,25.06,25.06,0,0,1-.59-4.62q-.12-2.64,0-6.93h-2.18a16,16,0,0,1-.07,2.3q-.12,1.13-.16,2.3a3.64,3.64,0,0,1,1.95.23,1.09,1.09,0,0,1,.23.84l-.23.47a3.68,3.68,0,0,1-2,.28,34.3,34.3,0,0,1-.56,4.37,28,28,0,0,1-1.17,4.23,1.14,1.14,0,0,1-.89.28l-.47-.23a1.09,1.09,0,0,1-.23-.84,35.48,35.48,0,0,0,1-3.81,25.38,25.38,0,0,0,.49-3.95h-2l-.61-.28a1.09,1.09,0,0,1-.23-.84l.23-.47.47-.23h2.25q0-1.17.16-2.3a16.5,16.5,0,0,0,.07-2.34l-2.3,0a1.24,1.24,0,0,1-.66-.28,1.13,1.13,0,0,1-.23-.87l.23-.47a1.88,1.88,0,0,1,1.17-.28h6.49a1.23,1.23,0,0,1,1,.3,1,1,0,0,1,.33.89q-.12,5-.08,7.21a25.76,25.76,0,0,0,.22,3.36,8.21,8.21,0,0,0,.66,2.2,1.18,1.18,0,0,1,1-.47l.47.23a1.24,1.24,0,0,1,.23.89,8,8,0,0,0-.63,1.27l-.54,1.38Q125,62.44,124,61.65Z"/></g></g></svg>