<svg xmlns="http://www.w3.org/2000/svg" xmlns:xlink="http://www.w3.org/1999/xlink" viewBox="0 0 191.94 231.72"><defs><style>.cls-1,.cls-2{fill:none;}.cls-2{stroke:#111183;stroke-miterlimit:10;stroke-width:10px;}.cls-3{clip-path:url(#clip-path);}.cls-4{fill:#abd3cb;}.cls-5{opacity:0.1;}.cls-6{fill:#81ae9f;}.cls-7{fill:#f3f1e8;}.cls-8{font-size:19.2px;}.cls-8,.cls-9{fill:#fff;font-family:Amatic-Bold, Amatic Bold;font-weight:700;}.cls-9{font-size:14.5px;}</style><clipPath id="clip-path"><circle class="cls-1" cx="101.94" cy="66.56" r="58.62" transform="translate(-0.18 0.28) rotate(-0.16)"/></clipPath></defs><title>資產 6</title><g id="圖層_2" data-name="圖層 2"><g id="圖層_1-2" data-name="圖層 1"><path class="cls-2" d="M100.31,127.19,94,231.42Z"/><g class="cls-3"><rect class="cls-4" x="0.17" y="0.29" width="191.59" height="127.73" transform="translate(-0.17 0.26) rotate(-0.16)"/><g class="cls-5"><polygon class="cls-6" points="95.91 64.08 88.56 127.97 103.72 127.93 96.03 64.08 95.97 64.56 95.91 64.08"/><polygon class="cls-6" points="96.25 61.87 96.3 61.69 103.38 0.2 88.22 0.24 95.74 62.66 95.76 62.72 96.25 61.87"/><polygon class="cls-6" points="95.99 63.49 96.11 63.34 96.23 62.34 95.94 63.32 95.99 63.49"/><polygon class="cls-6" points="95.88 63.81 95.91 64.08 95.97 64.56 96.03 64.08 96.03 64.02 95.94 63.73 95.88 63.81"/><polygon class="cls-6" points="95.17 63.76 95.16 63.78 95.26 63.75 95.17 63.76"/><polygon class="cls-6" points="58.45 128.05 77.01 128 95.75 63.98 93.19 67.22 58.45 128.05"/><polygon class="cls-6" points="94.87 64.28 94.74 64.51 95.41 63.98 94.87 64.28"/><polygon class="cls-6" points="96.25 61.87 95.76 62.72 95.94 63.32 96.23 62.34 96.35 61.91 96.11 62.33 96.25 61.87"/><polygon class="cls-6" points="96.11 62.33 96.35 61.91 131.65 0.12 114.3 0.17 96.3 61.69 96.25 61.87 96.11 62.33"/><polygon class="cls-6" points="96.16 64.05 95.96 63.71 95.94 63.73 96.03 64.02 115.1 127.89 133.19 127.85 96.39 64.23 96.1 63.87 96.16 64.05"/><polygon class="cls-6" points="95.99 63.49 95.94 63.32 95.76 62.72 95.74 62.66 77.12 0.27 59.3 0.32 95.55 62.99 95.97 63.52 95.99 63.49"/><polygon class="cls-6" points="96.16 64.05 96.1 63.87 95.97 63.7 95.96 63.71 96.16 64.05"/><polygon class="cls-6" points="95.68 63.63 95.49 63.61 95.68 63.59 95.26 63.47 0.14 52.6 0.2 75.13 95.17 63.76 95.26 63.75 95.68 63.63"/><polygon class="cls-6" points="96.68 63.74 191.79 74.61 191.73 52.08 96.67 63.47 96.17 63.61 96.68 63.74"/><polygon class="cls-6" points="95.49 63.61 95.68 63.63 95.76 63.61 95.68 63.59 95.49 63.61"/><polygon class="cls-6" points="95.96 63.71 95.97 63.7 95.96 63.69 95.63 63.95 95.75 63.79 95.41 63.98 94.74 64.51 14.32 128.17 45.22 128.09 93.19 67.22 95.75 63.98 95.88 63.81 95.94 63.73 95.96 63.71"/><polygon class="cls-6" points="95.97 63.52 95.98 63.54 96.54 63.23 176.41 0 145.97 0.08 96.11 63.34 95.99 63.49 95.97 63.52"/><polygon class="cls-6" points="95.63 63.95 95.96 63.69 95.95 63.68 95.75 63.79 95.63 63.95"/><polygon class="cls-6" points="95.63 63.27 95.97 63.54 95.98 63.54 95.97 63.52 95.55 62.99 45.63 0.36 15.18 0.44 95.4 63.23 95.75 63.43 95.63 63.27"/><polygon class="cls-6" points="95.95 63.68 95.96 63.69 95.97 63.7 96.1 63.87 96.39 64.23 147.07 127.81 177.97 127.72 96.53 63.98 95.97 63.67 95.95 63.68"/><polygon class="cls-6" points="95.75 63.43 95.97 63.54 95.97 63.54 95.63 63.27 95.75 63.43"/><polygon class="cls-6" points="95.76 63.61 95.82 63.59 95.53 63.43 95.96 63.55 95.97 63.54 95.75 63.43 95.4 63.23 0.03 11.07 0.1 37.41 95.26 63.47 95.68 63.59 95.76 63.61"/><polygon class="cls-6" points="95.99 63.66 95.97 63.67 96.53 63.98 191.91 116.14 191.84 89.81 96.68 63.74 96.17 63.61 95.99 63.66"/><polygon class="cls-6" points="95.82 63.59 95.95 63.56 95.96 63.55 95.53 63.43 95.82 63.59"/><polygon class="cls-6" points="95.98 63.54 95.97 63.54 95.97 63.54 95.96 63.55 95.95 63.56 96.41 63.43 95.99 63.66 96.17 63.61 96.67 63.47 191.69 36.89 191.62 10.55 96.54 63.23 95.98 63.54"/><polygon class="cls-6" points="95.75 63.79 95.95 63.68 95.97 63.67 95.99 63.66 96.41 63.43 95.95 63.56 95.82 63.59 95.76 63.61 95.68 63.63 95.26 63.75 95.16 63.78 0.24 90.33 0.32 116.67 94.87 64.28 95.41 63.98 95.75 63.79"/></g><path class="cls-7" d="M98.54,75.95l-10,0a.43.43,0,0,1-.43-.43l0-7.3a.43.43,0,0,1,.43-.43l10,0a.43.43,0,0,1,.43.43l0,7.3A.43.43,0,0,1,98.54,75.95ZM89,75.12l9.15,0,0-6.44-9.15,0Z"/><path class="cls-7" d="M98.53,70.09l-10,0a.43.43,0,0,1,0-.86l10,0a.43.43,0,1,1,0,.86Z"/><path class="cls-7" d="M98.53,71.45l-10,0a.43.43,0,1,1,0-.86l10,0a.43.43,0,0,1,0,.86Z"/><path class="cls-7" d="M98.54,73.14l-10,0a.43.43,0,0,1,0-.86l10,0a.43.43,0,0,1,0,.86Z"/><path class="cls-7" d="M98.54,74.5l-10,0a.43.43,0,0,1,0-.86l10,0a.43.43,0,1,1,0,.86Z"/><path class="cls-7" d="M90.56,55.08a2.7,2.7,0,1,1,2.69-2.71A2.7,2.7,0,0,1,90.56,55.08Zm0-4.54a1.84,1.84,0,1,0,1.85,1.84A1.84,1.84,0,0,0,90.55,50.54Z"/><path class="cls-7" d="M92.87,68.67a.43.43,0,0,1-.43-.43l0-15.86a.43.43,0,1,1,.86,0l0,15.86A.43.43,0,0,1,92.87,68.67Z"/><path class="cls-7" d="M97.05,55.07a2.7,2.7,0,1,1,2.69-2.71A2.7,2.7,0,0,1,97.05,55.07Zm0-4.54a1.84,1.84,0,1,0,1.85,1.84A1.84,1.84,0,0,0,97,50.52Z"/><path class="cls-7" d="M94.82,68.66a.43.43,0,0,1-.43-.43l0-15.86a.43.43,0,0,1,.86,0l0,15.86A.43.43,0,0,1,94.82,68.66Z"/><text class="cls-8" transform="matrix(0.99, -0.11, 0.11, 0.99, 74.65, 96.96)">quiz time!</text><path class="cls-7" d="M76,103.34H74.6a9.76,9.76,0,0,1-7.37-3.73,13,13,0,0,1-3.14-9c0-3.59,2.64-6.68,7.73-9.16a61.88,61.88,0,0,1,18.26-5.2,223.31,223.31,0,0,1,30.06-2.56h1.6a10.11,10.11,0,0,1,7.44,3.62,12.58,12.58,0,0,1,3.22,9c0,3.66-2.67,6.78-7.81,9.27a61.13,61.13,0,0,1-18.33,5.2A237.6,237.6,0,0,1,76,103.34Zm44.1-28.77A222.47,222.47,0,0,0,90.2,77.12a61,61,0,0,0-18,5.12c-4.77,2.33-7.21,5.15-7.25,8.4A12.16,12.16,0,0,0,67.87,99a8.94,8.94,0,0,0,6.73,3.43H76a236.77,236.77,0,0,0,30.11-2.55,60.29,60.29,0,0,0,18.07-5.12c4.83-2.34,7.29-5.2,7.33-8.5a11.75,11.75,0,0,0-3-8.39,9.29,9.29,0,0,0-6.82-3.34Z"/><path class="cls-7" d="M86,102.07c-4.6,0-8.74-.13-12.32-.42a9.76,9.76,0,0,1-7.09-4.23,13,13,0,0,1-2.5-9.17c.29-3.58,3.1-6.47,8.35-8.59A61.87,61.87,0,0,1,91,75.74c6.94-.5,13.33-.76,19-.77,4.64,0,8.93.14,12.74.45a10.11,10.11,0,0,1,7.17,4.13,12.58,12.58,0,0,1,2.59,9.19c-.3,3.65-3.14,6.57-8.44,8.69a61.13,61.13,0,0,1-18.65,3.9C98.18,101.8,91.64,102.05,86,102.07Zm24-26.25c-5.67,0-12,.28-19,.77a61,61,0,0,0-18.32,3.85c-4.93,2-7.56,4.64-7.82,7.87a12.15,12.15,0,0,0,2.33,8.59,8.94,8.94,0,0,0,6.48,3.9c3.56.29,7.68.43,12.25.42,5.66,0,12.18-.26,19.39-.74a60.29,60.29,0,0,0,18.39-3.84c5-2,7.64-4.67,7.91-8a11.75,11.75,0,0,0-2.4-8.58,9.29,9.29,0,0,0-6.57-3.81C118.88,76,114.62,75.81,110,75.82Z"/><path class="cls-7" d="M75.09,104.17H73.37A9.76,9.76,0,0,1,66,100.42a13,13,0,0,1-3.12-9c0-3.59,2.66-6.67,7.75-9.14a61.87,61.87,0,0,1,18.27-5.16,224.83,224.83,0,0,1,29.76-2.48h1.9A10.11,10.11,0,0,1,128,78.3a12.58,12.58,0,0,1,3.2,9c0,3.66-2.68,6.77-7.83,9.25A61.13,61.13,0,0,1,105,101.69,239.5,239.5,0,0,1,75.09,104.17Zm43.59-28.66A224,224,0,0,0,89,78a61,61,0,0,0-18,5.08c-4.78,2.32-7.23,5.14-7.27,8.38a12.16,12.16,0,0,0,2.91,8.41,8.94,8.94,0,0,0,6.73,3.45h1.7a238.69,238.69,0,0,0,29.84-2.47A60.29,60.29,0,0,0,123,95.77c4.84-2.32,7.31-5.18,7.35-8.49a11.75,11.75,0,0,0-3-8.4,9.29,9.29,0,0,0-6.81-3.36Z"/><path class="cls-7" d="M98.52,68.65l-10,0a.43.43,0,0,1-.43-.43c0-3.55-4.27-9-5.59-10.57a14.6,14.6,0,1,1,22.37-.52h0l-.38.45c-1.31,1.6-5.54,7.05-5.53,10.6A.43.43,0,0,1,98.52,68.65Zm-9.6-.83,9.19,0c.29-3.82,4.42-9.14,5.71-10.72h0l.36-.43h0a13.74,13.74,0,1,0-21,.49h0C84.46,58.71,88.61,64,88.92,67.82Z"/><path class="cls-7" d="M98.63,68.65l-9.36,0a.43.43,0,0,1-.43-.43c0-3.5-4-8.86-5.23-10.42a14.84,14.84,0,0,1-3.4-9.46c0-7.94,6.1-14.42,13.64-14.44s13.7,6.42,13.72,14.36a14.91,14.91,0,0,1-3,9h0l-.35.44c-1.22,1.57-5.18,6.95-5.17,10.45A.43.43,0,0,1,98.63,68.65Zm-9-.83,8.54,0c.28-3.76,4.13-9,5.34-10.56h0l.33-.42h0a14,14,0,0,0,2.81-8.5c0-7.47-5.79-13.53-12.86-13.51S81.05,40.9,81.07,48.37a14,14,0,0,0,3.21,8.92h0C85.5,58.85,89.38,64.06,89.68,67.82Z"/><path class="cls-7" d="M106,32a.43.43,0,0,1-.37-.66l1.49-2.39a.43.43,0,0,1,.73.45l-1.49,2.39A.43.43,0,0,1,106,32Z"/><path class="cls-7" d="M93.9,29.66a.43.43,0,0,1-.43-.41l-.12-2.82a.43.43,0,1,1,.86,0l.12,2.82a.43.43,0,0,1-.41.45Z"/><path class="cls-7" d="M110.15,40a.43.43,0,0,1-.26-.77l2.27-1.67a.43.43,0,1,1,.51.69l-2.27,1.67A.43.43,0,0,1,110.15,40Z"/><path class="cls-7" d="M112.2,47.68a.43.43,0,0,1-.08-.85l2.77-.54a.43.43,0,1,1,.16.84l-2.77.54Z"/><path class="cls-7" d="M112.88,56.08a.43.43,0,0,1-.16,0l-2.62-1a.43.43,0,0,1,.32-.8l2.62,1a.43.43,0,0,1-.16.83Z"/><path class="cls-7" d="M82.77,32a.43.43,0,0,1-.36-.2l-1.5-2.39a.43.43,0,0,1,.73-.46l1.5,2.39a.43.43,0,0,1-.36.66Z"/><path class="cls-7" d="M75.81,38a.43.43,0,0,1-.25-.08l-2.28-1.66a.43.43,0,0,1,.51-.69l2.28,1.66a.43.43,0,0,1-.25.78Z"/><path class="cls-7" d="M74.52,47.51h-.08L71.67,47a.43.43,0,0,1,.16-.84l2.77.52a.43.43,0,0,1-.08.85Z"/><path class="cls-7" d="M73.24,57.08a.43.43,0,0,1-.16-.83l2.61-1.06A.43.43,0,0,1,76,56L73.4,57A.43.43,0,0,1,73.24,57.08Z"/><text class="cls-9" transform="translate(65.02 73.82) rotate(-20.78) scale(2.17 1)">?</text><path class="cls-7" d="M109.37,75l-.13,0a.43.43,0,0,1-.27-.54l7.27-22.25a.44.44,0,0,1,.07-.13l5.19-6.49a.43.43,0,0,1,.76.27l0,7.71a.43.43,0,0,1,0,.13L115.7,74.38a.43.43,0,1,1-.82-.26l6.54-20.6,0-6.43L117,52.57l-7.24,22.18A.43.43,0,0,1,109.37,75Z"/><path class="cls-7" d="M112.28,74.82l-.13,0a.43.43,0,0,1-.28-.54l6.82-21a.43.43,0,0,1,.82.27l-6.82,21A.43.43,0,0,1,112.28,74.82Z"/><path class="cls-7" d="M121.83,49.71h-.07l-2.4-.41a.43.43,0,0,1,.14-.85l2.4.41a.43.43,0,0,1-.07.85Z"/><path class="cls-7" d="M121,74.76a.43.43,0,0,1-.34-.69l10.9-14.48,1.71-4.9-4.81,3L116,74.28a.43.43,0,1,1-.69-.51l12.49-16.64a.43.43,0,0,1,.12-.11l5.91-3.7a.43.43,0,0,1,.63.5l-2.13,6.11a.43.43,0,0,1-.06.12L121.29,74.59A.43.43,0,0,1,121,74.76Z"/><path class="cls-7" d="M118.19,74.59a.43.43,0,0,1-.34-.69l11.37-15.18a.43.43,0,0,1,.69.51L118.53,74.42A.43.43,0,0,1,118.19,74.59Z"/><path class="cls-7" d="M133.08,56.81a.43.43,0,0,1-.21-.05l-1.79-1a.43.43,0,1,1,.42-.75l1.79,1a.43.43,0,0,1-.21.8Z"/><path class="cls-7" d="M66.42,78.63a10.57,10.57,0,0,1-10.83-9.18,9.93,9.93,0,0,1,2.47-7.6,11.34,11.34,0,0,1,7.43-3.8,11.94,11.94,0,0,1,1.2-.06,10.57,10.57,0,0,1,10.83,9.18,9.8,9.8,0,0,1-.6,4.5,14.78,14.78,0,0,0,4.8,1.06c.46,0,1.22,0,1.22.61,0,.38-.38.58-1,.79a16.19,16.19,0,0,1-1.81.47,25.38,25.38,0,0,1-4.77.56H74.7a11.4,11.4,0,0,1-7.08,3.42A11.92,11.92,0,0,1,66.42,78.63Zm.26-19.79a11.06,11.06,0,0,0-1.11.06,10.48,10.48,0,0,0-6.87,3.51,9.08,9.08,0,0,0-2.26,6.95,9.71,9.71,0,0,0,10,8.42,11.07,11.07,0,0,0,1.11-.06,10.53,10.53,0,0,0,6.68-3.3.43.43,0,0,1,.35-.14l.79,0h0a25,25,0,0,0,5.56-.76,17.18,17.18,0,0,1-4.71-1.24.43.43,0,0,1-.23-.57,9,9,0,0,0,.7-4.48A9.71,9.71,0,0,0,66.69,58.84Z"/><path class="cls-7" d="M121.85,54h-.1l-5.21-1.22a.43.43,0,0,1,.2-.84l5.21,1.22a.43.43,0,0,1-.1.85Z"/><path class="cls-7" d="M131.9,60.05a.43.43,0,0,1-.22-.06l-3.8-2.24a.43.43,0,1,1,.44-.74l3.8,2.24a.43.43,0,0,1-.22.8Z"/><path class="cls-7" d="M93.6,49a.43.43,0,0,1-.17,0l-.14-.06a.43.43,0,1,1,.34-.79l.14.06a.43.43,0,0,1-.17.82Z"/></g><circle class="cls-2" cx="102.46" cy="67.8" r="60.12" transform="translate(-5.21 8.61) rotate(-4.69)"/></g></g></svg>