<svg xmlns="http://www.w3.org/2000/svg" xmlns:xlink="http://www.w3.org/1999/xlink" viewBox="0 0 204.91 295.13"><defs><style>.cls-1,.cls-4{fill:none;}.cls-2{fill:#b83336;}.cls-3{isolation:isolate;}.cls-4{stroke:#eeacd4;stroke-miterlimit:10;stroke-width:10px;}.cls-5{clip-path:url(#clip-path);}.cls-6{fill:#fff;}.cls-7{fill:#dbf1f3;}.cls-8{fill:#92c003;}.cls-9{fill:#bed968;}.cls-10{fill:#d07422;}.cls-11{fill:#62c5cf;}.cls-12{fill:#fc6b79;}.cls-13{fill:#ffd4bc;}.cls-14{fill:#ffc0ad;}.cls-15{fill:#5a2a00;}.cls-16{fill:#191919;opacity:0.8;mix-blend-mode:soft-light;}.cls-17{clip-path:url(#clip-path-2);}.cls-18{fill:#9c571a;}.cls-19{fill:#754114;}.cls-20{fill:#ea9300;}.cls-21{clip-path:url(#clip-path-3);}.cls-22{fill:#575656;}.cls-23{fill:#838f92;}.cls-24{fill:#afbfc2;}.cls-25{fill:#f3a5ae;}.cls-26{fill:#11201c;}.cls-27{fill:#d48b4d;}.cls-28{fill:#ffe2d1;}.cls-29{fill:#a1dce2;}</style><clipPath id="clip-path"><circle class="cls-1" cx="102.45" cy="118.08" r="83.5"/></clipPath><clipPath id="clip-path-2"><path id="_剪裁路徑_" data-name="&lt;剪裁路徑&gt;" class="cls-2" d="M64.17,102.82a4.05,4.05,0,0,0,8.1,0"/></clipPath><clipPath id="clip-path-3"><path id="_剪裁路徑_2" data-name="&lt;剪裁路徑&gt;" class="cls-2" d="M131.19,102.82a4.05,4.05,0,0,1-8.1,0"/></clipPath></defs><title>資產 7</title><g class="cls-3"><g id="圖層_2" data-name="圖層 2"><g id="圖層_1-2" data-name="圖層 1"><path class="cls-4" d="M84.9,187.82,54.45,293.75Z"/><g class="cls-5"><rect class="cls-6" width="204.91" height="204.91"/><path class="cls-7" d="M56.16,82.79l-1.26-1a7,7,0,0,0-3.57-1h-.15a5.36,5.36,0,0,0-2.08.32,6.94,6.94,0,0,0-6.83-5.68h-.1a7,7,0,0,0-2.52.47,6.85,6.85,0,0,0-1.23-1.69L37,73.21a6.79,6.79,0,0,0-3.44-.93,5.14,5.14,0,0,0-2.63.59,6.13,6.13,0,0,0-3.61,3.61,5.14,5.14,0,0,0-.59,2.63l.15,1.13a3.53,3.53,0,0,0-1.5.4,4.34,4.34,0,0,0-2.37,2.15Z"/><path class="cls-7" d="M32.24,135a5.77,5.77,0,0,0-.66-.8l-1.14-.88a5.6,5.6,0,0,0-2.84-.77h-.47c0-.06,0-.12,0-.17A3.06,3.06,0,0,0,22,130.12a3.54,3.54,0,0,0,0-.56l-.16-1.18a4.44,4.44,0,0,0-1.14-2l-.9-.69a4.42,4.42,0,0,0-2.24-.61,3.35,3.35,0,0,0-1.71.38,3.33,3.33,0,0,0-1.43.92,3.33,3.33,0,0,0-.92,1.43,3.35,3.35,0,0,0-.38,1.71l.16,1.18a4.54,4.54,0,0,0,.33.85,3.1,3.1,0,0,0-1-.15,3.21,3.21,0,0,0-3.17,3.17,3.52,3.52,0,0,0,0,.37Z"/><path class="cls-7" d="M198.2,115.64A7.17,7.17,0,0,0,197,114l-1.44-1.11a7.09,7.09,0,0,0-3.59-1,5.36,5.36,0,0,0-2.74.61l-.15.05a7,7,0,0,0-1.74-2.88l-1.42-1.1a7,7,0,0,0-3.55-1,5.32,5.32,0,0,0-2.21.38,5.45,5.45,0,0,0-.49-1l-1.1-1.42a5.25,5.25,0,0,0-2.26-1.45,3.49,3.49,0,0,0-1.77-.48,5.31,5.31,0,0,0-2.79.13l-1.67.71a7,7,0,0,0-2.51,2.51l-.07.12a7,7,0,0,0-1,3.55l.25,1.83a3.67,3.67,0,0,0-3,3Z"/><path class="cls-7" d="M173.42,72.74a3.44,3.44,0,0,0-.45-1.41,3.45,3.45,0,0,0-2-1.57l-.1-.76a3.59,3.59,0,0,0-.92-1.59l-.73-.56a3.58,3.58,0,0,0-1.81-.49,3.47,3.47,0,0,0-3.28,2.21,2.71,2.71,0,0,0-.31,1.38l.13,1a3.71,3.71,0,0,0,.18.51h0A1.92,1.92,0,0,0,163,72.56a1.64,1.64,0,0,0-.08.18Z"/><rect class="cls-8" y="175.28" width="204.91" height="8.23"/><rect class="cls-9" y="183.16" width="204.91" height="21.74"/><rect class="cls-8" y="175.28" width="204.91" height="8.23"/><path class="cls-10" d="M66.91,175.65v1.72a1.09,1.09,0,0,1-1,1.17H59.29a1.18,1.18,0,0,1-.87-1.74c.42-.85,7.58-2.31,7.58-2.31A1.11,1.11,0,0,1,66.91,175.65Z"/><path class="cls-10" d="M70,175.65v1.72a1.09,1.09,0,0,0,1,1.17h6.63a1.18,1.18,0,0,0,.87-1.74c-.42-.85-7.58-2.31-7.58-2.31A1.11,1.11,0,0,0,70,175.65Z"/><path class="cls-11" d="M78.36,143.74H58l3.59,31.62,5.27,0s-.61-25.16,1.39-25.28c2,.12,1.38,25.28,1.38,25.28l6.34,0Z"/><path class="cls-12" d="M97.6,125c-8.85-2.72-18.08-12.57-25-12.57H64.74A9.43,9.43,0,0,0,58,114.83c-2.28,1.93-4.22,8.25-7.92,14.22-4.48,7.22-6.64,11.37-10.44,13.69-1.27,3,2.54,2.41,2.9,3.11A65.42,65.42,0,0,0,59.41,123s-3.11,14.62-2.53,24.73c0,0,5.75.21,11.25.21a84.14,84.14,0,0,0,11.16-.87c.58-10.11-2.22-24.4-2.22-24.4L99.71,131C102,129.94,97.6,125,97.6,125Z"/><path class="cls-13" d="M72.23,112.73a3.56,3.56,0,0,1-3.82,3.81h-.08c-2.39,0-4.81-1.53-4.81-3.81v-5.28a5.23,5.23,0,0,1,4.81-4.74h.08c2.39,0,3.82,2.47,3.82,4.74Z"/><path class="cls-13" d="M49.43,80.91v20.41A10,10,0,0,0,59.63,111H76.24a10,10,0,0,0,10.19-9.72V81.24Z"/><path class="cls-14" d="M67.54,109.87c-6.15,0-12.11,0-17.46-5.16A10.18,10.18,0,0,0,59.63,111H76.24A10.15,10.15,0,0,0,86,104.15C80.8,109.86,74.07,109.87,67.54,109.87Z"/><ellipse class="cls-15" cx="58.88" cy="94.03" rx="1.69" ry="2.71"/><ellipse class="cls-15" cx="76.99" cy="94.03" rx="1.69" ry="2.71"/><path class="cls-16" d="M67.93,98.66a7.12,7.12,0,0,1-3-.67,1.51,1.51,0,0,0-.17.69c0,1.18,1.43,2.13,3.19,2.13s3.19-1,3.19-2.13A1.5,1.5,0,0,0,71,98,7.12,7.12,0,0,1,67.93,98.66Z"/><ellipse class="cls-14" cx="58.94" cy="99.97" rx="2.36" ry="2.25"/><ellipse class="cls-14" cx="76.93" cy="99.97" rx="2.36" ry="2.25"/><path id="_剪裁路徑_3" data-name="&lt;剪裁路徑&gt;" class="cls-2" d="M64.17,102.82a4.05,4.05,0,0,0,8.1,0"/><g class="cls-17"><ellipse class="cls-12" cx="67.25" cy="108.14" rx="3.88" ry="3.87"/></g><path class="cls-18" d="M53.6,80.48s-8.33,14.28-2.24,30.08c0,0-14.46-18.8-1.93-35.5,0,0-1.93-5.92,7.76-7.62s24.47,2,28.8,9.46c4.8,8.32,4.8,21.38-1.14,30.73,0,0,4-16.74-1.65-21.73C77,80.39,71.22,92.58,53.6,80.48Z"/><path class="cls-13" d="M50.39,95.26s-2.91-4-4.16-1.85,1,8,4.12,6.92Z"/><path class="cls-13" d="M110.36,95.26s-2.91-4-4.16-1.85,1,8,4.12,6.92Z"/><path class="cls-13" d="M143.94,95.26s2.91-4,4.16-1.85-1,8-4.12,6.92Z"/><path class="cls-19" d="M128.46,175.65v1.72a1.09,1.09,0,0,0,1,1.17h6.63a1.18,1.18,0,0,0,.87-1.74c-.42-.85-7.58-2.31-7.58-2.31A1.11,1.11,0,0,0,128.46,175.65Z"/><path class="cls-19" d="M125.36,175.65v1.72a1.09,1.09,0,0,1-1,1.17h-6.63a1.18,1.18,0,0,1-.87-1.74c.42-.85,7.58-2.31,7.58-2.31A1.11,1.11,0,0,1,125.36,175.65Z"/><path class="cls-20" d="M117,143.74h20.36l-3.59,31.62-5.27,0s.61-25.16-1.39-25.28c-2,.12-1.38,25.28-1.38,25.28l-6.34,0Z"/><path class="cls-11" d="M97.77,125c8.85-2.72,18.08-12.57,25-12.57h7.83a9.43,9.43,0,0,1,6.74,2.39c2.28,1.93,4.22,8.25,7.92,14.22,4.48,7.22,7.77,8.25,11.58,10.57,1.27,3-2.54,2.41-2.9,3.11C141.4,133,136,123,136,123s3.11,14.62,2.53,24.73c0,0-5.75.21-11.25.21a84.14,84.14,0,0,1-11.16-.87c-.58-10.11.93-24.93.93-24.93L95.65,131C93.34,129.94,97.77,125,97.77,125Z"/><path class="cls-13" d="M122.69,112.73c0,2.28,1.88,3.81,4.27,3.81H127c2.39,0,4.36-1.53,4.36-3.81v-5.28c0-2.28-2-4.74-4.36-4.74H127c-2.39,0-4.27,2.47-4.27,4.74Z"/><path class="cls-13" d="M145.93,80.91v20.41A10,10,0,0,1,135.74,111H119.12a10,10,0,0,1-10.19-9.72V81.24Z"/><path class="cls-14" d="M127.83,109.87c6.15,0,12.11,0,17.46-5.16a10.18,10.18,0,0,1-9.55,6.33H119.12a10.15,10.15,0,0,1-9.75-6.89C114.56,109.86,121.29,109.87,127.83,109.87Z"/><ellipse class="cls-15" cx="136.48" cy="94.03" rx="1.69" ry="2.71"/><ellipse class="cls-15" cx="118.38" cy="94.03" rx="1.69" ry="2.71"/><path class="cls-16" d="M127.43,98.66a7.12,7.12,0,0,0,3-.67,1.51,1.51,0,0,1,.17.69c0,1.18-1.43,2.13-3.19,2.13s-3.19-1-3.19-2.13a1.5,1.5,0,0,1,.17-.69A7.12,7.12,0,0,0,127.43,98.66Z"/><ellipse class="cls-14" cx="136.42" cy="99.97" rx="2.36" ry="2.25"/><ellipse class="cls-14" cx="118.44" cy="99.97" rx="2.36" ry="2.25"/><path id="_剪裁路徑_4" data-name="&lt;剪裁路徑&gt;" class="cls-2" d="M131.19,102.82a4.05,4.05,0,0,1-8.1,0"/><g class="cls-21"><ellipse class="cls-12" cx="128.11" cy="108.14" rx="3.88" ry="3.87"/></g><path class="cls-19" d="M146,98h-1.42v-12a4.24,4.24,0,0,0-5.17-4.14l-10,2.23a9.12,9.12,0,0,1-4.52.1L114.47,82a3,3,0,0,0-3.72,2.94V97.68h-2s-5.78-16.26.33-23.07,21.5-13,30.31-1.88c0,0,3.28-1,6.47,2.44C149.53,79.15,148.19,88.79,146,98Z"/><path class="cls-22" d="M104.88,162.75l-.09.1,0,.05h0l0,0s.07,0,.12,0a1,1,0,0,0,.35,0,4.94,4.94,0,0,0,.8-.18,7.4,7.4,0,0,0,1.63-.8,8.81,8.81,0,0,0,2.8-3,13.68,13.68,0,0,0,1.44-4.77c.13-.9.1-1.81.14-2.78s-.14-1.9-.23-2.89c.65.72,1.32,1.45,2,2.23s1.23,1.64,1.75,2.56a19.65,19.65,0,0,1,2.39,6.3,18.56,18.56,0,0,1-.31,7.6,19.83,19.83,0,0,1-1.41,3.87,20.4,20.4,0,0,1-1.08,1.88c-.19.31-.42.63-.67.95a6.17,6.17,0,0,1-.4.5l-.23.26-.06.07-.11.1-.23.2Z"/><path class="cls-22" d="M99.34,148.57c-11.16-.71-8.92,9.57-8.92,9.57v20.19l14.12.11c7.22,0,8.64-2.36,8.64-7.37C113.19,164.3,110.51,149.29,99.34,148.57Z"/><path class="cls-23" d="M92.93,178.45c0-.09,0-.18,0-.29V157.91a4.22,4.22,0,0,1,8.43.22v16.35c0,1.62,0,2.92.06,4H109V149.19c0-5.46-5.25-11.24-10.72-11.24h.81c-7.65,0-13.85,5.38-13.85,13v27.48Z"/><path class="cls-24" d="M92.14,178.53a1,1,0,0,0,.94-1.25,4.68,4.68,0,0,0-9,0,1,1,0,0,0,.94,1.25Z"/><path class="cls-24" d="M109.8,178.53a.72.72,0,0,0,.7-.87,4.68,4.68,0,0,0-9.17,0,.72.72,0,0,0,.7.87Z"/><path class="cls-24" d="M114.24,127.12c0,8.19-8.06,20.43-17.58,20.43S80.17,135.3,80.17,127.12v-1.32c0-8.19,7.52-13.24,17-13.24h0c9.51,0,17,5,17,13.24Z"/><path class="cls-25" d="M94.3,138.32l.09,9.76a3.15,3.15,0,0,0,3.14,3.17h.09a3.17,3.17,0,0,0,3-3.33l-.08-9.6Z"/><path class="cls-6" d="M105.48,137.57a6.69,6.69,0,0,0-2.23-3.71,8.92,8.92,0,0,1-3-5.59c-.69-5.77-2.08-15.83-2.08-15.83l-2.08.14L94.5,128.07a7.31,7.31,0,0,1-3,5.22,7,7,0,0,0-2.94,4.28c-.65,3.45,3.68,5.82,8.45,5.82S106.13,141,105.48,137.57Z"/><path class="cls-26" d="M97.08,134.32h-.26c-3.59.05-6,1.46-4.09,3.86,3.51,4.41,6.51,2.2,8.71,0S100.92,134.38,97.08,134.32Z"/><path class="cls-24" d="M83,121.31s-.49-15,1.9-15.82,7.43,8.73,7.43,8.73Z"/><path class="cls-24" d="M110.45,121.31s.49-15-1.9-15.82-7.43,8.73-7.43,8.73Z"/><path class="cls-13" d="M103.61,114l3-4.08a.46.46,0,0,1,.83.23l.61,5.78Z"/><path class="cls-13" d="M90.26,114.29,87,110.42a.46.46,0,0,0-.81.28l-.22,5.8Z"/><ellipse class="cls-26" cx="105.05" cy="126.62" rx="1.06" ry="1.7"/><ellipse class="cls-26" cx="89.12" cy="126.62" rx="1.06" ry="1.7"/><path class="cls-10" d="M161,161.5c-.24.13-.2.17-.22.23a.18.18,0,0,0,0,.15.64.64,0,0,0,.15.26,2.51,2.51,0,0,0,.46.44,5.93,5.93,0,0,0,1.2.66,8.62,8.62,0,0,0,2.93.62,10.23,10.23,0,0,0,3.3-.4,13.26,13.26,0,0,0,3.39-1.53,15.48,15.48,0,0,1,.65,4,16.43,16.43,0,0,1-.5,4.5,18.78,18.78,0,0,1-1.83,4.61,19.13,19.13,0,0,1-1.46,2.25c-.29.37-.58.74-.94,1.11a7.43,7.43,0,0,1-.57.56,3.3,3.3,0,0,1-.35.29,2.43,2.43,0,0,1-.59.36Z"/><path class="cls-19" d="M155.36,150.13c-10.58-.68-8.46,9.07-8.46,9.07v19.14l13.39.11c6.85,0,8.2-2.24,8.2-7C168.48,165,165.94,150.8,155.36,150.13Z"/><path class="cls-18" d="M148.76,177.94c0-.08,0-.17,0-.27V159.89a4,4,0,0,1,8,.21v14.09c0,1.53,0,2.77.06,3.76H164V153.66c0-5.18-5-10.65-10.16-10.65h.77a13.12,13.12,0,0,0-13.13,13.1v21.83Z"/><path class="cls-27" d="M148,178.53a.93.93,0,0,0,.89-1.19,4.44,4.44,0,0,0-8.5,0,.93.93,0,0,0,.89,1.19Z"/><path class="cls-27" d="M165.53,178.53a.68.68,0,0,0,.66-.83,4.44,4.44,0,0,0-8.69,0,.68.68,0,0,0,.66.83Z"/><path class="cls-27" d="M136.78,137.6c0-7,7.76-17.53,16.79-17.53s15.74,10.5,15.74,17.53v1.14c0,7-7.25,11.36-16.26,11.36h0c-9,0-16.26-4.33-16.26-11.36Z"/><path class="cls-28" d="M137.21,139.38c.43,6.65,6.09,10.84,15.85,10.72,8.74-.11,16.08-4.07,16.5-10.72H164a6.79,6.79,0,0,1-6.59-5.14l-3.53-14.17L149,134.75a6.79,6.79,0,0,1-6.44,4.63Z"/><ellipse class="cls-6" cx="153.15" cy="143.95" rx="8.7" ry="6.27"/><path class="cls-26" d="M152.91,140h-.51c-3.07,0-4.82,1.22-3.23,3.21,2.92,3.67,5.48,1.83,7.32,0S156,140.07,152.91,140Z"/><path class="cls-18" d="M147.43,122.41s-1.67-2.35-6.91,0-6,7.74-6.52,12.06c-.76,6.07-6.22,14.21,3.34,12.24S134.1,126.7,147.43,122.41Z"/><path class="cls-18" d="M160.48,122.41s1.87-2.19,6.88.6,5.24,8.25,5.38,12.6c.2,6.12,4.89,14.72-4.45,11.89S173.39,129.44,160.48,122.41Z"/><path class="cls-25" d="M150.35,147.61l.08,3.42a2.9,2.9,0,0,0,3,2.85h.08a2.9,2.9,0,0,0,2.81-3l-.08-3.27Z"/><ellipse class="cls-15" cx="159.22" cy="133.8" rx="1.12" ry="1.79"/><ellipse class="cls-15" cx="146.43" cy="134.08" rx="1.12" ry="1.79"/><path class="cls-10" d="M42,179.32a2.31,2.31,0,0,1-.4-.22l-.27-.19c-.17-.12-.33-.25-.47-.37-.3-.24-.56-.49-.83-.74a17.34,17.34,0,0,1-1.4-1.56,16.64,16.64,0,0,1-2.09-3.37,15.33,15.33,0,0,1-1.17-3.53,15.77,15.77,0,0,1-.31-3.45A14.42,14.42,0,0,0,37.54,168a11.59,11.59,0,0,0,2.64,1.37,10.42,10.42,0,0,0,2.67.62,8.79,8.79,0,0,0,1.27,0,4.93,4.93,0,0,0,.58-.07,1.13,1.13,0,0,0,.25-.06.18.18,0,0,0,.09,0s.07,0,0-.09Z"/><path class="cls-18" d="M42.81,162.7l7.12,5.1v10.91l-6.38.05c-3.26,0-5-.69-5-3C38.52,172.66,40.73,164.52,42.81,162.7Z"/><path class="cls-27" d="M49,178.76s0-.08,0-.13v-9.37a1.9,1.9,0,0,0-3.81.1v7.58c0,.74,0,1.34,0,1.82H41.77V161.08h4.47a6.3,6.3,0,0,1,6.25,6.35v11.33Z"/><path class="cls-28" d="M49.39,178.8a.45.45,0,0,1-.43-.57,2.1,2.1,0,0,1,4.05,0,.45.45,0,0,1-.43.57Z"/><path class="cls-28" d="M41.7,178.8a.33.33,0,0,1-.32-.4,2.11,2.11,0,0,1,4.14,0,.33.33,0,0,1-.32.4Z"/><path class="cls-27" d="M37.32,151.15a7.6,7.6,0,0,1-5.08-3c-1.46-2.07-1.81-4.87-1-8.31l.25-1.07,1.06-.22a9.5,9.5,0,0,1,2-.19c4.76,0,7.47,2.7,7.47,7.21v.6l-3.91,5.09Z"/><path class="cls-13" d="M37.48,149.45s-6.6-.65-4.62-9.25c0,0,7.71-1.58,7.71,5.35Z"/><path class="cls-27" d="M56.94,151.15a7.6,7.6,0,0,0,5.08-3c1.46-2.07,1.81-4.87,1-8.31l-.25-1.07-1.06-.22a16.35,16.35,0,0,0-2.39-.19c-4.76,0-7.86,2.7-7.86,7.21v.6l4.29,5.09Z"/><path class="cls-13" d="M56.78,149.45s6.6-.65,4.62-9.25c0,0-7.71-1.58-7.71,5.35Z"/><path class="cls-27" d="M35.35,152c0,5.33,5.36,13.3,11.77,13.3s11-8,11-13.3v-.86c0-5.33-5-8.62-11.4-8.62h0c-6.4,0-11.4,3.29-11.4,8.62Z"/><path class="cls-28" d="M38.27,159.86a11.29,11.29,0,0,0,9.19,5.41c3.68,0,6.77-2.63,8.74-5.88L53,156.88a9.25,9.25,0,0,0-11.27-.11Z"/><ellipse class="cls-15" cx="52.17" cy="153.08" rx="1.07" ry="1.75"/><ellipse class="cls-15" cx="42.51" cy="153.08" rx="1.07" ry="1.75"/><rect class="cls-28" x="46.06" y="147.35" width="2.64" height="12.56" rx="1.28" ry="1.28"/><path class="cls-26" d="M47.38,157.61h.26c1.54,0,2.76.51,2.18,1.89-1,2.44-3.52,2.44-4.36,0C45,158.09,45.85,157.64,47.38,157.61Z"/><path class="cls-25" d="M46.27,162.81l0,1.91a1.58,1.58,0,0,0,1.58,1.59h0a1.59,1.59,0,0,0,1.5-1.67l0-1.83Z"/><rect class="cls-29" y="18.7" width="204.91" height="22.55"/><rect class="cls-11" y="20.95" width="204.91" height="18.05"/><path class="cls-25" d="M99.52,57.69c-3.59-2-6.72,1.28-6.72,4.11,0-2.83-3.13-6.15-6.72-4.11C81.2,60.47,86,68.94,92.8,71.42,99.69,68.71,104.39,60.47,99.52,57.69Z"/><path class="cls-25" d="M163.5,98.09c-2.69-1.53-5,1-5,3.07,0-2.12-2.35-4.61-5-3.07-3.65,2.08,0,8.43,5,10.28C163.63,106.34,167.15,100.17,163.5,98.09Z"/><path class="cls-25" d="M157.89,73a1.76,1.76,0,0,0-2.59,1.58A1.76,1.76,0,0,0,152.71,73c-1.88,1.07,0,4.33,2.59,5.29C158,77.26,159.77,74.09,157.89,73Z"/><path class="cls-25" d="M41.94,127.76a1.76,1.76,0,0,0-2.59,1.58,1.76,1.76,0,0,0-2.59-1.58c-1.88,1.07,0,4.33,2.59,5.29C42,132,43.82,128.83,41.94,127.76Z"/><path class="cls-25" d="M44.2,121.29a1.08,1.08,0,0,0-1.59,1,1.08,1.08,0,0,0-1.59-1c-1.15.66,0,2.66,1.59,3.25C44.24,123.9,45.35,121.95,44.2,121.29Z"/><path class="cls-25" d="M108.14,53.78a1.08,1.08,0,0,0-1.59,1,1.08,1.08,0,0,0-1.59-1c-1.15.66,0,2.66,1.59,3.25C108.18,56.39,109.29,54.44,108.14,53.78Z"/><path class="cls-25" d="M36.81,112.5a1.08,1.08,0,0,0-1.59,1,1.08,1.08,0,0,0-1.59-1c-1.15.66,0,2.66,1.59,3.25C36.85,115.11,38,113.16,36.81,112.5Z"/><path class="cls-25" d="M97.94,90.37a1.64,1.64,0,0,0-2.42,1.48,1.64,1.64,0,0,0-2.42-1.48c-1.76,1,0,4.05,2.42,4.95C98,94.34,99.69,91.37,97.94,90.37Z"/></g><circle class="cls-4" cx="101.51" cy="117.17" r="85.58" transform="translate(-28.46 201.67) rotate(-82.13)"/></g></g></g></svg>