<svg xmlns="http://www.w3.org/2000/svg" xmlns:xlink="http://www.w3.org/1999/xlink" viewBox="0 0 136.37 180.09"><defs><style>.cls-1,.cls-2{fill:none;}.cls-2{stroke:#f08244;stroke-miterlimit:10;stroke-width:10px;}.cls-3{clip-path:url(#clip-path);}.cls-4{fill:#d8edee;}.cls-16,.cls-5{fill:#fff;}.cls-6{fill:#d5de2d;}.cls-7{fill:#30a030;}.cls-8{fill:#7bad1a;}.cls-15,.cls-9{fill:#e6e6e7;}.cls-10{fill:#f05a2a;}.cls-11{fill:#c6421e;}.cls-12{fill:#d0d2d3;}.cls-13{fill:#a6a8ab;}.cls-14{fill:#403f41;}.cls-15{opacity:0.2;}.cls-16{opacity:0.4;}.cls-17{fill:#c4b79e;}.cls-18{fill:#b1591d;}.cls-19{fill:#d66c27;}.cls-20{fill:#44a78a;}.cls-21{fill:#642304;}.cls-22{fill:#3b2210;}</style><clipPath id="clip-path"><circle class="cls-1" cx="69" cy="69.52" r="58.31" transform="translate(-4.18 4.42) rotate(-3.56)"/></clipPath></defs><title>資產 8</title><g id="圖層_2" data-name="圖層 2"><g id="圖層_1-2" data-name="圖層 1"><path class="cls-2" d="M42.2,129.35l-21.8,48.7Z"/><g class="cls-3"><rect class="cls-4" x="3.87" y="3.87" width="128.63" height="128.63" transform="translate(-4.1 4.37) rotate(-3.56)"/><path class="cls-5" d="M36.4,24a6,6,0,0,0-1.65.71l-.06-.26a6.25,6.25,0,0,0-11.79-.89,5.48,5.48,0,0,0-8,3.86A5.31,5.31,0,0,0,9,32.92l34.89-2.17A6,6,0,0,0,36.4,24Z"/><path class="cls-5" d="M48.22,39.86a3.51,3.51,0,0,0-.76.29,4.05,4.05,0,0,0-.09-.45A4,4,0,0,0,39.92,39,3.57,3.57,0,0,0,34,41.19a4,4,0,0,0-4.34,3.31l22.94-1.43a3.49,3.49,0,0,0-4.37-3.21ZM40.49,43.6l.1-.16.25.24Z"/><path class="cls-5" d="M110.11,23.67a2.75,2.75,0,0,0-.59.23,3.08,3.08,0,0,0-.07-.35,3.12,3.12,0,0,0-5.82-.58A2.79,2.79,0,0,0,99,24.71a3.09,3.09,0,0,0-3.39,2.58l17.91-1.11a2.73,2.73,0,0,0-3.41-2.51Zm-6,2.92.08-.12.2.19Z"/><circle class="cls-6" cx="20.07" cy="89.84" r="10.91" transform="translate(-5.54 1.42) rotate(-3.56)"/><circle class="cls-6" cx="38.52" cy="84.83" r="11.08" transform="translate(-5.19 2.56) rotate(-3.56)"/><circle class="cls-6" cx="110.83" cy="79.37" r="6.77" transform="translate(-4.72 7.04) rotate(-3.56)"/><circle class="cls-6" cx="96.43" cy="79.01" r="9.79" transform="translate(-4.72 6.14) rotate(-3.56)"/><circle class="cls-7" cx="29.25" cy="85.28" r="5.86" transform="translate(-5.24 1.98) rotate(-3.56)"/><circle class="cls-7" cx="120.89" cy="81.96" r="5.86" transform="translate(-4.86 7.67) rotate(-3.56)"/><circle class="cls-7" cx="101.99" cy="79.58" r="5.86" transform="translate(-4.75 6.49) rotate(-3.56)"/><rect class="cls-8" x="6.35" y="83.76" width="128.63" height="48.67" transform="translate(-6.58 4.6) rotate(-3.56)"/><rect class="cls-9" x="89.23" y="79.36" width="14.48" height="1.85" transform="translate(-4.8 6.15) rotate(-3.56)"/><rect class="cls-9" x="89.54" y="84.39" width="14.48" height="1.85" transform="translate(-5.11 6.17) rotate(-3.56)"/><rect class="cls-5" x="90.75" y="77.9" width="2.66" height="12.29" transform="translate(-5.04 5.88) rotate(-3.56)"/><polygon class="cls-5" points="90.37 78.02 93.02 77.85 91.61 76.54 90.37 78.02"/><rect class="cls-5" x="95.46" y="77.61" width="2.66" height="12.29" transform="translate(-5.01 6.17) rotate(-3.56)"/><polygon class="cls-5" points="95.08 77.72 97.74 77.56 96.32 76.24 95.08 77.72"/><rect class="cls-5" x="100.16" y="77.32" width="2.66" height="12.29" transform="translate(-4.99 6.46) rotate(-3.56)"/><polygon class="cls-5" points="99.78 77.43 102.44 77.27 101.02 75.95 99.78 77.43"/><rect class="cls-9" x="35.45" y="82.69" width="14.48" height="1.85" transform="translate(-5.11 2.81) rotate(-3.56)"/><rect class="cls-9" x="35.76" y="87.72" width="14.48" height="1.85" transform="translate(-5.42 2.84) rotate(-3.56)"/><rect class="cls-5" x="46.19" y="80.66" width="2.66" height="12.29" transform="translate(-5.3 3.12) rotate(-3.56)"/><polygon class="cls-5" points="45.81 80.77 48.46 80.61 47.05 79.29 45.81 80.77"/><rect class="cls-5" x="41.48" y="80.95" width="2.66" height="12.29" transform="translate(-5.33 2.83) rotate(-3.56)"/><polygon class="cls-5" points="41.1 81.07 43.75 80.9 42.34 79.58 41.1 81.07"/><rect class="cls-5" x="36.78" y="81.25" width="2.66" height="12.29" transform="translate(-5.35 2.53) rotate(-3.56)"/><polygon class="cls-5" points="36.4 81.36 39.05 81.19 37.64 79.88 36.4 81.36"/><path class="cls-8" d="M68.32,90h0S68.33,90,68.32,90Z"/><path class="cls-8" d="M74.63,89.91l-.07,0Z"/><path class="cls-8" d="M71.65,90l0,0C71.52,90.16,71.5,90.17,71.65,90Z"/><path class="cls-8" d="M107.56,88.17a1.28,1.28,0,0,1-.6,0c-1.23.15-2.19.21-2.5-.24-1.31.55-1.75.57-2.36,0-.12.57-.43.53-1.4-.14.25.67-.29.36-1.73.21.5.2.1.57-.77.38,0-.05-.38-.26-.81-.58-.21.53-.44.81-.77.85a2.39,2.39,0,0,1-1.39-.51c.49.63.26.48-.23-.31-.23.72-.88.91-1.75.9a1.93,1.93,0,0,1-1.38-.06,5.13,5.13,0,0,1-1.76-.82,1.62,1.62,0,0,1-.67,1,1.16,1.16,0,0,1-.83.34c-.7.2-1.19.21-.9-.31-1.28.6-1.84.65-1.67-.53-.92.85-1.52,1.15-2.31.87a5.24,5.24,0,0,1-1.39-.86c-.05.47-.21.8,0,.83-.74.41-1.1.52-.35.1-1.64.53-2.16.52-1.41-.69-1.64,1.3-2.09,1.37-2.77-.28a2.36,2.36,0,0,1-.51,1.22,1.1,1.1,0,0,1-1,.26,3.22,3.22,0,0,1-1.89-.62c.11.55,0,.79.15.78l.07,0-.07,0c-.94.36-1.56.39-1-.11-1.16.46-1.67.53-1.94.13-.15.22-.14.21,0,0l0,0,.39-.57c-.43.56-.75.66-1.29.34,0,.47-.21.53-.85.25-.12.39-.5.36-.89-.06.07.18-.2.34-.66.09,0,.06-.17.32-.23,0-.28.38-.39-.25-.64-.13,0,.19-.06.27-.09.26a3.84,3.84,0,0,1-1,.42,5.62,5.62,0,0,1-.81.16,6.28,6.28,0,0,1-1.86-.26c.15.12-.2.39-1.06.41.54-.05-.37-.6-.37-.6-.25.34-.28.65-1,.59,0-.08-.72.1-.77-.5a2.89,2.89,0,0,1-1.21.73,7,7,0,0,1-1.79.09c-.61,0-.67-.09-1.09-.41-.45.42-1.38.74-1.24.15-1.08.71-1.66,1-2.09,0-.82,1.06-1.51.73-2.67,0,.08.7-.36.64-.94.22a1.83,1.83,0,0,1-1.38.58,5.19,5.19,0,0,1-1.44,0,6,6,0,0,1-1.48-.44c-.46.8-1.38.86-2.7.78a4.48,4.48,0,0,1-1.58.26l-1.78.11.42,6.78L107.82,95l-.27-4.39a4.65,4.65,0,0,1,.08-1.68C107.41,88.46,107.39,88.19,107.56,88.17Z"/><path class="cls-8" d="M51.94,91.55a1.16,1.16,0,0,1-.83.34c-.7.2-1.19.21-.9-.31-1.28.6-1.84.65-1.67-.53-.92.85-1.52,1.15-2.31.87a5.24,5.24,0,0,1-1.39-.86c-.05.47-.21.8,0,.83-.74.41-1.1.52-.35.1-1.64.53-2.16.52-1.41-.69-1.64,1.3-2.09,1.37-2.77-.28a2.36,2.36,0,0,1-.51,1.22,1.1,1.1,0,0,1-1,.26,3.22,3.22,0,0,1-1.89-.62c.11.55,0,.79.15.78-.94.36-1.56.38-1-.11-1.16.46-1.67.53-1.94.13l.39-.57c-.43.56-.75.66-1.29.34,0,.45-.2.52-.78.28.19,2.43.5,4.85.76,7.28l21.3-1.33-.46-7.4a4.37,4.37,0,0,1-1.45-.72A1.62,1.62,0,0,1,51.94,91.55Z"/><polygon class="cls-10" points="99.23 92.46 87.27 102.7 108.5 130.12 133.27 128.58 99.23 92.46"/><polygon class="cls-11" points="105.38 98.98 99.23 92.46 87.27 102.7 108.5 130.12 120.63 129.36 99.19 104.28 105.38 98.98"/><polygon class="cls-12" points="87.27 102.7 94.9 112.56 107.79 101.54 99.23 92.46 87.27 102.7"/><polygon class="cls-13" points="87.05 102.9 94.89 112.54 101.45 106.93 93.15 97.69 87.05 102.9"/><path class="cls-14" d="M42.23,37.92a41.16,41.16,0,1,0,58,4.53A41.16,41.16,0,0,0,42.23,37.92Zm49.34,57.7a34.76,34.76,0,1,1,3.83-49A34.76,34.76,0,0,1,91.57,95.62Z"/><circle class="cls-15" cx="68.98" cy="69.2" r="36.39" transform="translate(-28.42 61.44) rotate(-40.53)"/><path class="cls-16" d="M81.93,41.58A31,31,0,0,0,46,48.78s19,3.71,29.59,8.61c10.88,5.05,24,16.25,24,16.25A31,31,0,0,0,81.93,41.58Z"/><ellipse class="cls-17" cx="71.77" cy="87.73" rx="25.54" ry="2.61" transform="translate(-5.31 4.63) rotate(-3.56)"/><path class="cls-18" d="M61.4,77.93a9.73,9.73,0,0,0,1.46,2c.64.55,1.58,6.36,1,7.06a2.84,2.84,0,0,1-1.26.91c-.34.22-.2.94-.2.94l3.2-.2.81-9.23,1.77,1s1,1.14,2,.9A3.87,3.87,0,0,0,72.64,86l0,.58s-1.66.14-2.46.22-1.13,1.64-.79,1.62l2.48-.15,5-1.82-8.67-9.38Z"/><path class="cls-19" d="M74.2,88.25l.2-.07L75,88l2-.64,1.31-.41,1.44-.46c1-.33,2-.68,3.07-1.08.51-.2,1-.4,1.51-.62s1-.44,1.42-.67c.23-.11.44-.24.66-.35s.41-.25.61-.36A12.81,12.81,0,0,0,88,82.63c.17-.12.31-.25.46-.37l.21-.18.19-.18c.25-.23.45-.45.62-.63s.28-.34.37-.45l.14-.16,0,.21-.06.25a2,2,0,0,1-.1.33,5.71,5.71,0,0,1-.37.87,4.18,4.18,0,0,1-.29.51,6,6,0,0,1-.38.53,8.74,8.74,0,0,1-1,1.08c-.19.17-.39.36-.61.52s-.44.34-.67.49l-.35.24-.37.22c-.25.15-.5.29-.77.42a17.42,17.42,0,0,1-1.62.72c-.55.2-1.11.4-1.67.55-.28.08-.56.15-.83.22l-.82.18a20.51,20.51,0,0,1-3,.36c-.44,0-.84,0-1.19,0s-.67,0-.92,0-.46,0-.59-.06Z"/><path class="cls-19" d="M60.2,62.83c.21.57-1.07,10-.6,11.77s.84,3.59,5.61,5.6a26.73,26.73,0,0,1,0,8s-1.05.32-1.21.59.27.84.27.84l2.13-.13a37.74,37.74,0,0,0,2.28-10.16c.18,2.17,2.5,1.81,2.5,1.81s-.55,4.56,3.71,5.85c-.66.12-1.31.25-2.41.41s-2.16,1-1.15,1.44,9.43-1.14,11-1.88c.49-.37.56-7.44-2.21-10S69.09,68.87,67.87,65.69s.38-8.32-.22-9-1.93-2.79-4.9-2.31C56.66,56.24,51,50.77,51,50.77S51.42,60.06,60.2,62.83Z"/><path class="cls-20" d="M60.13,68.17c-1.31-.66-.43-1.94-.07-1.72s3,2.18,7.74-.47c0,0-.08-.39-.11-.81,1.21,0,1.27,1.79.64,2.31A8,8,0,0,1,60.13,68.17Z"/><ellipse class="cls-5" cx="63.21" cy="55.83" rx="1.7" ry="1.25" transform="translate(-12.96 92.03) rotate(-66.87)"/><circle class="cls-21" cx="62.95" cy="55.32" r="0.73" transform="translate(-12.65 91.48) rotate(-66.87)"/><ellipse class="cls-5" cx="60.92" cy="54.18" rx="1.7" ry="1.25" transform="translate(-12.83 88.92) rotate(-66.87)"/><circle class="cls-21" cx="60.67" cy="53.66" r="0.73" transform="translate(-12.51 88.37) rotate(-66.87)"/><path class="cls-22" d="M65.93,55.49c0,.48,0,.54.07,1.12.5,1.8-1.3,4.35-.68,5s4.16,1.76,4.73.64,0-4.62-.35-5.69S65.9,55,65.93,55.49Z"/><path class="cls-22" d="M58.87,61a8.53,8.53,0,0,1-2.39-.29l.13-.5c.65.17,2.47.51,3.13,0a.55.55,0,0,0,.23-.46h.51a1.07,1.07,0,0,1-.43.86A2.22,2.22,0,0,1,58.87,61Z"/><circle class="cls-22" cx="51.03" cy="51.09" r="1.72" transform="translate(-3.07 3.27) rotate(-3.56)"/></g><circle class="cls-2" cx="69.06" cy="69.83" r="60.58" transform="translate(-17.07 117.04) rotate(-74.05)"/></g></g></svg>