<svg xmlns="http://www.w3.org/2000/svg" viewBox="0 0 281.72 116.87"><defs><style>.cls-1{fill:#b4b4b4;}.cls-2{fill:#ff858b;}.cls-3{fill:#c6c4c1;}.cls-4{fill:#b2cec0;}.cls-5{fill:#b3b3b3;}.cls-6{fill:#bfbfbf;}.cls-7{fill:#65c8d0;}.cls-8{fill:#e6e6e6;}.cls-9{fill:#f2f2f2;}.cls-10{fill:#fff;}.cls-11{fill:#333;}.cls-12{fill:#c4c4c4;}.cls-13{fill:#3e3b3f;fill-rule:evenodd;}.cls-14{fill:none;stroke:#ff858b;stroke-linecap:round;stroke-linejoin:round;stroke-width:0.11px;}</style></defs><title>9</title><g id="圖層_2" data-name="圖層 2"><g id="圖層_1-2" data-name="圖層 1"><g id="_群組_" data-name="&lt;群組&gt;"><g id="_群組_2" data-name="&lt;群組&gt;"><path id="_路徑_" data-name="&lt;路徑&gt;" class="cls-1" d="M59.69,68.67c.73-5.39,4-1.75,7.25,8.12s5.33,22.24,4.6,27.62-4,1.75-7.25-8.12S59,74.05,59.69,68.67Z"/></g><path id="_路徑_2" data-name="&lt;路徑&gt;" class="cls-2" d="M86.36,103.18l6.81-1.57,7.64-1.77,1.3-.3L124,94.48l2.27-.52,6.91-1.6,16.61-3.84,7.89-1.82,6.94-1.6,2.19-.51,22-5.08,1.29-.3,7.66-1.77,6.8-1.57,5.4-1.25,10.61-2.45c.56-.13,1-.93,1.19-2.47.06-.42.09-.89.11-1.38,0-.14,0-.29,0-.44q0-.6,0-1.26c0-.1,0-.18,0-.28s0-.12,0-.17c0-.29,0-.6,0-.9s0-.33,0-.5,0-.1,0-.15,0-.33,0-.49,0-.46-.05-.7,0-.22,0-.33l0-.45c0-.15,0-.3,0-.46s-.06-.52-.09-.77l0-.29V61q-.07-.57-.15-1.16l0-.28-.05-.34-.08-.53c-.05-.35-.11-.71-.17-1.07v-.06h0q-.09-.57-.2-1.14l-.1-.54-.06-.32-.05-.28q-.11-.57-.23-1.15l-.05-.24-.07-.32-.12-.59q-.12-.57-.25-1.15v0l-.26-1.12-.15-.63-.08-.33-.06-.25q-.16-.64-.33-1.28l0-.18-.14-.54-.23-.87,0-.16c-.41-1.47-.85-2.93-1.31-4.33-.16-.5-.33-1-.49-1.44l-.16-.43-.34-.92-.08-.22L216,38.9c-.23-.59-.45-1.15-.68-1.68l0-.09-.09-.2q-.2-.47-.4-.89l-.09-.19-.07-.13-.29-.58-.12-.24,0-.08-.22-.4-.15-.28,0-.06-.16-.28-.17-.28,0-.07-.15-.22-.15-.22-.07-.09-.14-.19-.11-.15-.09-.11-.13-.15-.08-.09-.12-.12-.12-.12,0,0-.17-.13-.09-.07,0,0a1.76,1.76,0,0,0-.27-.15h0a1.08,1.08,0,0,0-.26-.08h-.3L60.88,66.19c-.56.13-1,.93-1.18,2.47-.06.42-.09.89-.11,1.38,0,.14,0,.29,0,.44q0,.6,0,1.26c0,.1,0,.18,0,.27s0,.12,0,.17c0,.29,0,.6,0,.91s0,.32,0,.49v.15c0,.16,0,.34,0,.5s0,.46.05.7,0,.22,0,.33l0,.46c0,.15,0,.3,0,.46s.06.51.09.77l0,.29v.12q.07.57.15,1.16l0,.28.05.35.08.52q.08.54.17,1.08v.06q.09.57.2,1.14l.1.54.06.33.05.28q.11.57.23,1.15l.05.25.06.31.13.6.25,1.15v0l.26,1.12.15.63.08.32.06.25q.16.64.33,1.28l0,.18.14.52.24.88L63,92c.41,1.47.85,2.93,1.31,4.33.16.5.33,1,.49,1.44l.16.44.34.92.08.22.06.16c.23.59.45,1.15.68,1.68l0,.09.09.2q.2.46.4.89l.09.19.07.14.28.57.12.24,0,.08.22.4.15.28,0,.06.16.28.17.28,0,.07.15.22.15.22.07.09.14.19.11.15.09.11.13.15.08.09.12.12.12.12,0,0,.17.13.09.07,0,0a1.71,1.71,0,0,0,.27.15h0a1.11,1.11,0,0,0,.26.08h.3L81,104.43Z"/><g id="_群組_3" data-name="&lt;群組&gt;"><path id="_路徑_3" data-name="&lt;路徑&gt;" class="cls-3" d="M209.88,33.95c.73-5.39,4-1.75,7.25,8.12s5.33,22.24,4.6,27.62-4,1.75-7.25-8.12S209.15,39.34,209.88,33.95Z"/></g></g><ellipse class="cls-4" cx="52.44" cy="111.3" rx="40.47" ry="5.58"/><path class="cls-5" d="M28.1,62.22c-2.67-1.79-9.11-3.5-12.2-4.36a19.3,19.3,0,0,0-11.06.53,29.72,29.72,0,0,0-3.4,1.36A2.44,2.44,0,0,0,2,64.36a47.81,47.81,0,0,1,18.66,8Z"/><path class="cls-5" d="M61.57,99.25s-2,9.27,1.68,11.74,7.77.18,7.77.18l-.09-12.72-9.71.88Z"/><path class="cls-5" d="M43.44,99.19s2,9.27-1.68,11.74-7.77.18-7.77.18l.09-12.72,9.71.88Z"/><path class="cls-6" d="M86,60.51a29.87,29.87,0,0,1-.36,29.07C84.37,91.69,82.85,93.67,82,96c-1.16,3.27-.8,6.87-1.36,10.3s-2.59,7.12-6,7.64c-2.74.42-5.41-1.42-6.85-3.79s-1.91-5.17-2.39-7.89a1.59,1.59,0,0,0-.53-1.11,1.57,1.57,0,0,0-.68-.2,147,147,0,0,0-25.64-1.15,2.28,2.28,0,0,0-1.13.25c-.73.46-.71,1.5-.62,2.35a17.82,17.82,0,0,1-.11,6.09,6.77,6.77,0,0,1-3.57,4.71c-2.31,1-5.11.13-7-1.55a16.89,16.89,0,0,1-4-6.36c-2.9-7.05-4.68-14.51-6.44-21.92a25.11,25.11,0,0,1-1-6.66,19.73,19.73,0,0,1,1.51-6.33,17.36,17.36,0,0,1,2.79-5.09c2.51-3,6.41-4.31,10.17-5.26a78.43,78.43,0,0,1,10.19-1.86c5.37-.62,11.06-.76,15.68-3.56"/><path class="cls-6" d="M19.33,88.38c-2.35,5.35.23,7.68-3.17,12.64,3.38-.51,1.15,1.15,3.84-.61.31,1.42-.76,3.53-.07,4.85,1.49-1.06,4.18-3.21,4.73-4.76A26,26,0,0,0,29.4,105a1.15,1.15,0,0,0,.71.29,1,1,0,0,0,.77-.63l2.73-4.81L37,102.71a1,1,0,0,0,1.63,0l2.34-1.93,2.61,2.79c1.13-.32,1-1.79,1.91-2.39a2.51,2.51,0,0,1,2.63.38,19.64,19.64,0,0,0,2,1.7c.8.45,2.09.49,2.56-.2s-.15-2.13.88-2.42c0,1,1.78,1.28,2.94.94s2.35-1,3.52-.66,2.23,1.84,3.51,1.44c.63-.19.93-.78,1.4-1.18,1.46-1.25,4.16-.36,5.43,1-.26-.66.44-1.39,1.28-1.51a2.91,2.91,0,0,1,2.25.76c.84.74,1.66,1.94,2.84,1.64s5.51-.35,6.57-.65c0,0-1.77-1.65,0-2.94s.71-5.65.71-5.65Z"/><path class="cls-5" d="M15.66,80.79c-.54,4.57-1,13.07-1.5,17.64a15.18,15.18,0,0,0,2.63-4.55l2.81,5,3.32-6.73c2.34,3.78,6.28,6,10.06,8.1l2.59-6.42,1.83,3c.14.23.31.48.56.53a.91.91,0,0,0,.69-.32l3-2.6c.41,1.29,1.34,2.88,2.55,2.46s1.55-2.84,2.88-2.72c.53,0,.92.51,1.33.86a3.6,3.6,0,0,0,4.93-.47c.5-.59,1-1.44,1.76-1.27.4.09.67.48.93.82a9.47,9.47,0,0,0,5.65,3.62,15.1,15.1,0,0,1,1.76-4.45q4.17,2.29,8.13,5l.61-5.63a18.93,18.93,0,0,1,7.06,8.62L81,95.4a1,1,0,0,1,.41-.66c.37-.19.77.16,1,.48l2.31,2.7,1.77-3.32a6.71,6.71,0,0,0,4.56,3.26l-1.39-8A4.83,4.83,0,0,0,93,91.6a99.25,99.25,0,0,0-5.4-13.65Z"/><path class="cls-6" d="M17.87,69.69A95.18,95.18,0,0,1,9.24,85.19a23.58,23.58,0,0,0,9.3-3.48A16.67,16.67,0,0,0,20,85.85a8.61,8.61,0,0,0,3.16-4,26,26,0,0,0,4.73,4.5,1.15,1.15,0,0,0,.71.29,1,1,0,0,0,.77-.63l2.73-4.81L35.52,84a1,1,0,0,0,1.63,0l2.34-1.93,2.61,2.79c1.13-.32,1-1.79,1.91-2.39a2.51,2.51,0,0,1,2.63.38,19.63,19.63,0,0,0,2,1.7c.8.45,2.09.49,2.56-.2s-.15-2.13.88-2.42c0,1,1.78,1.28,2.94.94s2.35-1,3.52-.66,2.23,1.84,3.51,1.44c.63-.19.93-.78,1.4-1.18,1.46-1.25,4.16-.36,5.43,1-.26-.66.44-1.39,1.28-1.51a2.91,2.91,0,0,1,2.25.76c.84.74,1.66,1.94,2.84,1.64s1.24-1.61,2.29-1.9c1.4-.39,2.58,1.42,4,1.17,1.11-.19,1.75-1.52,2.85-1.31a2,2,0,0,1,.84.44l2.56,1.93c.23-1.44,5.37-3.18,6.72-2.23-1.13-3.69-4.84-6.32-6-10a15.36,15.36,0,0,0-2.13-4.85c-1.85-2.49-5.1-4-8.34-5.26s-6.66-2.23-9.42-4.07c-1.46-1-2.83-2.21-4.68-2.45a11.84,11.84,0,0,0-4.73.82c-7.31,2.09-15.4.86-23,2a70.79,70.79,0,0,0-9.74,2.44,12.75,12.75,0,0,0-4.57,2.05c-.89.75-1.46,1.72-2.26,2.53-2.51,2.53-6.82,3.19-10.75,3.67a56.45,56.45,0,0,0,8.79,1Z"/><path class="cls-7" d="M77.92,73.1a1.65,1.65,0,0,1-1.18.15C66.92,70.7,56.38,59,53.47,54.53l0-.07a3.72,3.72,0,0,1-.18.35l-1,.82c-.47.75.26,2.1.75,2.86C55.91,63,66.45,74.66,76.26,77.21a1.65,1.65,0,0,0,1.18-.15c2.36-1.23,11.34-6.16,14.15-11.43,0,0,1.06-1.83,0-3.13C88.32,67.45,80.15,71.94,77.92,73.1Z"/><path class="cls-5" d="M87.7,23.81s15.36-2.64,18.9,4.77,9,20.55,1.46,18.59-11.88-13.36-14-12S87.7,23.81,87.7,23.81Z"/><path class="cls-5" d="M63.69,23s-15-4.28-19.3,2.7S33.24,45.13,40.93,44,54.19,32,56.19,33.54,63.69,23,63.69,23Z"/><path class="cls-6" d="M49.24,46.1c-.16,17.65,11.64,20.1,25.28,20.22s23.95-2.13,24.1-19.78S87.12,20.2,75.69,20.28C63.53,20.36,49.39,28.45,49.24,46.1Z"/><path class="cls-8" d="M52.35,52.6C46.61,54.36,45.53,61,44,65.25a39.4,39.4,0,0,0,5.1-6,11.22,11.22,0,0,0,2.58,6.6A28.89,28.89,0,0,0,57,70.79a17.71,17.71,0,0,1-.71-8.35,12.05,12.05,0,0,0,4.06,4.86c1.54,1.07,3.3,1.76,4.87,2.77a6.88,6.88,0,0,1,3.34,4.31l.14-8.05a70.93,70.93,0,0,1,9.49,12,35.4,35.4,0,0,1,.54-8.79,19,19,0,0,1,2.82,6.13,64.65,64.65,0,0,1,5.66-8.87c.9,2.49,3.47,5.43,3.73,8.06,2.26-3.43,1.92-7.59,2.84-11.6l2.7,2.95a7.45,7.45,0,0,0,3.13,2.38A22.47,22.47,0,0,1,96.3,58.25a8.25,8.25,0,0,1,2.93,4.53c.66-2.93.36-6.38-1.67-8.59Z"/><path class="cls-9" d="M79.79,37.24a2.7,2.7,0,0,1,1.46-.87A38.23,38.23,0,0,1,86.77,35a13.39,13.39,0,0,1,5-.09,5.88,5.88,0,0,1,4,2.77,3.7,3.7,0,0,0-2.56-.23q.8.46,1.58.95a4.63,4.63,0,0,1,1.54,1.29c1,1.62.68,2.44,1.05,3.58A4.88,4.88,0,0,0,95,41.11a13.05,13.05,0,0,0-3.07-.73l.5,1.93c.07.29,0,.72-.25.72a13.61,13.61,0,0,0-2-2.35,10.26,10.26,0,0,0-7.12-2.1,20,20,0,0,0-4.57.66Z"/><path class="cls-9" d="M71.46,36.86a2.7,2.7,0,0,0-1.27-1.14A38.24,38.24,0,0,0,65,33.34a13.39,13.39,0,0,0-4.9-1,5.88,5.88,0,0,0-4.47,2,3.7,3.7,0,0,1,2.56.26q-.87.3-1.74.63a4.63,4.63,0,0,0-1.76,1C53.4,37.49,53.6,38.37,53,39.42a4.88,4.88,0,0,1,2.8-1.65A13.06,13.06,0,0,1,59,37.63l-.86,1.8c-.13.27-.18.7.11.76a13.61,13.61,0,0,1,2.37-1.93,10.26,10.26,0,0,1,7.39-.7,20,20,0,0,1,4.36,1.52Z"/><path class="cls-10" d="M77.4,50.24c5.95-2.06,9.22-.16,10.45.07,4.73.88,8.24,3.25,12.82,4.36a48.47,48.47,0,0,1-7.85.15c1.7,1.25,4.18,1.92,5.89,3.16s2.66,3.26,3.41,5.12l-3.85-1.95a12.18,12.18,0,0,1-1.63,8.06,20.25,20.25,0,0,0-6.26-6.87,10,10,0,0,1,.18,5.94,5.2,5.2,0,0,0-.35,2.92,12.83,12.83,0,0,0-3.08-4.67c-1.12-1.11-2.47-2.09-3.65-3.17a32.81,32.81,0,0,1-4.19-4.86C78,56.8,76.79,55,77.16,52.86Z"/><path class="cls-10" d="M71.34,49.86c-1.22-.55-8.41-.55-9.63-.38-4.68.66-8.25,2.86-12.79,3.75a46.58,46.58,0,0,0,7.67.51c-1.73,1.17-3.91,1.76-5.65,2.92A11.42,11.42,0,0,0,47,61.56l3.88-1.76A12.3,12.3,0,0,0,52,67.92a20.38,20.38,0,0,1,6.52-6.56A10.15,10.15,0,0,0,58,67.27a5.27,5.27,0,0,1,.17,2.93,13,13,0,0,1,3.28-4.51c1.16-1.05,2.54-2,3.76-3a33.06,33.06,0,0,0,4.38-4.65C71,56.4,72.28,54.63,72,52.52Z"/><circle class="cls-11" cx="83.93" cy="43.26" r="3.06" transform="translate(-6.68 16.69) rotate(-10.92)"/><circle class="cls-11" cx="66.81" cy="42.88" r="3.06" transform="translate(-6.92 13.44) rotate(-10.92)"/><path class="cls-11" d="M70.42,51.5c0,1.45,2.17,3.74,4.71,3.67s4.53-2.48,4.49-3.94-2.13-2.57-4.67-2.5S70.37,50.05,70.42,51.5Z"/><path class="cls-12" d="M70.36,112.46a7.06,7.06,0,0,0,2.48-4.19s.28,3.86-.55,5.23A5,5,0,0,1,70.36,112.46Z"/><path class="cls-12" d="M74.23,113.71s1.21-3,.92-4.8a12.42,12.42,0,0,1,.92,4.63A4.18,4.18,0,0,1,74.23,113.71Z"/><path class="cls-12" d="M27.18,112.31a7.06,7.06,0,0,0,2.48-4.19s.28,3.86-.55,5.23A5,5,0,0,1,27.18,112.31Z"/><path class="cls-12" d="M31,113.56s1.21-3,.92-4.8a12.42,12.42,0,0,1,.92,4.63A4.18,4.18,0,0,1,31,113.56Z"/><path class="cls-13" d="M111.17,77.73a11.76,11.76,0,0,0-1-3.86c-.64-1-1.67-1-2.73-.8l-4.57.72A1,1,0,0,0,102,75.1a1.13,1.13,0,0,0-.07.49A53.57,53.57,0,0,0,103,83.14a1.11,1.11,0,0,0,1.59.74,1.09,1.09,0,0,0,.45,0l4.46-.72a1.11,1.11,0,0,0,.37-.13,1.1,1.1,0,0,0,2-.77C111.7,80.76,111.47,79.24,111.17,77.73Zm-6.23,4q-.22-1.12-.39-2.25l3.2-.26c1.38-.11,1-2.23-.34-2.12l-3.13.26q-.09-.81-.15-1.62l2.41-.38,1.66-.26c.09,0,.2,0,.23,0a3.54,3.54,0,0,1,.15.73c.4,1.74.73,3.49,1,5.25a1.13,1.13,0,0,0-.36,0Z"/><path class="cls-13" d="M124.29,75.51q-.82.35-1.66.65l-.25-1.56a1.08,1.08,0,0,0-.18-.45A1.06,1.06,0,0,0,121,72.87l-1.92.31q-.19-1.57-.29-3.14c.84-.23,1.66-.49,2.48-.79,1.29-.48.4-2.43-.89-2-.55.2-1.11.38-1.67.55,0-.41,0-.83,0-1.24,0-1.37-2.12-1.61-2.13-.23q0,1,0,2a26.5,26.5,0,0,1-4,.47c-1.38.06-1,2.18.34,2.12a26.56,26.56,0,0,0,3.72-.43q.1,1.5.28,3l-1.53.25a1.07,1.07,0,0,0,.34,2.12l4.52-.73.26,1.65a29.18,29.18,0,0,1-6.76,1c-1.38,0-1,2.16.34,2.12a30.07,30.07,0,0,0,6.76-1L122,85.74a5.08,5.08,0,0,1-1.91-1.07c-1-.9-2.29.84-1.26,1.74a6.81,6.81,0,0,0,4.33,1.67,1.09,1.09,0,0,0,1.17-1.24L123,78.3q1.11-.38,2.2-.85C126.45,76.91,125.56,75,124.29,75.51Z"/><path class="cls-13" d="M119.81,81.13l-2.21-1a1.07,1.07,0,1,0-.77,2l2.21,1a1.07,1.07,0,1,0,.77-2Z"/><path class="cls-13" d="M136.32,64.36c-1-1.78-3.49-.58-5-.23a1.06,1.06,0,0,0-.71.53,1.1,1.1,0,0,0-1.86.9,136.25,136.25,0,0,0,3.35,16.59c.35,1.32,2.47,1,2.12-.34q-.92-3.42-1.65-6.89a11.64,11.64,0,0,0,3.9-1.69,1.08,1.08,0,0,0,.15-1.51l-.1-.1a1.13,1.13,0,0,0,1.16-1.22A15.91,15.91,0,0,0,136.32,64.36Zm-1.21,7.23a8.75,8.75,0,0,1-3,1.24h0q-.21-1.07-.4-2.14a1.14,1.14,0,0,0,.35,0l2.23-.36a1.07,1.07,0,0,0-.34-2.12l-2.23.36a1.12,1.12,0,0,0-.35.12c-.14-.83-.27-1.66-.39-2.5a1,1,0,0,0,.66.06l2.43-.57c.11,0,.28,0,.41,0,.06.21.2.52.22.62a22.57,22.57,0,0,1,.83,4.51,1,1,0,0,0,.26.6A1.33,1.33,0,0,0,135.11,71.58Z"/><path class="cls-13" d="M151.37,75.37l-.85-5.28c-.27-1.66-.51-3.33-.81-5A6.71,6.71,0,0,0,148.54,62a3.12,3.12,0,0,0-2.85-1.17c-1.23.15-2.31,1.21-3.54,1.16a1.15,1.15,0,0,0-.39,0A1.19,1.19,0,0,0,140,63.17a34.47,34.47,0,0,0,.82,6.45,1.07,1.07,0,0,0,1.08.85,1.06,1.06,0,0,0,1.19,1.3l4.73-.76a1,1,0,0,0,.58-.29l1,6.06a25.31,25.31,0,0,1,.59,3.61l-.12,0a4,4,0,0,0-.76-.14,8.41,8.41,0,0,1-1.63-.64c-1.24-.61-2,1.39-.77,2,1.74.86,5.7,1.91,5.42-1.34C152,78.64,151.63,77,151.37,75.37ZM143,69.61a1.11,1.11,0,0,0,0-.34q-.13-.58-.24-1.16l3.71-.6a1.07,1.07,0,0,0-.34-2.12l-3.7.6q-.11-.91-.18-1.82a5.73,5.73,0,0,0,2.26-.6c.7-.32,1.65-.95,2.33-.26a4.33,4.33,0,0,1,.81,2.28c.19,1.13.37,2.26.55,3.39a1,1,0,0,0-.65-.09Z"/><path class="cls-13" d="M143.45,73.77a3.43,3.43,0,0,0-4.35,0,1.09,1.09,0,0,0-1.71,1l.9,5.57a1,1,0,0,0,1.4.81,1,1,0,0,0,1,.46l2.51-.4a1,1,0,0,0,.86-1.09.9.9,0,0,0,1.2-.89C145.26,77.28,145.1,75,143.45,73.77Zm-3.73,2a.91.91,0,0,0,.65-.3,1.36,1.36,0,0,1,2,.22,2.44,2.44,0,0,1,.45.76,1,1,0,0,0-.67-.12l-1.67.27a1.08,1.08,0,0,0-.58.3Zm.65,3.7h-.06l-.14-.88a1,1,0,0,0,.65.11l1.67-.27a1.09,1.09,0,0,0,.63-.36c0,.31,0,.61,0,.89,0,0,0,.06,0,.08a1.17,1.17,0,0,0-.28,0Z"/><path class="cls-13" d="M157.64,60.66a33.4,33.4,0,0,0-4.46,7.75,1.07,1.07,0,0,0,2,.77,31.25,31.25,0,0,1,4.2-7.26C160.22,60.82,158.48,59.57,157.64,60.66Z"/><path class="cls-13" d="M169.42,60.15A15.51,15.51,0,0,0,163,56.86c-1.32-.33-2.11,1.67-.77,2a14.16,14.16,0,0,1,5.9,3C169.21,62.79,170.46,61,169.42,60.15Z"/><path class="cls-13" d="M168.44,66.54c-.28-1-.55-2.18-1.73-2.43s-2.77.29-4,.49l-4.65.76a1.07,1.07,0,0,0,.34,2.12l2.5-.41,0,.11a19.79,19.79,0,0,1-3.36,8.08,1.07,1.07,0,0,0,1.74,1.26,22.24,22.24,0,0,0,3.75-9.1,1,1,0,0,0-.1-.67l1.84-.3a5.3,5.3,0,0,1,1.27-.21q.09-.29.15.17t.24.86A23.64,23.64,0,0,1,167,70a21.79,21.79,0,0,1,.21,2.86,6.38,6.38,0,0,1-.16,2.55c-.65,1.1-3.25-.74-4.05-.94-1.32-.33-2.11,1.66-.77,2,1.93.49,3.82,2.28,5.84.94a3.22,3.22,0,0,0,1.23-2.74,25.27,25.27,0,0,0-.06-4A23.76,23.76,0,0,0,168.44,66.54Z"/><path class="cls-13" d="M195.51,61.66a20.28,20.28,0,0,0-.88-3.87,1.93,1.93,0,0,0-2.33-1.2c-.68.12-1.35.29-2,.46a4.85,4.85,0,0,0-.18-3.39l.17,0c1.31-.38,1-2.5-.34-2.12L184.74,53c-1.31.38-1,2.5.34,2.12l2.92-.85A2.8,2.8,0,0,1,188,57a1.1,1.1,0,0,0-.15.7,1,1,0,0,0-.41.3,1.08,1.08,0,0,0-2.08.49l1,6.29-.74-1.16a1.08,1.08,0,0,0-1.51-.15,1.1,1.1,0,0,0-.15,1.51l.78,1.22a1,1,0,0,0-1.09-.17,21.64,21.64,0,0,1-3.07,1,14.81,14.81,0,0,0-.56-2.23.87.87,0,0,0-1.15-.59,1.07,1.07,0,0,0,.48-1c0-.55-.1-1.1-.16-1.65a1.25,1.25,0,0,0,.93.31,2.43,2.43,0,0,1,1.73.64,1.11,1.11,0,0,0,1.51.15,1.08,1.08,0,0,0,.15-1.51,4.8,4.8,0,0,0-3.72-1.4.94.94,0,0,0-.75.53c-.1-.7-.22-1.4-.35-2.09l3-.63c1.35-.28,1-2.4-.34-2.12l-1.63.34,1-1.74a1.1,1.1,0,0,0-.24-1.5,1.08,1.08,0,0,0-1.5.24l-1.15,1.94c-.21-.78-.44-1.55-.69-2.33-.42-1.31-2.37-.41-2,.89.35,1.07.64,2.15.9,3.24l-.23,0a1.08,1.08,0,0,0-.18-1l-1.45-1.75a1.07,1.07,0,1,0-1.66,1.36l1.45,1.75,0,0-.77.16c-1.35.28-1,2.4.34,2.12l1.13-.23-1.5,3.79a1.07,1.07,0,0,0,2,.77l1.48-3.73q.3,1.85.44,3.73a.94.94,0,0,0,1.31.82,1.13,1.13,0,0,0-.47,1.32,11.36,11.36,0,0,1,.43,1.72,21.12,21.12,0,0,1-3.16.17c-1.37,0-1.61,2.1-.23,2.13a24.6,24.6,0,0,0,3.55-.18,11.72,11.72,0,0,1-.55,3.34c-.42,1.31,1.58,2.09,2,.77.14-.44.26-.89.35-1.33l2.55,2c1.09.85,2.34-.89,1.26-1.74l-3.45-2.71,0,0c0-.22,0-.45,0-.67a24,24,0,0,0,3.77-1.15.93.93,0,0,0,.58-1.18,1.08,1.08,0,0,0,1.51.14l.07-.07L187.1,69A3.28,3.28,0,0,0,189,70.4l1.81-.29-1.61,3.52c-.58,1.26,1.43,2,2,.77l1.69-3.7a.91.91,0,0,0,0-.92l1.72-.28a1.07,1.07,0,0,0-.34-2.12l-5.07.82-.29-1.78,2.28-.37a1.07,1.07,0,0,0-.34-2.12l-2.28.37-.24-1.46a1,1,0,0,0,1,.37l2.23-.36a1.07,1.07,0,0,0-.34-2.12l-2.23.36a1,1,0,0,0-.81.66l-.33-2.07a1,1,0,0,0,.65,0l3.08-.75c.11,0,1.33-.34,1.15-.42.19.09.3,1.22.35,1.43.47,2.15.83,4.32,1.12,6.5.18,1.37,2.29,1,2.12-.34S195.79,63.15,195.51,61.66Z"/><path class="cls-13" d="M197.14,73.47A6.6,6.6,0,0,0,194.86,71a1.1,1.1,0,0,0-1.5.24,1.08,1.08,0,0,0,.24,1.5,4.44,4.44,0,0,1,1.58,1.61,1.1,1.1,0,0,0,1.42.53A1.08,1.08,0,0,0,197.14,73.47Z"/><path class="cls-14" d="M260.1,17.83s2.84-1.66,2.85-1.64c.15.25-4.39,3-4.1,3.52.16.28,5.81-3.59,5.91-3.41.28.48-5.43,2.93-5.14,3.43.11.19,5.66-3.42,5.72-3.3.29.5-6.61,3.63-6.33,4.11.06.1,5.73-3.66,5.88-3.39.29.51-6,3.46-5.79,3.78s5.72-3.44,5.78-3.34c.24.41-6.12,3-5.79,3.55.18.32,6-3.88,6.21-3.58.29.5-5.74,2.84-5.43,3.38.09.16,5.54-3.33,5.59-3.23.29.5-5.92,3.21-5.54,3.87.18.32,5.67-3.57,5.8-3.35.29.51-5.7,3.77-5.34,4.4.15.26,5.6-3.68,5.8-3.35.37.65-6.3,4.5-6,5,.08.14,5.53-3.38,5.61-3.24.37.64-5.58,3.31-5.26,3.86.11.19,6.24-3.93,6.38-3.68.49.86-6.63,4.74-6.23,5.44.12.2,6-3.69,6.14-3.54.19.32-5.6,4.12-5.39,4.48s5.91-3.62,6-3.46-6.14,3.41-6,3.71,5.62-3.5,5.73-3.31c.39.67-5.93,3.54-5.73,3.88s6-3.71,6.08-3.51c.41.71-6.42,4.35-6.27,4.61s6.17-4,6.36-3.67-6.14,4.33-6,4.55,5.65-3.47,5.74-3.32c.2.34-6.11,3.94-5.81,4.46.18.31,6.21-4,6.38-3.68.4.69-6.32,3-6,3.57.19.32,5.81-3.79,6-3.46s-5.59,4.14-5.47,4.35,5.39-3.32,5.48-3.16c.47.81-6.58,4.17-6.19,4.85.16.27,6.44-4.05,6.59-3.8.3.51-5.73,4.15-5.51,4.53.11.19,5.29-3.26,5.38-3.1s-5.56,3.31-5.18,4c.14.24,5.9-3.69,6-3.48s-7.15,3.76-6.78,4.4c.13.23,6.42-4,6.53-3.77s-5.62,4.22-5.3,4.79c.15.26,5.79-3.62,5.91-3.41s-6,3.63-5.75,4.07c.07.12,5.42-3.33,5.51-3.18.35.6-5.83,2.86-5.56,3.33.15.25,5-3.14,5.14-3,.36.62-5.58,2.53-5.26,3.09.11.19,5.57-3.42,5.66-3.27.19.33-6.58,4.85-6.26,5.4.08.14,6.51-4.11,6.66-3.85s-5.89,4.65-5.71,5,6-3.58,6-3.48c.51.88-7.24,5.11-6.91,5.67.16.28,7-4.56,7.21-4.16.43.75-6.31,4.35-6.14,4.66.07.13,5.42-3.52,5.59-3.23.37.64-6.8,4.73-6.36,5.49.12.21,6.65-4.08,6.75-3.9.32.55-7.26,4.12-6.9,4.75.24.42,7.59-4.72,7.74-4.47.38.66-7.89,5.57-7.61,6,.18.31,7.08-4.7,7.35-4.24s-6.82,3.74-6.69,4c.26.45,6.77-4.52,7-4.06"/><path class="cls-14" d="M243.92,44.06s3.9-2.28,3.92-2.26c.22.39-4.29,3-4.2,3.19s5.2-3.32,5.34-3.08c.26.44-5.77,2.82-5.41,3.45.12.21,5.49-3.51,5.64-3.25s-6.26,2.83-5.88,3.49c.13.22,5.37-3.25,5.44-3.14.25.43-5.27,3.6-5.08,3.94s6.06-3.68,6.14-3.54c.2.35-5.29,3.41-5,4,.17.3,4.78-3.08,4.92-2.84.38.65-5,3.84-4.63,4.48.05.09,5.63-3.49,5.73-3.31.35.61-6,3.25-5.77,3.58.1.18,5.61-3.46,5.71-3.29.2.35-5.32,3.2-5,3.8.15.26,4.74-2.94,4.83-2.79.34.58-5.32,3-5,3.49.07.12,5.79-3.54,5.87-3.39.29.5-6.15,3.82-5.87,4.3.17.29,5.49-3.38,5.58-3.22s-5,2.48-4.81,2.85,5.32-3.39,5.45-3.15c.27.47-5.32,3.17-5.09,3.57.1.17,5-3.18,5.15-3,.29.51-4.81,3.29-4.66,3.55,0,.08,5-3.15,5.11-2.95s-4.82,3-4.66,3.27S255.86,46.7,256,47c.51.89-9.16,4.81-8.89,5.28s8.19-5.12,8.36-4.82-8.27,4.35-8,4.88,7.69-5.06,8-4.6c.37.64-8.26,4.41-7.89,5,.26.45,7.75-5,8-4.59.31.53-8,4-7.52,4.89.11.19,7.47-5,7.77-4.49.14.24-7.36,4.38-6.9,5.18.11.18,7.08-4.51,7.26-4.19.4.7-5.93,4.53-5.66,5,.15.25,5.16-3.2,5.26-3,.3.51-5,3.1-4.82,3.4.07.13,4.29-2.59,4.34-2.51.28.49-4,2.67-3.93,2.8s3.91-2.38,4-2.29"/><path class="cls-14" d="M249.5,34.53s3-1.74,3-1.73c.24.41-3.47,2.16-3.38,2.32s4.5-2.73,4.56-2.63c.22.39-5.54,3.08-5.4,3.31s5.09-3.13,5.17-3-5.14,4.11-5,4.44c.1.17,5.52-3.5,5.66-3.27.26.45-5.72,4.31-5.47,4.73.15.27,6-3.78,6.17-3.56s-5.84,2.75-5.51,3.34c.21.36,5.28-3.38,5.43-3.13s-5.74,4.49-5.59,4.75,5.72-3.79,5.93-3.42-6.35,4.52-6,5.14c.26.45,7-4.29,7.08-4.09s-7,3.54-6.57,4.31c.25.43,6.32-4.14,6.53-3.77s-7.07,5.28-6.92,5.53,7-4.42,7.13-4.12-7.4,4.72-7.16,5.13,7-4.25,7.07-4.08c.34.59-7.7,4.06-7.47,4.46s8.08-5,8.2-4.74-7.9,5.32-7.48,6.06c.17.3,7.83-5.28,8.16-4.71s-8.22,5.6-8,6,7.34-4.89,7.62-4.4-8.5,4.85-8.22,5.34,8.29-5.06,8.41-4.86c.47.81-8.56,5.32-8.22,5.9.13.23,8.29-5.54,8.62-5s-8.72,4.59-8.24,5.41c.11.19,6-3.62,6.06-3.5"/><path class="cls-14" d="M252.09,48.3c.05.09,6.29-3.82,6.37-3.68.22.38-5.93,4.75-5.71,5.13s6.18-3.92,6.33-3.65-6,3-5.77,3.39,4.89-3,5-2.87c.32.56-5.22,3.54-4.93,4.06s8.92-5.37,9-5.21c.33.58-9.19,4.7-8.8,5.37.23.41,8.53-5.52,8.79-5.07s-8.47,4.72-7.94,5.64c.32.56,7-4.42,7.14-4.12.35.61-7.21,4.82-7,5.24S261.89,48,262,48.24c.23.39-7.37,5.16-7.23,5.42s7.62-4.64,7.72-4.46c.53.93-8.66,3.84-8.11,4.8.29.5,8.21-4.94,8.3-4.79.22.38-7.79,4.51-7.52,5,.11.19,6.43-4.18,6.63-3.83.38.66-6.11,4.33-6,4.54s5.87-3.93,6.11-3.53c.4.69-6.68,3.8-6.56,4s7.15-4.61,7.36-4.25-7.29,4.2-6.85,5c.12.21,6.48-4,6.61-3.81s-6.57,3.53-6.38,3.87,5.75-3.84,6-3.45-6.36,3.79-6.15,4.16c.06.11,6.43-4.24,6.66-3.84.34.59-7,3.63-6.71,4.18.15.26,6.31-3.91,6.42-3.71.26.45-6,3.65-5.82,3.88s5.47-3.51,5.62-3.24-5.76,3.87-5.53,4.28c.14.23,5.88-3.56,6-3.44.21.36-4.88,3.93-4.74,4.17s4.4-2.68,4.47-2.58-4.2,2.71-4,3c0,.06,3.61-2.14,3.64-2.1"/><path class="cls-14" d="M254.85,34.2s3-1.74,3-1.73c.23.4-4,3.34-3.84,3.65.06.11,6-3.63,6.05-3.49.21.36-6.29,4.66-6,5.23.07.12,6.29-4.09,6.49-3.75.3.53-6.42,4.21-6.27,4.47s6.52-4,6.64-3.83c.23.39-6.67,4-6.34,4.52.13.23,6.12-4,6.31-3.65s-6.36,2.88-6,3.55c.21.37,6.34-3.86,6.42-3.71.43.75-6.79,4.18-6.5,4.68.11.2,6.44-4.12,6.61-3.82.28.48-7,4.25-6.75,4.72s7-4.6,7.21-4.16c.43.75-7.41,5.5-7.25,5.77s7.19-4.52,7.35-4.24c.26.45-6.88,4.71-6.51,5.35.12.2,7.23-4.75,7.48-4.32s-8.16,4.77-7.68,5.6c.23.4,7.29-4.72,7.51-4.33s-7.48,3.67-7.07,4.39c.26.44,6.89-4.29,7-4.06.42.73-7.77,3.59-7.27,4.46.15.26,7.26-4.81,7.53-4.35.16.27-7.41,4.52-7.18,4.92s7.24-4.44,7.35-4.24c.31.53-7.63,4.43-7.38,4.88s8.19-5.44,8.5-4.91c.44.76-9.32,5.51-8.81,6.4.05.09,5.8-3.75,6-3.45.29.51-5.62,3.57-5.38,4,.1.17,5.57-3.35,5.63-3.25"/><path class="cls-14" d="M265.82,54c.18.31,8.59-5.52,8.83-5.1.57,1-8.18,4.88-7.8,5.54.19.33,6.7-4.45,6.95-4s-8.08,5.17-7.59,6c.14.24,7.76-5,8-4.61s-7.7,4.17-7.37,4.73c.12.22,7.33-4.83,7.59-4.38s-7.54,4.84-7.13,5.55c.14.24,6.16-4.16,6.42-3.71.13.23-6.51,3.75-6.07,4.52.24.41,6.47-4.32,6.72-3.88s-7.18,3.94-6.82,4.57c.07.12,5.9-3.55,6-3.44.32.55-6.58,3.35-6.22,4,.15.27,6.92-4.5,7.14-4.12.32.56-7.27,5-7.1,5.28s6.73-4.32,6.92-4c.29.5-6.63,3.53-6.21,4.27.08.14,5.62-3.7,5.81-3.36s-5.79,3.94-5.51,4.43c.08.13,5.15-3.2,5.25-3,.22.38-6.09,3.28-5.82,3.75.08.14,5.6-3.56,5.74-3.31s-4,3.26-3.84,3.46c0,0,4-2.36,4.05-2.34"/><path class="cls-14" d="M258.89,46.21c.11.19,5.29-3.39,5.43-3.14s-5.8,3.28-5.49,3.81c.14.24,5.48-3.3,5.54-3.2s-4.68,4-4.58,4.17,5.13-3.17,5.22-3-5.56,2.54-5.22,3.13c.16.27,5.6-3.41,5.68-3.28s-5.7,2.73-5.39,3.26c.08.14,5.43-3.28,5.49-3.17.37.65-5.56,3.05-5.47,3.22s5.27-3.39,5.42-3.13-5.82,2.92-5.48,3.5c.15.26,5.11-3.17,5.2-3,.35.61-5,4.4-4.9,4.65,0,.08,6.13-3.86,6.27-3.62s-6.18,4-6,4.26,5.43-3.28,5.49-3.17c.27.47-4.43,3.85-4.28,4.11s8.76-5.35,8.89-5.13c.5.87-9.4,6-9.07,6.58.53.92,12.28-7.56,12.48-7.21.62,1.08-12.55,6.78-12.15,7.48.57,1,11.88-7.48,12.15-7,.55,1-12.49,6.9-12.07,7.62.24.41,11.76-7.68,12.15-7,.57,1-12.14,6.24-11.76,6.89.17.3,11.87-7.73,12.25-7.07.64,1.11-12,6.66-11.63,7.36s10.88-7.22,11.29-6.52-10.9,7.28-10.69,7.64c.51.88,9.64-6.76,10.15-5.86.67,1.16-9.47,6.71-9.22,7.14,0,.07,3.74-2.38,3.84-2.22.24.42-3.77,2.16-3.65,2.37,0,0,3.31-1.95,3.32-1.92"/><path class="cls-14" d="M270.7,35.66c.13.23,6.44-4.13,6.62-3.82.32.55-6.31,3.06-6,3.69,0,.08,5.28-3.33,5.4-3.12.4.7-5.66,4.23-5.47,4.56s5.37-3.23,5.43-3.13c.33.57-4.89,4-4.7,4.32s5.48-3.48,5.62-3.24-5.55,3.14-5.21,3.72c.07.12,5-3.08,5.08-2.93.35.61-5.15,3.69-5,3.88s5.3-3.36,5.43-3.14c.32.56-5.69,3.11-5.59,3.28s5.48-3.52,5.63-3.25-6.07,4.24-5.79,4.73c.12.21,5.35-3.38,5.47-3.16s-5.46,3.2-5.31,3.45,5.84-3.64,6-3.44c.33.58-5.44,3.31-5.2,3.74.07.12,5.47-3.32,5.54-3.2.2.35-5.71,4.41-5.57,4.65s5.23-3.39,5.39-3.11c.35.61-5.34,3.38-5.23,3.57s5.31-3.41,5.45-3.15c.42.73-6,4.58-5.72,5.06.07.11,6.48-4.13,6.65-3.84s-6.31,3.86-6.1,4.22,5.86-3.71,6-3.46c.4.69-6.49,3.89-6.27,4.28.05.09,6.4-3.94,6.5-3.76.21.37-5.73,3.57-5.57,3.84s5.74-3.56,5.84-3.37-6.14,3.93-5.87,4.41c.14.24,5.3-3.31,5.4-3.12s-5.77,3.39-5.6,3.68,5.49-3.43,5.6-3.24c.21.36-5.46,3.76-5.15,4.3.07.12,5.8-3.68,5.94-3.43s-5.67,3.75-5.36,4.29c.18.31,5.46-3.3,5.52-3.19s-5.63,3.41-5.35,3.91c.12.21,4.73-2.95,4.82-2.78.4.7-5.2,4.51-5.09,4.69s5.42-3.47,5.56-3.21-5.75,3.3-5.59,3.57,6.23-4,6.39-3.69c.44.77-6.69,3.73-6.44,4.18.12.21,5.61-3.41,5.68-3.28s-5.79,3.27-5.54,3.71c0,.08,5.42-3.54,5.6-3.23s-5.08,3.09-4.74,3.68c.17.29,5.51-3.47,5.64-3.25.32.55-6.08,3.6-5.86,4S281,52,281.15,52.24s-5.46,3.07-5.14,3.63c.11.18,4.88-3.08,5-2.88s-5.1,2.52-4.83,3c.08.15,4.89-3.11,5-2.9.24.42-5.13,2.95-5,3.11s4.94-3,5-2.9c.3.52-4.66,2.58-4.45,3,.09.15,4.86-3,4.93-2.85s-4,2-3.73,2.44c0,0,2.61-1.52,2.62-1.51"/><path class="cls-14" d="M266,1.87S269.18,0,269.19.06c.1.17-4.68,3.61-4.33,4.21.09.15,6-3.88,6.17-3.56.34.59-5.28,3.77-5,4.18s5.47-3.52,5.63-3.25c.3.51-6,3.92-5.66,4.5.07.12,5.54-3.34,5.6-3.23S264.93,7,265.37,7.76c.06.11,6.7-4.15,6.82-3.94.37.64-6.25,3.31-6.11,3.55s5.44-3.4,5.55-3.2-5.68,4.5-5.51,4.79,6.15-3.73,6.23-3.6c.2.35-7,4-6.6,4.77.06.1,5.8-3.62,5.92-3.42.38.65-5.68,4.68-5.49,5s6.51-4.2,6.7-3.87c.46.8-6.28,4.38-5.88,5.08.08.14,5.5-3.42,5.6-3.23.46.8-6.84,4.45-6.4,5.21.2.35,6.41-4.06,6.57-3.79s-5.87,3.22-5.53,3.82c.06.1,5.74-3.53,5.83-3.37.2.34-6.07,3.79-5.75,4.34.07.13,5.84-3.61,5.95-3.43s-6.58,4.56-6.36,5,6.41-4.18,6.62-3.82c.47.82-6.93,4.12-6.69,4.54.15.26,6.19-3.83,6.3-3.64.21.37-5.88,4.51-5.65,4.9s6.45-4.27,6.69-3.86-7.24,3.41-6.81,4.15c.08.14,6.36-4.19,6.58-3.8s-7,5.24-6.76,5.58,6.45-4,6.57-3.8c.46.79-7,4.78-6.58,5.57.17.29,7.38-4.8,7.61-4.4.51.89-7.81,4.93-7.48,5.51.12.2,6.84-4.37,7-4.05.49.85-6.88,4.69-6.63,5.11s7.39-4.51,7.5-4.33c.21.37-8.52,4.63-8,5.61.24.42,6.92-4.49,7.13-4.12s-6.66,3.91-6.47,4.25,6.74-4.13,6.85-4c.27.46-7.45,4.16-7,5,.13.22,7.4-4.9,7.67-4.43.39.67-8.51,5-8,6,.15.26,7.75-4.9,7.93-4.58.48.83-7.73,5.1-7.36,5.75.11.19,7.29-4.87,7.57-4.37.48.84-7.62,3.82-7.31,4.36s7.3-4.72,7.52-4.34-7.56,5.76-7.38,6.06,7.51-5,7.82-4.51-9,4.94-8.55,5.71c.12.21,7.71-5.17,8-4.63.46.8-8.21,4.64-7.82,5.3.13.22,7.94-5,8.12-4.69.31.54-8.41,5.76-8.25,6,.27.46,8.1-4.93,8.21-4.74.53.92-8.45,4.74-8.19,5.19.13.23,8.6-5.66,8.9-5.14s-8.57,5.64-8.09,6.47c.16.28,5.41-3.56,5.6-3.23s-6.6,3.49-6.41,3.83,5.78-3.69,5.93-3.43-6.34,3.3-5.92,4c.17.3,6.74-4.06,6.81-3.93.36.62-7.14,3.41-6.73,4.12.17.3,6-3.66,6.07-3.5.2.34-6,3.93-5.85,4.26.09.15,6.23-4,6.39-3.69.46.8-6.7,4.93-6.54,5.22s5.71-3.67,5.88-3.39c.28.49-5.89,4.47-5.75,4.71s6-3.9,6.17-3.56c.42.72-6.22,3.84-6,4.26s6-3.65,6.1-3.52c.19.33-6.11,4.29-5.84,4.76.09.16,6.11-3.66,6.17-3.56.36.62-6.62,4.3-6.3,4.86.11.19,5.75-3.56,5.86-3.38.29.51-6.73,3.49-6.47,3.94.1.18,6.53-3.9,6.58-3.8.29.51-6.21,4.79-6.06,5s6.26-3.93,6.4-3.69c.38.66-6.31,3.75-6,4.36.18.31,5.52-3.54,5.68-3.28.33.58-6.88,3.83-6.54,4.41.17.29,5.92-3.62,6-3.47"/></g></g></svg>