<svg xmlns="http://www.w3.org/2000/svg" viewBox="0 0 1366 638.97"><defs><style>.cls-1{isolation:isolate;}.cls-2{fill:#f3c2ff;opacity:0.65;}.cls-3{fill:#e6b278;}.cls-4{mix-blend-mode:multiply;}.cls-5{fill:#f4c182;}.cls-6{fill:#020202;}.cls-7{fill:#707070;}.cls-8{fill:#fff;}.cls-9{fill:#2980b4;}.cls-10{fill:#9dd0ea;}</style></defs><title>資產 3</title><g class="cls-1"><g id="圖層_2" data-name="圖層 2"><g id="圖層_1-2" data-name="圖層 1"><rect class="cls-2" width="1366" height="632.97"/><rect class="cls-3" x="1" y="582.97" width="1365" height="56"/><g class="cls-4"><polygon class="cls-5" points="1 582.97 1 593.8 55.9 582.97 1 582.97"/><polygon class="cls-3" points="57.95 582.97 55.9 582.97 1 593.8 1 610.87 125.52 582.97 57.95 582.97"/><polygon class="cls-5" points="127.56 582.97 125.52 582.97 1 610.87 1 633.31 195.14 582.97 127.56 582.97"/><polygon class="cls-3" points="197.18 582.97 195.14 582.97 1 633.31 1 638.97 82.76 638.97 264.76 582.97 197.18 582.97"/><polygon class="cls-5" points="266.8 582.97 264.76 582.97 82.76 638.97 186.35 638.97 334.38 582.97 266.8 582.97"/><polygon class="cls-3" points="336.42 582.97 334.38 582.97 186.35 638.97 289.93 638.97 404 582.97 336.42 582.97"/><polygon class="cls-5" points="406.04 582.97 404 582.97 289.93 638.97 393.52 638.97 473.62 582.97 406.04 582.97"/><polygon class="cls-3" points="475.66 582.97 473.62 582.97 393.52 638.97 497.11 638.97 543.24 582.97 475.66 582.97"/><polygon class="cls-5" points="545.28 582.97 543.24 582.97 497.11 638.97 600.7 638.97 612.86 582.97 545.28 582.97"/><polygon class="cls-3" points="614.9 582.97 612.86 582.97 600.7 638.97 704.28 638.97 682.48 582.97 614.9 582.97"/><polygon class="cls-5" points="684.52 582.97 682.48 582.97 704.28 638.97 807.87 638.97 752.1 582.97 684.52 582.97"/><polygon class="cls-3" points="754.14 582.97 752.1 582.97 807.87 638.97 911.46 638.97 821.72 582.97 754.14 582.97"/><polygon class="cls-5" points="823.76 582.97 821.72 582.97 911.46 638.97 1015.05 638.97 891.34 582.97 823.76 582.97"/><polygon class="cls-3" points="893.38 582.97 891.34 582.97 1015.05 638.97 1118.63 638.97 960.96 582.97 893.38 582.97"/><polygon class="cls-5" points="963 582.97 960.96 582.97 1118.63 638.97 1222.22 638.97 1030.58 582.97 963 582.97"/><polygon class="cls-3" points="1032.62 582.97 1030.58 582.97 1222.22 638.97 1325.81 638.97 1100.19 582.97 1032.62 582.97"/><polygon class="cls-5" points="1169.81 582.97 1102.24 582.97 1100.19 582.97 1325.81 638.97 1366 638.97 1366 625.29 1169.81 582.97"/><polygon class="cls-3" points="1366 607.11 1239.43 582.97 1171.86 582.97 1169.81 582.97 1366 625.29 1366 607.11"/><polygon class="cls-5" points="1366 592.7 1309.05 582.97 1241.48 582.97 1239.43 582.97 1366 607.11 1366 592.7"/><polygon class="cls-3" points="1366 582.97 1311.1 582.97 1309.05 582.97 1366 592.7 1366 582.97"/></g><path class="cls-6" d="M568.92,600.1a2.29,2.29,0,0,1,2.13,2.43l-.77,11.4a2.29,2.29,0,0,1-2.44,2.13l-99.23-6.67a2.28,2.28,0,0,1-2.13-2.43l.77-11.4a2.29,2.29,0,0,1,2.43-2.13Z"/><polygon class="cls-7" points="569.13 608.13 568.6 615.99 582.67 611.17 582.81 609.05 582.95 606.93 569.65 600.28 569.13 608.13"/><polygon class="cls-6" points="582.54 610.29 586.42 609.9 585.61 608.11 582.31 607.5 582.54 610.29"/><rect class="cls-8" x="518.19" y="557.34" width="2.38" height="86.11" transform="translate(-114.43 1078.42) rotate(-86.16)"/><path class="cls-9" d="M903.51,617A2.29,2.29,0,0,1,901,615l-1-11.38a2.29,2.29,0,0,1,2.08-2.48l99.07-8.71a2.28,2.28,0,0,1,2.48,2.08l1,11.38a2.29,2.29,0,0,1-2.08,2.48Z"/><polygon class="cls-10" points="902.07 609.13 901.38 601.29 888.22 608.22 888.41 610.33 888.59 612.44 902.76 616.97 902.07 609.13"/><polygon class="cls-9" points="888.49 609.06 884.71 610.04 885.78 611.69 889.14 611.78 888.49 609.06"/><rect class="cls-8" x="909.35" y="607.91" width="86.11" height="2.38" transform="translate(-49.76 85.89) rotate(-5.03)"/></g></g></g></svg>