<svg xmlns="http://www.w3.org/2000/svg" viewBox="0 0 953.88 512"><defs><style>.cls-1{fill:#df9031;}.cls-2{fill:#b86d1b;}.cls-3{fill:#9f5214;}.cls-4{fill:#f5ae4c;}.cls-5{fill:#9a5409;}.cls-6{fill:#fafcfb;}.cls-7{fill:#fff;}.cls-8{fill:#3a5255;}.cls-9{fill:#2980b4;}.cls-10{fill:#9dd0ea;}.cls-11{fill:#ff4d4d;}.cls-12{fill:#ffb3b3;}.cls-13{fill:#00db4e;}.cls-14{fill:#52ff52;}.cls-15{fill:#4d4d4d;}.cls-16{fill:#ccc;}</style></defs><title>資產 2</title><g id="圖層_2" data-name="圖層 2"><g id="圖層_1-2" data-name="圖層 1"><polygon class="cls-1" points="0 499.19 69.04 474.03 889.45 474.03 953.88 501.99 0 499.19"/><path class="cls-2" d="M894.22,480.06c-47.87,7.45-95.7,13.71-143.77,17.84l186.23.55L894.29,480Z"/><polyline class="cls-3" points="0 499.19 4.6 512 948.13 508.27 953.88 501.99 0 499.19"/><path class="cls-4" d="M69,474s-38.76-297.28-34.58-460a2.75,2.75,0,0,1,2.88-2.38c43.4-1.52,578-19.75,871.12-7.48a2.72,2.72,0,0,1,2.85,2.44c-.16,28.14-2.21,305.6-21.85,467.36Z"/><path class="cls-1" d="M902.12,87c-1.83,99.07-6.78,266.36-20,380H76.33c-2.15-17.1-8.61-69.54-15.33-135.75q-3.2-9.79-6-19.65c7.84,80,15.87,144.27,17.73,158.89H885.78c14-117.28,18.86-292.71,20.57-391.71Q904.2,82.92,902.12,87Z"/><path class="cls-1" d="M671.2,7q19.26-1.76,38.54-3.36-26.24-.14-54.1-.15c-72.44,0-147.15.73-218.54,1.82q-22.53,1.93-45,4.24C476.72,8.06,567.93,7,655.64,7Z"/><path class="cls-5" d="M79.42,464.71c-6.09-48.62-36.28-297.9-33.6-444,59.73-2,349.36-11.42,609.82-11.42,96.61,0,178.67,1.31,244.1,3.88-.38,51-3.11,298.06-20.76,451.51Z"/><path class="cls-6" d="M83.58,461C76.72,405.8,48.28,167.5,50.36,24.31,115.74,22.11,400.52,13,655.64,13,750,13,830.5,14.29,895.12,16.75c-.46,55.56-3.39,293.78-20.33,444.23Z"/><path class="cls-7" d="M799,394.15l-7.43-9.73-3.68,10C789.1,397.89,796.07,400.25,799,394.15Z"/><path class="cls-7" d="M807.34,388.88a31.54,31.54,0,0,0,7.36-2.27l-6-6.13C806.78,382.72,805.09,385.4,807.34,388.88Z"/><path class="cls-7" d="M802.41,405.41c-3.65-1.21-2.46-4.69-2.78-6.72-5.75,7.78-10.93,19.63-1.11,26.67,3.32-12.42,7.25-9.22,10.28-23.67,6.36-3.72,13.69-1.36,14.34,2.69.56-1.62,3.24-2.12,6-3l-7.56-7.74C814.36,394.74,807.85,398.77,802.41,405.41Z"/><path class="cls-7" d="M817.23,385.31a25.54,25.54,0,0,1-2.53,1.3l6.86,7a26.76,26.76,0,0,1,3.5-.31Z"/><path class="cls-7" d="M796.8,187.34c3.09-1.44,3.93-2.92,3.64-3.87C797.78,185.24,795.65,186.76,796.8,187.34Z"/><path class="cls-7" d="M751.38,330.83c1.74,3.82,1.42,6.66-.14,9a20.25,20.25,0,0,0,6.46,3.51C760.46,341.5,753.75,334.42,751.38,330.83Z"/><path class="cls-7" d="M813.87,363.46c-.09.47-.17.92-.2,1.29C813.74,364.31,813.81,363.89,813.87,363.46Z"/><path class="cls-8" d="M251.52,30.53a13,13,0,0,0,1.32,1.15C252.75,30.49,252.42,29.86,251.52,30.53Z"/><path class="cls-7" d="M124.45,122.42l2-1.34a35.4,35.4,0,0,0-2-4.81Z"/><path class="cls-7" d="M692.07,216.67a25.12,25.12,0,0,0-3.19-.38c-1,.77-2.12,1.62-3.11,2.4C687.87,218,689.95,217.31,692.07,216.67Z"/><path class="cls-7" d="M623.65,174.8c-4.93,1.25-9.77,2.62-14.66,4a37,37,0,0,0,14.13-.82A7.09,7.09,0,0,0,623.65,174.8Z"/><path class="cls-7" d="M771.06,416.41l2.69-.12A3,3,0,0,0,771.06,416.41Z"/><path class="cls-7" d="M836.12,161.82c-3.66,6-6.93,12.45-20.13,15,3.09,1.55,7.29,5.54,5.69,10.81-1.82-3.86-2.71-8.89-4.91-9.78-.72,6.17-8.93,11-17.29,16.08-1.29.81-2.58,1.62-3.85,2.43-5.59-3.09-7.12-8.85-1.88-12.8,3.79-1.78,6.26-1.39,6.7-.14,4.65-3.27,10.85-7.42,2.41-8.77L802.5,179c-7.4-.38-21.64,4.45-27.55,3.8q11.35-4.31,22.67-8.56c11-4.12,21.93-8.42,32.41-13.3l-4.29-7.52c1-.78,2.06-1.63,3.09-2.52l-31.39-55c-1.06.74-2.13,1.52-3.21,2.32l-5.3-9.29a226.42,226.42,0,0,0-24.12,15.92c1.61-3.6-.15-6.42,4.85-8.8-3.8-.38-8.22.61-12.63,2.41a60.43,60.43,0,0,0-12.56,7.38c-7.58,5.75-12.78,12.31-11,15.09-8.19,3.44-5.21-4-11.94-4.22-6.68.81-11.86,6.41-16.62,11.33s-9,9.3-14.19,7.52c-1.09-.35-.25-1.74.91-3.11-3.44,2.93-9.57,6.15-14.39,9.15-3.83,2.36-6.76,4.64-6.88,6.48-4.77,3.47-9,7.85-13.92,8.83l-1.45-5a59.28,59.28,0,0,0-14.16,9.34,94.54,94.54,0,0,0-8.45,9,64.06,64.06,0,0,1-6.93,7c-.78.23-1.55.46-2.36.65a9.81,9.81,0,0,1-.48,1.59,73.68,73.68,0,0,1-15,8.18l3.86,1.63c-1.82.94-3.7,1.83-5.52,2.71-3.67,1.79-7,3.57-9.1,5.73l-.08.1c-2.9-.11-5.92.51-9.11,4.25a19.41,19.41,0,0,0-3.89.53l-9.38-7.39c-4.3,3.84-11.69,11-20.05,18.46a153.22,153.22,0,0,0-14.73,8.45l13.88-7.69c-4.58,4.07-9.42,8.21-14.19,12a2.94,2.94,0,0,1-1.61-3c-1.41,1-2.78,2-4.09,2.95a88.78,88.78,0,0,1,10.84-13.26c5.83-6,12.19-11.72,17-16.88q4.59-2.77,8.76-5.65c4.07-2.65,7.88-5.38,11.5-8.19,7.24-5.6,13.69-11.56,20.21-17.35,3.23-2.94,6.41-5.91,9.61-8.92s6.39-6.09,9.8-9q4.16-3.62,8.57-7.25,3.15-.88,6.32-1.7c8.51-2.12,17.15-4.12,25.9-5.83-4-.19-6.83-1.44-8.54-3.16a111.73,111.73,0,0,0,23.94-6.39L647.1,52.76c-7.64.79-15.77,2-24.12,3.38l-8,1.35,0-.05,0,.06-4.68.79L597.51,60.8C589,62.46,580.41,64,572.1,65.23a213.14,213.14,0,0,1-24,2.82c7.31.86,2.61,10.88-4.31,14.11-5.41-.15-11.25,4.17-16.12,6.75s-8.78,3.63-10.39-2.78l3.57-.73c-6-5-13.77-5.41-22-3.83s-16.8,5.11-24.67,7.34l4.27,16.79a62.36,62.36,0,0,0-18.84-1.12A99.54,99.54,0,0,0,440.89,108c-1.37.36-2.72.78-4.07,1.21-1.17-4.87,3.53-8-7.19-8.69,1.28-4.67,2.11-9.77,5.63-13.35,5.5.3,11,.22,16.14.14-.43,3-.85,6-1.26,9a33.79,33.79,0,0,0,10.51-4.29,16.47,16.47,0,0,0,4.43-4.38c3.33.35,6,1,7.8,2.2,3.45-2.84,7.27-5.65,11.3-8.48L451,18.47l-8.53,3.45-.72-1.36c-7.85.66-10,3-10.78,6-4.91,2.05-9.67,4.28-14.18,6.61l-1.91-1.59c-6.18,4-12.27,8.34-18.34,12.94-5.07,3.87-10,8-15,12.21-2.22-1.17-4.16-2.92-6.08-3.64,3.74-3.1,9.16-4.7,10.58-7.76a98.26,98.26,0,0,1-12.82,6.8c-4.84,2.25-10,4.45-14.67,6.9-9.3,4.84-16.7,9.94-15.71,16.14-21.58,2.3,5.68-14.13-19.74-2.38l1.84-4.67a78.26,78.26,0,0,0-20.64,3.44c-.63.19-1.24.42-1.86.63L275.7,39a55.46,55.46,0,0,0-12,2.93l-6.08-7.55a8.5,8.5,0,0,1-4.82-2.68c.38,4.45-4.33,19.29-10.85,25.61-1.09-22.94-27,21.38-38.54,5.49.69,4.32-.45,8.41-2.7,12.41L181.15,90.51C156.49,96.27,174.8,70.72,141,83.1c-11.43,6.72-28,27.53-21.69,28.77,5.13-1.76,14.34-2.2,17.21,2.28l-10,6.93c3.42,9.31,4.16,19.84,13,25.75a44.38,44.38,0,0,0-2.9,10c-21.52,1-5.08-16.53-18.27-21.83,8.94,6.83-11.77,24.25-.87,27-15,2.07-10.61,3.81-23.72.16,4,4.41,4.42,6.82,3.32,8.68l52.48,54c2.48-3,9.68-3.2,10.83-11.56,9.7-1.06,13.08,1.57,15.55,2.68a5.05,5.05,0,0,0,1.74.51c-2.6,3.15-5.28,6.23-8.06,9.17-3.09,3.39-6.25,6.64-9.52,9.62A99.88,99.88,0,0,1,150,243.44a67.83,67.83,0,0,1-10.27,6.28l1.11-5.68c-7.75,5.69-8.71,11.94-8.8,18-.22.32-.44.63-.66,1-1-1.87-3-5.52,1.09-9-4.46,2.85-12.35,6.8-20.24,11.26l15.88,13.09a21.59,21.59,0,0,1-7,4.55l.93-3.81c-1.25,1.16-2.48,2.33-3.73,3.54l45.78,37.76c2.92-1.66,5.8-3.4,8.67-5.17l11.78,9.72c5.77-5.38,11.31-11.17,13.72-16.28,1.78-3.7,2-7-.73-9.57,7.54-4.87,15-9.76,22.44-14.33a262,262,0,0,1,28-14.39,112.2,112.2,0,0,1,28.29-7.65c-.68-3.65,1.6-6.63,5.46-9s9.11-4.49,14.16-6.62,9.89-4.37,12.93-7.17,4.41-6,2.31-10.48c14.57-1.69,20.56-.92,27.53-1.07s15.06-.93,33.37-5.72c4.64-1.68,6.48-5.65,8.37-10.2s3.94-9.49,9.08-12.78l3.14,5.19c-4.16,3.7-7.89,7.14-11.67,10.82-4,3.78-7.81,8-12.27,13.12-2.23,2.55-4.61,5.33-7.21,8.4L357.45,242c-1.42,1.69-2.89,3.47-4.36,5.4,3-.23,5.69-.83,7.73-.92s3.35.3,3.55,2.09a18.4,18.4,0,0,1-9.41,5.7c-3.53.91-6.86.7-8.13-1l.7-1.84c-5.65,9.48-14.58,17.17-24.49,24.54-5,3.64-10.39,7.09-15.93,10.44l-16.5,10.15c-5.48,3.37-10.93,6.71-16,10.17a153.59,153.59,0,0,0-13.84,10.85,66.91,66.91,0,0,0-10.58,11.64,38.11,38.11,0,0,0-5.09,11c-.64.1-1.3.22-2,.38a7.78,7.78,0,0,1,1.41,1l-6,12.24a44.37,44.37,0,0,1-8,3.83l6.52-.69c-1.72,3.7-3.38,7.42-5,11.13-2.7.36-5.38.41-8.08.52-.51-1.94-2-3-6.1-.93a86.43,86.43,0,0,1-5,12.47L274.58,432A87.55,87.55,0,0,1,285,423.12l2.63,2.2c5.33-1.85,10.32-4.67,13.88-12.26l1.91-1v6.62a64.28,64.28,0,0,1,6-9.67c10.93-5.48,21.33-11.12,30.29-21.25,15.15,3.09,30-3.84,45.13-13.22l36.54,41.21c2.34-2.1,4.64-4.16,7-6.17l1.42,1.61A96.07,96.07,0,0,0,436,403.1c2.29-1.82,4.62-3.6,7.07-5.32a125.33,125.33,0,0,1,28-14.64c9.82-2.48-1.3,7.89-2.76,11.5,25.72-18.48,55.48-27.41,79.83-42.57L577.59,384,591.53,372c5-4.17,10.38-8.71,16.38-13.25l-1.1,5.77c14.35-3.17,33-14.82,47.38-19.63,1.37-5.72,9.4-8.81,1.09-12.12a85.13,85.13,0,0,0,19-1.54,83.13,83.13,0,0,0,16.17-5.11c10-4.36,18.86-10.3,27.57-16.25,5.6-3.83,11.2-7.65,17-11,4.17,24.9-23.06,24.44-27.83,49.23,5.07-24.47-4-8.07-10.84-16-6.66,2-15.87,5.73-16.26,2.14-1.54,12.67-18.75,7.62-20.59,25.78-1-.58-2.36,0-3.87.89l-89.51,50.33,119.5-8.66c3.55-.26,8.17-1,8.37,4.48,13.55-6.31-5.35-4.28-5.53-8.38,15-13.34,43.45-6.17,67.93-15.53-.5,1.29-1,2.6-1.55,3.91a57.36,57.36,0,0,1-8.4,14.61c-3.31-1.25-3.34-3.81-2.76-6.73.3-1.46.8-3,1.22-4.44a17.52,17.52,0,0,0,.69-4.15c-2.44,3.28-5.85,6.92-9.19,10.68l26.06,37.67c9.76-5.93,18.72-12.57,18.9-18.8l-7.67.35c2.5,1.23,2.71,6.63.37,8.84-4.78,5.82-9.87,6.38-13.8,5.23l-20.43-29.53a17.08,17.08,0,0,1,7.64,2.72L745,406.47l12,17.29,4.28-2.79a15.86,15.86,0,0,0-7.36-3.33l-4.11-5.93c7.45-.35,12.93-7.14,16.83-14.86,1-1.9,1.86-4,2.77-5.9s1.67-4,2.56-5.81a45,45,0,0,1,2.67-5.31,21,21,0,0,1,3.2-4.44c2.82,4.27,5.57,8.76,8,13.32a115.71,115.71,0,0,0,.13-20,15.66,15.66,0,0,1,9,.7c2.6,1.2,4.3,3.67,2.69,7.78,3.55-1.73,5.34-3.47,6.33-5a8.36,8.36,0,0,0,1.21-4.38c.22-2.66.31-4.95,6.09-8.15l2.76,2.34c-.07.5-.14,1-.22,1.5.09-.47.18-1,.26-1.46l3.29,2.79a15.44,15.44,0,0,1,1.85-.34l-5-4.2c.19-2.05.42-4.07.53-6.1s.24-4.27.23-6.4c1.12,1.58,3.91,1.89,5.82,2.59s2.88,1.86.24,5.19a31.53,31.53,0,0,0,3.76-4.7,33.42,33.42,0,0,0,2.48-4.72l11.2-26.3-33,7.83c-8.13,1.93-14,6-19.07,9l-2.18-1.84a13.07,13.07,0,0,1-.88,1.16l1.74,1.48a24.74,24.74,0,0,1-6.38,2.88c.75-.62,1.53-1.25,2.27-1.9a27.72,27.72,0,0,0,2.38-2.45l-2.37-2a74,74,0,0,0-6.72,6.5,11,11,0,0,1-3.45-1.36l1.64-1.32C742,350.94,773,348,752.95,365.68l-9.42-7.1c2.51-6,2.6-7.39-5.48-4.13l-5.65-4.25c7.24-3.08,15.65-5.58,18.84-10.34-9.36-8.56,15.5-20.69,27.36-36.75,2.34,3.6,33.82-20.59,51.41-30l1.23,1.74c-3.18-4.73-1.73-9.57,1.67-14.5l-15.54-20.1a43.38,43.38,0,0,1,6.08.58C827.54,230,803.16,245,805,234.15l2.41-1.13c7.56-2.43,16.59-2.74,24.53-2.42,8.77.33,16.05,1.18,18.41,0,11.58-2.27,14.41-7.64,17-13.42Zm-70.22,225c-.8-1.89-2-4.18-3-6.63a51.62,51.62,0,0,0,7.78-5.1c.3,1.16.77,2.27,1.07,3.35C772.5,381.17,772.34,384,765.9,386.86Zm14.43-17.63q1.51-1,2.89-1.91c-.39,1.24-.77,2.53-1.15,3.87A3.58,3.58,0,0,0,780.33,369.23Zm21-17.2.5-.45,2.66,2.25A4.33,4.33,0,0,1,801.36,352Zm12.87,8.14L812.9,359C813.76,359,814.12,359.42,814.24,360.17Zm-5.45-14.33c0,.19,0,.38,0,.57a50.43,50.43,0,0,1-.65,6.32,8.79,8.79,0,0,1-1.73.81L803,350.61C804.78,349,806.68,347.43,808.79,345.84ZM700.7,367.14c2.62-4.83,5.77-10.21,13.2-11.95a8.42,8.42,0,0,1,.75,3.56c-.49.88-.48,1.43-.2,1.81-.48,2.28-1.68,4.09-2,5.24A43.1,43.1,0,0,0,700.7,367.14Zm27.74-9.91a26.38,26.38,0,0,1-6.92.48c1.37-2.26,3.81-4,6.75-5.58ZM557.8,340.53c-2-7.73,14.84-23.92,15.6-29.16.67,16.43,22.92-1.18,28.46,8.55-8,2-16.87,4.65-20.16,11.83,2.36-3.5-2.85-10.48-2.31-8.36a99.15,99.15,0,0,0-16.44,12.15C561.22,337.12,559.51,338.8,557.8,340.53ZM185.67,201.11a34.2,34.2,0,0,1,7.05-4.46c-1.77,2.54-3.6,5.09-5.53,7.64l-.17.22A8.32,8.32,0,0,1,185.67,201.11ZM494,173c-.89.75-1.8,1.52-2.66,2.3C492.34,174.37,493.22,173.61,494,173Zm17.9,134.87a11.52,11.52,0,0,1-1.19,1.17A8.85,8.85,0,0,1,511.93,307.84ZM407.39,194l3.61,1.94C408.34,196.64,406.74,196.49,407.39,194Zm9.12-3.63a37.41,37.41,0,0,1,10-5,3.83,3.83,0,0,0,.59.86c1.4,1.51,3.77,2.43,2.93,6.39l-.55.39c-2.43-1.5-6.08-1-9.73.1C418.06,192.44,416.81,191.5,416.52,190.36Zm13.34,2.88,0,0,0,0Zm-15.95-81.42-1.05.67L403,118.93a31.59,31.59,0,0,1,4.43-8.69A21.14,21.14,0,0,0,413.91,111.82Zm-52,29c-.57.09-1.15.17-1.71.23a33.74,33.74,0,0,1-5.32.17,31.26,31.26,0,0,1,5.61-1.46A13.08,13.08,0,0,0,362,140.8ZM245.85,119c-.29.31-.59.61-.92.92C245.23,119.56,245.54,119.26,245.85,119ZM405,192.68l1.15.62-3.44,2.81C403.43,195,404.19,193.82,405,192.68ZM706,205.57,702.36,219a191.94,191.94,0,0,1,24-15.06c3.69,1,6.84,3.15,4,4.23-33.84,8.27-10.29,12.14-30.72,22.2-14.29-.33-3.72-13.12-19.2-2.78,1.09-3.81,1.17-7.77,2.33-11.27a33.85,33.85,0,0,1,6.1,0c4.63-3.42,9.63-7,14.72-10.61C704.38,205.64,705.18,205.6,706,205.57ZM593.24,266.2a9.53,9.53,0,0,1,1.19-1.33l3.84-1.31a3.27,3.27,0,0,1,.54.69A23.45,23.45,0,0,1,593.24,266.2Zm5.86-2.08a5.34,5.34,0,0,1,.31-.94l4.54-1.55C602.32,262.48,600.7,263.35,599.1,264.12Zm.21,1.34a1.21,1.21,0,0,1-.27-.79A4.31,4.31,0,0,1,599.31,265.45Zm7.21,53.33c-.11-.14-.2-.28-.33-.42q1.16-.26,2.18-.39l-.58.48ZM670.2,292a11.41,11.41,0,0,1-1.22.58Zm48.17-5.24a86.59,86.59,0,0,1,9.84-6.41c1.77,1.82,2.94,3.81,2.85,6.06l-12.58,1.44A7.16,7.16,0,0,1,718.37,286.76Zm72.75-12.2a34.84,34.84,0,0,1-5-1.08c1.75-4.69,7.48-10,14.1-13.31C797.61,265.19,795.39,270.44,791.12,274.56ZM776,186.43c-9.6,1.66-16.79,4.44-24,7.38-6.58,2.72-13.14,5.63-21.51,8l1.62-.82c5.23-2.6,10.56-5.06,16-7.42s10.85-4.62,16.38-6.74l3.11-1.19C768.08,187,771.52,187,776,186.43ZM542.23,205.85c-7.21,4.59-13.3,9.71-14.06,13.67,3.24-3,6.45-8.12,11.46-8.3a59.1,59.1,0,0,1-14.44,19.86,82.4,82.4,0,0,1-10.91,8.42A114.31,114.31,0,0,1,501,247.09c-4.36-9.16-13.82-7.93-25.18-3.65,1.93-2.58,3.69-5.22,5.37-7.9,3.56-5.57,6.94-11.13,10.75-16.68s8.07-11,13.92-15.85c5.08,5.6,14.39,5.38,24,3.06s19.83-6.53,26.58-9.36l.47.93C552.42,199.9,547.1,202.77,542.23,205.85Zm121-84.92-1.44-3.32c.15-.22.32-.45.53-.71l1.9,4.38ZM640.71,67.06c-.13.27-.29.55-.47.86l-2.88-6.64c.29,0,.58.08.88.11ZM429.51,101l.1-.37C429.66,100.71,429.63,100.83,429.51,101Zm-.38-.47a.87.87,0,0,1,.39,0Zm46-16.65-2.95-5.59.26-.15,3,5.62Zm-32-61.31,3.12,5.91-.25.18-3.12-5.91ZM166.84,111l-.84.54A2.12,2.12,0,0,1,166.84,111Zm74.82,125.53a9.06,9.06,0,0,1-1.34.67C240.79,237,241.23,236.75,241.65,236.53Zm94-74.16.14.13C335.65,162.54,335.6,162.5,335.67,162.37ZM224.14,372.14l3.22,2.7C224,377.36,224.11,375,224.14,372.14Zm195.63,41.38-34.71-39.16.61-.38,30.84,34.79,4.8-3C422.83,408.55,422.06,411.05,419.77,413.52Zm140.6-70s0,0,0,0l0,0Zm163.06-47a37.26,37.26,0,0,1-2.36-3,33.28,33.28,0,0,0,10-6.88C730.88,289.35,728.77,292.57,723.42,296.43Zm43.52-8.13a60.85,60.85,0,0,1,6.7-.06,14.37,14.37,0,0,1-10,5.52A28.07,28.07,0,0,1,766.94,288.3Zm44.39-47.72c-5.83,2.9-12.65,5.46-18.26,8.52a47.69,47.69,0,0,1,7.19-4.82A32.94,32.94,0,0,1,811.32,240.58Z"/><path class="cls-7" d="M693.69,130.27c-.57.57-1.36,1.36-2,2.16A10.93,10.93,0,0,0,693.69,130.27Z"/><path class="cls-7" d="M694.14,328.55a13.05,13.05,0,0,0,2.26,3.58.59.59,0,0,1,.14,0Z"/><path class="cls-7" d="M537.6,223.28c0,.06.06.06.08.15.65-.46,1.26-.81,1.93-1.25Z"/><path class="cls-7" d="M780.85,435.08a2.08,2.08,0,0,1-.3-1.48l-3.06,2.32Z"/><path class="cls-7" d="M780.56,433.6l3-2.3C782,431.91,780.6,432.5,780.56,433.6Z"/><path class="cls-7" d="M790,426.44l-6.39,4.87C786.19,430.37,789.5,429.44,790,426.44Z"/><path class="cls-7" d="M813.35,367.39a37.56,37.56,0,0,1,7-.17l-2.88-2.44A6.31,6.31,0,0,0,813.35,367.39Z"/><path class="cls-7" d="M586,187.24c8.32-3,18.37-3,21.7-6C601.12,178.43,589.38,180.05,586,187.24Z"/><polygon class="cls-7" points="454.08 99.92 460.36 94.16 447.06 101.66 454.08 99.92"/><path class="cls-9" d="M270.33,484.41a2.29,2.29,0,0,1-2.11-2.45l.86-11.39a2.29,2.29,0,0,1,2.45-2.11L370.7,476a2.28,2.28,0,0,1,2.11,2.45l-.86,11.39a2.29,2.29,0,0,1-2.45,2.11Z"/><polygon class="cls-10" points="270.19 476.37 270.78 468.52 256.67 473.22 256.51 475.34 256.35 477.45 269.59 484.22 270.19 476.37"/><polygon class="cls-9" points="256.8 474.1 252.9 474.46 253.7 476.25 257 476.89 256.8 474.1"/><rect class="cls-7" x="318.67" y="441.47" width="2.38" height="86.11" transform="translate(-187.39 766.98) rotate(-85.68)"/><path class="cls-11" d="M517.06,477.24a2.29,2.29,0,0,1,2.1,2.46l-.88,11.39a2.29,2.29,0,0,1-2.46,2.1l-99.16-7.64a2.28,2.28,0,0,1-2.1-2.45l.88-11.39a2.29,2.29,0,0,1,2.46-2.1Z"/><polygon class="cls-12" points="517.19 485.27 516.59 493.12 530.71 488.44 530.87 486.32 531.03 484.21 517.8 477.42 517.19 485.27"/><polygon class="cls-9" points="530.58 487.56 534.47 487.21 533.68 485.41 530.38 484.77 530.58 487.56"/><rect class="cls-7" x="466.34" y="433.98" width="2.38" height="86.11" transform="translate(-43.99 906.57) rotate(-85.6)"/><path class="cls-13" d="M631.51,496.06A2.29,2.29,0,0,1,629,494l-1-11.38a2.29,2.29,0,0,1,2.08-2.48l99.07-8.71a2.28,2.28,0,0,1,2.48,2.08l1,11.38a2.29,2.29,0,0,1-2.08,2.48Z"/><polygon class="cls-14" points="630.07 488.16 629.38 480.32 616.22 487.25 616.41 489.36 616.59 491.48 630.76 496 630.07 488.16"/><polygon class="cls-9" points="616.49 488.1 612.71 489.08 613.78 490.72 617.14 490.81 616.49 488.1"/><rect class="cls-7" x="637.35" y="486.95" width="86.11" height="2.38" transform="translate(-40.2 61.57) rotate(-5.03)"/><rect class="cls-15" x="109.86" y="473.23" width="93.3" height="7.19" rx="2.12" ry="2.12"/><rect class="cls-16" x="102.44" y="449.67" width="108.14" height="25.47" rx="2.12" ry="2.12"/></g></g></svg>