<svg xmlns="http://www.w3.org/2000/svg" xmlns:xlink="http://www.w3.org/1999/xlink" viewBox="0 0 136.92 101"><defs><style>.cls-1{fill:none;}.cls-2{fill:#a6ffb5;}.cls-3{clip-path:url(#clip-path);}.cls-4{fill:#474747;}.cls-5{font-size:12px;font-family:MicrosoftJhengHeiBold, Microsoft JhengHei;font-weight:700;}</style><clipPath id="clip-path"><rect class="cls-1" x="60.92" y="41" width="26.88" height="26.89"/></clipPath></defs><title>6</title><g id="圖層_2" data-name="圖層 2"><g id="圖層_1-2" data-name="圖層 1"><path class="cls-2" d="M32.9,40.29c-.47-6.54-2.48-14.3-9.24-17.73C18.21,19.79,11,20,6.07,23.5A15,15,0,0,0,.77,40.33c2.41,7.16,10,11.95,17.92,13a2.86,2.86,0,0,0,1.21-.09,2.65,2.65,0,0,0,1.36.47C29.33,54.29,33.35,46.56,32.9,40.29Z"/><path class="cls-2" d="M61.87,10.35A16.11,16.11,0,0,0,47.41.58C40,.53,35.64,7,34.12,13c-1.57,6.19-.18,14.26,6.37,16.59a2,2,0,0,0,1.14,1C48,33.23,55.26,34.29,60.12,28A17.36,17.36,0,0,0,61.87,10.35Z"/><path class="cls-2" d="M136.17,27.3a17.2,17.2,0,0,0-5.08-7.9c-2.78-2.38-6.78-2.82-10.54-2.11-6.87,1.28-13.1,5.61-15.26,11.46-2.38,6.45.86,13.63,7.75,16.77l.24.14c5.54,2.92,13,1.71,17.81-1.87C136.64,39.7,138,33.1,136.17,27.3Z"/><path class="cls-2" d="M102.3,7.53A16.2,16.2,0,0,0,85.36.3c-7,1.32-12.68,6.94-13.09,13.84s3.93,15,11.17,16.55a2.41,2.41,0,0,0,.66.45c6,2.88,13.49.32,17.46-5.24A16.92,16.92,0,0,0,102.3,7.53Z"/><path class="cls-2" d="M111.22,52.74c-4.09-7-11.4-11.53-20.77-13.46s-19-1.67-28.39-2.58a2.24,2.24,0,0,0-1.09.14C52.52,36.67,44.89,41,39.59,45.9c-5.8,5.41-9.78,12-11,19.08-2.42,13.57,6.39,27.77,22.67,33.18,8.79,2.92,18.59,3.2,28,2.56s18.06-2.25,25.06-7.38C118.33,83,118.88,65.85,111.22,52.74Z"/><g class="cls-3"><path class="cls-4" d="M64.16,59.57a10.67,10.67,0,0,0,13.13,1.64.47.47,0,0,1,.56.07l5.54,5.54c1.11,1.1,2.65,1.37,3.63.39l.17-.17c1-1,.72-2.53-.39-3.63l-5.55-5.55a.46.46,0,0,1-.06-.55,10.67,10.67,0,0,0-1.64-13.13A10.88,10.88,0,0,0,64.16,59.57Zm13.38-2a8,8,0,1,1,0-11.37,8,8,0,0,1,0,11.37Zm0,0"/></g><path class="cls-4" d="M76.85,51.23a1.12,1.12,0,0,1-1-.69A4.83,4.83,0,0,0,69.49,48a1.12,1.12,0,1,1-.88-2.07,7.08,7.08,0,0,1,9.27,3.76,1.12,1.12,0,0,1-1,1.56Zm0,0"/><text class="cls-5" transform="translate(48.06 90.68)">寵物辨識</text></g></g></svg>