<svg xmlns="http://www.w3.org/2000/svg" viewBox="0 0 965.06 540.92"><defs><style>.cls-1{fill:#df9031;}.cls-2{fill:#b86d1b;}.cls-3{fill:#9f5214;}.cls-4{fill:#f5ae4c;}.cls-5{fill:#9a5409;}.cls-6{fill:#395a4b;}.cls-7{fill:#3a5255;}.cls-8{fill:#396250;}.cls-9{fill:#394d4b;}.cls-10{fill:#81dfea;}.cls-11{fill:#4a90b6;}.cls-12{fill:#4acddb;}</style></defs><title>7</title><g id="圖層_2" data-name="圖層 2"><g id="圖層_1-2" data-name="圖層 1"><polygon class="cls-1" points="0 527.38 69.85 500.8 899.87 500.8 965.06 530.34 0 527.38"/><path class="cls-2" d="M904.7,507.17C856.27,515,807.88,521.65,759.25,526l188.41.58-42.89-19.43Z"/><path class="cls-2" d="M225.23,502.08l-86.45,9.23s37.05,12.93,36.3,12.91l122,.37C273.9,519.07,247.64,510,225.23,502.08Z"/><polyline class="cls-3" points="0 527.38 4.66 540.92 959.24 536.98 965.06 530.34 0 527.38"/><path class="cls-4" d="M69.85,500.8s-39.21-314.07-35-485.93a2.82,2.82,0,0,1,2.91-2.51c43.91-1.6,584.81-20.87,881.32-7.9A2.8,2.8,0,0,1,922,7c-.16,29.73-2.23,322.87-22.11,493.76Z"/><path class="cls-1" d="M912.69,92c-1.85,104.66-6.85,281.41-20.26,401.45H77.23C75,475.36,68.52,419.95,61.72,350q-3.24-10.34-6.12-20.76c7.93,84.52,16.05,152.42,17.94,167.87H896.15C910.27,373.21,915.24,187.87,917,83.27Q914.79,87.6,912.69,92Z"/><path class="cls-1" d="M679.07,7.4q19.49-1.86,39-3.55-26.54-.15-54.74-.15c-73.29,0-148.87.77-221.1,1.92q-22.8,2-45.54,4.48c85.62-1.58,177.9-2.71,266.63-2.71Z"/><path class="cls-5" d="M80.35,491c-6.17-51.37-36.7-314.73-34-469.05,60.43-2.15,353.45-12.06,617-12.06,97.74,0,180.76,1.38,247,4.1-.39,53.92-3.15,314.9-21,477Z"/><path class="cls-6" d="M84.56,487C77.62,428.72,48.84,177,51,25.69c66.14-2.33,354.26-11.9,612.37-11.9,95.42,0,176.9,1.32,242.28,3.92C905.14,76.4,902.18,328.07,885,487Z"/><path class="cls-7" d="M808.38,416.42l-7.52-10.28-3.73,10.54C798.34,420.36,805.4,422.86,808.38,416.42Z"/><path class="cls-7" d="M816.8,410.85a30.93,30.93,0,0,0,7.44-2.4L818.19,402C816.24,404.34,814.52,407.17,816.8,410.85Z"/><path class="cls-7" d="M811.82,428.31c-3.69-1.28-2.49-5-2.82-7.1-5.82,8.22-11.06,20.74-1.13,28.18,3.36-13.12,7.34-9.74,10.4-25,6.43-3.94,13.85-1.43,14.5,2.84.57-1.71,3.28-2.24,6.06-3.17l-7.64-8.17C823.9,417,817.31,421.29,811.82,428.31Z"/><path class="cls-7" d="M826.8,407.07a25.46,25.46,0,0,1-2.55,1.38l6.94,7.42a26,26,0,0,1,3.54-.32Z"/><path class="cls-7" d="M806.13,197.93c3.12-1.52,4-3.09,3.68-4.09C807.13,195.7,805,197.31,806.13,197.93Z"/><path class="cls-7" d="M760.18,349.52c1.76,4,1.43,7-.14,9.54a20.25,20.25,0,0,0,6.53,3.71C769.38,360.79,762.58,353.31,760.18,349.52Z"/><path class="cls-7" d="M823.41,384c-.09.5-.17,1-.2,1.37C823.27,384.89,823.34,384.44,823.41,384Z"/><path class="cls-7" d="M254.47,32.26a13.34,13.34,0,0,0,1.34,1.21C255.71,32.21,255.37,31.54,254.47,32.26Z"/><path class="cls-7" d="M125.91,129.34l2-1.42a38.34,38.34,0,0,0-2-5.08Z"/><path class="cls-7" d="M700.18,228.91a24.38,24.38,0,0,0-3.22-.4c-1,.82-2.14,1.71-3.15,2.54C695.93,230.33,698,229.59,700.18,228.91Z"/><path class="cls-7" d="M631,184.68c-5,1.32-9.89,2.77-14.83,4.18a35.87,35.87,0,0,0,14.3-.87A7.78,7.78,0,0,0,631,184.68Z"/><path class="cls-7" d="M780.09,439.93l2.72-.13A2.92,2.92,0,0,0,780.09,439.93Z"/><path class="cls-8" d="M845.91,171c-3.7,6.36-7,13.16-20.36,15.89,3.13,1.64,7.37,5.85,5.75,11.42-1.84-4.08-2.74-9.4-5-10.33-.73,6.52-9,11.62-17.5,17-1.3.85-2.61,1.71-3.9,2.57-5.66-3.27-7.21-9.35-1.9-13.53,3.83-1.88,6.33-1.46,6.77-.14,4.7-3.46,11-7.84,2.44-9.26l-.35,4.56c-7.49-.4-21.9,4.7-27.88,4q11.48-4.55,22.93-9c11.18-4.35,22.19-8.9,32.79-14.05l-4.34-7.95c1-.83,2.08-1.72,3.13-2.66l-31.76-58.15c-1.07.78-2.15,1.6-3.24,2.45l-5.36-9.81a228.46,228.46,0,0,0-24.41,16.81c1.63-3.81-.15-6.79,4.91-9.3-3.85-.4-8.31.65-12.78,2.55a60.6,60.6,0,0,0-12.71,7.8c-7.67,6.07-12.93,13-11.1,15.94-8.29,3.63-5.28-4.19-12.08-4.46-6.76.86-12,6.77-16.81,12s-9.11,9.82-14.36,7.95c-1.1-.36-.25-1.84.92-3.29-3.48,3.1-9.68,6.5-14.55,9.66-3.87,2.49-6.84,4.9-7,6.84-4.83,3.67-9.13,8.3-14.08,9.33l-1.46-5.27a59.86,59.86,0,0,0-14.32,9.87,98.3,98.3,0,0,0-8.55,9.53,66.39,66.39,0,0,1-7,7.44c-.79.24-1.57.49-2.39.68a10.7,10.7,0,0,1-.49,1.68,73.66,73.66,0,0,1-15.2,8.64l3.91,1.72c-1.84,1-3.75,1.93-5.58,2.86-3.71,1.89-7.13,3.77-9.21,6.05l-.09.11c-2.93-.11-6,.54-9.21,4.49a18.86,18.86,0,0,0-3.93.56l-9.49-7.8c-4.35,4.06-11.82,11.6-20.28,19.5a153.46,153.46,0,0,0-14.9,8.92l14-8.12c-4.63,4.3-9.53,8.68-14.36,12.63-1-.48-1.64-1.43-1.63-3.19-1.43,1-2.81,2.07-4.14,3.11a93.11,93.11,0,0,1,11-14c5.9-6.3,12.33-12.38,17.21-17.83q4.64-2.92,8.86-6c4.12-2.8,8-5.69,11.63-8.65,7.33-5.92,13.85-12.21,20.45-18.33,3.27-3.1,6.49-6.25,9.73-9.42s6.46-6.44,9.92-9.5q4.21-3.83,8.67-7.65,3.18-.93,6.4-1.8c8.61-2.24,17.35-4.36,26.2-6.16-4.06-.2-6.91-1.52-8.64-3.34,7.48-1,15.61-3.43,24.22-6.75l-30.75-74c-7.73.83-16,2.11-24.41,3.57l-8.06,1.43,0-.06,0,.06-4.74.84-12.93,2.65c-8.63,1.76-17.3,3.34-25.71,4.68a206.89,206.89,0,0,1-24.31,3c7.4.9,2.64,11.5-4.36,14.91-5.47-.16-11.38,4.4-16.31,7.13s-8.89,3.83-10.51-2.94l3.61-.77c-6-5.31-13.93-5.71-22.23-4s-17,5.4-25,7.76L484,111.67A60.48,60.48,0,0,0,465,110.49a96.89,96.89,0,0,0-18.94,3.66c-1.38.38-2.75.82-4.11,1.28-1.18-5.15,3.57-8.42-7.28-9.18,1.29-4.94,2.14-10.33,5.7-14.1,5.56.32,11.17.24,16.33.14-.44,3.17-.86,6.34-1.27,9.5a33.41,33.41,0,0,0,10.63-4.53,17.05,17.05,0,0,0,4.48-4.63c3.37.37,6.1,1.06,7.89,2.32,3.49-3,7.36-6,11.43-9L456.28,19.51l-8.63,3.64-.73-1.44c-7.95.69-10.1,3.2-10.9,6.37-5,2.17-9.78,4.53-14.34,7l-1.93-1.68c-6.25,4.19-12.42,8.81-18.55,13.67C396.07,51.15,391.07,55.55,386,60c-2.25-1.23-4.21-3.08-6.15-3.84,3.79-3.28,9.26-5,10.7-8.2a98.07,98.07,0,0,1-13,7.19c-4.9,2.38-10.15,4.7-14.84,7.29-9.41,5.11-16.89,10.51-15.9,17.05-21.84,2.43,5.74-14.93-20-2.52L328.75,72a76.14,76.14,0,0,0-20.88,3.63c-.64.2-1.25.45-1.88.66l-27.06-35.1a54.16,54.16,0,0,0-12.1,3.09l-6.15-8a8.5,8.5,0,0,1-4.88-2.83c.38,4.7-4.38,20.38-11,27.06-1.1-24.24-27.35,22.58-39,5.8.7,4.56-.45,8.89-2.73,13.11L183.27,95.62c-24.94,6.08-6.42-20.91-40.64-7.83-11.57,7.1-28.34,29.09-21.95,30.4,5.19-1.86,14.51-2.33,17.42,2.41l-10.15,7.32c3.46,9.83,4.21,21,13.19,27.21a48.49,48.49,0,0,0-2.94,10.6c-21.77,1.1-5.14-17.46-18.48-23.07,9,7.22-11.91,25.62-.88,28.55-15.18,2.18-10.74,4-24,.17,4,4.66,4.47,7.21,3.36,9.17l53.09,57.06c2.51-3.14,9.79-3.38,11-12.21,9.81-1.12,13.23,1.66,15.73,2.84a5,5,0,0,0,1.76.54c-2.63,3.33-5.35,6.59-8.16,9.69-3.13,3.58-6.33,7-9.64,10.16a102,102,0,0,1-10.17,8.57,68.16,68.16,0,0,1-10.39,6.64l1.13-6c-7.84,6-8.81,12.61-8.9,19-.22.34-.45.66-.66,1-1-2-3.05-5.83,1.1-9.49-4.51,3-12.5,7.18-20.47,11.9L129.65,294a21.8,21.8,0,0,1-7,4.8l.94-4c-1.26,1.22-2.51,2.46-3.77,3.74l46.31,39.89c3-1.76,5.87-3.59,8.77-5.46l11.92,10.27c5.84-5.68,11.44-11.8,13.88-17.2,1.8-3.91,2-7.41-.74-10.11,7.63-5.15,15.18-10.31,22.7-15.14a261.09,261.09,0,0,1,28.3-15.2,109.74,109.74,0,0,1,28.62-8.08c-.69-3.85,1.62-7,5.52-9.55s9.21-4.74,14.32-7,10-4.61,13.08-7.58,4.46-6.38,2.33-11.07c14.74-1.78,20.8-1,27.85-1.14s15.24-1,33.76-6c4.69-1.77,6.56-6,8.47-10.77s4-10,9.19-13.5l3.18,5.48c-4.21,3.91-8,7.54-11.81,11.43-4,4-7.9,8.46-12.41,13.86-2.26,2.7-4.67,5.63-7.29,8.87l-4.11,5.12c-1.43,1.78-2.92,3.66-4.41,5.71,3-.24,5.76-.88,7.82-1s3.39.32,3.6,2.21a18.5,18.5,0,0,1-9.52,6c-3.57,1-6.94.74-8.23-1.09l.7-1.95c-5.71,10-14.75,18.14-24.78,25.93-5.07,3.84-10.51,7.49-16.11,11L294,313.27c-5.55,3.56-11.06,7.09-16.2,10.74a156.56,156.56,0,0,0-14,11.46,69.71,69.71,0,0,0-10.71,12.3,41.11,41.11,0,0,0-5.15,11.62c-.65.11-1.32.23-2.05.4a7.88,7.88,0,0,1,1.43,1l-6,12.93a44.08,44.08,0,0,1-8.13,4l6.6-.72c-1.74,3.91-3.42,7.84-5.09,11.76-2.73.38-5.44.43-8.17.55-.51-2-2-3.16-6.17-1a93.69,93.69,0,0,1-5.09,13.17l62.57,54.77A89.71,89.71,0,0,1,288.29,447l2.66,2.33c5.39-1.95,10.44-4.94,14-12.95l1.93-1.06v7a68.51,68.51,0,0,1,6-10.22c11.05-5.79,21.58-11.75,30.64-22.45,15.33,3.26,30.33-4.06,45.66-14l37,43.54c2.36-2.22,4.7-4.39,7-6.52l1.44,1.7a101,101,0,0,0,6.42-8.55c2.31-1.92,4.68-3.8,7.15-5.62a125,125,0,0,1,28.3-15.47c9.94-2.62-1.31,8.34-2.79,12.15,26-19.52,56.13-29,80.76-45l29.81,33.71,14.1-12.62c5.1-4.41,10.5-9.21,16.57-14l-1.11,6.1c14.52-3.35,33.41-15.66,47.93-20.74,1.38-6,9.51-9.31,1.1-12.8A82.58,82.58,0,0,0,682.22,350a81.55,81.55,0,0,0,16.36-5.4c10.15-4.61,19.08-10.88,27.9-17.16,5.67-4,11.33-8.08,17.21-11.62,4.22,26.31-23.33,25.82-28.16,52,5.13-25.85-4-8.52-11-16.92-6.73,2.09-16.05,6.06-16.45,2.26-1.56,13.38-19,8.05-20.83,27.24-1-.61-2.39,0-3.91.94L572.82,434.5l120.9-9.15c3.59-.27,8.27-1.09,8.47,4.73,13.7-6.67-5.41-4.53-5.6-8.85,15.22-14.1,44-6.52,68.72-16.4-.5,1.37-1,2.75-1.57,4.14a61.32,61.32,0,0,1-8.5,15.44c-3.35-1.32-3.38-4-2.79-7.11.3-1.54.81-3.14,1.23-4.69a19.26,19.26,0,0,0,.7-4.39c-2.47,3.47-5.92,7.31-9.3,11.28l26.37,39.8c9.87-6.27,18.94-13.29,19.12-19.86l-7.76.37c2.53,1.3,2.74,7,.37,9.34-4.84,6.15-10,6.74-14,5.52l-20.67-31.2a16.83,16.83,0,0,1,7.73,2.88l-2.52,3.1,12.1,18.27,4.33-2.94a15.73,15.73,0,0,0-7.45-3.51L758.58,435c7.54-.37,13.08-7.54,17-15.7,1-2,1.88-4.18,2.81-6.23s1.69-4.19,2.59-6.13a48.4,48.4,0,0,1,2.7-5.61,22.21,22.21,0,0,1,3.24-4.69c2.85,4.51,5.63,9.25,8.13,14.07a127.64,127.64,0,0,0,.13-21.18,15.21,15.21,0,0,1,9.11.74c2.63,1.27,4.35,3.87,2.72,8.22,3.59-1.83,5.4-3.66,6.41-5.31a9.13,9.13,0,0,0,1.22-4.63c.22-2.81.32-5.23,6.17-8.61l2.79,2.47c-.07.53-.14,1.06-.22,1.58.09-.5.18-1,.27-1.55l3.33,2.95a15,15,0,0,1,1.87-.36l-5-4.44c.2-2.17.43-4.3.54-6.44s.25-4.51.23-6.76c1.14,1.67,4,2,5.88,2.74s2.91,2,.24,5.48a33.11,33.11,0,0,0,3.81-5,35.88,35.88,0,0,0,2.5-5l11.33-27.79L815,346.14c-8.23,2-14.19,6.3-19.29,9.55l-2.2-1.95a13.76,13.76,0,0,1-.89,1.22l1.76,1.56a24.52,24.52,0,0,1-6.46,3c.76-.65,1.54-1.32,2.29-2a28.76,28.76,0,0,0,2.41-2.59l-2.39-2.12a76.5,76.5,0,0,0-6.8,6.87,10.81,10.81,0,0,1-3.49-1.43l1.66-1.39c-30.89,13.88.39,10.82-19.86,29.45l-9.53-7.5c2.54-6.33,2.63-7.8-5.54-4.36L741,370c7.33-3.25,15.83-5.9,19.06-10.92-9.47-9,15.69-21.86,27.68-38.82,2.36,3.8,34.21-21.75,52-31.72l1.24,1.84c-3.21-5-1.75-10.11,1.69-15.32L826.95,253.8a42.08,42.08,0,0,1,6.15.61c4.14-11.36-20.53,4.41-18.66-7l2.43-1.2c7.65-2.57,16.78-2.9,24.81-2.55,8.87.35,16.24,1.25,18.62,0,11.72-2.4,14.58-8.07,17.17-14.18Zm-71,237.75c-.81-2-2-4.42-3-7a52.06,52.06,0,0,0,7.87-5.39c.3,1.22.77,2.4,1.08,3.54C781.55,402.7,781.39,405.66,774.87,408.72Zm14.6-18.63q1.53-1,2.92-2c-.4,1.31-.78,2.67-1.17,4.09A3.73,3.73,0,0,0,789.48,390.09Zm21.27-18.17.51-.47,2.69,2.38A4.35,4.35,0,0,1,810.75,371.92Zm13,8.6-1.35-1.2C823.29,379.24,823.66,379.72,823.78,380.52Zm-5.51-15.14c0,.2,0,.4,0,.6a55.56,55.56,0,0,1-.66,6.68,8.72,8.72,0,0,1-1.75.86l-3.5-3.1C814.21,368.73,816.14,367.06,818.27,365.38Zm-109.36,22.5c2.65-5.11,5.84-10.79,13.36-12.62A9.23,9.23,0,0,1,723,379c-.5.93-.48,1.51-.2,1.91-.49,2.41-1.7,4.32-2.07,5.53A41.85,41.85,0,0,0,708.91,387.87ZM737,377.4a25.59,25.59,0,0,1-7,.51c1.38-2.39,3.85-4.27,6.83-5.89ZM564.34,359.76c-2-8.17,15-25.27,15.79-30.81.68,17.36,23.19-1.25,28.79,9-8.12,2.11-17.07,4.91-20.4,12.5,2.39-3.69-2.88-11.07-2.34-8.83a100.7,100.7,0,0,0-16.63,12.84C567.79,356.17,566.06,357.94,564.34,359.76ZM187.85,212.47a34.41,34.41,0,0,1,7.14-4.71c-1.79,2.68-3.64,5.38-5.59,8.08l-.17.24A9,9,0,0,1,187.85,212.47Zm312-29.72c-.91.8-1.82,1.6-2.69,2.43C498.1,184.22,499,183.41,499.81,182.75Zm18.11,142.48a11.92,11.92,0,0,1-1.2,1.23A9.15,9.15,0,0,1,517.93,325.23ZM412.17,204.95l3.65,2C413.12,207.75,411.51,207.59,412.17,204.95Zm9.23-3.84a37.25,37.25,0,0,1,10.1-5.29,4.06,4.06,0,0,0,.59.91c1.42,1.6,3.82,2.57,3,6.75l-.56.41c-2.46-1.58-6.15-1-9.85.11C423,203.31,421.7,202.31,421.4,201.11Zm13.5,3,0,0,0,0Zm-16.14-86-1.07.71-10,6.81a34,34,0,0,1,4.48-9.18A20.64,20.64,0,0,0,418.76,118.14ZM366.2,148.75c-.58.09-1.16.18-1.73.24a32.7,32.7,0,0,1-5.38.18,30.56,30.56,0,0,1,5.68-1.54A13.29,13.29,0,0,0,366.2,148.75ZM248.73,125.67c-.29.32-.59.65-.93,1C248.1,126.32,248.41,126,248.73,125.67Zm161,77.89,1.16.65-3.48,3C408.15,206,408.92,204.76,409.71,203.57Zm304.58,13.61-3.7,14.18a193.15,193.15,0,0,1,24.29-15.91c3.74,1.08,6.92,3.33,4.06,4.47-34.23,8.74-10.41,12.83-31.08,23.46-14.45-.34-3.77-13.86-19.43-2.94,1.1-4,1.19-8.21,2.36-11.91a32.8,32.8,0,0,1,6.17,0c4.68-3.62,9.74-7.41,14.9-11.2C712.64,217.25,713.44,217.21,714.29,217.18Zm-114.1,64.06a9.94,9.94,0,0,1,1.21-1.41l3.89-1.38a3.44,3.44,0,0,1,.55.73A23.06,23.06,0,0,1,600.19,281.24Zm5.93-2.2a5.82,5.82,0,0,1,.32-1l4.6-1.63C609.38,277.31,607.74,278.23,606.12,279Zm.22,1.41a1.31,1.31,0,0,1-.28-.83A4.69,4.69,0,0,1,606.33,280.45Zm7.29,56.34c-.11-.15-.21-.3-.33-.44q1.18-.27,2.21-.41l-.59.51Zm64.43-28.29a11.34,11.34,0,0,1-1.24.62ZM726.78,303a87.31,87.31,0,0,1,10-6.78c1.79,1.93,3,4,2.88,6.4l-12.72,1.53A7.89,7.89,0,0,1,726.78,303Zm73.6-12.89a34,34,0,0,1-5-1.14c1.77-5,7.57-10.52,14.27-14.06C807,280.17,804.71,285.71,800.39,290.07ZM785,197c-9.71,1.75-17,4.69-24.24,7.8-6.66,2.87-13.29,5.95-21.76,8.45l1.64-.86c5.29-2.75,10.69-5.35,16.14-7.84s11-4.88,16.57-7.12l3.15-1.25C777.08,197.55,780.56,197.54,785,197ZM548.58,217.48c-7.3,4.85-13.45,10.26-14.23,14.45,3.28-3.15,6.52-8.58,11.6-8.77a62.41,62.41,0,0,1-14.61,21,83.92,83.92,0,0,1-11,8.9,114.47,114.47,0,0,1-13.45,8c-4.41-9.67-14-8.38-25.48-3.86,2-2.73,3.74-5.52,5.44-8.34,3.6-5.89,7-11.76,10.87-17.62s8.16-11.66,14.08-16.74c5.14,5.92,14.56,5.69,24.3,3.24s20.06-6.9,26.89-9.89l.48,1C558.89,211.2,553.51,214.23,548.58,217.48ZM671,127.76l-1.46-3.51c.15-.23.32-.48.54-.75l1.92,4.62ZM648.22,70.85c-.14.28-.29.59-.47.91l-2.91-7c.29.05.59.09.89.11ZM434.55,106.7l.1-.39C434.7,106.39,434.67,106.53,434.55,106.7Zm-.38-.49a.85.85,0,0,1,.4,0Zm46.55-17.59-3-5.91.27-.16,3,5.94ZM448.34,23.84l3.16,6.25-.25.19L448.09,24ZM168.79,117.27l-.85.57A2.13,2.13,0,0,1,168.79,117.27Zm75.7,132.62a9,9,0,0,1-1.35.7C243.61,250.36,244.06,250.13,244.49,249.89Zm95.11-78.35.14.14C339.58,171.72,339.53,171.68,339.6,171.54ZM226.76,393.16,230,396C226.67,398.67,226.74,396.18,226.76,393.16Zm197.92,43.72-35.12-41.37.62-.41,31.2,36.75,4.86-3.13C427.78,431.62,427,434.27,424.68,436.88Zm142.25-74s0,0,0,0l0,0Zm165-49.7a39.17,39.17,0,0,1-2.39-3.18,33.69,33.69,0,0,0,10.1-7.27C739.44,305.69,737.31,309.1,731.9,313.18Zm44-8.59a59,59,0,0,1,6.78-.07,14.41,14.41,0,0,1-10.12,5.84A29.94,29.94,0,0,1,775.92,304.59Zm44.91-50.42c-5.9,3.07-12.8,5.77-18.48,9a48.16,48.16,0,0,1,7.27-5.09A32.37,32.37,0,0,1,820.83,254.17Z"/><path class="cls-7" d="M701.82,137.63c-.58.6-1.37,1.44-2.06,2.29A11.37,11.37,0,0,0,701.82,137.63Z"/><path class="cls-7" d="M702.28,347.1a13.88,13.88,0,0,0,2.29,3.79.58.58,0,0,1,.15-.05Z"/><path class="cls-7" d="M543.9,235.89c0,.07.06.07.08.16.65-.48,1.27-.86,2-1.32Z"/><path class="cls-7" d="M790,459.66a2.28,2.28,0,0,1-.3-1.56l-3.1,2.46Z"/><path class="cls-7" d="M789.7,458.1l3.08-2.43C791.14,456.31,789.75,456.93,789.7,458.1Z"/><path class="cls-7" d="M799.24,450.52l-6.46,5.14C795.4,454.68,798.75,453.7,799.24,450.52Z"/><path class="cls-7" d="M822.88,388.15a36.4,36.4,0,0,1,7-.18L827,385.39A6.37,6.37,0,0,0,822.88,388.15Z"/><path class="cls-7" d="M592.85,197.81c8.42-3.15,18.59-3.22,22-6.37C608.16,188.51,596.29,190.22,592.85,197.81Z"/><polygon class="cls-7" points="459.4 105.56 465.75 99.48 452.29 107.4 459.4 105.56"/><path class="cls-9" d="M133.28,495.48l.84,11.35a5.76,5.76,0,0,0,5.91,5l70.73.92a15.46,15.46,0,0,0,11.85-5.09l7.33-8.41a12.37,12.37,0,0,0,3.12-8.6l-.43-11.5Z"/><polygon class="cls-10" points="126.01 491.13 128.43 500.92 214.46 502 214.46 488.96 126.01 491.13"/><polygon class="cls-11" points="236.26 473.74 236.26 482.44 214.46 502 214.46 488.96 236.26 473.74"/><polygon class="cls-12" points="126.01 491.13 158.72 474.83 236.26 473.74 214.46 488.96 126.01 491.13"/></g></g></svg>