<svg xmlns="http://www.w3.org/2000/svg" viewBox="0 0 277.89 126.33"><defs><style>.cls-1{fill:#b4b4b4;}.cls-2{fill:#fff;}.cls-3{fill:#c6c4c1;}.cls-4{fill:#b2cec0;}.cls-5{fill:#736357;}.cls-6{fill:#e2ccba;}.cls-7{fill:#dbc1ad;}.cls-8{fill:#65c8d0;}.cls-9{fill:#e8d9c8;}.cls-10{fill:#605249;}.cls-11{fill:#998675;}.cls-12{fill:#333;}.cls-13{fill:#535254;fill-rule:evenodd;}.cls-14{fill:none;stroke:#fff;stroke-linecap:round;stroke-linejoin:round;stroke-width:0.11px;}</style></defs><title>8</title><g id="圖層_2" data-name="圖層 2"><g id="圖層_1-2" data-name="圖層 1"><g id="_群組_" data-name="&lt;群組&gt;"><g id="_群組_2" data-name="&lt;群組&gt;"><path id="_路徑_" data-name="&lt;路徑&gt;" class="cls-1" d="M59.72,63.47c.79-5.38,4-1.71,7.15,8.2S72,94,71.16,99.35s-4,1.71-7.15-8.2S58.93,68.84,59.72,63.47Z"/></g><path id="_路徑_2" data-name="&lt;路徑&gt;" class="cls-2" d="M86,98.29l6.83-1.5,7.66-1.68,1.31-.29,22-4.81,2.27-.5L133,88l16.65-3.65,7.91-1.73,7-1.52,2.2-.48,22-4.82,1.3-.28,7.68-1.68,6.81-1.49,5.41-1.18,10.64-2.33c.56-.12,1-.92,1.21-2.46.06-.42.1-.88.13-1.38,0-.14,0-.29,0-.44q0-.6,0-1.26c0-.1,0-.18,0-.28s0-.12,0-.17c0-.29,0-.6,0-.9s0-.33,0-.5,0-.1,0-.15,0-.33,0-.49,0-.46,0-.71,0-.22,0-.33l0-.45c0-.15,0-.3,0-.46s-.05-.52-.08-.78l0-.29v-.12q-.06-.57-.14-1.16l0-.28,0-.35-.07-.53c-.05-.35-.1-.71-.16-1.07v-.06h0q-.09-.57-.18-1.14l-.09-.54-.06-.33,0-.28q-.1-.57-.21-1.16l0-.24-.06-.32-.12-.6q-.12-.58-.24-1.15v0l-.24-1.12-.14-.63-.08-.33-.06-.25q-.15-.64-.31-1.28l0-.18-.14-.54-.22-.87,0-.16c-.39-1.48-.81-2.94-1.26-4.34-.16-.5-.32-1-.48-1.44l-.15-.44-.33-.92-.08-.22-.06-.16c-.22-.59-.44-1.16-.66-1.69l0-.09-.09-.2q-.2-.47-.39-.9l-.08-.19L215,32.3l-.28-.58-.12-.24,0-.08-.21-.4-.15-.28,0-.06-.16-.28-.16-.28,0-.07-.15-.23-.14-.22-.07-.09-.14-.19-.11-.15-.09-.11-.13-.16-.08-.1-.12-.12-.12-.12,0,0-.16-.13-.09-.08,0,0a1.76,1.76,0,0,0-.27-.16h0a1.08,1.08,0,0,0-.25-.08h-.3L60.94,61c-.56.12-1,.92-1.21,2.46-.06.42-.1.89-.13,1.38,0,.14,0,.29,0,.44q0,.6,0,1.26c0,.1,0,.18,0,.27s0,.12,0,.17c0,.29,0,.6,0,.92s0,.32,0,.49,0,.1,0,.15,0,.34,0,.5,0,.46,0,.7,0,.22,0,.33l0,.46c0,.15,0,.3,0,.46s.05.51.08.77l0,.29v.12q.07.57.14,1.16l0,.28,0,.35.07.52q.08.54.16,1.08v.06q.09.57.18,1.14l.09.54.06.33,0,.28q.1.57.21,1.16l0,.25.06.31.12.6q.12.58.24,1.15v0l.24,1.12.14.63.07.32.06.25q.15.64.31,1.28l0,.18.13.52.23.88,0,.16c.39,1.48.81,2.94,1.26,4.34.16.5.32,1,.48,1.44l.15.44.33.92.08.22.06.16c.22.59.44,1.16.66,1.69l0,.09.09.2q.2.47.39.9l.09.2.07.14.28.57.12.25,0,.08.21.4.15.28,0,.06.16.28.16.28,0,.07.14.22.14.22.07.09.14.19.11.16.09.11.13.15.08.1.12.12.12.12,0,0,.16.13.09.08,0,0a1.71,1.71,0,0,0,.27.16h0a1.11,1.11,0,0,0,.26.08h.3l10.65-2.33Z"/><g id="_群組_3" data-name="&lt;群組&gt;"><path id="_路徑_3" data-name="&lt;路徑&gt;" class="cls-3" d="M210.3,30.49c.79-5.38,4-1.71,7.15,8.2s5.07,22.3,4.28,27.68-4,1.71-7.15-8.2S209.51,35.86,210.3,30.49Z"/></g></g><ellipse class="cls-4" cx="44.62" cy="120.18" rx="44.62" ry="6.15"/><path class="cls-5" d="M27.25,105.3c-2.91-.21-8.78,1.13-11.61,1.75a17.87,17.87,0,0,0-8.52,4.78A24.77,24.77,0,0,0,5,114.14c-1.25,1.56.44,3.66,2.48,3.06a48.26,48.26,0,0,1,18.35-1.74Z"/><path class="cls-6" d="M73.55,107.68C72,101.32,72.5,94.61,72.47,88S71.7,74.5,68.05,69.22l-36.56.44a22.5,22.5,0,0,1-3.85,9.66c-1.88,2.9-4.06,5.57-5.84,8.55-3.51,5.88-5.32,13.25-3.6,20,1.51,5.91,6.14,11,11.62,12.13,6.58,1.65,13.42-.57,20.2-.86a27,27,0,0,1,4.19.12,57.09,57.09,0,0,1,7,1.49c3.23.79,6.8,1.36,9.69-.36h0a8.17,8.17,0,0,0,3.77-6.79A23.62,23.62,0,0,0,73.55,107.68Z"/><path class="cls-7" d="M37.51,100.5s-20.2-2.64-15.9-11.86c0,0-4.66,4.39-1.32,9.49S37.51,100.5,37.51,100.5Z"/><path class="cls-7" d="M38.44,93.65S22.31,91.19,26.12,81.91c0,0-4.66,4.39-1.32,9.49S38.44,93.65,38.44,93.65Z"/><path class="cls-7" d="M36.76,106.38s-19.37,1.07-18.54-8.86c0,0-2.85,5.62,1.23,10.41C23.4,112.56,36.76,106.38,36.76,106.38Z"/><path class="cls-8" d="M72.11,80.89s-22.9,10.52-43.27-3.17l1.58-3.87,40.75,1.65Z"/><path class="cls-2" d="M51.66,84.47a1.32,1.32,0,0,1-.52-1,1.28,1.28,0,0,1,1.11-1.41,1.22,1.22,0,0,1,1.26,1l5.05-.44a1.26,1.26,0,0,1,1.1-1.17,1.24,1.24,0,0,1,1.3,1.2,1.36,1.36,0,0,1-.37,1,1.32,1.32,0,0,1,.52,1A1.28,1.28,0,0,1,60,86.06a1.22,1.22,0,0,1-1.27-1l-5,.44a1.26,1.26,0,0,1-1.11,1.24,1.24,1.24,0,0,1-1.3-1.2A1.36,1.36,0,0,1,51.66,84.47Z"/><path class="cls-9" d="M72.69,120.48h0A6.27,6.27,0,0,0,76.37,115a15.05,15.05,0,0,0-1.26-4.63c-1.7-5-1.29-10.24-1.45-15.41-.13-4.42-.8-9-3.33-12.81a4.14,4.14,0,0,0-3.51-1.61h0a4.18,4.18,0,0,0-3.5,1.74C60.85,86.27,60.4,91,60.48,95.5c.09,5.17.75,10.43-.71,15.46a15.05,15.05,0,0,0-1,4.68,6.27,6.27,0,0,0,3.91,5.24h0l.18.07.13,0C66.22,121.53,69.82,121.9,72.69,120.48Z"/><path class="cls-9" d="M52.22,122.58h0a6.27,6.27,0,0,0,3.65-5.42,15.05,15.05,0,0,0-1.26-4.63c-1.7-5-1.29-10.24-1.45-15.41-.13-4.42-.8-9-3.33-12.81a4.14,4.14,0,0,0-3.51-1.61h0a4.18,4.18,0,0,0-3.5,1.74c-2.47,3.95-2.92,8.68-2.85,13.18.09,5.17.75,10.43-.71,15.46a15.06,15.06,0,0,0-1,4.68A6.27,6.27,0,0,0,42.17,123h0l.18.07.13,0C45.75,123.64,49.35,124,52.22,122.58Z"/><path class="cls-7" d="M52,122.59a7,7,0,0,1-1.72-4.52s-.93,3.74-.35,5.22A5,5,0,0,0,52,122.59Z"/><path class="cls-7" d="M45.53,123.45s-1.26-3-1-4.76a12.36,12.36,0,0,0-.83,4.62A4.15,4.15,0,0,0,45.53,123.45Z"/><path class="cls-7" d="M65.23,121.1a7,7,0,0,0,.83-4.77s1.62,3.5,1.33,5.06A5,5,0,0,1,65.23,121.1Z"/><path class="cls-7" d="M71.79,120.61s.34-3.2-.43-4.85a12.36,12.36,0,0,1,2.14,4.18A4.15,4.15,0,0,1,71.79,120.61Z"/><path class="cls-10" d="M84,39.13l-3.74,5.07L61.5,26.41s4.22-3.12,4.94-2.84"/><path class="cls-10" d="M19.32,42.86l4.47,4.43L39.56,26.84s-4.65-2.44-5.32-2"/><path class="cls-9" d="M84,54.67c.16,17.55-14.13,26.52-31.42,26.67s-31-8.56-31.2-26.11,14.8-31.85,29.28-31.81C66,23.47,83.8,37.12,84,54.67Z"/><path class="cls-6" d="M62.78,43.75c-2.14.24-3.94,1.62-6,2.1a15.06,15.06,0,0,1-4.74.29c-4.08-.37-8-2.51-12.09-1.1-1.1.38-1.58-1.37-.48-1.74,3.72-1.28,7.08.06,10.77.77A13.77,13.77,0,0,0,58,43.52a18.32,18.32,0,0,1,4.75-1.58c1.15-.13,1.15,1.68,0,1.81Z"/><path class="cls-6" d="M58.92,38.14c-1.51.17-2.79,1.14-4.25,1.49a10.64,10.64,0,0,1-3.35.2c-2.88-.26-5.65-1.77-8.54-.78-.78.27-1.11-1-.34-1.23,2.63-.9,5,0,7.61.54A9.73,9.73,0,0,0,55.57,38a12.94,12.94,0,0,1,3.35-1.12c.82-.09.81,1.19,0,1.28Z"/><path class="cls-6" d="M57.42,32.43c-1.27.15-2.35,1-3.59,1.25a9,9,0,0,1-2.83.17c-2.43-.22-4.77-1.5-7.21-.66-.66.23-.94-.82-.29-1,2.22-.76,4.22,0,6.43.46a8.22,8.22,0,0,0,4.67-.32,10.93,10.93,0,0,1,2.83-.94c.69-.08.68,1,0,1.08Z"/><path class="cls-11" d="M35.34,71.29c.57,6.64,10.28,9.13,20.73,8.24s18.43-5,17.86-11.6S64.41,57,53.83,57.81C42.23,58.67,34.77,64.64,35.34,71.29Z"/><circle class="cls-11" cx="39.66" cy="55.7" r="8.23"/><circle class="cls-11" cx="68.14" cy="54.16" r="8.23"/><path class="cls-5" d="M66.44,23.57s-8,17.28-1.5,20.05S81.5,41.39,81.5,41.39s3-.57,2.3-3.06S80.41,23.2,66.44,23.57Z"/><path class="cls-5" d="M34.23,24.79S44.76,40.65,38.8,44.38s-16.7.35-16.7.35-3.05-.1-2.75-2.67S20.38,26.57,34.23,24.79Z"/><circle class="cls-12" cx="40.02" cy="56.09" r="3.04"/><circle class="cls-12" cx="67.49" cy="54.5" r="3.04"/><path class="cls-12" d="M60.35,58.41c.23,2-2.17,5.66-5.59,6S48.22,61.82,48,59.77s2.36-4,5.77-4.39S60.12,56.36,60.35,58.41Z"/><path class="cls-12" d="M48.33,73.69a6.68,6.68,0,0,0,4.79-2.48,7.31,7.31,0,0,0,1.58-3.55l-.31-4,.95-.07.31,4a7,7,0,0,0,1.89,3.27,6.46,6.46,0,0,0,5,1.85c.41-.07.44.6,0,.67-1.9.33-4.06-.74-5.46-2a7.24,7.24,0,0,1-1.9-3,7.57,7.57,0,0,1-1.61,3.3c-1.27,1.45-3.32,2.79-5.23,2.7C48,74.34,47.92,73.67,48.33,73.69Z"/><path class="cls-13" d="M125.79,69.15c-.91-1.23-2.66.39-1.76,1.61a1,1,0,0,1-.76,1.61c-.91,0-1.21-1-1.22-1.74,0-1.75,1.42-3.26,1-5-.35-1.52-1.87-2-3.24-1.71-.32.06-.64.13-1,.21q-.07-1.6-.28-3.2c-.2-1.52-2.53-1-2.33.5a32.46,32.46,0,0,1,.27,3.39c-.84.28-1.67.56-2.49.81a1.18,1.18,0,0,0-.75.63c.14-.78-.4-1.66-1.35-1.36L105.8,66.8a1.09,1.09,0,0,0,.19-.93l-.21-1,2.2-.48a1.19,1.19,0,0,0-.5-2.33l-2.2.48L104.74,60a1.19,1.19,0,0,0-2.33.5l.54,2.51-2.51.54a1.19,1.19,0,0,0,.5,2.33l2.51-.54.21,1a1.08,1.08,0,0,0,.78.86l-3.91,1.22c-1.45.45-1,2.78.5,2.33L103.5,70a12.53,12.53,0,0,1-2.68,4c-1.08,1.08.52,2.84,1.61,1.76a15.11,15.11,0,0,0,3.91-6.63l1.94-.61v.06a6.39,6.39,0,0,0,5.54,5.09,1,1,0,0,0,1-.39l.68.61c-.23.89-.49,1.77-.79,2.64a1.19,1.19,0,0,0,2.26.74c.18-.54.35-1.08.51-1.62,1.13.81,2.74-.71,1.64-1.7l-1-.89a35.55,35.55,0,0,0,.76-6.44c.38-.12.76-.24,1.14-.33.68-.16.8-.08.58.61-.65,2.06-1.55,4.21-.24,6.23a3.37,3.37,0,1,0,5.42-4Zm-11.2.73a1.29,1.29,0,0,0-2.12.88,4.06,4.06,0,0,1-1.86-2.69,1.3,1.3,0,0,0-.08-.27l1.9-.59a1.19,1.19,0,0,0,.75-.64c-.14.77.4,1.65,1.36,1.36l2-.59a33,33,0,0,1-.43,3.86Z"/><path class="cls-13" d="M111.75,75.9l-1.75.38c0-.28-.05-.57-.08-.85a1.24,1.24,0,0,0-.35-2.1q-.15-.71-.35-1.42c-.42-1.47-2.75-1-2.33.5q.18.63.32,1.27l-1,.22a1.19,1.19,0,0,0,.5,2.33l.91-.2c0,.25,0,.5.07.75l-1.73.37a1.19,1.19,0,0,0,.5,2.33l5.81-1.25A1.19,1.19,0,0,0,111.75,75.9Z"/><path class="cls-13" d="M108.64,84.85a3.68,3.68,0,0,1-.85-1.77,1.19,1.19,0,0,0-2.33.5,6.16,6.16,0,0,0,1.42,2.87C107.89,87.62,109.65,86,108.64,84.85Z"/><path class="cls-13" d="M112.88,80.74c-1.07-1.09-2.83.51-1.76,1.61a3.14,3.14,0,0,1,.91,2.07,1.2,1.2,0,0,0,1.41.91,1.22,1.22,0,0,0,.91-1.41A5.18,5.18,0,0,0,112.88,80.74Z"/><path class="cls-13" d="M118.52,78.54a1.22,1.22,0,0,0-1.68-.07,1.2,1.2,0,0,0-.07,1.68,4.07,4.07,0,0,1,1.19,2,1.19,1.19,0,0,0,2.33-.5A6.4,6.4,0,0,0,118.52,78.54Z"/><path class="cls-13" d="M126.56,80a4,4,0,0,0-3.47-2.12A1.22,1.22,0,0,0,121.83,79,1.2,1.2,0,0,0,123,80.27a1.59,1.59,0,0,1,1.5.85,1.19,1.19,0,1,0,2.11-1.1Z"/><path class="cls-13" d="M141.8,57.86l-5.19,1.31a1.13,1.13,0,0,0,.47-.41,1.2,1.2,0,0,0-.35-1.64l-2.91-1.61a1.22,1.22,0,0,0-1.64.35,1.2,1.2,0,0,0,.35,1.64l2.91,1.61a1.35,1.35,0,0,0,.73.17l-5.9,1.49a1.18,1.18,0,0,0-.85,1.48,1.06,1.06,0,0,0-1.11,1.38,57,57,0,0,1,2.47,15.16c0,1.52,2.41,1.67,2.38.13a59.34,59.34,0,0,0-2.52-15.79h0l.14,0,3.47-.87a1.08,1.08,0,0,0-.46,1.18l.22,1-1,.17c-1.51.26-1,2.59.5,2.33l1-.17.53,2.48a3.64,3.64,0,0,0,2.16,1.39l2.14-.46a1.17,1.17,0,0,0,.75-1.75,1.2,1.2,0,0,0,1.74-1.29l-.34-1.58,1.29-.22c1.51-.26,1-2.59-.5-2.33L141,63.2,140.49,61a1.27,1.27,0,0,0-.11-.32l1.92-.49C143.78,59.81,143.29,57.48,141.8,57.86Zm-3.67,3.38a1.32,1.32,0,0,0,0,.25l.46,2.12-2.28.39-.24-1.11a1.08,1.08,0,0,0-1-.9Zm-.9,6.92-.39-1.83,2.28-.39.36,1.67a1.29,1.29,0,0,0,.1.29,1.13,1.13,0,0,0-.76-.08Z"/><path class="cls-13" d="M144.13,76.55q-1.12-.44-2.25-.82a7.29,7.29,0,0,0,.87-1.64c.41-1.09.37-2.58-1-2.87a5.62,5.62,0,0,0-2.24.29l-2.62.57a1.21,1.21,0,0,0-.31,2.21c-1.34-.07-2,2-.53,2.29l1.21.28-1.15.75c-1.28.82-.19,2.94,1.1,2.11a26.32,26.32,0,0,0,2.91-2.07q1.67.52,3.29,1.16C144.82,79.38,145.55,77.12,144.13,76.55Zm-6.9-2.13.13,0,2.86-.62a4.48,4.48,0,0,1-.32.64,6.74,6.74,0,0,1-.44.56Q138.36,74.68,137.23,74.43Z"/><path class="cls-13" d="M149.86,55.48a20.55,20.55,0,0,1-4.22,6.59c-1,1.1.55,2.87,1.61,1.76a23.6,23.6,0,0,0,4.87-7.6C152.69,54.8,150.43,54.06,149.86,55.48Z"/><path class="cls-13" d="M161,58.25l-6.43-3.11c-1.36-.66-2.67,1.33-1.29,2l6.43,3.11C161.08,60.91,162.39,58.92,161,58.25Z"/><path class="cls-13" d="M157.3,61.19a5.23,5.23,0,0,0-3,.07l-4.47,1a1.19,1.19,0,0,0,.5,2.33l3.17-.72a1.21,1.21,0,0,0-.2.29l-4.7,9.62c-.66,1.36,1.33,2.67,2,1.29l4.7-9.62a1.32,1.32,0,0,0-.78-1.81l.72-.16c1.34-.28,2,.26,2.35,1.56a7.53,7.53,0,0,1-.1,3.91c-.09.34-1.23,3.54-2,2.89-1.13-1-2.9.58-1.76,1.61,1.6,1.44,3.62.7,4.72-1a10.59,10.59,0,0,0,1.61-6.65C159.94,64,159.15,61.88,157.3,61.19Z"/><path class="cls-13" d="M164.17,52.14l-1.12-.72a1.19,1.19,0,1,0-1.29,2l1.12.72a1.19,1.19,0,1,0,1.29-2Z"/><path class="cls-13" d="M174.55,57.29l-2.17-1.13a1.22,1.22,0,0,0-1.64.35,1.2,1.2,0,0,0,.35,1.64l2.17,1.13a1.22,1.22,0,0,0,1.64-.35A1.2,1.2,0,0,0,174.55,57.29Z"/><path class="cls-13" d="M173.2,50.35a1.2,1.2,0,0,0-.76-1.5,1.22,1.22,0,0,0-1.5.76l-.81,2.11a1.2,1.2,0,0,0,.35,1.27l-1.1.24q-.22-1.43-.39-2.86c-.18-1.52-2.5-1-2.33.5q.17,1.43.39,2.86l-3.56.77a1.19,1.19,0,0,0,.5,2.33l3.45-.74.07.35a1.5,1.5,0,0,0-.33.48l-1.52,3.51a1.2,1.2,0,0,0,.76,1.5,1.22,1.22,0,0,0,1.5-.76l.38-.89c.08.36.17.72.26,1.08a1.37,1.37,0,0,0,0,.15,1,1,0,0,0-.42.89c0,.45,0,.91,0,1.35l-1.33.29a1.19,1.19,0,0,0,.5,2.33l.41-.09a12.92,12.92,0,0,1-1,2.65c-.7,1.35,1.3,2.65,2,1.29A16.91,16.91,0,0,0,170,67.06l3.72,1.77a1.23,1.23,0,0,0,1.64-.35,1.2,1.2,0,0,0-.35-1.64l-3.08-1.47.94-.2a1.19,1.19,0,0,0-.5-2.33l-1.77.38c0-.23,0-.47,0-.7a1.26,1.26,0,0,0-.11-.5,1,1,0,0,0,.43-1.17q-.65-2.62-1.12-5.27l2.49-.54a1.21,1.21,0,0,0,0-2.33,1.37,1.37,0,0,0,.13-.25Z"/><path class="cls-13" d="M176.65,61.89l-1.32-1.63a1.2,1.2,0,0,0-1.68-.07,1.22,1.22,0,0,0-.07,1.68l1.32,1.63a1.2,1.2,0,0,0,1.68.07A1.22,1.22,0,0,0,176.65,61.89Z"/><path class="cls-13" d="M188.63,66.08l-3.8-2a1.2,1.2,0,0,0-.84-2.2l-4.09.88a1.26,1.26,0,0,0,0-.38l-.13-.59a1.14,1.14,0,0,0,.72.08l1.84-.4a1.19,1.19,0,0,0-.5-2.33l-1.84.4a1.2,1.2,0,0,0-.62.37l-.07-.35,2.2-.48a1.19,1.19,0,0,0-.5-2.33l-2.2.48-.36-1.69a1,1,0,0,0,.72,0l3-1a4.51,4.51,0,0,1,1.17-.37c.28.08.37.76.45,1a44.1,44.1,0,0,1,1.48,6c.27,1.51,2.59,1,2.33-.5a45,45,0,0,0-1-4.48,11.22,11.22,0,0,0-1.24-3.4,2.32,2.32,0,0,0-2.5-1,13.94,13.94,0,0,0-1.42.39l.66-1.6a1,1,0,0,0,0-.68l.36-.08a1.19,1.19,0,0,0-.5-2.33l-5.51,1.19a1.19,1.19,0,0,0,.5,2.33l2.62-.56-1.15,2.81a1.18,1.18,0,0,0-.34.32,1.19,1.19,0,0,0-2.29.63l1.85,8.57a1.08,1.08,0,0,0,1,.89,1.18,1.18,0,0,0,1.39,1.42l1-.22L179,67c-1,1.1.55,2.87,1.61,1.76L183.27,66l.11.07,4,2a1.22,1.22,0,0,0,1.64-.35A1.2,1.2,0,0,0,188.63,66.08Z"/><path class="cls-14" d="M256.27,17.83s2.84-1.66,2.85-1.64c.15.25-4.39,3-4.1,3.52.16.28,5.81-3.59,5.91-3.41.28.48-5.43,2.93-5.14,3.43.11.19,5.66-3.42,5.72-3.3.29.5-6.61,3.63-6.33,4.11.06.1,5.73-3.66,5.88-3.39.29.51-6,3.46-5.79,3.78s5.72-3.44,5.78-3.34c.24.41-6.12,3-5.79,3.55.18.32,6-3.88,6.21-3.58.29.5-5.74,2.84-5.43,3.38.09.16,5.54-3.33,5.59-3.23.29.5-5.92,3.21-5.54,3.87.18.32,5.67-3.57,5.8-3.35.29.51-5.7,3.77-5.34,4.4.15.26,5.6-3.68,5.8-3.35.37.65-6.3,4.5-6,5,.08.14,5.53-3.38,5.61-3.24.37.64-5.58,3.31-5.26,3.86.11.19,6.24-3.93,6.38-3.68.49.86-6.63,4.74-6.23,5.44.12.2,6-3.69,6.14-3.54.19.32-5.6,4.12-5.39,4.48s5.91-3.62,6-3.46-6.14,3.41-6,3.71,5.62-3.5,5.73-3.31c.39.67-5.93,3.54-5.73,3.88s6-3.71,6.08-3.51c.41.71-6.42,4.35-6.27,4.61s6.17-4,6.36-3.67-6.14,4.33-6,4.55,5.65-3.47,5.74-3.32c.2.34-6.11,3.94-5.81,4.46.18.31,6.21-4,6.38-3.68.4.69-6.32,3-6,3.57.19.32,5.81-3.79,6-3.46s-5.59,4.14-5.47,4.35S264,29,264.08,29.11c.47.81-6.58,4.17-6.19,4.85.16.27,6.44-4.05,6.59-3.8.3.51-5.73,4.15-5.51,4.53.11.19,5.29-3.26,5.38-3.1s-5.56,3.31-5.18,4c.14.24,5.9-3.69,6-3.48s-7.15,3.76-6.78,4.4c.13.23,6.42-4,6.53-3.77s-5.62,4.22-5.3,4.79c.15.26,5.79-3.62,5.91-3.41s-6,3.63-5.75,4.07c.07.12,5.42-3.33,5.51-3.18.35.6-5.83,2.86-5.56,3.33.15.25,5-3.14,5.14-3,.36.62-5.58,2.53-5.26,3.09.11.19,5.57-3.42,5.66-3.27.19.33-6.58,4.85-6.26,5.4.08.14,6.51-4.11,6.66-3.85s-5.89,4.65-5.71,5,6-3.58,6-3.48c.51.88-7.24,5.11-6.91,5.67.16.28,7-4.56,7.21-4.16.43.75-6.31,4.35-6.14,4.66.07.13,5.42-3.52,5.59-3.23.37.64-6.8,4.73-6.36,5.49.12.21,6.65-4.08,6.75-3.9.32.55-7.26,4.12-6.9,4.75.24.42,7.59-4.72,7.74-4.47.38.66-7.89,5.57-7.61,6,.18.31,7.08-4.7,7.35-4.24s-6.82,3.74-6.69,4c.26.45,6.77-4.52,7-4.06"/><path class="cls-14" d="M240.09,44.06S244,41.78,244,41.8c.22.39-4.29,3-4.2,3.19s5.2-3.32,5.34-3.08c.26.44-5.77,2.82-5.41,3.45.12.21,5.49-3.51,5.64-3.25s-6.26,2.83-5.88,3.49c.13.22,5.37-3.25,5.44-3.14.25.43-5.27,3.6-5.08,3.94s6.06-3.68,6.14-3.54c.2.35-5.29,3.41-5,4,.17.3,4.78-3.08,4.92-2.84.38.65-5,3.84-4.63,4.48.05.09,5.63-3.49,5.73-3.31.35.61-6,3.25-5.77,3.58.1.18,5.61-3.46,5.71-3.29.2.35-5.32,3.2-5,3.8.15.26,4.74-2.94,4.83-2.79.34.58-5.32,3-5,3.49.07.12,5.79-3.54,5.87-3.39.29.5-6.15,3.82-5.87,4.3.17.29,5.49-3.38,5.58-3.22s-5,2.48-4.81,2.85,5.32-3.39,5.45-3.15c.27.47-5.32,3.17-5.09,3.57.1.17,5-3.18,5.15-3,.29.51-4.81,3.29-4.66,3.55,0,.08,5-3.15,5.11-2.95s-4.82,3-4.66,3.27S252,46.7,252.19,47c.51.89-9.16,4.81-8.89,5.28s8.19-5.12,8.36-4.82-8.27,4.35-8,4.88,7.69-5.06,8-4.6c.37.64-8.26,4.41-7.89,5,.26.45,7.75-5,8-4.59.31.53-8,4-7.52,4.89.11.19,7.47-5,7.77-4.49.14.24-7.36,4.38-6.9,5.18.11.18,7.08-4.51,7.26-4.19.4.7-5.93,4.53-5.66,5,.15.25,5.16-3.2,5.26-3,.3.51-5,3.1-4.82,3.4.07.13,4.29-2.59,4.34-2.51.28.49-4,2.67-3.93,2.8s3.91-2.38,4-2.29"/><path class="cls-14" d="M245.67,34.53s3-1.74,3-1.73c.24.41-3.47,2.16-3.38,2.32s4.5-2.73,4.56-2.63c.22.39-5.54,3.08-5.4,3.31s5.09-3.13,5.17-3-5.14,4.11-5,4.44c.1.17,5.52-3.5,5.66-3.27.26.45-5.72,4.31-5.47,4.73.15.27,6-3.78,6.17-3.56s-5.84,2.75-5.51,3.34c.21.36,5.28-3.38,5.43-3.13s-5.74,4.49-5.59,4.75,5.72-3.79,5.93-3.42-6.35,4.52-6,5.14c.26.45,7-4.29,7.08-4.09s-7,3.54-6.57,4.31c.25.43,6.32-4.14,6.53-3.77s-7.07,5.28-6.92,5.53,7-4.42,7.13-4.12-7.4,4.72-7.16,5.13,7-4.25,7.07-4.08c.34.59-7.7,4.06-7.47,4.46s8.08-5,8.2-4.74-7.9,5.32-7.48,6.06c.17.3,7.83-5.28,8.16-4.71s-8.22,5.6-8,6,7.34-4.89,7.62-4.4-8.5,4.85-8.22,5.34,8.29-5.06,8.41-4.86c.47.81-8.56,5.32-8.22,5.9.13.23,8.29-5.54,8.62-5s-8.72,4.59-8.24,5.41c.11.19,6-3.62,6.06-3.5"/><path class="cls-14" d="M248.26,48.3c.05.09,6.29-3.82,6.37-3.68.22.38-5.93,4.75-5.71,5.13s6.18-3.92,6.33-3.65-6,3-5.77,3.39,4.89-3,5-2.87c.32.56-5.22,3.54-4.93,4.06s8.92-5.37,9-5.21c.33.58-9.19,4.7-8.8,5.37.23.41,8.53-5.52,8.79-5.07s-8.47,4.72-7.94,5.64c.32.56,7-4.42,7.14-4.12.35.61-7.21,4.82-7,5.24s7.29-4.53,7.43-4.29c.23.39-7.37,5.16-7.23,5.42s7.62-4.64,7.72-4.46c.53.93-8.66,3.84-8.11,4.8.29.5,8.21-4.94,8.3-4.79.22.38-7.79,4.51-7.52,5,.11.19,6.43-4.18,6.63-3.83.38.66-6.11,4.33-6,4.54s5.87-3.93,6.11-3.53c.4.69-6.68,3.8-6.56,4s7.15-4.61,7.36-4.25-7.29,4.2-6.85,5c.12.21,6.48-4,6.61-3.81s-6.57,3.53-6.38,3.87,5.75-3.84,6-3.45-6.36,3.79-6.15,4.16c.06.11,6.43-4.24,6.66-3.84.34.59-7,3.63-6.71,4.18.15.26,6.31-3.91,6.42-3.71.26.45-6,3.65-5.82,3.88s5.47-3.51,5.62-3.24-5.76,3.87-5.53,4.28c.14.23,5.88-3.56,6-3.44.21.36-4.88,3.93-4.74,4.17s4.4-2.68,4.47-2.58-4.2,2.71-4,3c0,.06,3.61-2.14,3.64-2.1"/><path class="cls-14" d="M251,34.2s3-1.74,3-1.73c.23.4-4,3.34-3.84,3.65.06.11,6-3.63,6.05-3.49.21.36-6.29,4.66-6,5.23.07.12,6.29-4.09,6.49-3.75.3.53-6.42,4.21-6.27,4.47s6.52-4,6.64-3.83c.23.39-6.67,4-6.34,4.52.13.23,6.12-4,6.31-3.65s-6.36,2.88-6,3.55c.21.37,6.34-3.86,6.42-3.71.43.75-6.79,4.18-6.5,4.68.11.2,6.44-4.12,6.61-3.82.28.48-7,4.25-6.75,4.72s7-4.6,7.21-4.16c.43.75-7.41,5.5-7.25,5.77s7.19-4.52,7.35-4.24c.26.45-6.88,4.71-6.51,5.35.12.2,7.23-4.75,7.48-4.32S251,44.21,251.5,45c.23.4,7.29-4.72,7.51-4.33s-7.48,3.67-7.07,4.39c.26.44,6.89-4.29,7-4.06.42.73-7.77,3.59-7.27,4.46.15.26,7.26-4.81,7.53-4.35.16.27-7.41,4.52-7.18,4.92s7.24-4.44,7.35-4.24c.31.53-7.63,4.43-7.38,4.88s8.19-5.44,8.5-4.91c.44.76-9.32,5.51-8.81,6.4.05.09,5.8-3.75,6-3.45.29.51-5.62,3.57-5.38,4,.1.17,5.57-3.35,5.63-3.25"/><path class="cls-14" d="M262,54c.18.31,8.59-5.52,8.83-5.1.57,1-8.18,4.88-7.8,5.54.19.33,6.7-4.45,6.95-4s-8.08,5.17-7.59,6c.14.24,7.76-5,8-4.61s-7.7,4.17-7.37,4.73c.12.22,7.33-4.83,7.59-4.38s-7.54,4.84-7.13,5.55c.14.24,6.16-4.16,6.42-3.71.13.23-6.51,3.75-6.07,4.52.24.41,6.47-4.32,6.72-3.88s-7.18,3.94-6.82,4.57c.07.12,5.9-3.55,6-3.44.32.55-6.58,3.35-6.22,4,.15.27,6.92-4.5,7.14-4.12.32.56-7.27,5-7.1,5.28s6.73-4.32,6.92-4c.29.5-6.63,3.53-6.21,4.27.08.14,5.62-3.7,5.81-3.36s-5.79,3.94-5.51,4.43c.08.13,5.15-3.2,5.25-3,.22.38-6.09,3.28-5.82,3.75.08.14,5.6-3.56,5.74-3.31s-4,3.26-3.84,3.46c0,0,4-2.36,4.05-2.34"/><path class="cls-14" d="M255.06,46.21c.11.19,5.29-3.39,5.43-3.14s-5.8,3.28-5.49,3.81c.14.24,5.48-3.3,5.54-3.2s-4.68,4-4.58,4.17,5.13-3.17,5.22-3S255.61,47.4,256,48c.16.27,5.6-3.41,5.68-3.28s-5.7,2.73-5.39,3.26c.08.14,5.43-3.28,5.49-3.17.37.65-5.56,3.05-5.47,3.22s5.27-3.39,5.42-3.13-5.82,2.92-5.48,3.5c.15.26,5.11-3.17,5.2-3,.35.61-5,4.4-4.9,4.65,0,.08,6.13-3.86,6.27-3.62s-6.18,4-6,4.26,5.43-3.28,5.49-3.17c.27.47-4.43,3.85-4.28,4.11s8.76-5.35,8.89-5.13c.5.87-9.4,6-9.07,6.58.53.92,12.28-7.56,12.48-7.21.62,1.08-12.55,6.78-12.15,7.48.57,1,11.88-7.48,12.15-7,.55,1-12.49,6.9-12.07,7.62.24.41,11.76-7.68,12.15-7,.57,1-12.14,6.24-11.76,6.89.17.3,11.87-7.73,12.25-7.07.64,1.11-12,6.66-11.63,7.36s10.88-7.22,11.29-6.52-10.9,7.28-10.69,7.64c.51.88,9.64-6.76,10.15-5.86.67,1.16-9.47,6.71-9.22,7.14,0,.07,3.74-2.38,3.84-2.22.24.42-3.77,2.16-3.65,2.37,0,0,3.31-1.95,3.32-1.92"/><path class="cls-14" d="M266.87,35.66c.13.23,6.44-4.13,6.62-3.82.32.55-6.31,3.06-6,3.69,0,.08,5.28-3.33,5.4-3.12.4.7-5.66,4.23-5.47,4.56s5.37-3.23,5.43-3.13c.33.57-4.89,4-4.7,4.32s5.48-3.48,5.62-3.24-5.55,3.14-5.21,3.72c.07.12,5-3.08,5.08-2.93.35.61-5.15,3.69-5,3.88s5.3-3.36,5.43-3.14c.32.56-5.69,3.11-5.59,3.28s5.48-3.52,5.63-3.25-6.07,4.24-5.79,4.73c.12.21,5.35-3.38,5.47-3.16s-5.46,3.2-5.31,3.45,5.84-3.64,6-3.44c.33.58-5.44,3.31-5.2,3.74.07.12,5.47-3.32,5.54-3.2.2.35-5.71,4.41-5.57,4.65s5.23-3.39,5.39-3.11c.35.61-5.34,3.38-5.23,3.57s5.31-3.41,5.45-3.15c.42.73-6,4.58-5.72,5.06.07.11,6.48-4.13,6.65-3.84s-6.31,3.86-6.1,4.22,5.86-3.71,6-3.46c.4.69-6.49,3.89-6.27,4.28.05.09,6.4-3.94,6.5-3.76.21.37-5.73,3.57-5.57,3.84s5.74-3.56,5.84-3.37-6.14,3.93-5.87,4.41c.14.24,5.3-3.31,5.4-3.12s-5.77,3.39-5.6,3.68,5.49-3.43,5.6-3.24c.21.36-5.46,3.76-5.15,4.3.07.12,5.8-3.68,5.94-3.43s-5.67,3.75-5.36,4.29c.18.31,5.46-3.3,5.52-3.19s-5.63,3.41-5.35,3.91c.12.21,4.73-2.95,4.82-2.78.4.7-5.2,4.51-5.09,4.69s5.42-3.47,5.56-3.21-5.75,3.3-5.59,3.57,6.23-4,6.39-3.69c.44.77-6.69,3.73-6.44,4.18.12.21,5.61-3.41,5.68-3.28s-5.79,3.27-5.54,3.71c0,.08,5.42-3.54,5.6-3.23s-5.08,3.09-4.74,3.68c.17.29,5.51-3.47,5.64-3.25.32.55-6.08,3.6-5.86,4s5.44-3.45,5.58-3.22-5.46,3.07-5.14,3.62c.11.18,4.88-3.08,5-2.88s-5.1,2.52-4.83,3c.08.15,4.89-3.11,5-2.9.24.42-5.13,2.95-5,3.11s4.94-3,5-2.9c.3.52-4.66,2.58-4.45,3,.09.15,4.86-3,4.93-2.85s-4,2-3.73,2.44c0,0,2.61-1.52,2.62-1.51"/><path class="cls-14" d="M262.21,1.87S265.35,0,265.35.06c.1.17-4.68,3.61-4.33,4.21.09.15,6-3.88,6.17-3.56.34.59-5.28,3.77-5,4.18s5.47-3.52,5.63-3.25c.3.51-6,3.92-5.66,4.5.07.12,5.54-3.34,5.6-3.23S261.09,7,261.54,7.76c.06.11,6.7-4.15,6.82-3.94.37.64-6.25,3.31-6.11,3.55s5.44-3.4,5.55-3.2-5.68,4.5-5.51,4.79,6.15-3.73,6.23-3.6c.2.35-7,4-6.6,4.77.06.1,5.8-3.62,5.92-3.42.38.65-5.68,4.68-5.49,5s6.51-4.2,6.7-3.87c.46.8-6.28,4.38-5.88,5.08.08.14,5.5-3.42,5.6-3.23.46.8-6.84,4.45-6.4,5.21.2.35,6.41-4.06,6.57-3.79s-5.87,3.22-5.53,3.82c.06.1,5.74-3.53,5.83-3.37.2.34-6.07,3.79-5.75,4.34.07.13,5.84-3.61,5.95-3.43s-6.58,4.56-6.36,5,6.41-4.18,6.62-3.82c.47.82-6.93,4.12-6.69,4.54.15.26,6.19-3.83,6.3-3.64.21.37-5.88,4.51-5.65,4.9s6.45-4.27,6.69-3.86-7.24,3.41-6.81,4.15c.08.14,6.36-4.19,6.58-3.8s-7,5.24-6.76,5.58,6.45-4,6.57-3.8c.46.79-7,4.78-6.58,5.57.17.29,7.38-4.8,7.61-4.4.51.89-7.81,4.93-7.48,5.51.12.2,6.84-4.37,7-4.05.49.85-6.88,4.69-6.63,5.11s7.39-4.51,7.5-4.33c.21.37-8.52,4.63-8,5.61.24.42,6.92-4.49,7.13-4.12s-6.66,3.91-6.47,4.25,6.74-4.13,6.85-4c.27.46-7.45,4.16-7,5,.13.22,7.4-4.9,7.67-4.43.39.67-8.51,5-8,6,.15.26,7.75-4.9,7.93-4.58.48.83-7.73,5.1-7.36,5.75.11.19,7.29-4.87,7.57-4.37.48.84-7.62,3.82-7.31,4.36s7.3-4.72,7.52-4.34-7.56,5.76-7.38,6.06,7.51-5,7.82-4.51-9,4.94-8.55,5.71c.12.21,7.71-5.17,8-4.63.46.8-8.21,4.64-7.82,5.3.13.22,7.94-5,8.12-4.69.31.54-8.41,5.76-8.25,6,.27.46,8.1-4.93,8.21-4.74.53.92-8.45,4.74-8.19,5.19.13.23,8.6-5.66,8.9-5.14s-8.57,5.64-8.09,6.47c.16.28,5.41-3.56,5.6-3.23s-6.6,3.49-6.41,3.83,5.78-3.69,5.93-3.43-6.34,3.3-5.92,4c.17.3,6.74-4.06,6.81-3.93.36.62-7.14,3.41-6.73,4.12.17.3,6-3.66,6.07-3.5.2.34-6,3.93-5.85,4.26.09.15,6.23-4,6.39-3.69.46.8-6.7,4.93-6.54,5.22s5.71-3.67,5.88-3.39c.28.49-5.89,4.47-5.75,4.71s6-3.9,6.17-3.56c.42.72-6.22,3.84-6,4.26s6-3.65,6.1-3.52c.19.33-6.11,4.29-5.84,4.76.09.16,6.11-3.66,6.17-3.56.36.62-6.62,4.3-6.3,4.86.11.19,5.75-3.56,5.86-3.38.29.51-6.73,3.49-6.47,3.94.1.18,6.53-3.9,6.58-3.8.29.51-6.21,4.79-6.06,5s6.26-3.93,6.4-3.69c.38.66-6.31,3.75-6,4.36.18.31,5.52-3.54,5.68-3.28.33.58-6.88,3.83-6.54,4.41.17.29,5.92-3.62,6-3.47"/></g></g></svg>