<svg xmlns="http://www.w3.org/2000/svg" viewBox="0 0 274.1 132.36"><defs><style>.cls-1{fill:#b4b4b4;}.cls-2{fill:#f9f573;}.cls-3{fill:#c6c4c1;}.cls-4{fill:#3e3b3f;}.cls-5{fill:#b2cec0;}.cls-6{fill:#e6e6e6;}.cls-7{fill:#f7f7f7;}.cls-8{fill:#4d4d4d;}.cls-9{fill:#41b7b7;}.cls-10{fill:#4ec1c4;}.cls-11{fill:#65c8d0;}.cls-12{fill:#474747;}.cls-13{fill:#fcb6b6;}.cls-14{fill:#333;}.cls-15{fill:none;stroke:#f9f573;stroke-linecap:round;stroke-linejoin:round;stroke-width:0.11px;}</style></defs><title>10</title><g id="圖層_2" data-name="圖層 2"><g id="圖層_1-2" data-name="圖層 1"><g id="_群組_" data-name="&lt;群組&gt;"><g id="_群組_2" data-name="&lt;群組&gt;"><path id="_路徑_" data-name="&lt;路徑&gt;" class="cls-1" d="M59.69,70.47c.73-5.39,4-1.75,7.25,8.12s5.33,22.24,4.6,27.62-4,1.75-7.25-8.12S59,75.86,59.69,70.47Z"/></g><path id="_路徑_2" data-name="&lt;路徑&gt;" class="cls-2" d="M86.36,105l6.81-1.57,7.64-1.77,1.3-.3L124,96.28l2.27-.52,6.91-1.6,16.61-3.84,7.89-1.82,6.94-1.6,2.19-.51,22-5.08,1.29-.3,7.66-1.77,6.8-1.57,5.4-1.25L220.54,74c.56-.13,1-.93,1.19-2.47.06-.42.09-.89.11-1.38,0-.14,0-.29,0-.44q0-.6,0-1.26c0-.1,0-.18,0-.28s0-.12,0-.17c0-.29,0-.6,0-.9s0-.33,0-.5,0-.1,0-.15,0-.33,0-.49,0-.46-.05-.7,0-.22,0-.33l0-.45c0-.15,0-.3,0-.46s-.06-.52-.09-.77l0-.29v-.12q-.07-.57-.15-1.16l0-.28-.05-.34-.08-.53c-.05-.35-.11-.71-.17-1.07v-.06h0q-.09-.57-.2-1.14l-.1-.54-.06-.32-.05-.28q-.11-.57-.23-1.15l-.05-.24-.07-.32-.12-.59q-.12-.57-.25-1.15v0l-.26-1.12-.15-.63-.08-.33-.06-.25q-.16-.64-.33-1.28l0-.18-.14-.54-.23-.87,0-.16c-.41-1.47-.85-2.93-1.31-4.33-.16-.5-.33-1-.49-1.44l-.16-.43-.34-.92-.08-.22L216,40.7c-.23-.59-.45-1.15-.68-1.68l0-.09-.09-.2q-.2-.47-.4-.89l-.09-.19-.07-.13-.29-.58-.12-.24,0-.08-.22-.4-.15-.28,0-.06-.16-.28-.17-.28,0-.07-.15-.22-.15-.22-.07-.09-.14-.19-.11-.15-.09-.11-.13-.15-.08-.09-.12-.12-.12-.12,0,0L212,33.6l-.09-.07,0,0a1.76,1.76,0,0,0-.27-.15h0a1.08,1.08,0,0,0-.26-.08h-.3L60.88,68c-.56.13-1,.93-1.18,2.47-.06.42-.09.89-.11,1.38,0,.14,0,.29,0,.44q0,.6,0,1.26c0,.1,0,.18,0,.27s0,.12,0,.17c0,.29,0,.6,0,.91s0,.32,0,.49v.15c0,.16,0,.34,0,.5s0,.46.05.7,0,.22,0,.33l0,.46c0,.15,0,.3,0,.46s.06.51.09.77l0,.29v.12q.07.57.15,1.16l0,.28.05.35.08.52q.08.54.17,1.08v.06q.09.57.2,1.14l.1.54.06.33.05.28q.11.57.23,1.15l.05.25.06.31.13.6.25,1.15v0l.26,1.12.15.63.08.32.06.25q.16.64.33,1.28l0,.18.14.52.24.88,0,.16c.41,1.47.85,2.93,1.31,4.33.16.5.33,1,.49,1.44l.16.44.34.92.08.22.06.16c.23.59.45,1.15.68,1.68l0,.09.09.2q.2.46.4.89l.09.19.07.14.28.57.12.24,0,.08.22.4.15.28,0,.06.16.28.17.28,0,.07.15.22.15.22.07.09.14.19.11.15.09.11.13.15.08.09.12.12.12.12,0,0,.17.13.09.07,0,0a1.71,1.71,0,0,0,.27.15h0a1.11,1.11,0,0,0,.26.08h.3L81,106.23Z"/><g id="_群組_3" data-name="&lt;群組&gt;"><path id="_路徑_3" data-name="&lt;路徑&gt;" class="cls-3" d="M209.88,35.76c.73-5.39,4-1.75,7.25,8.12s5.33,22.24,4.6,27.62-4,1.75-7.25-8.12S209.15,41.14,209.88,35.76Z"/></g></g><path class="cls-4" d="M132,70.55l-4.06-2.72c.37-1.21-1.53-1.75-2-.54a45.55,45.55,0,0,1-2.53,5.89c-.6,1.16,1.13,2.22,1.73,1.05q1.13-2.18,2-4.45l3.73,2.5C132,73,133,71.27,132,70.55Z"/><path class="cls-4" d="M148.88,82c-3.34,1.14-6.47-.59-9.49-2.25a9.41,9.41,0,0,0,.61-2.54,4,4,0,0,0-1.09-3.4,2.84,2.84,0,0,0-1.4-.7,2.43,2.43,0,0,0-.66,0c.14-.6.27-1.2.37-1.81a5.79,5.79,0,0,0,0-3.15,2.15,2.15,0,0,0-3.73-.59c-.76,1,.8,2,1.62,1.18l.13,0a1.1,1.1,0,0,1,.17.76,9.19,9.19,0,0,1-.2,1.57A27.38,27.38,0,0,1,134.5,74a1,1,0,0,0,.68,1.26c.76.32,1.46-.35,2.13-.1,1,.36.71,1.93.54,2.68a7.89,7.89,0,0,1-.28.93,17.94,17.94,0,0,0-2.08-.92c-1.23-.44-1.81,1.51-.58,1.94a19.14,19.14,0,0,1,1.78.75,8.83,8.83,0,0,1-1.23,1.47A1,1,0,0,0,134,82l-.23.2.06-.63c.12-1.3-1.91-1.36-2-.06l-.07.73q-.25-1-.47-1.94c.19-.09.38-.19.56-.3,1.12-.65.15-2.42-1-1.78-.1-.55-.19-1.11-.27-1.66a1,1,0,0,0-.15-.41,1,1,0,0,0,.46-.8,1,1,0,0,0-1-1l-3.24.21a1,1,0,0,0-1,1,1,1,0,0,0,1,1l2.1-.13a1,1,0,0,0-.09.63q.14,1,.32,1.92a6.06,6.06,0,0,1-1.19.12c-1.31,0-1.37,2-.06,2a8.46,8.46,0,0,0,1.65-.16q.26,1.17.58,2.33L128.59,82a1,1,0,0,0-1.46,1.41l1.42,1.3a1.11,1.11,0,0,0,1.09.25l-.85.41c-1.19.53-.2,2.31,1,1.77a21.78,21.78,0,0,0,5.28-3.37,1,1,0,0,0,1.43.07,10.54,10.54,0,0,0,2-2.35c3.43,1.82,6.88,3.85,10.85,2.5C150.58,83.59,150.12,81.62,148.88,82Zm-19,2.84.14-.12a1.13,1.13,0,0,0,.26-.44l.08.29v0Z"/><path class="cls-4" d="M148.31,75.34l-3.2.62-.26-1.08h.06a1,1,0,0,0,1-1,1,1,0,0,0-1-1l-.61,0L144,71.33l.57-.14a1,1,0,0,0,.41-1.75.82.82,0,0,0,.58-.89c0-.27,0-.57-.05-.89l.65-.13c1.29-.23.8-2.2-.48-2l-.47.09a3.15,3.15,0,0,0-1-1.75,2.29,2.29,0,0,0-2-.28h0L141.47,61a1,1,0,0,0-2,.48l.64,2.63-1.34.35a1,1,0,0,0,.48,2l1.35-.34.19.76q-1.3.46-2.55,1c-1.18.55-.2,2.32,1,1.77q1-.47,2-.85l.24,1-.83.2a1,1,0,0,0,.48,2l.83-.2L142.3,73h0a1,1,0,0,0-1,1,1,1,0,0,0,1,1l.59,0,.34,1.38-1.89.37c-1.28.25-.8,2.22.48,2l1.89-.37.58,2.36a1,1,0,0,0,2-.48l-.55-2.27,3.2-.62C150.08,77.06,149.59,75.09,148.31,75.34Zm-5.74-9.81a.68.68,0,0,1,.34,0c.14.06.22.33.27.59l-.44.12Zm.65,2.67.26-.07c0,.12,0,.24,0,.35a1,1,0,0,0,.41.77l-.41.1Z"/><path class="cls-4" d="M156.67,60.43a15.7,15.7,0,0,0-3.35-1.91,1,1,0,0,0-1.26.68,1,1,0,0,0,.68,1.26,13.72,13.72,0,0,1,2.88,1.7,1,1,0,0,0,1.39-.34A1,1,0,0,0,156.67,60.43Z"/><path class="cls-4" d="M161,60.93a31.69,31.69,0,0,0-4.95,1.7A52,52,0,0,0,151,65h0l-.06-.23a1,1,0,0,0-2,.48l.69,2.85a1,1,0,0,0,2-.48l-.18-.73a1,1,0,0,0,.54-.12,49.57,49.57,0,0,1,6.8-3q.82-.29,1.65-.54a3.92,3.92,0,0,1,.92-.28c.34,0,.11-.09.24.09.59.77.06,2.18-.41,2.85-.75,1.07,1,2.12,1.73,1.05a5,5,0,0,0,.81-3.8C163.43,61.69,162.55,60.6,161,60.93Z"/><path class="cls-4" d="M165.48,73.62l-4.77,1.16a3.49,3.49,0,0,0-.78-1.09,2.64,2.64,0,0,0-1.8-.61,12,12,0,0,0,.8-1.31,5.6,5.6,0,0,0,.93-2.86,1.46,1.46,0,0,0-1.74-1.34,27.9,27.9,0,0,0-3.73,1.11c-1.24.38-.77,2.35.48,2L157,70c.14,0,.35-.08.55-.13a13.83,13.83,0,0,1-.65,1.4,11.48,11.48,0,0,1-1.33,1.8,1,1,0,0,0,.41,1.7,4.69,4.69,0,0,0,1.63.23,1.45,1.45,0,0,1,1,.26L153,76.66a1,1,0,0,0,.48,2l5.83-1.42a4.51,4.51,0,0,1,.06.47c0,.26-.11,1.53-.73,1.21-1.15-.6-2.21,1.13-1.05,1.73a2.47,2.47,0,0,0,3-.49,3.56,3.56,0,0,0,.73-3.25l0-.15L166,75.6A1,1,0,0,0,165.48,73.62Z"/><path class="cls-4" d="M170.62,57l-3.88,7.8c-.58,1.16,1.15,2.23,1.73,1.05l3.88-7.8C172.93,56.93,171.2,55.87,170.62,57Z"/><path class="cls-4" d="M180.76,60.06l-5.63-3.11c-1.14-.63-2.2,1.1-1.05,1.73l5.63,3.11C180.85,62.42,181.9,60.69,180.76,60.06Z"/><path class="cls-4" d="M178.16,64a13.85,13.85,0,0,0-3.52.78l-3.93,1a1,1,0,0,0,.48,2l1.88-.46a1.06,1.06,0,0,0-.31.43q-1.63,4-3,8.14a1,1,0,0,0,1.94.58q1.33-4.12,3-8.14a.88.88,0,0,0-.75-1.23l1.56-.38a9,9,0,0,1,2.16-.53c.37,0,.24-.09.42.26a4.74,4.74,0,0,1,.27.95,10.12,10.12,0,0,1,.17,3.65,9.89,9.89,0,0,1-.38,1.67c-.18.57-.68,1.28-.55,1.82a1,1,0,0,0-2,.48,1.79,1.79,0,0,0,1.83,1.4,2.52,2.52,0,0,0,2.06-1.65,11.81,11.81,0,0,0,1.08-6.11C180.46,67.12,180.15,64.1,178.16,64Z"/><path class="cls-4" d="M193.13,59a14.91,14.91,0,0,0-3.89-1.49l-.27-1.2q.91-.26,1.84-.47a1,1,0,0,0-.07-2,6,6,0,0,0,.5-2.73,1,1,0,0,0-1-1,1,1,0,0,0-1,1,4.27,4.27,0,0,1-.76,2.73l0,.06-.77-3.51a1,1,0,0,0-2,.48l.91,4.14q-.89.33-1.76.72l.07-.1a1,1,0,0,0-.34-1.39L182.64,53a1,1,0,0,0-1.05,1.73l1.94,1.18a1,1,0,0,0,.55.14c-.89.64,0,2.2,1.16,1.67.38-.18.76-.34,1.15-.5a1,1,0,0,0-.3.47l-1.19,3.75a1,1,0,0,0,1.94.58l.78-2.47.72,3.27a1,1,0,0,0,2-.48l-.57-2.6a12.7,12.7,0,0,1,2.34,1C193.22,61.33,194.28,59.6,193.13,59Z"/><path class="cls-4" d="M194.39,70.44a6.51,6.51,0,0,0-3.27-1.65v-.13a13.66,13.66,0,0,0,1.35-.36c1.23-.4.76-2.38-.48-2-.27.09-.53.16-.8.23,0-.3,0-.6,0-.9,0-1.3-2.07-1.37-2-.06,0,.44,0,.87,0,1.31a12.24,12.24,0,0,1-1.69,0,1,1,0,0,0-.06,2,14.05,14.05,0,0,0,1.66,0,28.72,28.72,0,0,1-.75,4.64c-.31,1.27,1.63,1.85,1.94.58a31.68,31.68,0,0,0,.64-3.35,4.22,4.22,0,0,1,2,1C193.88,72.73,195.35,71.33,194.39,70.44Z"/><path class="cls-4" d="M206.7,68.26a42.1,42.1,0,0,0-3.85-2.4l-.19-.08a1,1,0,0,0-.81-1.83L197.35,65a.94.94,0,0,0,0-.6l-.24-.86a.87.87,0,0,0,.55.18l2.46-.08a1,1,0,0,0,1-1,1,1,0,0,0-1-1l-2.46.08a1.08,1.08,0,0,0-1,.6l-.41-1.47a1,1,0,0,0,.61,0l2.85-.69a1,1,0,0,0-.48-2l-2.85.69a1,1,0,0,0-.57.37l-.44-1.58.17-.06q.93-.45,1.89-.84a1.15,1.15,0,0,0,.88-.33l.56-.2a14.3,14.3,0,0,1,1.61-.47c.52-.1.63-.13.79.39.71,2.31,1.15,4.75,1.71,7.1a1,1,0,0,0,2-.48l-1.19-4.93c-.28-1.16-.38-3-1.41-3.74s-2.19-.37-3.23-.07l-.42.13a20.7,20.7,0,0,0-.12-2.86c.45-.14.9-.3,1.35-.47,1.21-.48.21-2.24-1-1.77a15,15,0,0,1-5,1c-1.3,0-1.37,2.08-.06,2a17.74,17.74,0,0,0,2.69-.31,17,17,0,0,1,0,3.1q-1,.39-1.9.84c-.61-.71-2.06-.21-1.76.89l2.28,8.24v0a9.86,9.86,0,0,1-1.9-1.75A1,1,0,1,0,192,64.61a11.82,11.82,0,0,0,2.34,2.1,1,1,0,0,0,1.39-.34,1,1,0,0,0,.08-.84,1.07,1.07,0,0,0,.65.11A1,1,0,0,0,197.67,67l2-.48a13.69,13.69,0,0,0-1.4,3.16,1,1,0,0,0,1.94.58,11.79,11.79,0,0,1,1.34-2.94,1,1,0,0,0,.27.21,42.11,42.11,0,0,1,3.85,2.4C206.72,70.74,207.77,69,206.7,68.26Z"/><path class="cls-4" d="M109,73.93a5.79,5.79,0,0,0-1.16-2.65,2.35,2.35,0,0,0-2.28-.32l-3.59.87a1.07,1.07,0,0,0-.31.12l-.07-.36c-.26-1.28-2.23-.8-2,.48q2.19,11,5.07,21.84a1,1,0,0,0,2-.48q-1.75-6.6-3.24-13.26a.83.83,0,0,0,.66.27l3.5-.32a1,1,0,0,0,1-1,1.08,1.08,0,0,0-.27-.71,1.06,1.06,0,0,0,1.47-1.15A34.3,34.3,0,0,0,109,73.93Zm-7-.11a1,1,0,0,0,.41,0l2.46-.6a6.85,6.85,0,0,1,1.32-.32c.39,0,.09-.24.33.07a5.87,5.87,0,0,1,.64,2,1,1,0,0,0-1-.37l-3.43.58a1,1,0,0,0-.43.17Zm2.1,4.6a1.11,1.11,0,0,0-1,.65l-.43-2a1,1,0,0,0,.53,0l3.43-.58a.84.84,0,0,0,.74-.68c.15.63.29,1.26.41,1.89a1,1,0,0,0,.18.41.74.74,0,0,0-.39-.07Z"/><path class="cls-4" d="M119.46,70.1A2.76,2.76,0,0,0,117.21,68c-1.42-.22-2.56.71-3.93.77a1,1,0,0,0-1,1c-.7-.58-2-.08-1.65.95a33.79,33.79,0,0,1,1.45,5.43.85.85,0,0,0,.77.75A1,1,0,0,0,114,78.4l3.11-.76a1,1,0,0,0-.48-2l-2.62.64a1,1,0,0,0,.07-.62l-.06-.32H114l2.33-.57a1,1,0,0,0-.48-2l-2.33.57h0q-.34-1.34-.78-2.64a1,1,0,0,0,.45.08,16.25,16.25,0,0,0,2.95-.74c1.3-.29,1.38.65,1.65,1.68q1,3.62,1.85,7.24t1.72,7.07l.42,1.77a11.13,11.13,0,0,0,.3,1.56,6.8,6.8,0,0,0-.76,0,10.55,10.55,0,0,1-1.79-.22c-1.27-.27-1.86,1.68-.58,1.94a10.52,10.52,0,0,0,4,.24c1.35-.25,1.46-1.31,1.21-2.46-.71-3.22-1.51-6.43-2.3-9.63S120.45,73.1,119.46,70.1Z"/><path class="cls-4" d="M117.25,79.66a18.92,18.92,0,0,0-2.6,3.14A1.13,1.13,0,0,0,114,82a2.83,2.83,0,0,1,.49-.18,1,1,0,0,0,.75-1.23,1,1,0,0,0-1.23-.75c-1.07.34-2.39,1-2.37,2.3A1.79,1.79,0,0,0,114,83.93c-.24.44-.48.88-.68,1.34-.28.61,0,1.61.84,1.54a5.22,5.22,0,0,0,2.57-.85l-.12.09a1,1,0,0,0,0,1.43.49.49,0,0,1-.46.81,1.15,1.15,0,0,0-.58,0l-.14-.59a1,1,0,0,0-2,.48l.95,3.89a1,1,0,0,0,2-.48L116,90.32a2.56,2.56,0,0,0,2.36-1.19,2.59,2.59,0,0,0-.35-3,1,1,0,0,0-1.26-.15,5.43,5.43,0,0,0,.61-.48,1.06,1.06,0,0,0,.18-.22l.27.26c.92.93,2.38-.48,1.46-1.41a11.25,11.25,0,0,0-1.88-1.53,16.7,16.7,0,0,1,1.3-1.42A1,1,0,0,0,117.25,79.66Z"/><path class="cls-4" d="M112.7,86a4.27,4.27,0,0,1-1.25-1.71,1,1,0,0,0-1.38-.39,1,1,0,0,0-.31.27,1,1,0,0,0,.06-.15,11,11,0,0,1,1.47-1.8c.93-.92-.48-2.38-1.41-1.46A13.18,13.18,0,0,0,108,83.09a.39.39,0,0,1-.44,0,.42.42,0,0,1,0-.59A1,1,0,0,0,106.21,81a2.48,2.48,0,0,0-.1,3.45A2.32,2.32,0,0,0,107,85a12.85,12.85,0,0,0-.6,1.83,1,1,0,0,0,1.21,1.28l2.81-.59a.92.92,0,0,0,.59-.37l.32.3a.9.9,0,0,0-.87,1.2,12.22,12.22,0,0,1,.41,1.6,1.09,1.09,0,0,0-.25.15h-.06a.51.51,0,0,1-.3-.2,3,3,0,0,1-.38-1.42,1,1,0,0,0-1.23-.75,1,1,0,0,0-.75,1.23A3.73,3.73,0,0,0,109.31,92a2.28,2.28,0,0,0,1.75.33q0,.27,0,.55a1,1,0,0,0,2,.06,13.32,13.32,0,0,0-.65-4.8,1.1,1.1,0,0,0-.15-.3,1.11,1.11,0,0,0,.77-.49A1,1,0,0,0,112.7,86Zm-3-.72.15.31-.94.2a10.89,10.89,0,0,1,.66-1.33h0l.11-.13A1.16,1.16,0,0,0,109.68,85.27Z"/><ellipse class="cls-5" cx="45.3" cy="125.98" rx="6.24" ry="45.32" transform="translate(-81.94 167.62) rotate(-88.34)"/><path class="cls-6" d="M36,112.15s1.78,9.42-2,11.81-7.85,0-7.85,0l.46-12.84,9.78,1.18Z"/><path class="cls-6" d="M54.31,112.62s-2.32,9.3,1.35,11.91,7.84.41,7.84.41l.28-12.84L54,112.7Z"/><path class="cls-7" d="M80.82,74.56a30.17,30.17,0,0,1-1.22,29.35c-1.31,2.09-2.9,4-3.8,6.35-1.27,3.27-1,6.92-1.67,10.37s-2.82,7.12-6.31,7.54c-2.77.34-5.42-1.6-6.81-4s-1.78-5.28-2.18-8a1.61,1.61,0,0,0-.5-1.14,1.59,1.59,0,0,0-.68-.22,148.51,148.51,0,0,0-25.86-1.91,2.3,2.3,0,0,0-1.15.22c-.75.44-.76,1.49-.69,2.36a18,18,0,0,1-.28,6.15,6.84,6.84,0,0,1-3.75,4.65c-2.36,1-5.16,0-7-1.77a17.07,17.07,0,0,1-3.81-6.54c-2.72-7.21-4.3-14.79-5.86-22.33a25.37,25.37,0,0,1-.78-6.76,19.93,19.93,0,0,1,1.71-6.35,17.54,17.54,0,0,1,3-5.06c2.63-2.91,6.6-4.17,10.43-5A79.24,79.24,0,0,1,33.9,70.8c5.44-.47,11.19-.44,15.94-3.14Z"/><path class="cls-8" d="M.6,72a32.69,32.69,0,0,1,.67-5.86,1.76,1.76,0,0,1,1.85-1.42.86.86,0,0,1,.41.07h0a1.72,1.72,0,0,1,1,.78l.09.15a48.48,48.48,0,0,0,8.23,12l.28-.33c2.63-2.91,6.6-4.17,10.43-5A79.26,79.26,0,0,1,33.9,70.8c3.67-.31,7.47-.41,11-1.26a18.68,18.68,0,0,0,4.92-1.88l31,6.9a30.23,30.23,0,0,1,1.71,23,28.49,28.49,0,0,1-2.93,6.31c-.54.87-1.13,1.71-1.7,2.56a25.46,25.46,0,0,1-20.48.74c-3.51-1.33-6.84-3.43-10.29-5a41,41,0,0,0-11.36-3.42c-5.25-.76-10.82-.37-15.51,3.16-2.81,2.11-5.17,5.24-7.73,7.9-1.29-4.7-2.29-9.49-3.28-14.26a32.62,32.62,0,0,1-.79-5.26c-1.93-2.5-3.91-5.64-5.08-7.46A19.5,19.5,0,0,1,.6,72Z"/><path class="cls-6" d="M27.48,125.22a7.13,7.13,0,0,1-2.38-4.3s-.4,3.89.4,5.3A5,5,0,0,0,27.48,125.22Z"/><path class="cls-6" d="M23.54,126.37s-1.14-3.06-.79-4.88a12.55,12.55,0,0,0-1.06,4.65A4.22,4.22,0,0,0,23.54,126.37Z"/><path class="cls-6" d="M70.8,127a7.13,7.13,0,0,1-2.38-4.3s-.4,3.89.4,5.3A5,5,0,0,0,70.8,127Z"/><path class="cls-6" d="M66.87,128.1s-1.14-3.06-.79-4.88A12.55,12.55,0,0,0,65,127.87,4.22,4.22,0,0,0,66.87,128.1Z"/><path class="cls-9" d="M35,71.26s3.74-1.19,2.54-4.39a35.19,35.19,0,0,0-4-6.93s-5.44,4.59-.8,11.63Z"/><path class="cls-10" d="M34.77,69.68s2.18-3.26-.75-5a35.19,35.19,0,0,0-7.41-3s-1.39,7,6.62,9.59Z"/><path class="cls-11" d="M32.54,74.1c3.19,6,16.13,25.33,29,30a2.46,2.46,0,0,0,1.63,0C66.59,103,79.6,98.35,84.29,92.31c0,0,2-2.44.12-4.28-1.7-1.63-38.25-16.41-46.55-19.5a5.91,5.91,0,0,0-4.38,1.08L32,70.46C31.24,71.31,32,73.09,32.54,74.1Z"/><path class="cls-12" d="M81.94,35.25s3.21-10,18.82-4.26c0,0,3,13.86-9,16.09C91.8,47.08,80.29,41.92,81.94,35.25Z"/><path class="cls-13" d="M84.2,37s3.87-7.15,13.58-2.91c0,0,.22,9.24-7.83,11A11.92,11.92,0,0,1,84.2,37Z"/><path class="cls-12" d="M65.21,32.48S66.48,22.09,49.92,20.7c0,0-8.55,11.32,1.37,18.37C51.29,39.07,63.9,39.23,65.21,32.48Z"/><path class="cls-13" d="M62.42,33.13s-.5-8.12-11.1-8.35c0,0-4.08,8.3,2.46,13.31A11.92,11.92,0,0,0,62.42,33.13Z"/><path class="cls-7" d="M35.14,69a11.26,11.26,0,0,1,4.69-7.32l5.69,1C47.45,48.39,59.6,39.64,70,39.89S90.64,51.37,90.05,67.26c0,1-.12,2.06-.24,3l5.23.9c1.32,2.28,2.45,4.92,2.12,7.27C95.95,87.2,82.69,92.51,66.9,91a35.34,35.34,0,0,1-9-1.6C43.83,85.66,34,77.18,35.14,69Z"/><path class="cls-8" d="M41.24,61.91l-1-.18c1-17.51,17-30.61,30.64-30.27,12.92.32,25.83,15.21,25.16,33a33.72,33.72,0,0,1-.92,6.76l0,0,0,.18c-4.15,2.5-5.31-.94-5.31-.94l.07-.15h0c.12-1,.2-2,.24-3a30.32,30.32,0,0,0-4.41-17.37l.25.48-.29-.12a6.46,6.46,0,0,0-7,.28,9.66,9.66,0,0,0-2.22,2.1C72.81,57,70.7,62.91,69.11,68.2l-2.26.54.14-1-1.73-1c.14-5.49,0-11.74-2.1-16.9a9.14,9.14,0,0,0-1.46-2.62A6.27,6.27,0,0,0,55.6,45,26.75,26.75,0,0,0,45.52,62.59h0l0,0h0c-.28.35-2.16,2.41-5.32-.9Z"/><circle class="cls-14" cx="56.02" cy="60.93" r="3.09" transform="translate(-5.21 5.24) rotate(-5.11)"/><circle class="cls-14" cx="80.96" cy="64.9" r="3.09" transform="translate(-5.46 7.47) rotate(-5.11)"/><path class="cls-14" d="M59.71,79.68c1.25.39,2.88-.44,4-1.48a7.83,7.83,0,0,0,1.84-3.07l.55-3.81.71.1-.55,3.84A7.68,7.68,0,0,0,67,78.69c.7,1.33,2,2.63,3.29,2.65.31,0,.2.64-.11.64-1.45,0-2.82-1.43-3.6-2.89a7.83,7.83,0,0,1-.8-3.21A8,8,0,0,1,64,78.7c-1.21,1.14-3,2-4.35,1.61C59.3,80.22,59.41,79.59,59.71,79.68Z"/><path class="cls-14" d="M61.62,68.8c-.23,1.72,1.73,4.79,4.59,5.17s5.54-2.09,5.77-3.81-1.91-3.41-4.77-3.79S61.85,67.09,61.62,68.8Z"/><path class="cls-15" d="M252.48,17.83s2.84-1.66,2.85-1.64c.15.25-4.39,3-4.1,3.52.16.28,5.81-3.59,5.91-3.41.28.48-5.43,2.93-5.14,3.43.11.19,5.66-3.42,5.72-3.3.29.5-6.61,3.63-6.33,4.11.06.1,5.73-3.66,5.88-3.39.29.51-6,3.46-5.79,3.78s5.72-3.44,5.78-3.34c.24.41-6.12,3-5.79,3.55.18.32,6-3.88,6.21-3.58.29.5-5.74,2.84-5.43,3.38.09.16,5.54-3.33,5.59-3.23.29.5-5.92,3.21-5.54,3.87.18.32,5.67-3.57,5.8-3.35.29.51-5.7,3.77-5.34,4.4.15.26,5.6-3.68,5.8-3.35.37.65-6.3,4.5-6,5,.08.14,5.53-3.38,5.61-3.24.37.64-5.58,3.31-5.26,3.86.11.19,6.24-3.93,6.38-3.68.49.86-6.63,4.74-6.23,5.44.12.2,6-3.69,6.14-3.54.19.32-5.6,4.12-5.39,4.48s5.91-3.62,6-3.46-6.14,3.41-6,3.71,5.62-3.5,5.73-3.31c.39.67-5.93,3.54-5.73,3.88s6-3.71,6.08-3.51c.41.71-6.42,4.35-6.27,4.61s6.17-4,6.36-3.67-6.14,4.33-6,4.55,5.65-3.47,5.74-3.32c.2.34-6.11,3.94-5.81,4.46.18.31,6.21-4,6.38-3.68.4.69-6.32,3-6,3.57.19.32,5.81-3.79,6-3.46s-5.59,4.14-5.47,4.35,5.39-3.32,5.48-3.16c.47.81-6.58,4.17-6.19,4.85.16.27,6.44-4.05,6.59-3.8.3.51-5.73,4.15-5.51,4.53.11.19,5.29-3.26,5.38-3.1s-5.56,3.31-5.18,4c.14.24,5.9-3.69,6-3.48s-7.15,3.76-6.78,4.4c.13.23,6.42-4,6.53-3.77s-5.62,4.22-5.3,4.79c.15.26,5.79-3.62,5.91-3.41s-6,3.63-5.75,4.07c.07.12,5.42-3.33,5.51-3.18.35.6-5.83,2.86-5.56,3.33.15.25,5-3.14,5.14-3,.36.62-5.58,2.53-5.26,3.09.11.19,5.57-3.42,5.66-3.27.19.33-6.58,4.85-6.26,5.4.08.14,6.51-4.11,6.66-3.85s-5.89,4.65-5.71,5,6-3.58,6-3.48c.51.88-7.24,5.11-6.91,5.67.16.28,7-4.56,7.21-4.16.43.75-6.31,4.35-6.14,4.66.07.13,5.42-3.52,5.59-3.23.37.64-6.8,4.73-6.36,5.49.12.21,6.65-4.08,6.75-3.9.32.55-7.26,4.12-6.9,4.75.24.42,7.59-4.72,7.74-4.47.38.66-7.89,5.57-7.61,6,.18.31,7.08-4.7,7.35-4.24s-6.82,3.74-6.69,4c.26.45,6.77-4.52,7-4.06"/><path class="cls-15" d="M236.3,44.06s3.9-2.28,3.92-2.26c.22.39-4.29,3-4.2,3.19s5.2-3.32,5.34-3.08c.26.44-5.77,2.82-5.41,3.45.12.21,5.49-3.51,5.64-3.25s-6.26,2.83-5.88,3.49c.13.22,5.37-3.25,5.44-3.14.25.43-5.27,3.6-5.08,3.94s6.06-3.68,6.14-3.54c.2.35-5.29,3.41-5,4,.17.3,4.78-3.08,4.92-2.84.38.65-5,3.84-4.63,4.48.05.09,5.63-3.49,5.73-3.31.35.61-6,3.25-5.77,3.58.1.18,5.61-3.46,5.71-3.29.2.35-5.32,3.2-5,3.8.15.26,4.74-2.94,4.83-2.79.34.58-5.32,3-5,3.49.07.12,5.79-3.54,5.87-3.39.29.5-6.15,3.82-5.87,4.3.17.29,5.49-3.38,5.58-3.22s-5,2.48-4.81,2.85,5.32-3.39,5.45-3.15c.27.47-5.32,3.17-5.09,3.57.1.17,5-3.18,5.15-3,.29.51-4.81,3.29-4.66,3.55,0,.08,5-3.15,5.11-2.95s-4.82,3-4.66,3.27,8.17-5.08,8.32-4.81c.51.89-9.16,4.81-8.89,5.28s8.19-5.12,8.36-4.82-8.27,4.35-8,4.88,7.69-5.06,8-4.6c.37.64-8.26,4.41-7.89,5,.26.45,7.75-5,8-4.59.31.53-8,4-7.52,4.89.11.19,7.47-5,7.77-4.49.14.24-7.36,4.38-6.9,5.18.11.18,7.08-4.51,7.26-4.19.4.7-5.93,4.53-5.66,5,.15.25,5.16-3.2,5.26-3,.3.51-5,3.1-4.82,3.4.07.13,4.29-2.59,4.34-2.51.28.49-4,2.67-3.93,2.8s3.91-2.38,4-2.29"/><path class="cls-15" d="M241.88,34.53s3-1.74,3-1.73c.24.41-3.47,2.16-3.38,2.32s4.5-2.73,4.56-2.63c.22.39-5.54,3.08-5.4,3.31s5.09-3.13,5.17-3-5.14,4.11-5,4.44c.1.17,5.52-3.5,5.66-3.27.26.45-5.72,4.31-5.47,4.73.15.27,6-3.78,6.17-3.56s-5.84,2.75-5.51,3.34c.21.36,5.28-3.38,5.43-3.13s-5.74,4.49-5.59,4.75,5.72-3.79,5.93-3.42-6.35,4.52-6,5.14c.26.45,7-4.29,7.08-4.09s-7,3.54-6.57,4.31c.25.43,6.32-4.14,6.53-3.77s-7.07,5.28-6.92,5.53,7-4.42,7.13-4.12-7.4,4.72-7.16,5.13,7-4.25,7.07-4.08c.34.59-7.7,4.06-7.47,4.46s8.08-5,8.2-4.74-7.9,5.32-7.48,6.06c.17.3,7.83-5.28,8.16-4.71s-8.22,5.6-8,6,7.34-4.89,7.62-4.4-8.5,4.85-8.22,5.34,8.29-5.06,8.41-4.86c.47.81-8.56,5.32-8.22,5.9.13.23,8.29-5.54,8.62-5s-8.72,4.59-8.24,5.41c.11.19,6-3.62,6.06-3.5"/><path class="cls-15" d="M244.47,48.3c.05.09,6.29-3.82,6.37-3.68.22.38-5.93,4.75-5.71,5.13s6.18-3.92,6.33-3.65-6,3-5.77,3.39,4.89-3,5-2.87c.32.56-5.22,3.54-4.93,4.06s8.92-5.37,9-5.21c.33.58-9.19,4.7-8.8,5.37.23.41,8.53-5.52,8.79-5.07s-8.47,4.72-7.94,5.64c.32.56,7-4.42,7.14-4.12.35.61-7.21,4.82-7,5.24s7.29-4.53,7.43-4.29c.23.39-7.37,5.16-7.23,5.42s7.62-4.64,7.72-4.46c.53.93-8.66,3.84-8.11,4.8.29.5,8.21-4.94,8.3-4.79.22.38-7.79,4.51-7.52,5,.11.19,6.43-4.18,6.63-3.83.38.66-6.11,4.33-6,4.54s5.87-3.93,6.11-3.53c.4.69-6.68,3.8-6.56,4s7.15-4.61,7.36-4.25-7.29,4.2-6.85,5c.12.21,6.48-4,6.61-3.81s-6.57,3.53-6.38,3.87,5.75-3.84,6-3.45-6.36,3.79-6.15,4.16c.06.11,6.43-4.24,6.66-3.84.34.59-7,3.63-6.71,4.18.15.26,6.31-3.91,6.42-3.71.26.45-6,3.65-5.82,3.88s5.47-3.51,5.62-3.24S248.74,58,249,58.41c.14.23,5.88-3.56,6-3.44.21.36-4.88,3.93-4.74,4.17s4.4-2.68,4.47-2.58-4.2,2.71-4,3c0,.06,3.61-2.14,3.64-2.1"/><path class="cls-15" d="M247.23,34.2s3-1.74,3-1.73c.23.4-4,3.34-3.84,3.65.06.11,6-3.63,6.05-3.49.21.36-6.29,4.66-6,5.23.07.12,6.29-4.09,6.49-3.75.3.53-6.42,4.21-6.27,4.47s6.52-4,6.64-3.83c.23.39-6.67,4-6.34,4.52.13.23,6.12-4,6.31-3.65s-6.36,2.88-6,3.55c.21.37,6.34-3.86,6.42-3.71.43.75-6.79,4.18-6.5,4.68.11.2,6.44-4.12,6.61-3.82.28.48-7,4.25-6.75,4.72s7-4.6,7.21-4.16c.43.75-7.41,5.5-7.25,5.77s7.19-4.52,7.35-4.24c.26.45-6.88,4.71-6.51,5.35.12.2,7.23-4.75,7.48-4.32s-8.16,4.77-7.68,5.6c.23.4,7.29-4.72,7.51-4.33s-7.48,3.67-7.07,4.39c.26.44,6.89-4.29,7-4.06.42.73-7.77,3.59-7.27,4.46.15.26,7.26-4.81,7.53-4.35.16.27-7.41,4.52-7.18,4.92s7.24-4.44,7.35-4.24c.31.53-7.63,4.43-7.38,4.88s8.19-5.44,8.5-4.91c.44.76-9.32,5.51-8.81,6.4.05.09,5.8-3.75,6-3.45.29.51-5.62,3.57-5.38,4,.1.17,5.57-3.35,5.63-3.25"/><path class="cls-15" d="M258.2,54c.18.31,8.59-5.52,8.83-5.1.57,1-8.18,4.88-7.8,5.54.19.33,6.7-4.45,6.95-4s-8.08,5.17-7.59,6c.14.24,7.76-5,8-4.61s-7.7,4.17-7.37,4.73c.12.22,7.33-4.83,7.59-4.38s-7.54,4.84-7.13,5.55c.14.24,6.16-4.16,6.42-3.71.13.23-6.51,3.75-6.07,4.52.24.41,6.47-4.32,6.72-3.88s-7.18,3.94-6.81,4.57c.07.12,5.9-3.55,6-3.44.32.55-6.58,3.35-6.22,4,.15.27,6.92-4.5,7.14-4.12.32.56-7.27,5-7.1,5.28s6.73-4.32,6.92-4c.29.5-6.63,3.53-6.21,4.27.08.14,5.62-3.7,5.81-3.36s-5.79,3.94-5.51,4.43c.08.13,5.15-3.2,5.25-3,.22.38-6.09,3.28-5.82,3.75.08.14,5.6-3.56,5.74-3.31s-4,3.26-3.84,3.46c0,0,4-2.36,4.05-2.34"/><path class="cls-15" d="M251.27,46.21c.11.19,5.29-3.39,5.43-3.14s-5.8,3.28-5.49,3.81c.14.24,5.48-3.3,5.54-3.2s-4.68,4-4.58,4.17,5.13-3.17,5.22-3-5.56,2.54-5.22,3.13c.16.27,5.6-3.41,5.68-3.28s-5.7,2.73-5.39,3.26c.08.14,5.43-3.28,5.49-3.17.37.65-5.56,3.05-5.47,3.22s5.27-3.39,5.42-3.13-5.82,2.92-5.48,3.5c.15.26,5.11-3.17,5.2-3,.35.61-5,4.4-4.9,4.65,0,.08,6.13-3.86,6.27-3.62s-6.18,4-6,4.26,5.43-3.28,5.49-3.17c.27.47-4.43,3.85-4.28,4.11s8.76-5.35,8.89-5.13c.5.87-9.4,6-9.07,6.58.53.92,12.28-7.56,12.48-7.21.62,1.08-12.55,6.78-12.15,7.48.57,1,11.88-7.48,12.15-7,.55,1-12.49,6.9-12.07,7.62.24.41,11.76-7.68,12.15-7,.57,1-12.14,6.24-11.76,6.89.17.3,11.87-7.73,12.25-7.07.64,1.11-12,6.66-11.63,7.36s10.88-7.22,11.29-6.52-10.9,7.28-10.69,7.64c.51.88,9.64-6.76,10.15-5.86.67,1.16-9.47,6.71-9.22,7.14,0,.07,3.74-2.38,3.84-2.22.24.42-3.77,2.16-3.65,2.37,0,0,3.31-1.95,3.32-1.92"/><path class="cls-15" d="M263.08,35.66c.13.23,6.44-4.13,6.62-3.82.32.55-6.31,3.06-6,3.69,0,.08,5.28-3.33,5.4-3.12.4.7-5.66,4.23-5.47,4.56s5.37-3.23,5.43-3.13c.33.57-4.89,4-4.7,4.32s5.48-3.48,5.62-3.24-5.55,3.14-5.21,3.72c.07.12,5-3.08,5.08-2.93.35.61-5.15,3.69-5,3.88s5.3-3.36,5.43-3.14c.32.56-5.69,3.11-5.59,3.28s5.48-3.52,5.63-3.25-6.07,4.24-5.79,4.73c.12.21,5.35-3.38,5.47-3.16s-5.46,3.2-5.31,3.45,5.84-3.64,6-3.44c.33.58-5.44,3.31-5.2,3.74.07.12,5.47-3.32,5.54-3.2.2.35-5.71,4.41-5.57,4.65s5.23-3.39,5.39-3.11c.35.61-5.34,3.38-5.23,3.57s5.31-3.41,5.45-3.15c.42.73-6,4.58-5.72,5.06.07.11,6.48-4.13,6.65-3.84s-6.31,3.86-6.1,4.22,5.86-3.71,6-3.46c.4.69-6.49,3.89-6.27,4.28.05.09,6.4-3.94,6.5-3.76.21.37-5.73,3.57-5.57,3.84s5.74-3.56,5.84-3.37-6.14,3.93-5.87,4.41c.14.24,5.3-3.31,5.4-3.12s-5.77,3.39-5.6,3.68,5.49-3.43,5.6-3.24c.21.36-5.46,3.76-5.15,4.3.07.12,5.8-3.68,5.94-3.43s-5.67,3.75-5.36,4.29c.18.31,5.46-3.3,5.52-3.19s-5.63,3.41-5.35,3.91c.12.21,4.73-2.95,4.82-2.78.4.7-5.2,4.51-5.09,4.69s5.42-3.47,5.56-3.21-5.75,3.3-5.59,3.57,6.23-4,6.39-3.69c.44.77-6.69,3.73-6.44,4.18.12.21,5.61-3.41,5.68-3.28s-5.79,3.27-5.54,3.71c0,.08,5.42-3.54,5.6-3.23s-5.08,3.09-4.74,3.68c.17.29,5.51-3.47,5.64-3.25.32.55-6.08,3.6-5.86,4s5.44-3.45,5.58-3.22-5.46,3.07-5.14,3.63c.11.18,4.88-3.08,5-2.88s-5.1,2.52-4.83,3c.08.15,4.89-3.11,5-2.9.24.42-5.13,2.95-5,3.11s4.94-3,5-2.9c.3.52-4.66,2.58-4.45,3,.09.15,4.86-3,4.93-2.85s-4,2-3.73,2.44c0,0,2.61-1.52,2.62-1.51"/><path class="cls-15" d="M258.42,1.87S261.56,0,261.57.06c.1.17-4.68,3.61-4.33,4.21.09.15,6-3.88,6.17-3.56.34.59-5.28,3.77-5,4.18s5.47-3.52,5.63-3.25c.3.51-6,3.92-5.66,4.5.07.12,5.54-3.34,5.6-3.23S257.31,7,257.75,7.76c.06.11,6.7-4.15,6.82-3.94.37.64-6.25,3.31-6.11,3.55S263.9,4,264,4.16s-5.68,4.5-5.51,4.79,6.15-3.73,6.23-3.6c.2.35-7,4-6.6,4.77.06.1,5.8-3.62,5.92-3.42.38.65-5.68,4.68-5.49,5s6.51-4.2,6.7-3.87c.46.8-6.28,4.38-5.88,5.08.08.14,5.5-3.42,5.6-3.23.46.8-6.84,4.45-6.4,5.21.2.35,6.41-4.06,6.57-3.79s-5.87,3.22-5.53,3.82c.06.1,5.74-3.53,5.83-3.37.2.34-6.07,3.79-5.75,4.34.07.13,5.84-3.61,5.95-3.43s-6.58,4.56-6.36,5,6.41-4.18,6.62-3.82c.47.82-6.93,4.12-6.69,4.54.15.26,6.19-3.83,6.3-3.64.21.37-5.88,4.51-5.65,4.9s6.45-4.27,6.69-3.86-7.24,3.41-6.81,4.15c.08.14,6.36-4.19,6.58-3.8s-7,5.24-6.76,5.58,6.45-4,6.57-3.8c.46.79-7,4.78-6.58,5.57.17.29,7.38-4.8,7.61-4.4.51.89-7.81,4.93-7.48,5.51.12.2,6.84-4.37,7-4.05.49.85-6.88,4.69-6.63,5.11s7.39-4.51,7.5-4.33c.21.37-8.52,4.63-8,5.61.24.42,6.92-4.49,7.13-4.12s-6.66,3.91-6.47,4.25,6.74-4.13,6.85-4c.27.46-7.45,4.16-7,5,.13.22,7.4-4.9,7.67-4.43.39.67-8.51,5-8,6,.15.26,7.75-4.9,7.93-4.58.48.83-7.73,5.1-7.36,5.75.11.19,7.29-4.87,7.57-4.37.48.84-7.62,3.82-7.31,4.36s7.3-4.72,7.52-4.34-7.56,5.76-7.38,6.06,7.51-5,7.82-4.51-9,4.94-8.55,5.71c.12.21,7.71-5.17,8-4.63.46.8-8.21,4.64-7.82,5.3.13.22,7.94-5,8.12-4.69.31.54-8.41,5.76-8.25,6,.27.46,8.1-4.93,8.21-4.74.53.92-8.45,4.74-8.19,5.19.13.23,8.6-5.66,8.9-5.14s-8.57,5.64-8.09,6.47c.16.28,5.41-3.56,5.6-3.23s-6.6,3.49-6.41,3.83,5.78-3.69,5.93-3.43-6.34,3.3-5.92,4c.17.3,6.74-4.06,6.81-3.93.36.62-7.14,3.41-6.73,4.12.17.3,6-3.66,6.07-3.5.2.34-6,3.93-5.85,4.26.09.15,6.23-4,6.39-3.69.46.8-6.7,4.93-6.54,5.22s5.71-3.67,5.88-3.39c.28.49-5.89,4.47-5.75,4.71s6-3.9,6.17-3.56c.42.72-6.22,3.84-6,4.26s6-3.65,6.1-3.52c.19.33-6.11,4.29-5.84,4.76.09.16,6.11-3.66,6.17-3.56.36.62-6.62,4.3-6.3,4.86.11.19,5.75-3.56,5.86-3.38.29.51-6.73,3.49-6.47,3.94.1.18,6.53-3.9,6.58-3.8.29.51-6.21,4.79-6.06,5s6.26-3.93,6.4-3.69c.38.66-6.31,3.75-6,4.36.18.31,5.52-3.54,5.68-3.28.33.58-6.88,3.83-6.54,4.41.17.29,5.92-3.62,6-3.47"/></g></g></svg>