<svg xmlns="http://www.w3.org/2000/svg" viewBox="0 0 1366 638.97"><defs><style>.cls-1{isolation:isolate;}.cls-2{fill:#f3c2ff;opacity:0.65;}.cls-3{fill:#e6b278;}.cls-4{mix-blend-mode:multiply;}.cls-5{fill:#f4c182;}.cls-6{fill:#b4b4b4;}.cls-7{fill:#8ab4ff;}.cls-8{fill:#c6c4c1;}.cls-9{fill:#85ff8b;}.cls-10{fill:#f9f573;}</style></defs><title>資產 20</title><g class="cls-1"><g id="圖層_2" data-name="圖層 2"><g id="圖層_1-2" data-name="圖層 1"><rect class="cls-2" width="1366" height="632.97"/><rect class="cls-3" x="1" y="582.97" width="1365" height="56"/><g class="cls-4"><polygon class="cls-5" points="1 582.97 1 593.8 55.9 582.97 1 582.97"/><polygon class="cls-3" points="57.95 582.97 55.9 582.97 1 593.8 1 610.87 125.52 582.97 57.95 582.97"/><polygon class="cls-5" points="127.56 582.97 125.52 582.97 1 610.87 1 633.31 195.14 582.97 127.56 582.97"/><polygon class="cls-3" points="197.18 582.97 195.14 582.97 1 633.31 1 638.97 82.76 638.97 264.76 582.97 197.18 582.97"/><polygon class="cls-5" points="266.8 582.97 264.76 582.97 82.76 638.97 186.35 638.97 334.38 582.97 266.8 582.97"/><polygon class="cls-3" points="336.42 582.97 334.38 582.97 186.35 638.97 289.93 638.97 404 582.97 336.42 582.97"/><polygon class="cls-5" points="406.04 582.97 404 582.97 289.93 638.97 393.52 638.97 473.62 582.97 406.04 582.97"/><polygon class="cls-3" points="475.66 582.97 473.62 582.97 393.52 638.97 497.11 638.97 543.24 582.97 475.66 582.97"/><polygon class="cls-5" points="545.28 582.97 543.24 582.97 497.11 638.97 600.7 638.97 612.86 582.97 545.28 582.97"/><polygon class="cls-3" points="614.9 582.97 612.86 582.97 600.7 638.97 704.28 638.97 682.48 582.97 614.9 582.97"/><polygon class="cls-5" points="684.52 582.97 682.48 582.97 704.28 638.97 807.87 638.97 752.1 582.97 684.52 582.97"/><polygon class="cls-3" points="754.14 582.97 752.1 582.97 807.87 638.97 911.46 638.97 821.72 582.97 754.14 582.97"/><polygon class="cls-5" points="823.76 582.97 821.72 582.97 911.46 638.97 1015.05 638.97 891.34 582.97 823.76 582.97"/><polygon class="cls-3" points="893.38 582.97 891.34 582.97 1015.05 638.97 1118.63 638.97 960.96 582.97 893.38 582.97"/><polygon class="cls-5" points="963 582.97 960.96 582.97 1118.63 638.97 1222.22 638.97 1030.58 582.97 963 582.97"/><polygon class="cls-3" points="1032.62 582.97 1030.58 582.97 1222.22 638.97 1325.81 638.97 1100.19 582.97 1032.62 582.97"/><polygon class="cls-5" points="1169.81 582.97 1102.24 582.97 1100.19 582.97 1325.81 638.97 1366 638.97 1366 625.29 1169.81 582.97"/><polygon class="cls-3" points="1366 607.11 1239.43 582.97 1171.86 582.97 1169.81 582.97 1366 625.29 1366 607.11"/><polygon class="cls-5" points="1366 592.7 1309.05 582.97 1241.48 582.97 1239.43 582.97 1366 607.11 1366 592.7"/><polygon class="cls-3" points="1366 582.97 1311.1 582.97 1309.05 582.97 1366 592.7 1366 582.97"/></g><g id="_群組_" data-name="&lt;群組&gt;"><g id="_群組_2" data-name="&lt;群組&gt;"><path id="_路徑_" data-name="&lt;路徑&gt;" class="cls-6" d="M761.11,585c1.12-1.88,2.09-.15,2.16,3.85s-.79,8.76-1.91,10.64-2.09.15-2.16-3.85S760,586.84,761.11,585Z"/></g><path id="_路徑_2" data-name="&lt;路徑&gt;" class="cls-7" d="M768.37,600.81l3.37.26,3.78.29.65,0,10.83.83,1.12.09,3.42.26,8.22.63,3.9.3,3.43.26,1.08.08,10.86.83.64,0,3.79.29,3.36.26,2.67.2,5.25.4c.28,0,.59-.22.91-.76.09-.14.17-.31.25-.49l.07-.16q.1-.22.19-.46l0-.1,0-.06.11-.33.06-.19,0-.06.05-.18.08-.26,0-.12,0-.17,0-.17.07-.29,0-.11v0l.1-.44,0-.11,0-.13,0-.2.08-.41v0h0l.08-.44,0-.21,0-.13,0-.11.06-.45v-.09l0-.12,0-.23.05-.45h0q0-.22,0-.44l0-.25v-.23q0-.25,0-.51v-.07c0-.07,0-.14,0-.21s0-.23,0-.35,0,0,0-.06c0-.59,0-1.17,0-1.74,0-.2,0-.4,0-.59v-.18c0-.13,0-.25,0-.38v-.16c0-.24,0-.48-.07-.69v-.12q0-.19-.06-.38v-.14l0-.25,0-.1v0l0-.17,0-.12v0l0-.12,0-.12v0l0-.1,0-.1,0,0,0-.09,0-.07,0-.05,0-.07,0,0,0-.06,0-.06,0,0-.06-.07,0,0h0l-.1-.09h0l-.11-.06h-.06l-.07,0h0L762,584.21c-.28,0-.59.22-.91.76-.09.14-.17.31-.25.49l-.07.16q-.1.22-.19.46l0,.1,0,.06-.11.34-.06.18,0,.06-.06.19-.08.26,0,.12,0,.17,0,.17L760,588l0,.11v0l-.1.44,0,.11,0,.13,0,.2-.08.42v0h0l-.08.44,0,.21,0,.13,0,.11-.06.45v.1l0,.12,0,.24-.05.45h0l0,.44,0,.25v.23q0,.25,0,.51v.28c0,.12,0,.23,0,.35s0,0,0,.06c0,.59,0,1.17,0,1.74,0,.2,0,.4,0,.58s0,.12,0,.18,0,.25,0,.38v.15c0,.24,0,.48.07.69v.12q0,.19.05.37v.14l0,.24,0,.1v0l0,.17,0,.12v0l0,.12,0,.12v0l0,.1,0,.1,0,0,0,.09,0,.07,0,.05,0,.07,0,0,0,.06,0,.06,0,0,.06.07,0,0h0l.1.09h0l.11.06h.06l.07,0h0l5.25.4Z"/><g id="_群組_3" data-name="&lt;群組&gt;"><path id="_路徑_3" data-name="&lt;路徑&gt;" class="cls-8" d="M835.41,590.65c1.12-1.88,2.09-.15,2.16,3.85s-.79,8.76-1.91,10.64-2.09.15-2.16-3.85S834.29,592.53,835.41,590.65Z"/></g></g><g id="_群組_4" data-name="&lt;群組&gt;"><g id="_群組_5" data-name="&lt;群組&gt;"><path id="_路徑_4" data-name="&lt;路徑&gt;" class="cls-6" d="M964.7,595.69c.54-2,1.3-.34,1.72,3.63s.31,8.78-.22,10.75-1.3.34-1.72-3.63S964.16,597.66,964.7,595.69Z"/></g><path id="_路徑_5" data-name="&lt;路徑&gt;" class="cls-9" d="M970.74,610.8l2.15,0,2.41,0h.41l6.91-.14h.72l2.18,0,5.24-.11,2.49-.05,2.19,0h.69l6.93-.14h.41l2.42,0,2.15,0,1.7,0,3.35-.07c.18,0,.35-.27.5-.83,0-.15.08-.33.12-.51l0-.16q0-.22.08-.47l0-.1v-.07c0-.11,0-.23,0-.34l0-.19v-.06l0-.19c0-.09,0-.18,0-.27v-.48c0-.1,0-.2,0-.3v-.16q0-.22,0-.45v-.24c0-.07,0-.14,0-.2s0-.28,0-.42v0h0q0-.22,0-.44c0-.07,0-.14,0-.21v-.13s0-.07,0-.11,0-.3,0-.45v-.22c0-.08,0-.16,0-.23s0-.3,0-.45h0q0-.22,0-.44v-.47q0-.25,0-.51v-.28c0-.11,0-.23,0-.34v-.06c0-.59-.09-1.17-.14-1.73,0-.2,0-.39-.07-.58l0-.18,0-.37v-.15c0-.24-.07-.47-.11-.68v0l0-.08-.07-.37v-.13l-.05-.24,0-.1v0l0-.17,0-.12v0l0-.12,0-.12v0l0-.1,0-.09,0,0,0-.08,0-.07,0,0,0-.07,0,0,0-.06,0-.05v0l0-.06,0,0h0l-.07-.08h0l-.07,0h-.09l-47.42,1c-.18,0-.35.27-.5.83,0,.15-.08.33-.12.51l0,.16q0,.22-.08.47l0,.1V597c0,.11,0,.23,0,.35l0,.19v.06l0,.19,0,.27v.48c0,.1,0,.2,0,.3V599q0,.22,0,.45v.24c0,.07,0,.13,0,.2s0,.28,0,.42v0h0q0,.22,0,.44c0,.07,0,.14,0,.21s0,.09,0,.13v.11q0,.22,0,.45v.22c0,.08,0,.16,0,.24s0,.3,0,.45h0q0,.22,0,.44v.47q0,.25,0,.51v.28c0,.12,0,.23,0,.35v.06c0,.59.09,1.17.14,1.73,0,.2,0,.39.07.58l0,.18,0,.37v.15c0,.24.07.47.11.69v0l0,.08.07.37,0,.08V609l.05.24,0,.1v0l0,.17,0,.12v0l0,.12,0,.12v0l0,.1,0,.09,0,0,0,.08,0,.07,0,0,0,.07,0,0,0,.06,0,.05v0l0,.06,0,0h0l.07.08h0l.08.05h.09l3.35-.07Z"/><g id="_群組_6" data-name="&lt;群組&gt;"><path id="_路徑_6" data-name="&lt;路徑&gt;" class="cls-8" d="M1012.12,594.71c.54-2,1.3-.34,1.72,3.63s.31,8.78-.22,10.75-1.3.34-1.72-3.63S1011.58,596.68,1012.12,594.71Z"/></g></g><g id="_群組_7" data-name="&lt;群組&gt;"><g id="_群組_8" data-name="&lt;群組&gt;"><path id="_路徑_7" data-name="&lt;路徑&gt;" class="cls-6" d="M371,606.7c.74-1.68,1.71-.32,2.15,3s.21,7.44-.53,9.11-1.71.32-2.15-3S370.21,608.38,371,606.7Z"/></g><path id="_路徑_8" data-name="&lt;路徑&gt;" class="cls-10" d="M378.49,619.36l2.8-.09,3.14-.1.54,0,9-.29.93,0,2.84-.09,6.83-.22,3.24-.1,2.85-.09.9,0,9-.29.53,0,3.15-.1,2.8-.09,2.22-.07,4.37-.14c.23,0,.46-.24.67-.72.06-.13.11-.28.16-.43l0-.14q.06-.19.11-.4l0-.09v-.06l.06-.29,0-.16v0l0-.16,0-.23v-.11l0-.15,0-.15,0-.25v-.13q0-.19,0-.38v-.38c0-.12,0-.23,0-.35v0h0q0-.19,0-.38c0-.06,0-.12,0-.18v-.2q0-.19,0-.38v-.19c0-.07,0-.13,0-.2s0-.26,0-.38h0q0-.19,0-.37c0-.07,0-.14,0-.21v-.19q0-.21,0-.43v-.24c0-.1,0-.19,0-.29v-.05c0-.5-.08-1-.15-1.46,0-.17,0-.33-.07-.49l0-.15-.06-.31v-.13c0-.2-.08-.4-.12-.58v0l0-.07-.08-.31,0-.07v0l-.06-.2,0-.08v0l-.05-.14,0-.1v0l0-.1,0-.1v0l0-.08,0-.08,0,0,0-.07,0-.06,0,0,0-.06,0,0,0,0,0,0v0l-.05-.05,0,0h0l-.09-.07h0l-.09,0h-.12l-61.78,2c-.23,0-.46.24-.67.72-.06.13-.11.28-.16.44l0,.14q-.06.19-.11.4l0,.09v.06l-.06.3,0,.16v0l0,.16,0,.23v.11l0,.15,0,.15,0,.25v.13q0,.19,0,.38v.38q0,.18,0,.36h0q0,.19,0,.38c0,.06,0,.12,0,.18v.2q0,.19,0,.38s0,.05,0,.08v.1c0,.07,0,.13,0,.2s0,.26,0,.38h0q0,.19,0,.37c0,.07,0,.14,0,.21v.19q0,.21,0,.43V614c0,.1,0,.2,0,.3v.05c0,.5.08,1,.15,1.46,0,.17,0,.33.07.49l0,.15.06.31v.13c0,.2.08.4.12.58v0l0,.07.08.31,0,.07v0l.06.2,0,.09v0l.05.14,0,.1v0l0,.1,0,.1v0l0,.08,0,.08,0,0,0,.07,0,.06,0,0,0,.06,0,0,0,0,0,0v0l.05.05,0,0h0l.09.07h0l.1,0h.12l4.37-.14Z"/><g id="_群組_9" data-name="&lt;群組&gt;"><path id="_路徑_9" data-name="&lt;路徑&gt;" class="cls-8" d="M432.74,604.71c.74-1.68,1.71-.32,2.15,3s.21,7.44-.53,9.11-1.71.32-2.15-3S432,606.39,432.74,604.71Z"/></g></g></g></g></g></svg>