<svg xmlns="http://www.w3.org/2000/svg" viewBox="0 0 651 457.92"><defs><style>.cls-1{fill:#df9031;}.cls-2{fill:#b86d1b;}.cls-3{fill:#9f5214;}.cls-4{fill:#f5ae4c;}.cls-5{fill:#9a5409;}.cls-6{fill:#395a4b;}.cls-7{fill:#3a5255;}.cls-8{fill:#396250;}.cls-9{fill:#394d4b;}.cls-10{fill:#81dfea;}.cls-11{fill:#4a90b6;}.cls-12{fill:#4acddb;}.cls-13{fill:#b4b4b4;}.cls-14{fill:#fff;}.cls-15{fill:#c6c4c1;}.cls-16{fill:#ff858b;}.cls-17{fill:#f9f573;}</style></defs><title>7</title><g id="圖層_2" data-name="圖層 2"><g id="圖層_1-2" data-name="圖層 1"><polygon class="cls-1" points="0 446.46 47.12 423.96 607.02 423.96 651 448.96 0 446.46"/><path class="cls-2" d="M610.28,429.35c-32.67,6.66-65.32,12.26-98.12,16l127.1.49-28.93-16.45Z"/><path class="cls-2" d="M151.93,425l-58.32,7.82s25,10.94,24.49,10.93l82.33.32C184.77,439.43,167.05,431.75,151.93,425Z"/><polyline class="cls-3" points="0 446.46 3.14 457.92 647.07 454.59 651 448.96 0 446.46"/><path class="cls-4" d="M47.12,424S20.67,158.08,23.52,12.59a2.12,2.12,0,0,1,2-2.13C55.1,9.11,420-7.2,620,3.78A2.12,2.12,0,0,1,621.94,6c-.11,25.17-1.51,273.32-14.91,418Z"/><path class="cls-1" d="M615.67,77.85C614.43,166.46,611,316.08,602,417.71H52.1c-1.47-15.29-5.88-62.2-10.46-121.41q-2.19-8.76-4.13-17.58c5.35,71.55,10.83,129,12.1,142.11H604.52C614,315.94,617.39,159,618.56,70.5Q617.09,74.16,615.67,77.85Z"/><path class="cls-1" d="M458.08,6.27q13.14-1.58,26.3-3-17.9-.13-36.92-.13C398,3.13,347,3.78,298.31,4.75q-15.38,1.72-30.72,3.8c57.76-1.34,120-2.3,179.86-2.3Z"/><path class="cls-5" d="M54.2,415.62C50,372.14,29.44,149.19,31.27,18.54,72,16.73,269.7,8.33,447.46,8.33c65.93,0,121.94,1.17,166.59,3.47-.26,45.65-2.12,266.58-14.17,403.82Z"/><path class="cls-6" d="M57,412.29C52.36,362.93,32.95,149.8,34.37,21.74c44.62-2,239-10.08,413.09-10.08,64.37,0,119.33,1.11,163.43,3.31-.31,49.69-2.31,262.75-13.87,397.31Z"/><path class="cls-7" d="M545.31,352.52l-5.07-8.7-2.51,8.92C538.54,355.86,543.3,358,545.31,352.52Z"/><path class="cls-7" d="M551,347.81a18,18,0,0,0,5-2l-4.09-5.48C550.61,342.3,549.45,344.69,551,347.81Z"/><path class="cls-7" d="M547.63,362.59c-2.49-1.08-1.68-4.2-1.9-6-3.92,7-7.46,17.56-.76,23.86,2.26-11.11,4.95-8.24,7-21.17,4.34-3.33,9.34-1.21,9.78,2.4.38-1.45,2.21-1.9,4.09-2.69l-5.16-6.92C555.78,353,551.33,356.65,547.63,362.59Z"/><path class="cls-7" d="M557.74,344.61a16.43,16.43,0,0,1-1.72,1.17l4.68,6.28a14.06,14.06,0,0,1,2.39-.27Z"/><path class="cls-7" d="M543.79,167.56c2.11-1.29,2.68-2.62,2.48-3.46C544.47,165.67,543,167,543.79,167.56Z"/><path class="cls-7" d="M512.8,295.89c1.18,3.42,1,6-.1,8.08a13.35,13.35,0,0,0,4.41,3.14C519,305.43,514.41,299.1,512.8,295.89Z"/><path class="cls-7" d="M555.45,325.07c-.06.42-.12.82-.14,1.16C555.35,325.83,555.4,325.45,555.45,325.07Z"/><path class="cls-7" d="M171.66,27.31a10.12,10.12,0,0,0,.9,1C172.49,27.27,172.27,26.7,171.66,27.31Z"/><path class="cls-7" d="M84.93,109.49l1.38-1.2a37.69,37.69,0,0,0-1.37-4.3Z"/><path class="cls-7" d="M472.32,193.78a13.29,13.29,0,0,0-2.18-.34c-.65.69-1.44,1.45-2.12,2.15C469.46,195,470.87,194.36,472.32,193.78Z"/><path class="cls-7" d="M425.63,156.34c-3.36,1.12-6.67,2.35-10,3.54a19.46,19.46,0,0,0,9.64-.73A8.12,8.12,0,0,0,425.63,156.34Z"/><path class="cls-7" d="M526.23,372.42l1.83-.11A1.63,1.63,0,0,0,526.23,372.42Z"/><path class="cls-8" d="M570.63,144.73c-2.5,5.38-4.73,11.14-13.74,13.45a9.24,9.24,0,0,1,3.88,9.67c-1.24-3.45-1.85-8-3.35-8.75-.49,5.52-6.1,9.84-11.8,14.38-.88.72-1.76,1.44-2.63,2.17-3.82-2.77-4.86-7.91-1.28-11.45,2.58-1.6,4.27-1.24,4.57-.12,3.17-2.93,7.41-6.63,1.64-7.84l-.24,3.86c-5.05-.34-14.77,4-18.8,3.4q7.74-3.85,15.47-7.66c7.54-3.68,15-7.53,22.12-11.9l-2.93-6.73c.7-.7,1.41-1.46,2.11-2.25L544.23,85.75c-.72.66-1.45,1.36-2.19,2.07l-3.61-8.31A158.45,158.45,0,0,0,522,93.75c1.1-3.22-.1-5.75,3.31-7.87-2.59-.34-5.61.55-8.62,2.16a40.58,40.58,0,0,0-8.57,6.6c-5.18,5.14-8.72,11-7.49,13.49-5.59,3.07-3.56-3.55-8.15-3.77-4.56.73-8.1,5.73-11.34,10.13s-6.15,8.32-9.69,6.73c-.74-.31-.17-1.56.62-2.78-2.35,2.62-6.53,5.5-9.82,8.18-2.61,2.11-4.61,4.15-4.7,5.79-3.26,3.11-6.16,7-9.5,7.89l-1-4.47a41.67,41.67,0,0,0-9.66,8.35,80,80,0,0,0-5.77,8.07,53.19,53.19,0,0,1-4.73,6.3c-.53.21-1.06.42-1.61.58a10.88,10.88,0,0,1-.33,1.42,48.38,48.38,0,0,1-10.25,7.31l2.64,1.46c-1.24.84-2.53,1.64-3.77,2.42-2.5,1.6-4.81,3.19-6.21,5.12l-.06.09c-2-.1-4,.46-6.22,3.8a10.32,10.32,0,0,0-2.65.47l-6.4-6.61c-2.93,3.44-8,9.82-13.68,16.51a101.93,101.93,0,0,0-10.05,7.55l9.47-6.88c-3.12,3.64-6.43,7.34-9.69,10.69-.67-.4-1.1-1.21-1.1-2.7-1,.87-1.9,1.75-2.79,2.64a79.08,79.08,0,0,1,7.4-11.86c4-5.33,8.32-10.48,11.61-15.1q3.13-2.47,6-5c2.78-2.37,5.38-4.81,7.85-7.32,4.94-5,9.34-10.34,13.79-15.52,2.2-2.63,4.37-5.29,6.56-8s4.36-5.45,6.69-8q2.84-3.24,5.85-6.48,2.15-.78,4.32-1.52c5.81-1.89,11.7-3.69,17.67-5.21a7.6,7.6,0,0,1-5.83-2.83,62.45,62.45,0,0,0,16.34-5.71L441.63,47.19c-5.22.71-10.76,1.79-16.46,3l-5.43,1.21v0l0,.05-3.2.71-8.72,2.24c-5.82,1.49-11.67,2.83-17.34,4A112.67,112.67,0,0,1,374,60.86c5,.77,1.78,9.73-2.94,12.62-3.69-.14-7.68,3.73-11,6s-6,3.24-7.09-2.49l2.43-.65c-4.07-4.5-9.4-4.84-15-3.42S329,77.53,323.61,79.52l2.92,15a32.73,32.73,0,0,0-12.85-1,53.77,53.77,0,0,0-12.77,3.1c-.93.33-1.86.7-2.77,1.08-.8-4.36,2.41-7.13-4.91-7.77.87-4.18,1.44-8.74,3.85-11.94,3.75.27,7.53.2,11,.12-.29,2.68-.58,5.37-.86,8a20.53,20.53,0,0,0,7.17-3.84,13.56,13.56,0,0,0,3-3.92,10,10,0,0,1,5.32,2c2.36-2.54,5-5.05,7.71-7.59L307.79,16.52,302,19.6l-.49-1.22c-5.36.59-6.81,2.71-7.35,5.39-3.35,1.83-6.6,3.83-9.68,5.91l-1.3-1.42c-4.22,3.54-8.37,7.46-12.51,11.57-3.46,3.46-6.83,7.19-10.24,10.92-1.52-1-2.84-2.61-4.15-3.25,2.55-2.77,6.25-4.21,7.22-6.94a63.83,63.83,0,0,1-8.75,6.08c-3.31,2-6.85,4-10,6.17-6.35,4.33-11.39,8.89-10.72,14.43-14.73,2.05,3.87-12.64-13.47-2.13l1.25-4.18A42.09,42.09,0,0,0,207.68,64c-.43.17-.84.38-1.27.56L188.16,34.86A30.71,30.71,0,0,0,180,37.48l-4.15-6.75a5.58,5.58,0,0,1-3.29-2.39c.26,4-3,17.25-7.41,22.91-.74-20.52-18.45,19.12-26.3,4.91A21.2,21.2,0,0,1,137,67.25L123.63,81c-16.82,5.15-4.33-17.7-27.41-6.63-7.8,6-19.12,24.62-14.8,25.73,3.5-1.58,9.78-2,11.75,2l-6.85,6.19c2.33,8.32,2.84,17.74,8.9,23a49.48,49.48,0,0,0-2,9c-14.68.93-3.47-14.78-12.47-19.53,6.1,6.11-8,21.69-.6,24.17-10.24,1.85-7.24,3.41-16.19.14,2.71,3.95,3,6.1,2.27,7.76l35.81,48.3c1.69-2.66,6.6-2.86,7.39-10.34,6.62-1,8.92,1.4,10.61,2.4a2.87,2.87,0,0,0,1.19.46c-1.78,2.82-3.61,5.58-5.5,8.2-2.11,3-4.27,5.94-6.5,8.6a75.57,75.57,0,0,1-6.86,7.26,46.16,46.16,0,0,1-7,5.62l.76-5.08c-5.29,5.09-5.94,10.68-6,16.06-.15.29-.3.56-.45.85-.68-1.67-2.06-4.94.74-8-3,2.55-8.43,6.08-13.81,10.07l10.84,11.71A15.15,15.15,0,0,1,82.71,253l.63-3.41c-.85,1-1.69,2.08-2.54,3.17L112,286.52c2-1.49,4-3,5.91-4.62l8,8.69c3.94-4.81,7.72-10,9.36-14.56,1.22-3.31,1.33-6.28-.5-8.56,5.15-4.36,10.24-8.73,15.31-12.82a168.27,168.27,0,0,1,19.09-12.87,62.89,62.89,0,0,1,19.3-6.84c-.47-3.26,1.09-5.93,3.72-8.08s6.22-4,9.66-5.92,6.75-3.9,8.82-6.41,3-5.4,1.57-9.38c9.95-1.51,14-.82,18.79-1s10.28-.84,22.77-5.12c3.17-1.5,4.42-5.05,5.71-9.12s2.69-8.49,6.2-11.43l2.14,4.64c-2.84,3.31-5.39,6.38-8,9.68s-5.33,7.16-8.37,11.73c-1.52,2.28-3.15,4.76-4.92,7.51l-2.77,4.33c-1,1.51-2,3.1-3,4.83,2-.2,3.88-.74,5.28-.82s2.28.27,2.43,1.87a12.54,12.54,0,0,1-6.42,5.1c-2.41.82-4.68.63-5.55-.92l.47-1.65c-3.85,8.48-10,15.36-16.71,21.95-3.42,3.25-7.09,6.34-10.87,9.34l-11.26,9.08c-3.74,3-7.46,6-10.93,9.09A114.93,114.93,0,0,0,178,284a57.3,57.3,0,0,0-7.22,10.41,39.75,39.75,0,0,0-3.48,9.84c-.44.09-.89.2-1.38.34a5.58,5.58,0,0,1,1,.88l-4.07,10.94a27.92,27.92,0,0,1-5.48,3.43l4.45-.61c-1.17,3.31-2.31,6.64-3.44,10a45.1,45.1,0,0,1-5.51.46c-.35-1.73-1.34-2.67-4.16-.83A92.46,92.46,0,0,1,145.19,340l42.21,46.36a67.71,67.71,0,0,1,7.08-7.91l1.79,2c3.64-1.65,7-4.18,9.47-11l1.3-.9v5.92a62.8,62.8,0,0,1,4.07-8.65c7.46-4.9,14.55-9.94,20.67-19,10.34,2.76,20.46-3.43,30.8-11.82l24.94,36.86c1.6-1.88,3.17-3.72,4.75-5.52l1,1.44c1.54-2.26,2.94-4.7,4.33-7.24,1.56-1.63,3.16-3.22,4.82-4.75a81.16,81.16,0,0,1,19.09-13.1c6.7-2.21-.89,7.06-1.88,10.29,17.56-16.52,37.86-24.52,54.48-38.07l20.11,28.54,9.51-10.68c3.44-3.73,7.08-7.79,11.18-11.85l-.75,5.16c9.79-2.84,22.54-13.25,32.34-17.56.93-5.11,6.41-7.88.74-10.84a44.76,44.76,0,0,0,13-1.38,47.67,47.67,0,0,0,11-4.57c6.85-3.9,12.87-9.21,18.82-14.53,3.82-3.42,7.64-6.84,11.61-9.84,2.85,22.27-15.74,21.86-19,44,3.46-21.88-2.71-7.21-7.4-14.32-4.54,1.77-10.83,5.13-11.1,1.91-1.05,11.33-12.79,6.82-14.05,23.06-.71-.52-1.61,0-2.64.79l-61.09,45L468,360.08c2.42-.23,5.58-.92,5.71,4,9.24-5.65-3.65-3.83-3.78-7.49,10.27-11.93,29.65-5.52,46.36-13.89-.34,1.16-.69,2.32-1.06,3.5a57,57,0,0,1-5.74,13.07c-2.26-1.12-2.28-3.41-1.88-6,.2-1.3.55-2.66.83-4a20.16,20.16,0,0,0,.47-3.71c-1.67,2.93-4,6.19-6.27,9.55l17.79,33.69c6.66-5.31,12.77-11.25,12.9-16.82l-5.24.32c1.71,1.1,1.85,5.93.25,7.91-3.26,5.21-6.74,5.71-9.42,4.68l-13.95-26.41a10.13,10.13,0,0,1,5.21,2.44l-1.7,2.62L516.62,379l2.92-2.49a9.83,9.83,0,0,0-5-3l-2.8-5.31c5.08-.31,8.82-6.39,11.49-13.29.7-1.7,1.27-3.54,1.89-5.28s1.14-3.54,1.75-5.19a46.17,46.17,0,0,1,1.82-4.74,19.52,19.52,0,0,1,2.18-4c1.92,3.82,3.8,7.83,5.48,11.91a135.51,135.51,0,0,0,.09-17.93,8.33,8.33,0,0,1,6.15.63c1.77,1.07,2.94,3.28,1.84,7a11.22,11.22,0,0,0,4.32-4.5,9.32,9.32,0,0,0,.82-3.92c.15-2.38.21-4.43,4.16-7.29l1.88,2.09c0,.45-.1.89-.15,1.34.06-.42.12-.87.18-1.31l2.25,2.5a8.33,8.33,0,0,1,1.26-.3l-3.38-3.76c.13-1.84.29-3.64.36-5.46s.17-3.82.16-5.72c.77,1.42,2.67,1.69,4,2.32s2,1.67.16,4.64a28.29,28.29,0,0,0,2.57-4.21,34,34,0,0,0,1.69-4.22L572.31,286l-22.51,7c-5.55,1.73-9.57,5.34-13,8.08l-1.48-1.65a11.92,11.92,0,0,1-.6,1l1.19,1.32a15.29,15.29,0,0,1-4.36,2.57c.51-.55,1-1.12,1.55-1.7a23.15,23.15,0,0,0,1.62-2.19l-1.62-1.8a60.27,60.27,0,0,0-4.59,5.82,6.56,6.56,0,0,1-2.35-1.21l1.12-1.18c-20.84,11.75.26,9.16-13.4,24.93l-6.43-6.35c1.71-5.36,1.77-6.61-3.74-3.69l-3.85-3.81c4.94-2.75,10.68-5,12.86-9.25-6.39-7.65,10.58-18.5,18.67-32.87,1.59,3.22,23.08-18.41,35.09-26.86l.84,1.56c-2.17-4.23-1.18-8.56,1.14-13l-10.6-18a22.83,22.83,0,0,1,4.15.52c2.79-9.62-13.85,3.74-12.59-6l1.64-1c5.16-2.18,11.32-2.45,16.74-2.16,6,.29,11,1.06,12.56,0,7.91-2,9.83-6.83,11.58-12ZM522.71,346c-.54-1.69-1.34-3.74-2-5.93a36,36,0,0,0,5.31-4.56c.2,1,.52,2,.73,3C527.21,340.91,527.1,343.42,522.71,346Zm9.85-15.77q1-.86,2-1.71c-.27,1.11-.53,2.26-.79,3.46A3.06,3.06,0,0,0,532.56,330.23Zm14.35-15.38.34-.4,1.81,2A2.9,2.9,0,0,1,546.91,314.85Zm8.79,7.28-.91-1C555.37,321,555.61,321.46,555.7,322.13ZM552,309.31c0,.17,0,.34,0,.51,0,1.74-.21,3.61-.44,5.65a5.49,5.49,0,0,1-1.18.73L548,313.58C549.24,312.15,550.54,310.73,552,309.31Zm-73.77,19c1.79-4.32,3.94-9.13,9-10.69a9.57,9.57,0,0,1,.51,3.19,1.81,1.81,0,0,0-.13,1.62,36.34,36.34,0,0,1-1.4,4.68A22.83,22.83,0,0,0,478.21,328.36Zm18.93-8.87a13.86,13.86,0,0,1-4.72.43,12.76,12.76,0,0,1,4.61-5ZM380.68,304.56c-1.36-6.92,10.13-21.39,10.65-26.08.46,14.69,15.64-1.06,19.42,7.65-5.48,1.79-11.51,4.16-13.76,10.58,1.61-3.13-1.94-9.37-1.58-7.48A72.45,72.45,0,0,0,384.2,300.1C383,301.52,381.85,303,380.68,304.56Zm-254-124.7a23.46,23.46,0,0,1,4.81-4c-1.21,2.27-2.46,4.55-3.77,6.84l-.12.2A8.9,8.9,0,0,1,126.72,179.86ZM337.16,154.7c-.61.67-1.23,1.36-1.82,2.06C336,156,336.61,155.27,337.16,154.7Zm12.22,120.62a9.44,9.44,0,0,1-.81,1A7.26,7.26,0,0,1,349.38,275.33ZM278,173.5l2.46,1.73C278.68,175.87,277.59,175.74,278,173.5Zm6.23-3.25a23.89,23.89,0,0,1,6.81-4.47,3.62,3.62,0,0,0,.4.77c1,1.35,2.57,2.18,2,5.71l-.37.35c-1.66-1.34-4.15-.85-6.64.09A3.81,3.81,0,0,1,284.26,170.25Zm9.11,2.58,0,0,0,0ZM282.48,100l-.72.6L275,106.37a32.28,32.28,0,0,1,3-7.77A11.71,11.71,0,0,0,282.48,100ZM247,125.92c-.39.08-.78.15-1.17.21a17.61,17.61,0,0,1-3.63.15,17.44,17.44,0,0,1,3.83-1.31A9.58,9.58,0,0,0,247,125.92Zm-79.24-19.53c-.19.27-.4.55-.62.83C167.36,106.94,167.57,106.66,167.79,106.39Zm108.59,65.94.78.55-2.35,2.52C275.33,174.37,275.85,173.34,276.37,172.33Zm205.46,11.53-2.49,12a131.87,131.87,0,0,1,16.38-13.47c2.52.92,4.67,2.82,2.74,3.78-23.09,7.4-7,10.86-21,19.86-9.75-.29-2.54-11.73-13.1-2.49.74-3.41.8-7,1.59-10.08a17.66,17.66,0,0,1,4.16,0c3.16-3.06,6.57-6.27,10-9.49C480.72,183.92,481.27,183.88,481.84,183.86Zm-77,54.23a8.21,8.21,0,0,1,.81-1.19l2.62-1.17a3,3,0,0,1,.37.62A13.68,13.68,0,0,1,404.87,238.08Zm4-1.86a5.87,5.87,0,0,1,.21-.84l3.1-1.38C411.07,234.76,410,235.54,408.87,236.22Zm.15,1.2a1.3,1.3,0,0,1-.19-.71A4.74,4.74,0,0,1,409,237.41Zm4.92,47.7c-.07-.12-.14-.25-.23-.37a13,13,0,0,1,1.49-.35l-.4.43Zm43.46-24a7.18,7.18,0,0,1-.83.52Zm32.87-4.69a60.3,60.3,0,0,1,6.72-5.74,8.6,8.6,0,0,1,1.95,5.42l-8.58,1.29A8.34,8.34,0,0,1,490.27,256.47Zm49.65-10.91a19,19,0,0,1-3.4-1c1.19-4.19,5.1-8.91,9.63-11.9C544.35,237.18,542.83,241.87,539.92,245.56Zm-10.35-78.82c-6.55,1.48-11.46,4-16.35,6.6a108.41,108.41,0,0,1-14.68,7.15l1.11-.73c3.57-2.33,7.21-4.53,10.89-6.64s7.4-4.13,11.18-6l2.12-1.06C524.2,167.23,526.54,167.23,529.57,166.74ZM370.06,184.11c-4.92,4.11-9.08,8.69-9.6,12.23,2.21-2.67,4.4-7.27,7.82-7.42a54.73,54.73,0,0,1-9.85,17.77,61.28,61.28,0,0,1-7.45,7.53,76,76,0,0,1-9.07,6.78c-3-8.19-9.43-7.09-17.19-3.26,1.32-2.31,2.52-4.67,3.67-7.06,2.43-5,4.74-10,7.33-14.92a66.17,66.17,0,0,1,9.5-14.17c3.47,5,9.82,4.81,16.39,2.74a116.85,116.85,0,0,0,18.14-8.37l.32.83A116.47,116.47,0,0,0,370.06,184.11Zm82.59-76-1-3c.1-.2.22-.41.36-.64l1.3,3.91ZM437.27,60c-.09.24-.2.5-.32.77l-2-5.94a5,5,0,0,0,.6.1ZM293.13,90.33l.07-.33C293.23,90.07,293.21,90.18,293.13,90.33Zm-.26-.42a.46.46,0,0,1,.27,0ZM324.27,75l-2-5,.18-.14,2,5ZM302.44,20.18l2.13,5.29-.17.16-2.13-5.29ZM113.86,99.28l-.57.48A1.47,1.47,0,0,1,113.86,99.28Zm51.06,112.27a5.77,5.77,0,0,1-.91.59C164.33,211.94,164.64,211.75,164.92,211.55Zm64.16-66.33.1.11C229.07,145.37,229,145.34,229.08,145.22ZM153,332.83l2.2,2.41C152.91,337.5,152.95,335.39,153,332.83Zm133.51,37-23.69-35,.42-.34,21,31.11,3.28-2.65C288.57,365.4,288,367.63,286.48,369.84Zm96-62.65s0,0,0,0l0,0Zm111.28-42.07c-.51-.77-1.08-1.69-1.61-2.69a23.77,23.77,0,0,0,6.81-6.16C498.81,258.79,497.37,261.67,493.72,265.12Zm29.7-7.27a31.71,31.71,0,0,1,4.58-.06,9.58,9.58,0,0,1-6.83,4.94A27.54,27.54,0,0,1,523.42,257.85Zm30.29-42.68c-4,2.59-8.63,4.88-12.46,7.62a33.57,33.57,0,0,1,4.91-4.31A19.13,19.13,0,0,1,553.71,215.17Z"/><path class="cls-7" d="M473.43,116.51c-.39.51-.93,1.22-1.39,1.94A9.25,9.25,0,0,0,473.43,116.51Z"/><path class="cls-7" d="M473.74,293.84a12.58,12.58,0,0,0,1.54,3.21s.06,0,.1,0Z"/><path class="cls-7" d="M366.9,199.7c0,.06,0,.06.05.13.44-.41.86-.73,1.32-1.11Z"/><path class="cls-7" d="M532.91,389.13a2.35,2.35,0,0,1-.2-1.32l-2.09,2.08Z"/><path class="cls-7" d="M532.71,387.81l2.08-2.06C533.68,386.29,532.74,386.82,532.71,387.81Z"/><path class="cls-7" d="M539.15,381.39l-4.36,4.35C536.55,384.91,538.81,384.08,539.15,381.39Z"/><path class="cls-7" d="M555.09,328.59a19.6,19.6,0,0,1,4.75-.15l-2-2.18A4.4,4.4,0,0,0,555.09,328.59Z"/><path class="cls-7" d="M399.92,167.46c5.68-2.66,12.54-2.73,14.81-5.4C410.25,159.59,402.24,161,399.92,167.46Z"/><polygon class="cls-7" points="309.9 89.36 314.18 84.22 305.1 90.92 309.9 89.36"/><path class="cls-9" d="M89.9,419.45l.57,9.61a4.3,4.3,0,0,0,4,4.26l47.71.78a9.59,9.59,0,0,0,8-4.31l4.94-7.12a12.18,12.18,0,0,0,2.11-7.28l-.29-9.73Z"/><polygon class="cls-10" points="85 415.77 86.64 424.05 144.66 424.97 144.66 413.93 85 415.77"/><polygon class="cls-11" points="159.38 401.05 159.38 408.41 144.66 424.97 144.66 413.93 159.38 401.05"/><polygon class="cls-12" points="85 415.77 107.07 401.97 159.38 401.05 144.66 413.93 85 415.77"/><g id="_群組_" data-name="&lt;群組&gt;"><g id="_群組_2" data-name="&lt;群組&gt;"><path id="_路徑_" data-name="&lt;路徑&gt;" class="cls-13" d="M195.9,423c.74-1.68,1.71-.32,2.15,3s.21,7.44-.53,9.11-1.71.32-2.15-3S195.15,424.64,195.9,423Z"/></g><path id="_路徑_2" data-name="&lt;路徑&gt;" class="cls-14" d="M203.43,435.62l2.8-.09,3.14-.1.54,0,9-.29.93,0,2.84-.09,6.83-.22,3.24-.1,2.85-.09.9,0,9-.29.53,0,3.15-.1,2.8-.09,2.22-.07,4.37-.14c.23,0,.46-.24.67-.72.06-.13.11-.28.16-.43l0-.14q.06-.19.11-.4l0-.09V432l.06-.29,0-.16v0l0-.16,0-.23V431l0-.15,0-.15,0-.25v-.13q0-.19,0-.38v-.38c0-.12,0-.23,0-.35v0h0q0-.19,0-.38c0-.06,0-.12,0-.18v-.2q0-.19,0-.38v-.19c0-.07,0-.13,0-.2s0-.26,0-.38h0q0-.19,0-.37c0-.07,0-.14,0-.21v-.19q0-.21,0-.43v-.24c0-.1,0-.19,0-.29v-.05c0-.5-.08-1-.15-1.46,0-.17,0-.33-.07-.49l0-.15-.06-.31v-.13c0-.2-.08-.4-.12-.58v0l0-.07-.08-.31,0-.07v0l-.06-.2,0-.08v0l-.05-.14,0-.1v0l0-.1,0-.1v0l0-.08,0-.08,0,0,0-.07,0-.06,0,0,0-.06,0,0,0,0,0,0v0l-.05-.05,0,0h0l-.09-.07h0l-.09,0h-.12l-61.78,2c-.23,0-.46.24-.67.72-.06.13-.11.28-.16.44l0,.14q-.06.19-.11.4l0,.09v.06l-.06.3,0,.16v0l0,.16,0,.23v.11l0,.15,0,.15,0,.25v.13q0,.19,0,.38v.38q0,.18,0,.36h0q0,.19,0,.38c0,.06,0,.12,0,.18v.2q0,.19,0,.38s0,.05,0,.08v.1c0,.07,0,.13,0,.2s0,.26,0,.38h0q0,.19,0,.37c0,.07,0,.14,0,.21v.19q0,.21,0,.43v.24c0,.1,0,.2,0,.3v.05c0,.5.08,1,.15,1.46,0,.17,0,.33.07.49l0,.15.06.31v.13c0,.2.08.4.12.58v0l0,.07.08.31,0,.07v0l.06.2,0,.09v0l.05.14,0,.1v0l0,.1,0,.1v0l0,.08,0,.08,0,0,0,.07,0,.06,0,0,0,.06,0,0,0,0,0,0v0l.05.05,0,0h0l.09.07h0l.1,0h.12l4.37-.14Z"/><g id="_群組_3" data-name="&lt;群組&gt;"><path id="_路徑_3" data-name="&lt;路徑&gt;" class="cls-15" d="M257.68,421c.74-1.68,1.71-.32,2.15,3s.21,7.44-.53,9.11-1.71.32-2.15-3S256.94,422.65,257.68,421Z"/></g></g><g id="_群組_4" data-name="&lt;群組&gt;"><g id="_群組_5" data-name="&lt;群組&gt;"><path id="_路徑_4" data-name="&lt;路徑&gt;" class="cls-13" d="M315.1,423.63c.68-1.57,1.24-.11,1.24,3.28s-.56,7.41-1.24,9-1.24.11-1.24-3.28S314.41,425.21,315.1,423.63Z"/></g><path id="_路徑_5" data-name="&lt;路徑&gt;" class="cls-16" d="M319.23,437.13l2,.26,2.24.29.38,0,6.41.83.66.09,2,.26,4.86.63,2.31.3,2,.26.64.08,6.42.83.38,0,2.24.29,2,.26,1.58.2,3.11.4c.16,0,.35-.18.54-.63.05-.12.1-.26.16-.41l0-.13.12-.39,0-.09v-.05l.07-.28,0-.16v0l0-.16,0-.22,0-.1,0-.14,0-.15,0-.25,0-.09v0l.06-.37v-.09l0-.11,0-.17,0-.35v0h0l0-.37,0-.18V437l0-.38v-.18l0-.2,0-.38h0l0-.37,0-.21v-.19q0-.21,0-.43v-.24c0-.1,0-.19,0-.29s0,0,0-.05c0-.5,0-1,0-1.47,0-.17,0-.33,0-.5s0-.1,0-.15,0-.22,0-.32v-.13c0-.21,0-.4,0-.59v-.1q0-.17,0-.32v-.12l0-.21V430l0-.15,0-.1v0l0-.1,0-.1v0l0-.09,0-.08v0l0-.07,0-.06,0,0,0-.06v0l0-.05,0,0v0l0-.06,0,0h0l-.06-.08h0l-.06-.05h0l0,0h0L315.64,423c-.16,0-.35.18-.54.63-.05.12-.1.26-.16.41l0,.13-.12.39,0,.08v.05l-.07.29,0,.15v0l0,.16,0,.22,0,.1,0,.15,0,.14,0,.25,0,.09v0l-.06.37v.09l0,.11,0,.17-.05.35h0l0,.37,0,.18v.2l0,.38v.18l0,.2,0,.38h0l0,.37,0,.21v.19q0,.21,0,.43v.24c0,.1,0,.2,0,.3v.05c0,.5,0,1,0,1.47,0,.17,0,.33,0,.5s0,.1,0,.15,0,.22,0,.32v.13c0,.21,0,.4,0,.59v.1q0,.16,0,.32v.12l0,.21v.12l0,.15,0,.1v0l0,.1,0,.1v0l0,.08,0,.08v0l0,.07,0,.06,0,0,0,.06v0l0,.05,0,0v0l0,.06,0,0h0l.06.08h0l.06.05h0l0,0h0l3.11.4Z"/><g id="_群組_6" data-name="&lt;群組&gt;"><path id="_路徑_6" data-name="&lt;路徑&gt;" class="cls-15" d="M359,429.29c.68-1.57,1.24-.11,1.24,3.28s-.56,7.41-1.24,9-1.24.11-1.24-3.28S358.35,430.87,359,429.29Z"/></g></g><g id="_群組_7" data-name="&lt;群組&gt;"><g id="_群組_8" data-name="&lt;群組&gt;"><path id="_路徑_7" data-name="&lt;路徑&gt;" class="cls-13" d="M457,424.65c.74-1.68,1.71-.32,2.15,3s.21,7.44-.53,9.11-1.71.32-2.15-3S456.21,426.33,457,424.65Z"/></g><path id="_路徑_8" data-name="&lt;路徑&gt;" class="cls-17" d="M464.49,437.31l2.8-.09,3.14-.1.54,0,9-.29.93,0,2.84-.09,6.83-.22,3.24-.1,2.85-.09.9,0,9-.29.53,0,3.15-.1,2.8-.09,2.22-.07,4.37-.14c.23,0,.46-.24.67-.72.06-.13.11-.28.16-.43l0-.14q.06-.19.11-.4l0-.09v-.06l.06-.29,0-.16v0l0-.16,0-.23v-.11l0-.15,0-.15,0-.25V432q0-.19,0-.38v-.38c0-.12,0-.23,0-.35v0h0q0-.19,0-.38c0-.06,0-.12,0-.18v-.2q0-.19,0-.38v-.19c0-.07,0-.13,0-.2s0-.26,0-.38h0q0-.19,0-.37c0-.07,0-.14,0-.21v-.19q0-.21,0-.43v-.24c0-.1,0-.19,0-.29v-.05c0-.5-.08-1-.15-1.46,0-.17,0-.33-.07-.49l0-.15-.06-.31v-.13c0-.2-.08-.4-.12-.58v0l0-.07-.08-.31,0-.07v0l-.06-.2,0-.08v0l-.05-.14,0-.1v0l0-.1,0-.1v0l0-.08,0-.08,0,0,0-.07,0-.06,0,0,0-.06,0,0,0,0,0,0v0l-.05-.05,0,0h0l-.09-.07h0l-.09,0h-.12l-61.78,2c-.23,0-.46.24-.67.72-.06.13-.11.28-.16.44l0,.14q-.06.19-.11.4l0,.09v.06l-.06.3,0,.16v0l0,.16,0,.23v.11l0,.15,0,.15,0,.25v.13q0,.19,0,.38v.38q0,.18,0,.36h0q0,.19,0,.38c0,.06,0,.12,0,.18v.2q0,.19,0,.38s0,.05,0,.08v.1c0,.07,0,.13,0,.2s0,.26,0,.38h0q0,.19,0,.37c0,.07,0,.14,0,.21v.19q0,.21,0,.43V432c0,.1,0,.2,0,.3v.05c0,.5.08,1,.15,1.46,0,.17,0,.33.07.49l0,.15.06.31v.13c0,.2.08.4.12.58v0l0,.07.08.31,0,.07v0l.06.2,0,.09v0l.05.14,0,.1v0l0,.1,0,.1v0l0,.08,0,.08,0,0,0,.07,0,.06,0,0,0,.06,0,0,0,0,0,0v0l.05.05,0,0h0l.09.07h0l.1,0h.12l4.37-.14Z"/><g id="_群組_9" data-name="&lt;群組&gt;"><path id="_路徑_9" data-name="&lt;路徑&gt;" class="cls-15" d="M518.74,422.67c.74-1.68,1.71-.32,2.15,3s.21,7.44-.53,9.11-1.71.32-2.15-3S518,424.35,518.74,422.67Z"/></g></g></g></g></svg>