<svg xmlns="http://www.w3.org/2000/svg" xmlns:xlink="http://www.w3.org/1999/xlink" viewBox="0 0 358 663.87"><defs><style>.cls-1{isolation:isolate;}.cls-2{fill:url(#radial-gradient);}.cls-3{fill:url(#radial-gradient-2);}.cls-4{opacity:0.46;}.cls-19,.cls-24,.cls-25,.cls-4,.cls-40,.cls-58{mix-blend-mode:multiply;}.cls-5{fill:url(#radial-gradient-3);}.cls-6{fill:url(#radial-gradient-4);}.cls-7{fill:url(#radial-gradient-5);}.cls-8{fill:url(#radial-gradient-6);}.cls-9{fill:url(#radial-gradient-7);}.cls-10{fill:url(#radial-gradient-8);}.cls-11{fill:url(#radial-gradient-9);}.cls-12{fill:url(#radial-gradient-10);}.cls-13{fill:url(#radial-gradient-11);}.cls-14{fill:url(#radial-gradient-12);}.cls-15{fill:url(#radial-gradient-13);}.cls-16{fill:url(#radial-gradient-14);}.cls-17{fill:url(#radial-gradient-15);}.cls-18,.cls-19{fill:#a76c4b;}.cls-19{opacity:0.54;}.cls-20{fill:none;}.cls-21{fill:url(#radial-gradient-16);}.cls-22{fill:url(#radial-gradient-17);}.cls-23{fill:url(#radial-gradient-18);}.cls-24,.cls-40{opacity:0.4;}.cls-24{fill:url(#radial-gradient-19);}.cls-25{opacity:0.42;}.cls-26{fill:url(#radial-gradient-20);}.cls-27{fill:url(#radial-gradient-21);}.cls-28{fill:url(#radial-gradient-22);}.cls-29{fill:url(#radial-gradient-23);}.cls-30{fill:url(#radial-gradient-24);}.cls-31{fill:url(#radial-gradient-25);}.cls-32{fill:url(#radial-gradient-26);}.cls-33{fill:url(#radial-gradient-27);}.cls-34{fill:url(#radial-gradient-28);}.cls-35{fill:url(#radial-gradient-29);}.cls-36{fill:url(#radial-gradient-30);}.cls-37{fill:url(#radial-gradient-31);}.cls-38{fill:url(#radial-gradient-32);}.cls-39{fill:url(#radial-gradient-33);}.cls-41{fill:url(#radial-gradient-34);}.cls-42{fill:url(#radial-gradient-35);}.cls-43{fill:url(#radial-gradient-36);}.cls-44{fill:url(#radial-gradient-37);}.cls-45{fill:url(#radial-gradient-38);}.cls-46{fill:url(#radial-gradient-39);}.cls-47{fill:url(#radial-gradient-40);}.cls-48{fill:url(#radial-gradient-41);}.cls-49{fill:url(#radial-gradient-42);}.cls-50{fill:url(#radial-gradient-43);}.cls-51{fill:url(#radial-gradient-44);}.cls-52{fill:url(#radial-gradient-45);}.cls-53{fill:url(#radial-gradient-46);}.cls-54{fill:url(#radial-gradient-47);}.cls-55{fill:url(#radial-gradient-48);}.cls-56{fill:url(#radial-gradient-49);}.cls-57{fill:url(#radial-gradient-50);}.cls-58{opacity:0.43;}.cls-59{fill:url(#radial-gradient-51);}.cls-60{fill:url(#radial-gradient-52);}.cls-61{fill:url(#radial-gradient-53);}.cls-62{fill:url(#radial-gradient-54);}.cls-63{fill:url(#radial-gradient-55);}.cls-64{fill:url(#radial-gradient-56);}.cls-65{fill:url(#radial-gradient-57);}.cls-66{fill:url(#radial-gradient-58);}.cls-67{fill:url(#radial-gradient-59);}.cls-68{fill:url(#radial-gradient-60);}.cls-69{opacity:0.1;}.cls-70{fill:#5b3741;}.cls-71{fill:#b67c4b;}.cls-72{font-size:16.43px;fill:#fff422;font-family:MicrosoftJhengHeiBold, Microsoft JhengHei;font-weight:700;}</style><radialGradient id="radial-gradient" cx="546.37" cy="449.53" r="253.22" gradientTransform="matrix(0, 0.86, -0.81, 0, 816.83, -124.35)" gradientUnits="userSpaceOnUse"><stop offset="0.07" stop-color="#d0a778"/><stop offset="1" stop-color="#8b674e"/></radialGradient><radialGradient id="radial-gradient-2" cx="583.71" cy="508.26" r="448.06" gradientTransform="matrix(0, 0.89, -0.82, 0, 832.76, -164.87)" gradientUnits="userSpaceOnUse"><stop offset="0.07" stop-color="#f4b176"/><stop offset="1" stop-color="#a76c4b"/></radialGradient><radialGradient id="radial-gradient-3" cx="353.57" cy="1354.17" r="272.84" gradientTransform="matrix(0, 1.21, -0.34, 0, 798.37, -249.4)" xlink:href="#radial-gradient-2"/><radialGradient id="radial-gradient-4" cx="-552.78" cy="1462.66" r="2491.57" gradientTransform="matrix(0, 1.21, -0.34, 0, 798.37, -249.4)" xlink:href="#radial-gradient-2"/><radialGradient id="radial-gradient-5" cx="-551.07" cy="1461.91" r="2486.25" gradientTransform="matrix(0, 1.21, -0.34, 0, 798.37, -249.4)" xlink:href="#radial-gradient-2"/><radialGradient id="radial-gradient-6" cx="-552.56" cy="1462.64" r="2490.99" gradientTransform="matrix(0, 1.21, -0.34, 0, 798.37, -249.4)" xlink:href="#radial-gradient-2"/><radialGradient id="radial-gradient-7" cx="-925.02" cy="630.02" r="3503.23" gradientTransform="matrix(0, 0.86, -0.81, 0, 816.83, -124.35)" xlink:href="#radial-gradient-2"/><radialGradient id="radial-gradient-8" cx="148.66" cy="588.75" r="283.95" gradientTransform="matrix(0, 0.86, -0.81, 0, 816.83, -124.35)" xlink:href="#radial-gradient-2"/><radialGradient id="radial-gradient-9" cx="-138.23" cy="1411.02" r="1211.53" gradientTransform="matrix(0, 1.21, -0.34, 0, 798.37, -249.4)" xlink:href="#radial-gradient-2"/><radialGradient id="radial-gradient-10" cx="-138.24" cy="1411.07" r="1211.59" gradientTransform="matrix(0, 1.21, -0.34, 0, 798.37, -249.4)" xlink:href="#radial-gradient-2"/><radialGradient id="radial-gradient-11" cx="215.39" cy="1371.82" r="107.06" gradientTransform="matrix(0, 1.21, -0.34, 0, 798.37, -249.4)" xlink:href="#radial-gradient-2"/><radialGradient id="radial-gradient-12" cx="215.4" cy="1371.8" r="107.04" gradientTransform="matrix(0, 1.21, -0.34, 0, 798.37, -249.4)" xlink:href="#radial-gradient-2"/><radialGradient id="radial-gradient-13" cx="263.92" cy="1369.95" r="378.87" gradientTransform="matrix(0, 1.21, -0.34, 0, 798.37, -249.4)" xlink:href="#radial-gradient-2"/><radialGradient id="radial-gradient-14" cx="582.28" cy="1392.9" r="348.96" gradientTransform="matrix(0, 1.21, -0.34, 0, 798.37, -249.4)" xlink:href="#radial-gradient-2"/><radialGradient id="radial-gradient-15" cx="582.27" cy="1392.92" r="348.97" gradientTransform="matrix(0, 1.21, -0.34, 0, 798.37, -249.4)" xlink:href="#radial-gradient-2"/><radialGradient id="radial-gradient-16" cx="918.72" cy="548.2" r="437.05" xlink:href="#radial-gradient-2"/><radialGradient id="radial-gradient-17" cx="584.66" cy="880.64" r="421.5" gradientTransform="matrix(0, 0.89, -0.82, 0, 832.76, -164.87)" gradientUnits="userSpaceOnUse"><stop offset="0" stop-color="#a76c4b"/><stop offset="0.2" stop-color="#ae724f"/><stop offset="0.48" stop-color="#c08359"/><stop offset="0.8" stop-color="#de9e6a"/><stop offset="1" stop-color="#f4b176"/></radialGradient><radialGradient id="radial-gradient-18" cx="192.97" cy="631.79" r="400.06" xlink:href="#radial-gradient-2"/><radialGradient id="radial-gradient-19" cx="581.81" cy="798.37" r="295.36" gradientTransform="matrix(0, 0.89, -0.82, 0, 832.76, -164.87)" gradientUnits="userSpaceOnUse"><stop offset="0" stop-color="#178753"/><stop offset="0.99" stop-color="#13573a"/></radialGradient><radialGradient id="radial-gradient-20" cx="250.79" cy="857.63" r="9.01" xlink:href="#radial-gradient-2"/><radialGradient id="radial-gradient-21" cx="250.7" cy="618.53" r="5.96" xlink:href="#radial-gradient-2"/><radialGradient id="radial-gradient-22" cx="1078.2" cy="903.24" r="272.85" gradientTransform="matrix(-1.11, 0, 0, -0.37, 1456.7, 376.64)" xlink:href="#radial-gradient-2"/><radialGradient id="radial-gradient-23" cx="1078.19" cy="903.22" r="272.87" gradientTransform="matrix(-1.11, 0, 0, -0.37, 1456.7, 376.64)" xlink:href="#radial-gradient-2"/><radialGradient id="radial-gradient-24" cx="172.07" cy="1011.92" r="2491.09" gradientTransform="matrix(-1.11, 0, 0, -0.37, 1456.7, 376.64)" xlink:href="#radial-gradient-2"/><radialGradient id="radial-gradient-25" cx="170.1" cy="2797.49" r="3887.03" gradientTransform="matrix(0, 0.86, -0.81, 0, 816.83, -124.35)" xlink:href="#radial-gradient-2"/><radialGradient id="radial-gradient-26" cx="172.04" cy="1011.61" r="2491.07" gradientTransform="matrix(-1.11, 0, 0, -0.37, 1456.7, 376.64)" xlink:href="#radial-gradient-2"/><radialGradient id="radial-gradient-27" cx="172.21" cy="1011.36" r="2490.63" gradientTransform="matrix(-1.11, 0, 0, -0.37, 1456.7, 376.64)" xlink:href="#radial-gradient-2"/><radialGradient id="radial-gradient-28" cx="198.37" cy="760.38" r="252.21" gradientTransform="matrix(0, 0.86, -0.81, 0, 816.83, -124.35)" xlink:href="#radial-gradient-2"/><radialGradient id="radial-gradient-29" cx="933.49" cy="912.25" r="206.7" gradientTransform="matrix(-1.11, 0, 0, -0.37, 1456.7, 376.64)" xlink:href="#radial-gradient-2"/><radialGradient id="radial-gradient-30" cx="586.38" cy="960.08" r="1211.61" gradientTransform="matrix(-1.11, 0, 0, -0.37, 1456.7, 376.64)" xlink:href="#radial-gradient-2"/><radialGradient id="radial-gradient-31" cx="988.55" cy="919.01" r="378.89" gradientTransform="matrix(-1.11, 0, 0, -0.37, 1456.7, 376.64)" xlink:href="#radial-gradient-2"/><radialGradient id="radial-gradient-32" cx="610.82" cy="964.28" r="1211.41" gradientTransform="matrix(-1.11, 0, 0, -0.37, 1456.7, 376.64)" xlink:href="#radial-gradient-2"/><radialGradient id="radial-gradient-33" cx="610.81" cy="964.35" r="1211.39" gradientTransform="matrix(-1.11, 0, 0, -0.37, 1456.7, 376.64)" xlink:href="#radial-gradient-2"/><radialGradient id="radial-gradient-34" cx="342.71" cy="1012.42" r="378.26" gradientTransform="matrix(0, 0.86, -0.81, 0, 816.83, -124.35)" xlink:href="#radial-gradient-2"/><radialGradient id="radial-gradient-35" cx="-559.03" cy="2488.68" r="2488.41" gradientTransform="matrix(0, 1.21, -0.34, 0, 798.37, -249.4)" xlink:href="#radial-gradient-2"/><radialGradient id="radial-gradient-36" cx="-559.65" cy="2492.52" r="2491.01" gradientTransform="matrix(0, 1.21, -0.34, 0, 798.37, -249.4)" xlink:href="#radial-gradient-2"/><radialGradient id="radial-gradient-37" cx="-935.04" cy="1057.42" r="3500.56" gradientTransform="matrix(0, 0.86, -0.81, 0, 816.83, -124.35)" xlink:href="#radial-gradient-2"/><radialGradient id="radial-gradient-38" cx="-559.7" cy="2492.23" r="2491.09" gradientTransform="matrix(0, 1.21, -0.34, 0, 798.37, -249.4)" xlink:href="#radial-gradient-2"/><radialGradient id="radial-gradient-39" cx="138.65" cy="1016.16" r="283.95" gradientTransform="matrix(0, 0.86, -0.81, 0, 816.83, -124.35)" xlink:href="#radial-gradient-2"/><radialGradient id="radial-gradient-40" cx="-145.29" cy="2440.74" r="1211.5" gradientTransform="matrix(0, 1.21, -0.34, 0, 798.37, -249.4)" xlink:href="#radial-gradient-2"/><radialGradient id="radial-gradient-41" cx="-145.35" cy="2440.69" r="1211.62" gradientTransform="matrix(0, 1.21, -0.34, 0, 798.37, -249.4)" xlink:href="#radial-gradient-2"/><radialGradient id="radial-gradient-42" cx="-145.37" cy="2440.97" r="1211.75" gradientTransform="matrix(0, 1.21, -0.34, 0, 798.37, -249.4)" xlink:href="#radial-gradient-2"/><radialGradient id="radial-gradient-43" cx="208.3" cy="2401.35" r="106.98" gradientTransform="matrix(0, 1.21, -0.34, 0, 798.37, -249.4)" xlink:href="#radial-gradient-2"/><radialGradient id="radial-gradient-44" cx="256.81" cy="2399.6" r="378.89" gradientTransform="matrix(0, 1.21, -0.34, 0, 798.37, -249.4)" xlink:href="#radial-gradient-2"/><radialGradient id="radial-gradient-45" cx="575.16" cy="2422.58" r="349.01" gradientTransform="matrix(0, 1.21, -0.34, 0, 798.37, -249.4)" xlink:href="#radial-gradient-2"/><radialGradient id="radial-gradient-46" cx="575.22" cy="2422.54" r="348.87" gradientTransform="matrix(0, 1.21, -0.34, 0, 798.37, -249.4)" xlink:href="#radial-gradient-2"/><radialGradient id="radial-gradient-47" cx="575.16" cy="2422.59" r="349.01" gradientTransform="matrix(0, 1.21, -0.34, 0, 798.37, -249.4)" xlink:href="#radial-gradient-2"/><radialGradient id="radial-gradient-48" cx="163.43" cy="2367.93" r="1110.26" gradientTransform="matrix(0, 1.21, -0.34, 0, 798.37, -249.4)" xlink:href="#radial-gradient-2"/><radialGradient id="radial-gradient-49" cx="-120.9" cy="2445.62" r="1211.78" gradientTransform="matrix(0, 1.21, -0.34, 0, 798.37, -249.4)" xlink:href="#radial-gradient-2"/><radialGradient id="radial-gradient-50" cx="214.41" cy="2378.84" r="571.64" gradientTransform="matrix(0, 1.21, -0.34, 0, 798.37, -249.4)" xlink:href="#radial-gradient-2"/><radialGradient id="radial-gradient-51" cx="1021.31" cy="-760" r="272.98" gradientTransform="matrix(-1.1, 0, 0, -0.4, 1450.13, 341.52)" xlink:href="#radial-gradient-2"/><radialGradient id="radial-gradient-52" cx="902.79" cy="968.93" r="309.15" gradientTransform="matrix(0, 0.86, -0.81, 0, 816.83, -124.35)" xlink:href="#radial-gradient-2"/><radialGradient id="radial-gradient-53" cx="114.99" cy="-651.69" r="2491.48" gradientTransform="matrix(-1.1, 0, 0, -0.4, 1450.13, 341.52)" xlink:href="#radial-gradient-2"/><radialGradient id="radial-gradient-54" cx="907.52" cy="791.45" r="146.9" gradientTransform="matrix(0, 0.86, -0.81, 0, 816.83, -124.35)" xlink:href="#radial-gradient-2"/><radialGradient id="radial-gradient-55" cx="115.31" cy="-651.82" r="2490.76" gradientTransform="matrix(-1.1, 0, 0, -0.4, 1450.13, 341.52)" xlink:href="#radial-gradient-2"/><radialGradient id="radial-gradient-56" cx="115.06" cy="-651.79" r="2491.28" gradientTransform="matrix(-1.1, 0, 0, -0.4, 1450.13, 341.52)" xlink:href="#radial-gradient-2"/><radialGradient id="radial-gradient-57" cx="1005.88" cy="-767.91" r="0.21" gradientTransform="matrix(-1.1, 0, 0, -0.4, 1450.13, 341.52)" xlink:href="#radial-gradient-2"/><radialGradient id="radial-gradient-58" cx="529.46" cy="-703.45" r="1211.66" gradientTransform="matrix(-1.1, 0, 0, -0.4, 1450.13, 341.52)" xlink:href="#radial-gradient-2"/><radialGradient id="radial-gradient-59" cx="553.92" cy="-698.47" r="1211.8" gradientTransform="matrix(-1.1, 0, 0, -0.4, 1450.13, 341.52)" xlink:href="#radial-gradient-2"/><radialGradient id="radial-gradient-60" cx="590.03" cy="791.06" r="295.36" gradientTransform="matrix(0, 0.91, -0.84, 0, 845.56, -181.64)" gradientUnits="userSpaceOnUse"><stop offset="0" stop-color="#efe8e1"/><stop offset="0.99" stop-color="#e9e5e1"/></radialGradient></defs><title>資產 5</title><g class="cls-1"><g id="圖層_2" data-name="圖層 2"><g id="圖層_1-2" data-name="圖層 1"><path class="cls-2" d="M358,51.12l-3.89-4.25L354,662.61l3.89-4.24Z"/><polygon class="cls-3" points="341.16 59.25 341.16 62.85 341.02 646.62 341.02 650.44 353.96 662.83 354.11 47.08 341.16 59.03 341.16 59.25"/><g class="cls-4"><path class="cls-5" d="M354,338.78V290.32c-.59,7.47-.63,16-.64,22.89C353.4,321.19,353.46,330.45,354,338.78Z"/><path class="cls-6" d="M354.07,217.21v8.1C354.11,222.66,354.12,220,354.07,217.21Z"/><path class="cls-7" d="M341,73.89c0,.45.08.89.12,1.34V73.65C341.08,73.55,341,73.58,341,73.89Z"/><path class="cls-8" d="M353,423.2c-.36,16.94,0,34,0,50.91.06,13.2-.11,27.31,1,40.11V488.9q-.05-5.3-.07-10.64c-.06-14.92-.34-29.82-.28-44.76,0-6.65.17-13.29.37-19.92V392.34c0,1.34-.1,2.68-.14,4C353.56,405.29,353.16,414.21,353,423.2Z"/><path class="cls-9" d="M353.38,603.62c-.62-1.81-.93-5.67-1.19-8.25-2.05-20.48-1.22-42.16-1.23-63.47h0c-.06,7.05.18,14.19.5,21.14.26,5.73.55,11.79,1.21,17.12.08.65.64,2,.79,1,.18-1.29.34-2.65.48-4.06V539c-.18-.7-.51-1.3-.66-.52a59.74,59.74,0,0,0-.58,13c0,1,.76,2.09.72.61a74.58,74.58,0,0,1,.14-8.5,154.5,154.5,0,0,1-.54,22.65c-.38-4.35-.58-9-.79-13.41-.36-7.76-.59-15.76-.41-23.62a57.76,57.76,0,0,1,.58-7.71c.41-2.48,1-2.7,1.34-.09.07.59.14,1.2.21,1.81v-5.09c-.37-1.38-.82-2.07-1.38-1.42-.92,1.06-1.3,4.72-1.46,8.39.16-51.18.39-102.48,1.05-153.6.34-26.22-.36-52.47.19-78.67.27-13,1-25.64,1.1-38.75,0-6.18,0-12.33.27-18.47.13-3.52.25-6.89.31-10.29v-8.1c0-.21,0-.41,0-.62-.34-14.85-1.64-29.33-2.22-44.09-.61-15.66-1-31.43-1.8-47-.42-7.79-.93-15.51-1.2-23.39-.26-7.48-.14-15,0-22.49.15-6.07.37-12.11.26-18.21-.05-3.2-.23-6.31-.5-9.33l-.24.22a212.82,212.82,0,0,1,.32,22.19c-.33,11.22-.49,22,0,33.22.56,12.83,1.37,25.42,1.81,38.33.41,12.19.74,24.39,1.29,36.5.58,12.61,1.65,24.85,1.79,37.7.06,6-.31,11.69-.52,17.6-.23,6.61-.22,13.33-.27,20-.11,13-1,25.68-1.21,38.65q-.08,4.11-.11,8.22c-.16-7.22-.28-14.45-.28-21.77,0-12.39.2-24.73-.22-37.07-.2-5.78-.56-11.46-.76-17.24q-.09-2.41-.14-4.84a23.55,23.55,0,0,0,1.53,7.66c.1.21.29.33.37-.06,1.31-6.1,1.56-16.69.91-23.87a3,3,0,0,0-.28-1,120.07,120.07,0,0,0-1.2-15.38c-.08-.61-.68-2.08-.74-.73-.34,6.83-.69,13.68-.81,20.61-.12-11.28-.08-22.57-.19-33.86-.17-16.33-1.55-31.69-2.66-47.37-.27-7.49-.65-14.83-1.17-22.16-.11-4.23-.15-8.48-.05-12.73.18-8.47,1.37-15.75,1.75-24a165.91,165.91,0,0,0-.18-17.57l-.41.38c0,.44.06.88.09,1.32.27,5,.3,10.12.13,15.16s-.77,9.4-1.24,14.13-.68,9.58-.72,14.54c-.59-8.7-1.07-17.51-1.46-26.36-.22-5.09-.39-10.21-.55-15.34l-.4.37c.05,1.47.12,2.91.16,4.23.39,12,1,23.9,1.75,35.64.16,2.45.34,4.88.52,7.31.09,5.76.37,11.57.74,17.28-1.23-16.27-3-31.9-4.63-47.74a1.17,1.17,0,0,0-.21-.57v1.58c1.38,15.31,3,30.31,4.24,45.79.65,8.22,1.18,16.55,1.46,25,.18,5.39.17,10.63.07,15.89-.09-2.51-.2-5-.31-7.39-.39-8.47-.8-17-1.46-25.21-.79-9.79-2-19.15-3.26-28.19,0-.26-.25-.49-.19,0,1.06,8.07,2,16.31,2.69,24.84.62,7.23.93,14.61,1.31,22,.55,10.84,1.59,25.56-.43,35.16-.6,2.87-.82,1.64-1.09-1.14-.34-3.62-.47-7.47-.58-11.25-.18-6.18-.28-12.56-.17-18.81a91.53,91.53,0,0,1,1.14,12.75c-.19-.74-.53-1.22-.59-.36a34.6,34.6,0,0,0,.56,10.36c.11.47.54,1.32.61.3.68-8.81-.14-19.85-1.8-26.62-.08-.32-.56-1.22-.57-.21-.07,5.22-.32,42.68,2.5,38.79,1-1.32,1.45-7.27,1.62-10.39.08-1.46.13-2.95.16-4.45a.93.93,0,0,0,0-.18q.24-3,.37-6.06,0,2.56,0,5.13c.07,12.48-.35,24.82-.43,37.27-.08,12.77.33,25.52.64,38.22.32,13.46.46,27,.59,40.54.09,9.88,0,19.91-.62,29.58-.29,4.58-.66,9.08-.87,13.72s-.06,9.46,0,14c.2,10.62.3,20.81-.16,31.37-.44,10.17-.64,20.07-.62,30.38,0,9.83.17,19.64.2,29.46,0,10.89-.32,21.63-.42,32.49-.18,20.58.49,41.13.09,61.7-.24,3.29-.31,6.84-.38,10-.11,5.08-.14,10.25,0,15.33.22,10.46,1.2,20.52,2.21,30.27,1.15,11,2.49,21.76,3.43,33a325.93,325.93,0,0,1,.91,33.71c0,.63.44,1.69.51.94.87-9.33.42-19.75-.24-29.07-.76-10.78-2-21-3.22-31.26-1.2-10.41-2.33-21-2.85-32.14-.43-9.16-.25-18.14.12-27.12.21.4.4.46.42-.23.28-12.84.17-25.68,0-38.53-.14-13.64-.12-27.09.13-40.71.46-25.17-.67-50.37.44-75.41.55-12.37.37-24.1.16-36.53-.21-12.19,1-23.45,1.38-35.44.36-11.8,0-23.77-.16-35.58-.2-12.79-.47-25.51-.79-38.27-.3-12.13-.36-24.06-.11-36.2q.33-15.94.12-31.92c-.11-7.8-.37-15.55-.61-23.31.73,9.94,1.49,19.94,1.66,30.25.2,13,.1,26,.21,38.92q.08,9.38.39,18.71c.23,6.74.65,13.36.82,20.14.31,12.33,0,24.77.08,37.13,0,10.67.33,21.17.63,31.77.33,11.84.23,23-.16,34.78-.74,22.11-1,44.63-1.19,66.88-.44,44.3,0,88.6-.61,132.88,0,0-.05.08-.05.22-.18,9.5-.21,18.84.09,28.32.27,8.34,1,16.3,1.82,24.13.85,8.23,1.79,16.35,2.47,24.8q.24,3,.42,6.16v-11c-.47-4.91-1-9.74-1.52-14.54-.9-8.31-1.8-16.67-2.23-25.5-.41-8.49-.48-17.25-.59-25.9.12.08.21-.06.23-.61q.34-14.4.44-28.85a3.71,3.71,0,0,0,.13.94c-.28,20.82-1,41.87.84,62.06.36,4.07.87,10.44,2,12.55.26.47.49.57.68.4v-4.22C353.79,603.1,353.57,604.18,353.38,603.62Zm-8.81-433.68c0-.85,0-1.73,0-2.61Q344.6,168.64,344.57,169.94Zm6.11,40.56c.1-5.11.34-10.16.61-15.18.43,3.77.76,7.74.87,11.77-.76,3.62-.69,8.29-.81,12.65,0,1,.65,2.24.68,1.11.06-2.66.06-5.36.22-7.87.07.16.16.22.18-.06,0-.48.07-1,.1-1.43a82.54,82.54,0,0,1-1,17.53C350.31,225,350.58,215.57,350.68,210.5Zm-.3,268.21c0-26.73,0-53.4.46-80.11.19-12,.33-24,.64-36-.11,23.32-.4,46.64-.6,69.95q-.3,36.58-.5,73.17Q350.4,492.21,350.38,478.71Z"/><path class="cls-10" d="M353,85.74c-.33-3.14-.91-6.11-1.88-6.81-2.93-2.1-.14,42,.58,47.54.09.71.65,2.32.84,1.18.86-5,.73-11.82.54-17.41s-.67-11.95-1.91-15.59c-.09-.26-.36-.83-.53-.72,0-1.46-.05-2.91-.06-4.37,0-2.19-.06-6.76.58-8,1.16-2.35,2.1,20.19,2.17,22.18.22,5.64.35,11.37.3,17.06a62,62,0,0,1-.62,10.34c-.09.42.18.92.26.87.36-.22.6-1.06.77-2.18V101.19C353.87,96,353.56,90.7,353,85.74Zm-.79,24.58a107.9,107.9,0,0,1-.15,12.15c-.54-5.88-.78-12.52-1.05-18.36,0,0,0,0,0-.05.23.39.5.47.43-.4-.15-1.84-.2-3.62-.17-5.45A97.86,97.86,0,0,1,352.26,110.31Z"/><path class="cls-11" d="M354.1,77.07c-.65-4.72-1.43-9.25-2.17-13.79-.66-4.09-1.25-8.27-1.71-12.6l-.29.27c1.07,10.35,2.92,19.7,4.18,29.9Z"/><path class="cls-12" d="M352.63,161.93c0,11.66.8,23.18,1.44,34.54,0,.06,0,.11,0,.16v-12.2a352.78,352.78,0,0,1-.42-35.42c.12-2.7.27-5.39.43-8.06v-9.18C353.36,141.74,352.62,151.71,352.63,161.93Z"/><path class="cls-13" d="M345,75.83c0,.52.38,1.63.45.91a125.81,125.81,0,0,0,.87-15.51c0-1.84-.14-4.4-.37-6.64l-.68.63C346,62,345,68.91,345,75.83Z"/><path class="cls-14" d="M344.79,65.72a16.48,16.48,0,0,0,.23-7.9c0-.24-.44-1.2-.44-.37a32.42,32.42,0,0,1,0,5.32,48.49,48.49,0,0,1-.26-6.17c0-.13,0-.29,0-.47l-.76.7a54.76,54.76,0,0,0,.66,8C344.29,65.35,344.61,66.23,344.79,65.72Z"/><path class="cls-15" d="M347,311.72c1.19-4.38,1.22-12.64,1.23-18.33,0-7.78-.32-15.55-.69-23.19-.89-18.82-2.15-38-2.12-57.14,0-.63-.42-1.44-.43-.71-.27,18,.94,36.33,1.83,54,.38,7.58.74,15.2.85,22.91.06,3.94,0,7.88-.14,11.78-.15,3.55-.57,6.6-.88,10C346.63,311.47,346.92,312.1,347,311.72Z"/><path class="cls-16" d="M346.47,629.28a95.29,95.29,0,0,1,.88,14.92c0,.9,0,1.8,0,2.7-.19-.88-.63-1.56-.64-.31,0,3.08,0,6.17,0,9.25l1.29,1.24c.63-10.27.49-23.36-1.44-30.66-.13-.49-.42-1.05-.54-.27a176.44,176.44,0,0,0-2.15,27l.74.71A156.67,156.67,0,0,1,346.47,629.28Z"/><path class="cls-17" d="M349.85,628.85c-.82-15.26-1.27-30.82-3.11-45.07,0-.27-.25-.58-.2-.08,1.26,12.06,1.66,25,2.19,37.71.44,10.69,1.11,21.3.93,32.19,0,1.67-.09,3.32-.19,4.94l1,1C351.05,649.59,350.35,638.2,349.85,628.85Z"/></g><polygon class="cls-18" points="341.41 646.2 16.45 646.13 16.59 63.2 341.55 63.28 341.55 58.82 12.7 58.75 12.55 650.79 341.41 650.87 341.41 646.2"/><polygon class="cls-19" points="341.41 646.2 16.45 646.13 16.59 63.2 341.55 63.28 341.55 58.82 12.7 58.75 12.55 650.79 341.41 650.87 341.41 646.2"/><rect class="cls-20" x="12.95" y="650.41" width="328.07" height="0.21"/><polygon class="cls-21" points="341.02 650.44 341.02 650.65 12.95 650.58 0 662.75 353.96 662.83 341.02 650.44"/><polygon class="cls-22" points="12.95 650.37 13.09 59.17 13.09 58.96 0.15 47 0 662.75 12.95 650.58 12.95 650.37"/><polygon class="cls-23" points="341.16 59.03 354.11 47.08 0.15 47 13.09 58.96 341.16 59.03"/><path class="cls-24" d="M340.72,646.84l.14-583.77L15.91,63V75.1c3.84-4,9.67-7,18.48-7.72,19.72-1.69,296.35-3.89,300.5,3.47s-.14,552.77-.14,562c0,13-18.69,10.18-29.58,10.75-10.05.52-251.88,0-289.4-.06v3.25Z"/><g class="cls-25"><path class="cls-26" d="M140.25,59H119.37c2.13.08,4.25.14,6.35.17C130.51,59.22,135.45,59.22,140.25,59Z"/><path class="cls-27" d="M332.69,59H318.86C323.49,59.07,328.1,59.08,332.69,59Z"/><path class="cls-28" d="M168.36,58.59c-7.72-2.32-21.25-2.41-31-2.42-10.35,0-23.05.12-32.39,1.8-.6.11-2,.67-.79.81l2.05.2h13.15c-3.8-.14-7.59-.35-11.19-.73C116.83,57.18,127.07,57,136,57s21.24.05,28.76,2h3.74C168.67,58.85,168.71,58.7,168.36,58.59Z"/><path class="cls-29" d="M147.12,58.5C141,58,134.73,58,128.45,58.08c-.61,0-1.48.55-.72.56,4.59,0,9.19.08,13.72.3l-1.19,0h6.87C147.53,58.8,147.78,58.55,147.12,58.5Z"/><path class="cls-30" d="M264.1,47.17a76.81,76.81,0,0,0,13.82-.11h-14.2A.68.68,0,0,0,264.1,47.17Z"/><path class="cls-31" d="M59,53.38c11,.21,22,.37,33,.7-21.38-.11-42.77-.44-64.15-.64l-21-.19.88.81q38.09.26,76.12.81c24,.37,48.12-.39,72.15.2,11.95.3,23.52,1.12,35.54,1.19,5.67,0,11.31.05,16.93.3,5.93.25,11.42.49,17.43.32,13.62-.37,26.9-1.79,40.43-2.43,14.36-.67,28.82-1,43.07-2,7.14-.46,14.22-1,21.45-1.31,6.25-.26,12.52-.16,18.78,0l.33-.31c-8.1-.21-16.06-.23-24.24.19-11.77.61-23.31,1.49-35.15,2-11.17.45-22.36.81-33.47,1.41-11.56.63-22.79,1.81-34.57,2-5.51.07-10.72-.34-16.15-.57-6.06-.25-12.22-.24-18.32-.3-11.91-.12-23.55-1-35.44-1.31q-3.77-.08-7.53-.12c6.62-.18,13.25-.31,20-.3,11.36,0,22.68.21,34-.24,5.3-.21,10.51-.61,15.81-.83,1.48-.06,3-.11,4.44-.16a18.61,18.61,0,0,0-7,1.67c-.19.11-.3.31.06.41,5.59,1.42,15.3,1.7,21.88,1a2.4,2.4,0,0,0,.95-.3A92.6,92.6,0,0,0,249.29,54c.56-.09,1.91-.74.67-.81-6.26-.38-12.54-.76-18.9-.88,10.34-.14,20.7-.08,31-.21,15-.19,29.06-1.7,43.45-2.9,6.86-.29,13.59-.71,20.32-1.28,3.88-.12,7.78-.16,11.67-.06,5.06.13,9.65.72,14.35,1.23l.48-.44c-1.68-.21-3.35-.43-5.09-.64A125.29,125.29,0,0,0,334,47.25l2.21-.17h-5.22l-2.35.2c-5.28.1-10.61.41-15.85.8q5.09-.46,10.08-1h-5.6l-3.63.36c-7.53.71-15.18,1.29-23,1.59-4.94.2-9.75.18-14.57.08,2.3-.1,4.58-.22,6.78-.34,7.77-.43,15.56-.87,23.12-1.6l.84-.09h-6.69c-3.72.26-7.47.46-11.24.69-9.94.6-23.43,1.74-32.24-.46-.35-.09-.63-.17-.85-.24h-2.85a.82.82,0,0,0,.2.25c1.22,1,6.66,1.58,9.52,1.77,1.34.09,2.71.14,4.09.17l.17,0q2.72.26,5.56.4l-4.7.05c-11.44.08-22.76-.39-34.17-.47-11.71-.09-23.41.37-35,.7-12.35.35-24.8.5-37.18.64-9.06.1-18.26,0-27.13-.67-4.2-.32-8.33-.71-12.58-.95s-8.67-.06-12.88,0c-9.74.22-19.08.33-28.77-.17-9.33-.48-18.41-.7-27.86-.67-9,0-18,.18-27,.22-8,0-15.91-.21-23.86-.36l1.11,1c1.94,0,3.88.06,5.84.1,23.09.5,46.19-.73,69.15.48,11.35.6,22.1.4,33.5.17,11.18-.23,21.5,1.09,32.5,1.5,10.82.4,21.8,0,32.63-.17,11.73-.22,23.39-.52,35.1-.86,11.13-.33,22.06-.4,33.2-.12q14.62.36,29.28.14c7.15-.12,14.26-.4,21.38-.67-9.11.8-18.29,1.63-27.75,1.81-11.88.22-23.8.11-35.69.23q-8.61.09-17.15.43c-6.19.25-12.25.71-18.47.89-11.31.34-22.71.05-34.05.09-9.78,0-19.41.36-29.14.69-10.86.36-21.08.25-31.89-.17-20.28-.81-40.93-1.06-61.33-1.3q-16.92-.2-33.84-.21l.9.83C24,52.93,41.53,53,59,53.38Zm172.5-.18c4.69.11,9.31.37,13.92.66a104.3,104.3,0,0,1-10.8,1c-3.32-.83-7.6-.75-11.6-.88-.95,0-2.05.71-1,.74,2.44.07,4.91.06,7.22.23-.15.08-.2.18.05.2l1.31.1c-5.48.24-11.88-.08-16.08-1.11C218.28,52.8,226.89,53.08,231.54,53.19Z"/><path class="cls-32" d="M61.1,56.69c-8.19-.34-16.37-.78-24.61-1-9-.22-18-.2-27.06-.13l1,.93c5.53-.06,11.06-.1,16.6-.07,13.87.07,27.69.78,41.44,1.35,5.93.24,11.94.51,17.71,1l1.64.17h6.23c-3.56-.56-8.61-.93-10-1C76.49,57.35,68.77,57,61.1,56.69Z"/><path class="cls-33" d="M13.09,59h29c-9.87-.45-19.85-.7-29.87-.82Z"/><path class="cls-34" d="M308.6,54.35c-.65.1-2.12.71-1.09.92,4.59.93,10.84.8,16,.59s11-.73,14.3-2.08c.24-.1.76-.39.66-.58q2-.06,4-.07c1.24,0,3.31,0,5,.12l.88-.82C338.34,51.72,312.59,53.73,308.6,54.35Zm20.92-.29a43,43,0,0,1,5-.19,75.38,75.38,0,0,1-11.1,1,83.29,83.29,0,0,1-11.14-.16c5.39-.59,11.48-.85,16.83-1.15h0C328.8,53.84,328.72,54.13,329.52,54.06Z"/><path class="cls-35" d="M329.49,56.13c-5.17.24-10.42.38-15.65.32-2.94,0-7-.05-9.48-.68-.39-.1-.84.2-.8.29.57,1.12,5.71,1.21,8.38,1.28,6.09.15,12.3-.06,18.33-.35,4.81-.23,9.65-.54,14.26-1.07l1-1C339.92,55.62,330.68,56.07,329.49,56.13Z"/><path class="cls-36" d="M222.4,58.64c10.82-.09,21.44-1,32-1.68a276.68,276.68,0,0,1,33.54-.53c10.18.54,20,1.6,30.22,2.17a175.48,175.48,0,0,0,23.72-.22l.54-.5c-1.32.12-2.65.23-4,.3-21.22,1.22-41.23-2.88-62.32-2.87-10.69,0-21.26.87-31.67,1.57a317.22,317.22,0,0,1-33.39.71c-9.27-.35-19.69-1-28.68.18-2.8.35-5.5.78-8.17,1.23h5.66a94.49,94.49,0,0,1,10-.95C200.66,57.63,211.56,58.72,222.4,58.64Z"/><path class="cls-37" d="M159.33,49.94c-3.61.06-7.23,0-10.8-.15-3.25-.16-6-.61-9.13-1-.46,0-1,.27-.69.38,4,1.29,11.59,1.33,16.81,1.34,7.13,0,14.26-.36,21.27-.75,17.25-1,34.83-2.35,52.4-2.32.48,0,1.07-.32.86-.43H218.32c-12.76.27-25.55,1.21-38,2C173.38,49.43,166.39,49.81,159.33,49.94Z"/><path class="cls-38" d="M296.68,58.76c-7.42-.06-14.8,0-22.15.25h44.33C311.5,59,304.1,58.83,296.68,58.76Z"/><path class="cls-39" d="M341.16,59l.2-.18Q337,59,332.69,59Z"/></g><g class="cls-40"><path class="cls-20" d="M2.64,660.72l-1.12,1C1.88,662.1,2.26,661.84,2.64,660.72Z"/><path class="cls-20" d="M.54,86.23C.46,90,.48,93.84.56,97.64V85.51C.56,85.75.55,86,.54,86.23Z"/><path class="cls-20" d="M13.68,285.52c-.07-.61-.15-1.22-.22-1.82v49.19c.5-6.35,1.37-12.46,1.62-19A185.53,185.53,0,0,0,13.68,285.52Z"/><path class="cls-41" d="M10.35,270.73c-2.13,8.41-2.21,23.17-2.23,33.82,0,11.29.11,25.14,1.65,35.32.1.65.62,2.21.74.86.23-2.44.41-4.93.55-7.46,1.87-11.79,2.26-24.74,2-38.14-.15-7.86-.17-19.09-2.15-24.19C10.77,270.56,10.5,270.14,10.35,270.73Zm1.95,25a253.75,253.75,0,0,1-.9,29.93c.08-2.77.13-5.55.16-8.33.08-7.55,0-15.41-.65-22.66-.05-.6-.57-1.87-.64-.75-.42,6.73-.43,13.51-.38,20.36,0,.67.5,1.61.51.78,0-5,.07-10,.27-15,.27,5.64.26,11.5.19,17.14-.08,6.38-.29,13-.82,19.14-1-9.44-1.1-20.6-1.11-30.35,0-10,0-24.25,2-32.32C12.25,278.71,12.15,289.51,12.3,295.69Z"/><path class="cls-42" d="M13.59,366s0-.06,0,0c0,.47-.09.94-.13,1.41v.32C13.49,367.16,13.54,366.59,13.59,366Z"/><path class="cls-43" d="M.28,531.11c-.12,5.08-.14,10.25,0,15.33,0,2,.12,3.91.21,5.84V524.85C.37,527,.32,529.12.28,531.11Z"/><path class="cls-44" d="M11.54,636.89c-.68-13.1-1.45-26.36-1-39.75.44-13.16,1.76-25.65,1.82-39,0-6.2-.21-12.38-.45-18.5-.23-5.9-.37-12-.7-17.87-.1-5.18-.38-10.39-.47-15.58-.11-6.82-.13-13.66-.12-20.49q0-19.9.07-39.81c.1-26.13.47-53.14,2.75-78.16v-.32c-2.47,24.43-3.33,50.12-3.53,76C9.8,456.6,9.78,469.8,9.71,483c0,6.81,0,13.63,0,20.45,0,1.85,0,3.78.07,5.72-1-12.92-1.13-26.15-1.18-39.56-.06-14.92-.35-29.83-.28-44.76.06-15.12.71-30.2,1.23-45.19.22-6.46.47-13,.94-19.31.07-.94,1.07-12.65,1.5-10.9.16.61.61.54.37-.44-1.46-6-2.48,10.79-2.67,13.69-.54,8.22-.85,16.64-1.15,25-.32,8.93-.72,17.86-.91,26.84-.35,16.94,0,34,0,50.91.07,15.13-.16,31.47,1.55,45.64.07.53.41,1.17.61,1.17.08,3.82.24,7.63.56,11.1a3.08,3.08,0,0,0,.34,1.07c0,3.85.19,7.81.31,11.5.23,6.91.43,13.81.42,20.78,0,9-.64,17.75-1.22,26.49.45-9.21.59-18.87.68-28,.11-11.22-.09-22.57-.88-33.46-.3-4.06-1-15.72-2.78-13.65-.92,1.06-1.3,4.73-1.46,8.4.16-51.18.39-102.48,1.05-153.6.34-26.22-.36-52.47.19-78.68.27-13,1-25.64,1.1-38.75,0-6.18,0-12.33.27-18.47.23-6.47.45-12.45.3-19-.34-14.85-1.64-29.33-2.22-44.09-.61-15.66-1-31.43-1.8-47-.42-7.79-.93-15.51-1.2-23.39-.26-7.48-.14-15,0-22.49.15-6.07.36-12.11.26-18.22,0-.93,0-1.84-.08-2.75l-.32-.29c.19,5.2.15,10.51,0,16.13-.34,11.22-.49,22,0,33.22.56,12.83,1.37,25.41,1.81,38.33.41,12.18.74,24.38,1.3,36.5.57,12.61,1.65,24.85,1.79,37.7.06,6-.31,11.69-.52,17.6-.24,6.61-.22,13.33-.28,20-.11,13-1,25.68-1.21,38.65-.05,2.74-.09,5.48-.11,8.22C6.07,288.85,6,281.62,6,274.3c0-12.39.2-24.73-.22-37.07C5.55,231.45,5.18,225.77,5,220q-.08-2.41-.14-4.84a23.5,23.5,0,0,0,1.54,7.67c.1.21.29.33.37-.06,1.31-6.09,1.56-16.69.91-23.87a3,3,0,0,0-.28-1,120.24,120.24,0,0,0-1.2-15.38c-.09-.61-.68-2.08-.74-.73-.35,6.83-.7,13.68-.82,20.61-.12-11.28-.07-22.58-.19-33.86-.17-16.33-1.55-31.69-2.66-47.38C1.5,113.63,1.11,106.29.59,99c0-.44,0-.88,0-1.32v12.94c.05.9.1,1.81.16,2.71-.05-.67-.11-1.33-.16-2v6.87c.45,6.33.81,12.74,1,19.24.18,5.39.17,10.62.07,15.89-.09-2.51-.2-5-.31-7.39-.24-5.11-.49-10.22-.79-15.29v11.14C1,151,1.7,162.5.55,171.18v5.73a56.33,56.33,0,0,0,1.08-9c.08-1.46.13-2.95.16-4.45a.73.73,0,0,0,0-.19c.16-2,.28-4,.37-6.06q0,2.56,0,5.13c.07,12.48-.35,24.82-.43,37.27-.08,12.77.33,25.52.63,38.22.32,13.46.46,27,.59,40.54.09,9.88,0,19.91-.61,29.58-.29,4.58-.65,9.08-.87,13.72s-.06,9.46,0,14c.2,10.62.3,20.8-.16,31.37C1,377.24.76,387.15.79,397.45c0,9.83.17,19.64.2,29.46C1,437.8.67,448.54.56,459.4c-.18,20.58.49,41.13.1,61.7-.09,1.23-.15,2.49-.2,3.75v27.43c.39,8.38,1.18,16.51,2,24.43,1.15,11,2.49,21.76,3.43,33a325.93,325.93,0,0,1,.91,33.71c0,.62.44,1.69.51.94.88-9.33.42-19.75-.23-29.08-.76-10.77-2-21-3.23-31.26-1.2-10.41-2.33-21-2.85-32.14-.43-9.16-.25-18.14.12-27.12.21.4.4.46.42-.23.28-12.83.17-25.68,0-38.53-.14-13.64-.12-27.08.13-40.71.46-25.18-.67-50.37.45-75.41.55-12.37.37-24.1.15-36.53C2.08,321.22,3.3,310,3.67,298c.36-11.8,0-23.78-.16-35.58-.2-12.8-.47-25.51-.79-38.28-.3-12.13-.36-24.05-.11-36.2Q2.94,172,2.74,156c-.1-7.8-.36-15.56-.61-23.31.74,9.93,1.5,19.94,1.65,30.25.2,13,.1,26,.21,38.92q.08,9.39.39,18.71c.23,6.75.65,13.36.82,20.14.31,12.34,0,24.77.08,37.13,0,10.67.33,21.17.63,31.77.33,11.84.23,23-.16,34.78C5,366.5,4.77,389,4.56,411.27c-.44,44.3,0,88.59-.61,132.88,0,0-.06.08-.06.22-.18,9.5-.21,18.84.09,28.32C4.26,581,5,589,5.81,596.82c.85,8.23,1.79,16.34,2.46,24.8.33,4.15.57,8.39.71,12.68.15,4.67-.1,9.11-.08,13.72,0,.87.63,3,.79,1.7.8-6.77.25-16.35-.19-23.21C9,618.15,8,610.14,7.17,602.18c-.91-8.31-1.8-16.67-2.23-25.5-.41-8.49-.48-17.24-.59-25.9.11.08.21-.06.22-.61q.34-14.4.44-28.85a4,4,0,0,0,.13.93c-.28,20.82-1,41.87.84,62.06.37,4.07.87,10.44,2,12.55,1.07,1.94,1.55-2.43,1.81-5.75-.06,1-.11,2-.15,3-.56,11.9,0,24,.53,35.8.3,6.27.52,12.66.89,18.88.08,1.29.15,2.55.22,3.8l1-1C12,646.72,11.8,641.82,11.54,636.89ZM5.4,201.83c.11-5.11.34-10.15.61-15.18.43,3.76.77,7.74.87,11.77-.75,3.62-.68,8.28-.81,12.65,0,1,.65,2.24.68,1.11.06-2.66.06-5.36.22-7.87.07.16.16.22.18-.06,0-.48.08-1,.1-1.43a82.54,82.54,0,0,1-1,17.53C5,216.3,5.3,206.9,5.4,201.83ZM5.1,470c0-26.73,0-53.41.46-80.11.19-12,.34-24,.64-36-.11,23.32-.4,46.63-.59,69.95q-.3,36.58-.5,73.17Q5.13,483.55,5.1,470ZM8.1,595c-.62-1.81-.93-5.67-1.18-8.25-2.06-20.48-1.22-42.16-1.23-63.47h0c-.06,7.05.19,14.19.5,21.13.26,5.73.55,11.79,1.21,17.12.08.65.64,2,.79,1A153.63,153.63,0,0,0,8.84,531c-.07-.82-.58-2.24-.79-1.2a59.89,59.89,0,0,0-.58,13c0,1,.76,2.09.72.6a74.59,74.59,0,0,1,.14-8.5,154.94,154.94,0,0,1-.54,22.65c-.38-4.36-.58-9-.79-13.42-.36-7.76-.59-15.76-.41-23.62a56.71,56.71,0,0,1,.57-7.71c.41-2.48,1-2.7,1.34-.09s.56,5.45.77,8.18c.91,11.55,1,23.85.88,35.77-.12,10.71-.34,22-1.06,32.39C9.06,589.59,8.52,596.18,8.1,595Z"/><path class="cls-45" d="M1.92,61.48c-.17,5.06-.77,9.4-1.24,14.13,0,.44-.08.89-.11,1.34v8.57C.8,77.35,1.93,70.24,2.29,62.19c.2-4.5.2-9,0-13.53l-.44-.41C2.06,52.63,2.07,57.09,1.92,61.48Z"/><path class="cls-46" d="M6.47,117.8c.09.71.65,2.31.84,1.18.85-5,.73-11.82.54-17.41S7.17,89.63,5.94,86c-.09-.26-.36-.83-.53-.72q0-2.19-.06-4.37c0-2.19-.06-6.77.57-8C7.1,70.49,8,93,8.1,95c.22,5.64.35,11.37.3,17.06a61.83,61.83,0,0,1-.62,10.34c-.09.43.18.92.27.87,1-.62,1.11-6.22,1.17-9.14.14-6.65-.05-13.41-.32-20-.23-5.78-.55-11.62-1.12-17.1-.33-3.14-.91-6.11-1.88-6.81C3,68.16,5.74,112.26,6.47,117.8ZM7,101.65a108.56,108.56,0,0,1-.15,12.15c-.54-5.88-.78-12.52-1.05-18.36a.2.2,0,0,0,0-.05c.23.39.5.47.43-.4C6.05,93.14,6,91.37,6,89.54A97.8,97.8,0,0,1,7,101.65Z"/><path class="cls-47" d="M13.07,341.82c0,.47.25,1.11.37,1v-9.9C13.22,335.79,13.05,338.74,13.07,341.82Z"/><path class="cls-48" d="M7.35,153.26c0,11.66.8,23.18,1.44,34.54.69,12.18,1,24,.65,36.41-.31,10.11-.88,21.47.16,31.28s2.69,18.58,3.86,28.22V277c-1.28-9.92-3.25-18.54-3.61-29.76-.38-11.79.62-23.67.54-35.49s-.89-23.38-1.54-34.89a359.09,359.09,0,0,1-.49-36.57c.5-11.11,1.47-21.86,2-33A219.38,219.38,0,0,0,9.63,75c-.74-7.21-1.9-13.75-3-20.35-.12-.75-.24-1.51-.35-2.27l-.44-.4C7.43,62.74,9.4,73.06,10,85.3,11.1,108.44,7.35,130.26,7.35,153.26Z"/><path class="cls-49" d="M12.77,240.19c-.08,7.38.24,14.69.7,22V250.4c-.19-3.3-.38-6.62-.51-10C12.95,240.22,12.77,239.87,12.77,240.19Z"/><path class="cls-50" d="M.57,64.31a106.88,106.88,0,0,0,.49-11.74C1,51.09,1,49.15.83,47.29l-.25-.23Z"/><path class="cls-51" d="M2.42,280.58c.06,3.93,0,7.88-.14,11.78-.14,3.55-.56,6.6-.88,10,0,.5.25,1.13.35.75C2.94,298.68,3,290.42,3,284.73c0-7.78-.33-15.55-.69-23.19C1.71,249.22,1,236.75.53,224.22v13.48c.33,6.71.7,13.39,1,20C2,265.26,2.3,272.87,2.42,280.58Z"/><path class="cls-52" d="M1.2,620.62a95,95,0,0,1,.88,14.92q0,1.35,0,2.7c-.19-.88-.63-1.56-.64-.31q-.06,7.26-.07,14.52c0,1.08.71,3.08.87,1.57,1.08-10.56,1.31-27.54-1-36.27-.13-.49-.42-1.05-.54-.27q-.13.84-.26,1.7V626C.66,624.13.92,622.31,1.2,620.62Z"/><path class="cls-53" d="M4.57,620.19c-.81-15.27-1.27-30.82-3.11-45.07,0-.27-.25-.58-.2-.08,1.26,12.06,1.66,25,2.19,37.71.44,10.69,1.11,21.3.93,32.19A76.16,76.16,0,0,1,3,659.27a13,13,0,0,1-.39,1.44l1.77-1.66c.07-.44.14-.89.2-1.33C6.13,646.52,5.2,631.78,4.57,620.19Z"/><path class="cls-54" d="M.43,658.79v3.56l.11.34,1-.93A6.93,6.93,0,0,1,.43,658.79Z"/><path class="cls-55" d="M13.41,494.89V468.72q-.08-10.26,0-20.56V427.7q-.17,6.61-.29,13.22C12.84,459,13.06,476.94,13.41,494.89Z"/><path class="cls-56" d="M11.07,131.72c.05-12.22.22-24.47.11-36.69-.12-12.91-.7-25.65-2-37.74,0-.11-.1-.22-.08-.07,2.41,24,1.58,48.68,1.4,73.57-.18,25.19,1,50,2.81,74.3,0,.67.11,1.34.16,2v-8.34q-1-13.88-1.62-28Q11,151.39,11.07,131.72Z"/><path class="cls-57" d="M13.2,224c.09,1.24.18,2.48.28,3.72v-3c0-.16,0-.33,0-.49C13.41,223.88,13.17,223.54,13.2,224Z"/></g><g class="cls-58"><path class="cls-20" d="M339.89,649.2h0Z"/><path class="cls-20" d="M8,655.12l.13-.14H6C6.63,655,7.3,655.06,8,655.12Z"/><path class="cls-59" d="M208.06,663.12c3.56-.09,7.88-.16,11.9-.48l-32.87.05A198.9,198.9,0,0,0,208.06,663.12Z"/><path class="cls-60" d="M230.35,659.86c-7.69-2.52-21.16-2.58-30.88-2.58-10.31,0-23,.17-32.25,2-.59.12-2,.74-.79.88,2.22.27,4.5.47,6.81.64a114.18,114.18,0,0,0,13.86,1.88l32.87-.05c4.08-.33,7.84-.93,10.19-2.12C230.5,660.35,230.88,660,230.35,659.86Zm-22.8,2.36a177.9,177.9,0,0,1-27.34-1c2.53.09,5.08.15,7.61.18a167.85,167.85,0,0,0,20.69-.81c.55-.06,1.71-.67.69-.76-6.14-.49-12.34-.49-18.59-.42-.61,0-1.47.6-.72.61,4.57,0,9.15.07,13.66.3-5.14.33-10.5.33-15.65.26-5.83-.08-11.87-.31-17.48-.94,8.61-1.18,18.8-1.35,27.71-1.37,9.11,0,22.15,0,29.52,2.32C223.06,662.12,213.19,662,207.55,662.22Z"/><path class="cls-61" d="M143.33,663.87s.05,0,0,0c-2.93-.39-5.88-.74-8.85-1.07H133C136.48,663.1,139.93,663.46,143.33,663.87Z"/><path class="cls-62" d="M146.23,655c23.94.35,47.92-.52,71.85.09,11.89.3,23.42,1.17,35.39,1.24,5.64,0,11.26,0,16.86.29,5.91.27,11.37.51,17.35.32,13.56-.43,26.78-2,40.26-2.71,5.69-.3,11.4-.55,17.11-.81l-.43-.44c-8.65.38-17.29.74-25.89,1.27-11.51.7-22.69,2-34.43,2.18-5.49.08-10.68-.35-16.08-.59-6-.27-12.17-.23-18.25-.29-11.86-.11-23.45-1.1-35.3-1.37q-3.75-.08-7.5-.12c6.6-.21,13.2-.36,19.88-.37,11.32,0,22.59.19,33.86-.32,5.28-.24,10.47-.68,15.74-.93,1.47-.07,2.94-.12,4.42-.18-2.88.29-5.43.84-7,1.83-.19.12-.3.34.05.44,5.57,1.54,15.24,1.82,21.8,1a2.26,2.26,0,0,0,.94-.33,84.8,84.8,0,0,0,14-1.45c.56-.1,1.9-.8.67-.88-6.23-.4-12.49-.8-18.82-.93,10.3-.16,20.62-.13,30.92-.29,6.39-.1,12.62-.47,18.79-1l-.49-.51c-4.36.34-8.77.6-13.23.7-11.83.27-23.7.16-35.54.32q-8.57.11-17.08.5c-6.16.28-12.2.79-18.39,1-11.26.39-22.62.09-33.91.15-9.74.05-19.33.43-29,.8-10.81.42-21,.32-31.76-.13-20.2-.84-40.76-1.08-61.08-1.3-30.67-.33-60-.06-90.63-.19l-1.9,2C55.5,654.14,100.25,654.33,146.23,655Zm147-2.08c4.67.11,9.27.38,13.87.69a95.25,95.25,0,0,1-10.75,1.06c-3.31-.89-7.57-.8-11.56-.94-.95,0-2,.77-1,.81,2.43.07,4.89.06,7.19.24-.15.09-.19.2.05.22l1.31.11c-5.46.27-11.83-.06-16-1.18C280,652.52,288.62,652.82,293.25,652.93ZM48.31,653c24.41-.06,48.77-.05,73.15.41,11,.21,21.93.36,32.86.7-21.3-.08-42.59-.39-63.88-.58q-33.4-.3-66.82-.46Q36,653.09,48.31,653Z"/><path class="cls-63" d="M9.25,656.51c2.26.49,2.47,1.19.08,1.58-1.56.26-3.22.47-4.89.66l-1,1.05c4.56-.44,11.8-1.31,10.21-3.11-.77-.87-3.07-1.33-5.67-1.57l-1,1C7.75,656.24,8.52,656.35,9.25,656.51Z"/><path class="cls-64" d="M36.51,659.47c-6.23,0-12.46,0-18.68.09l-5.22.1c11.8-1.23,23.88-1.38,36.12-1.47,13.63-.1,27.23-.46,40.87-.41,13.81.06,27.58.8,41.27,1.39,5.9.25,11.89.53,17.64,1.08.86.08,11.55,1.25,10,1.76-.56.18-.49.72.4.44,5.47-1.75-9.86-2.92-12.51-3.15-7.51-.62-15.19-1-22.84-1.31-8.16-.36-16.31-.82-24.51-1-15.48-.39-31,0-46.5.13C38.7,657.2,23.78,657,10.84,659c-.48.08-1.07.48-1.07.73-2.24.07-4.48.18-6.64.35L2,661.27c4.44-.14,8.89-.45,13.34-.55,6.22-.15,12.48-.17,18.71-.18q18.18,0,36.36,0c20.84.06,42.3.36,62.62,2.22h1.5c-20-2.19-40.88-3-61.86-3.15C60.6,659.53,48.55,659.53,36.51,659.47Z"/><path class="cls-65" d="M339.89,649.2h.21l-.21-.22Z"/><path class="cls-66" d="M284.16,659.81c10.77-.11,21.35-1.1,31.85-1.89a257.19,257.19,0,0,1,31.77-.71l-.83-.87c-3.09-.16-6.2-.26-9.34-.25-10.65,0-21.17,1-31.54,1.77a288.76,288.76,0,0,1-33.25.83c-9.24-.36-19.61-1-28.56.25-7.09,1-13.58,2.45-20.35,3.7h5.67c7.09-1.42,13.85-3,22.17-3.4C262.51,658.75,273.37,659.92,284.16,659.81Z"/><path class="cls-67" d="M321.62,661.47q14.58-.88,29.32-1l-.65-.68c-17.58.14-35,1.17-52,2.7H307Q314.29,661.93,321.62,661.47Z"/></g><rect class="cls-68" x="9.97" y="58.42" width="334.83" height="595.72"/><ellipse class="cls-69" cx="196.61" cy="76.86" rx="78.39" ry="7.34"/><path class="cls-70" d="M133.4,17.93S95.77,27.84,97.46,37.71s22.94,16.6,28,8.09,13-25.25,13-25.25Z"/><rect class="cls-70" x="158.56" y="44.07" width="7.98" height="29.2"/><path class="cls-70" d="M166.54,73.79c0,1.41-1.62,2.56-3.62,2.56h-8c-2,0-3.62-1.14-3.62-2.56v-.52c0-1.41,1.62-2.56,3.62-2.56h8c2,0,3.62,1.14,3.62,2.56Z"/><rect class="cls-70" x="136.8" y="44.07" width="7.98" height="29.2"/><path class="cls-70" d="M144.78,73.79c0,1.41-1.62,2.56-3.62,2.56h-8c-2,0-3.62-1.14-3.62-2.56v-.52c0-1.41,1.62-2.56,3.62-2.56h8c2,0,3.62,1.14,3.62,2.56Z"/><rect class="cls-70" x="243.44" y="44.07" width="7.98" height="29.2"/><path class="cls-70" d="M251.42,73.79c0,1.41-1.62,2.56-3.62,2.56h-8c-2,0-3.62-1.14-3.62-2.56v-.52c0-1.41,1.62-2.56,3.62-2.56h8c2,0,3.62,1.14,3.62,2.56Z"/><rect class="cls-70" x="221.68" y="44.07" width="7.98" height="29.2"/><path class="cls-70" d="M229.66,73.79c0,1.41-1.62,2.56-3.62,2.56h-8c-2,0-3.62-1.14-3.62-2.56v-.52c0-1.41,1.62-2.56,3.62-2.56h8c2,0,3.62,1.14,3.62,2.56Z"/><rect class="cls-71" x="123.74" y="16.41" width="134.21" height="35.35"/><ellipse class="cls-70" cx="124" cy="11.11" rx="2.94" ry="2.08"/><path class="cls-71" d="M158.52,6.7s-6.64,34.73-41.36,31.16S78.71,6.7,78.71,6.7s30.39,3.37,47.75,3.88A113.81,113.81,0,0,0,158.52,6.7Z"/><ellipse class="cls-70" cx="78.86" cy="6.94" rx="8.86" ry="6.26"/><path class="cls-71" d="M238.33,20.41s10.44-11.69,11-17.54a3.08,3.08,0,0,0-.44-2.1c-3.1-4.38,11,10.95-5,21.46Z"/><path class="cls-70" d="M149.78,14.36s26.74,28.86,14.93,37.69-39.59,4.62-35.77-6.32,13.2-31.37,13.2-31.37Z"/><path class="cls-70" d="M125,15.77a3.86,3.86,0,0,0,4.16-.06,1.68,1.68,0,0,0-.08-2.94,3.86,3.86,0,0,0-4.16.06A1.68,1.68,0,0,0,125,15.77Z"/><text class="cls-72" transform="translate(170.67 38.58)">詳細資料</text></g></g></g></svg>