<svg xmlns="http://www.w3.org/2000/svg" viewBox="0 0 815.35 102.32"><defs><style>.cls-1{opacity:0.84;}.cls-2{fill:#9d5224;}.cls-3{fill:#612e05;}.cls-4{fill:#804118;}.cls-5{fill:#562504;}.cls-6{fill:#723412;}.cls-7{fill:#e3cdbf;}.cls-8{fill:#240500;}.cls-9{fill:#391b00;}.cls-10{fill:#462500;}.cls-11{font-size:21px;fill:#fffefd;font-family:MicrosoftJhengHeiBold, Microsoft JhengHei;font-weight:700;}</style></defs><title>3</title><g id="圖層_2" data-name="圖層 2"><g id="圖層_1-2" data-name="圖層 1"><g class="cls-1"><path class="cls-2" d="M654.28,22.35c13.11-3.53,127.07,1.77,134.2,1.89s26.84-7.16,26.87-9-19.46-7.74-30.17-7S746,9.4,710.33,8.3C394.67-9.93,0,7.56,0,7.56L14.79,11.1,596.6,64.21l62.27-39.72c-7.14-.18-10.17-.64-4.59-2.14Z"/><path class="cls-3" d="M796.73,28.15c-33.3,1.76-73.64-.83-97.37-2.65-9.29-.71-20.23-.81-29.31-.88-4.26,0-8.11-.05-11.19-.13L596.6,64.21,734.8,76.83c3.08,0,6.39.07,10,.21,23.74.89,57.43-41.92,65.78-44.12,1.38-2.79-5.31-2.21-13.88-4.76Z"/><path class="cls-3" d="M51.51,52.16c-2.6,0-5.13-.06-7.57,0C53.86,52.3,62.21,52.34,51.51,52.16Z"/><path class="cls-3" d="M757.81,81.49c-19,.61-48.65-3.21-48.65-3.21s8.59-1.53,25.64-1.46L14.79,11.1,0,7.56S8.54,47,12.38,48.18c7.24,2.18,7.68,2.78,14.79,3.37,2.84.24,10.15.43,16.77.56,2.43,0,5,0,7.57,0,10.7.19,2.35.15-7.57,0-14.18.08-25,1.09-28.1,2.23-3.59,1.35,3.35,21.73,3.35,21.73s6.16,4,20.41,4.76,15,1,.73.72S26,83.18,26,84.59c-.13,8,12.51,15.84,20.81,16.46s88.3-5.61,161.94-5.26c90.25,3,402.67,1.44,478.68,2.78S800.82,85.07,800.82,85.07l-9.75-3a320.64,320.64,0,0,0-33.25-.58Z"/><path d="M119.25,86.23l1.77,0c0-1.81,3.79-3.22,8.36-3.14s8.29,1.62,8.27,3.43-3.78,3.22-8.38,3.14S121,88.08,121,86.26l-1.77,0-1.78,0c0,2.6,5.24,4.79,11.79,4.91s11.91-1.89,12-4.49-5.23-4.79-11.8-4.91-11.91,1.89-11.94,4.49l1.78,0Z"/><path class="cls-4" d="M72.9,100.48c8.82-.21,17.69-.14,26.52-.3,25.39-.45,50.86-.59,76.29-.78q23.91-.19,47.84-.06c90.23,3,402.67,1.45,478.66,2.78s95.12-4.44,95.12-4.44l3.78-13.09s-9.51-.17-28.52.44S724,81.84,724,81.84s11.91-2.14,35.65-1.26,36.8,1.59,45.15-.61c8.52-12.07,9-43.06,6.76-48.27-33.3,1.76-73.64-.83-97.36-2.65-9.28-.72-20.22-.81-29.3-.87-14.12-.1-23.78-.12-15.78-2.27,13.12-3.53,127.07,1.77,134.2,1.89s12-9.66,12.07-11.53S810.67,11,800,11.76s-39.22,1.18-74.84.09C409.47-6.39,14.79,11.1,14.79,11.1s.67,3.52,1.72,8.48c.11.55.23,1.11.35,1.69.56,2.63,1.23,5.55,2,8.53,1,4.1,2.08,8.28,3.2,11.88a45.17,45.17,0,0,0,3.1,8c.72,1.28,1.42,2,2.05,2.06,4.74.08,48.68,1.33,55.8,1.92S84.12,56,66.31,55.7s-32.09.84-35.68,2.19c-2,.77-1.87,7.37-1.35,12.92.4,4.18,1,7.4,1,7.4s4.69,3.25,18.94,4,20.14,3.17,5.9,2.92-13.85.38-15.48,1.61c-1.2.92-.32,2.5-.06,3.76,0,0,3.69,10.52,8.14,10.6s25.18-.59,25.18-.59Z"/><path class="cls-5" d="M40.61,81.57l2.52.1-.41,0H42.1l-1.49,0Z"/><path class="cls-6" d="M806,77.17s-103.33-.88-122.35.19c-17.83,1-233.16,3.5-292.18,2.47-3.91-.07-7.12-.15-9.57-.25-12.13-.5-31.46-1-52.9-1.33C281.16,77.4,222.8,76.92,209.66,77c-18.26.13-143,4.9-166.94,4.6l.41,0c4.36.16,13.58.48,25.85.7,20.27.35,48.87.45,77.67-.82,38.41-1.69,84.19-2.76,126.72-2,16.68.29,32.86.86,47.91,1.79,4.85.3,12,.52,21,.68C432,83.59,706.5,78.71,733.5,79.18c29.69.52,72.48-2,72.48-2Z"/><path class="cls-5" d="M40.33,81.56Z"/><path class="cls-6" d="M41.3,94.32h0Zm616-3.32s-83.14-.72-98.44.13c-14.35.8-187.64,2.73-235.09,1.9-3.14-.05-5.72-.12-7.67-.2-9.77-.4-25.36-.77-42.63-1.07-38.45-.68-85.36-1.07-95.92-1-14.82.1-116.91,3.92-134.81,3.61l-1.2,0c1.47.06,10.12.41,22.82.63,16.3.29,39.31.37,62.48-.63,30.9-1.33,67.73-2.17,101.94-1.57,13.43.24,26.44.7,38.55,1.43,3.9.24,9.63.42,16.86.54C356.42,96,577.23,92.2,599,92.58,622.84,93,657.28,91,657.28,91Z"/><path class="cls-7" d="M812.59,48.59h-.07a0,0,0,0,1,0,0c.14,0,.15,0,.08,0Z"/><path class="cls-6" d="M812.53,48.59c-3.11,0-66.76,3.14-88.08,3.65-22.58.54-218.72,8.84-247.24,9.28s-211.51,4.26-236.45,4.3c-19.33,0-137.09,1.7-189.15,2.46,58,.07,226.2.21,287.71-.25,74.85-.57,211.55-6.62,254.34-7.74S807.65,49,812.41,48.62h.11a0,0,0,0,0,0,0Z"/><path class="cls-5" d="M29.09,68.45l-2.21.18,2.22,0s0-.1,0-.15Z"/><path class="cls-6" d="M51.6,68.28l-20,0-2.55.21c0,.05,0,.1,0,.15l22.5-.33Z"/><path class="cls-6" d="M234.65,5.1C253.59,8.73,455.4,16.51,497,17.24s238.73,1.85,261.29,2.25,41.61-2.09,40.42-2.58c-3.58,1.35-210.23-1.35-300.48-2.47q-5.91-.07-12.26-.19c-92.76-1.63-251.3-9.15-251.3-9.15Z"/><path class="cls-6" d="M811.51,31.69h0s-7.15.81-13.1,1.65c0,0-189,8.89-237.72,8.51S435.88,47.17,418.06,47.8c-1.19,0-1.59.06-1.29.07,4.27.07,146.09-3.16,177.14-2.61,31.91.56,201.84-5.11,218.61-7.59a21,21,0,0,0-1-6Z"/><path class="cls-5" d="M17.86,25.72h-.94l.94,0v0Z"/><path class="cls-6" d="M133,27.54c-51.85-.91-107.33-1.71-115.18-1.82v0c14,.43,177.91,5.47,195,5.76,17.81.31,186.42,4.69,186.42,4.69S294.5,48.91,276.64,50.95s-143.87,7.34-160.5,8-86.83,6.46-86.83,6.46S87.56,63.6,122,61.85,229,60.44,288.5,52.57,427.76,35.75,427.76,35.75s-168.6-5.31-222-6.72C187.92,28.56,161,28,133,27.54Z"/><path class="cls-6" d="M100,51.78c-11.6,1-17,1.86-17,1.86s6.75-.76,17-1.86ZM23.88,37.11h0s76,4.15,100.89,4.59,89.07,1.57,68.87,1.68c-14.67.08-66.46,5.47-93.66,8.41,4.77-.42,10.59-.86,17.51-1.29,23.78-1.46,152.18-8.13,123.7-9.1-28.32-1-215-4.25-217.29-4.29Z"/><path class="cls-8" d="M104.74,13c0-2.27,4.85-4,10.76-3.93s10.65,2,10.62,4.3-4.85,4-10.76,3.92S104.7,15.31,104.74,13Z"/><path class="cls-9" d="M106.53,13c0-2.27,4.84-4,10.74-3.92s10.66,2,10.63,4.3-4.86,4-10.76,3.92S106.49,15.22,106.53,13Z"/><path class="cls-10" d="M108.35,13c0-1.88,4-3.34,8.92-3.25s8.82,1.68,8.79,3.56-4,3.33-8.9,3.25S108.32,14.86,108.35,13Z"/><path class="cls-8" d="M694.47,16.83c0-2.27,4.84-4,10.74-3.92s10.66,2,10.62,4.3-4.85,4-10.76,3.92S694.42,19.1,694.47,16.83Z"/><path class="cls-9" d="M696.24,16.75c0-2.27,4.86-4,10.76-3.92s10.67,2,10.62,4.3-4.86,4-10.76,3.92S696.21,19,696.24,16.75Z"/><path class="cls-10" d="M698.08,16.78c0-1.88,4-3.33,8.9-3.25s8.82,1.68,8.8,3.56-4,3.33-8.9,3.25S698,18.66,698.08,16.78Z"/><path class="cls-8" d="M696.14,93.45c0-2.27,4.85-4,10.75-3.93s10.66,2,10.62,4.3-4.85,4-10.76,3.92S696.09,95.71,696.14,93.45Z"/><path class="cls-9" d="M697.92,93.36c0-2.27,4.86-4,10.76-3.92s10.66,2,10.62,4.3-4.86,4-10.76,3.92S697.88,95.63,697.92,93.36Z"/><ellipse class="cls-10" cx="708.61" cy="93.54" rx="3.41" ry="8.86" transform="translate(602.62 800.4) rotate(-88.99)"/><path class="cls-8" d="M116.49,91.71c0-2.27,4.84-4,10.75-3.92s10.65,2,10.61,4.3S133,96.11,127.1,96,116.44,94,116.49,91.71Z"/><ellipse class="cls-9" cx="128.95" cy="91.81" rx="4.11" ry="10.69" transform="translate(34.89 219.13) rotate(-88.99)"/><path class="cls-10" d="M120.1,91.65c0-1.88,4-3.34,8.91-3.25s8.82,1.68,8.79,3.56-4,3.33-8.9,3.25S120.06,93.53,120.1,91.65Z"/></g><text class="cls-11" transform="translate(150.48 81.17) scale(0.89 1)">評價</text><text class="cls-11" transform="translate(150.48 36.15) scale(0.86 1)">距離</text></g></g></svg>