<svg xmlns="http://www.w3.org/2000/svg" xmlns:xlink="http://www.w3.org/1999/xlink" viewBox="0 0 139.48 101"><defs><style>.cls-1{fill:none;}.cls-2{fill:#a4d6ff;}.cls-3{clip-path:url(#clip-path);}.cls-4{fill:#474747;}.cls-5{font-size:12px;font-family:MicrosoftJhengHeiBold, Microsoft JhengHei;font-weight:700;}</style><clipPath id="clip-path"><rect class="cls-1" x="58.48" y="40" width="32.84" height="31.38"/></clipPath></defs><title>資產 6</title><g id="圖層_2" data-name="圖層 2"><g id="圖層_1-2" data-name="圖層 1"><path class="cls-2" d="M33.52,40.29C33,33.75,31,26,24.1,22.56c-5.55-2.77-12.86-2.6-17.92.94A14.82,14.82,0,0,0,.78,40.33C3.24,47.49,11,52.27,19,53.33a3,3,0,0,0,1.23-.09,2.73,2.73,0,0,0,1.39.47C29.88,54.29,34,46.56,33.52,40.29Z"/><path class="cls-2" d="M63,10.35A16.41,16.41,0,0,0,48.3.58C40.75.53,36.31,7,34.76,13c-1.6,6.19-.18,14.26,6.49,16.59a2,2,0,0,0,1.16,1c6.5,2.61,13.87,3.67,18.82-2.61A17.09,17.09,0,0,0,63,10.35Z"/><path class="cls-2" d="M138.71,27.3a17.17,17.17,0,0,0-5.18-7.9c-2.83-2.38-6.9-2.82-10.73-2.11-7,1.28-13.34,5.61-15.54,11.46-2.42,6.45.88,13.63,7.89,16.77l.25.14c5.64,2.92,13.2,1.71,18.15-1.87C139.19,39.7,140.55,33.1,138.71,27.3Z"/><path class="cls-2" d="M104.22,7.53C100.84,2,94-1,87,.3,79.78,1.62,74,7.24,73.62,14.14s4,15,11.38,16.55a2.46,2.46,0,0,0,.67.45c6.15,2.88,13.74.32,17.79-5.24A16.66,16.66,0,0,0,104.22,7.53Z"/><path class="cls-2" d="M113.3,52.74c-4.17-7-11.62-11.53-21.15-13.46S72.84,37.61,63.23,36.7a2.32,2.32,0,0,0-1.11.14C53.5,36.67,45.73,41,40.33,45.9c-5.91,5.41-10,12-11.24,19.08-2.46,13.57,6.51,27.77,23.09,33.18,9,2.92,18.94,3.2,28.5,2.56s18.4-2.25,25.53-7.38C120.54,83,121.11,65.85,113.3,52.74Z"/><g class="cls-3"><path class="cls-4" d="M83.44,41.62c-8.56-4.07-22.82-.4-24.76,10C57,60.44,65.67,67.43,74,66.76c0,0,0,0,0,.06.53,3.55,3.92,5.2,7.2,4.06a.5.5,0,0,0,.35-.61c-.38-1.38-1-2.67-1.32-4.05,3-.73,5.76-1.12,7.93-3.54a13.8,13.8,0,0,0-4.68-21.06Zm3.71,20.64c-2,2.23-5,2.41-7.69,3.11a.51.51,0,0,0-.35.62,36.32,36.32,0,0,0,1.3,4.09,4.19,4.19,0,0,1-5.5-3.51.4.4,0,0,0-.16-.28.23.23,0,0,0-.13-.07c-4-.79-7.75-1-11-3.71a12.07,12.07,0,0,1-4.12-9.59c.25-6.13,6.07-10,11.46-11.35C76,40.31,82,41,86,44.47c5.06,4.33,5.54,12.86,1.11,17.8Zm0,0"/></g><path class="cls-4" d="M78.89,44.21a7.37,7.37,0,0,0-8.57,2.73,6.51,6.51,0,0,0-.9,3.31,2.25,2.25,0,0,0-.06.37,5.88,5.88,0,0,0,.27,2.16.4.4,0,0,0,.38.29c.63,0,1.26-.06,1.89-.11.46,0,1.17,0,1.51-.37a.45.45,0,0,0,0-.52.48.48,0,0,0,0-.49c-1.53-2.13,2.66-3.93,3.23-1.52.37,1.56-1.46,2.48-1.88,3.88a11.9,11.9,0,0,0,.13,5.22.51.51,0,0,0,.62.35l2.4-.36a.5.5,0,0,0,.37-.48c0-.69-.16-1.37-.23-2.06-.11-1.06.33-1.46,1.18-2a5.56,5.56,0,0,0,2.54-3.08c.89-2.66-.24-6.17-2.91-7.3Zm0,0"/><path class="cls-4" d="M78.49,60.82a.48.48,0,0,0-.46-.35H76.75c-.29,0-.72-.07-1,.11a.51.51,0,0,0-.17.22.25.25,0,0,0-.25.25,6.6,6.6,0,0,0,.08,1.59.45.45,0,0,0,.43.33,14.44,14.44,0,0,0,2.4-.12.46.46,0,0,0,.34-.45,5.82,5.82,0,0,0-.13-1.56Zm0,0"/><text class="cls-5" transform="translate(38.62 90.68)">寵物推薦測驗</text></g></g></svg>