<svg xmlns="http://www.w3.org/2000/svg" viewBox="0 0 101.72 42.34"><defs><style>.cls-1{fill:#021391;opacity:0.74;}.cls-2{fill:#fbff5f;}</style></defs><title>資產 12</title><g id="圖層_2" data-name="圖層 2"><g id="圖層_1-2" data-name="圖層 1"><rect class="cls-1" width="101.72" height="42.34" rx="12" ry="12"/><path class="cls-2" d="M68.89,12.46c-2-.44-2.82,2.7-.84,3.14,9.79,2.18,14,18.14,2.36,21-4.72,1.15-9.86-.87-11.2-6-1.57-6.06,2.43-12.27,6.24-16.44,1.39-1.52-.83-3.83-2.22-2.3-5,5.41-9.64,13.66-6.5,21.26,2.41,5.83,8.8,8.09,14.52,6.65C85.83,36,81.84,15.33,68.89,12.46Z"/><path class="cls-2" d="M50,35.3a47.5,47.5,0,0,1-.93-14c.13-1.65-2.26-2.11-2.95-.75a5.35,5.35,0,0,1-5.46,3.2,6.29,6.29,0,0,0-1.11-.14c-1.77-.05-2.09,2.84-.35,3.21.14,0,.28,0,.43.06q2.93,4.08-.35,5.32a5.05,5.05,0,0,1-3.08,1.19,9.17,9.17,0,0,1-3-.24,9.76,9.76,0,0,1-6.79-5.76c-2.6-6.87,3.91-13.19,10.35-12.48,2,.22,1.92-3-.07-3.26C24.4,10.25,17.36,27.24,28.28,34.41c4.34,2.85,10.69,3.27,14.53-.77a6.56,6.56,0,0,0,1.41-7.18,7.84,7.84,0,0,0,1.6-.8A51.63,51.63,0,0,0,47,36.23C47.47,38.28,50.48,37.34,50,35.3Z"/></g></g></svg>