<svg xmlns="http://www.w3.org/2000/svg" xmlns:xlink="http://www.w3.org/1999/xlink" viewBox="0 0 1366 113.5"><defs><style>.cls-1{fill:none;}.cls-2{clip-path:url(#clip-path);}.cls-3{fill:#000a56;}.cls-4{fill:#fff;fill-rule:evenodd;}</style><clipPath id="clip-path"><rect class="cls-1" y="0.5" width="1366" height="129"/></clipPath></defs><title>資產 10</title><g id="圖層_2" data-name="圖層 2"><g id="圖層_1-2" data-name="圖層 1"><g class="cls-2"><rect class="cls-3" width="1366" height="113.5"/><path class="cls-4" d="M1320.87,58.82a1.4,1.4,0,1,0,0,2.79A1.4,1.4,0,1,0,1320.87,58.82Z"/><path class="cls-4" d="M1301.39,80.57a1.4,1.4,0,1,0,0,2.79A1.4,1.4,0,1,0,1301.39,80.57Z"/><path class="cls-4" d="M1106.58,76.95a1.4,1.4,0,1,0,0,2.79A1.4,1.4,0,1,0,1106.58,76.95Z"/><path class="cls-4" d="M897.49,79.36a1.4,1.4,0,1,0,0,2.79A1.4,1.4,0,1,0,897.49,79.36Z"/><path class="cls-4" d="M675.42,74.53a1.4,1.4,0,1,0,0,2.79A1.4,1.4,0,1,0,675.42,74.53Z"/><path class="cls-4" d="M672.82,39.49a1.4,1.4,0,1,0,0,2.79A1.4,1.4,0,1,0,672.82,39.49Z"/><path class="cls-4" d="M697.49,87.82a1.4,1.4,0,1,0,0,2.79A1.4,1.4,0,1,0,697.49,87.82Z"/><path class="cls-4" d="M446.84,97.49a1.4,1.4,0,1,0,0,2.79A1.4,1.4,0,1,0,446.84,97.49Z"/><path class="cls-4" d="M422.17,63.65a1.4,1.4,0,1,0,0,2.79A1.4,1.4,0,1,0,422.17,63.65Z"/><path class="cls-4" d="M233.86,45.53a1.4,1.4,0,1,0,0,2.79A1.4,1.4,0,1,0,233.86,45.53Z"/><path class="cls-4" d="M227.36,76.95a1.4,1.4,0,1,0,0,2.79A1.4,1.4,0,1,0,227.36,76.95Z"/><path class="cls-4" d="M187.1,40.7a1.4,1.4,0,1,0,0,2.79A1.4,1.4,0,1,0,187.1,40.7Z"/><path class="cls-4" d="M11.78,41.91a1.4,1.4,0,1,0,0,2.79A1.4,1.4,0,1,0,11.78,41.91Z"/><path class="cls-4" d="M22.17,69.7a1.4,1.4,0,1,0,0,2.79A1.4,1.4,0,1,0,22.17,69.7Z"/><path class="cls-4" d="M455.94,63.65a1.4,1.4,0,1,0,0,2.79A1.4,1.4,0,1,0,455.94,63.65Z"/><path class="cls-4" d="M633.86,57.61a1.4,1.4,0,1,0,0,2.79A1.4,1.4,0,1,0,633.86,57.61Z"/><path class="cls-4" d="M861.13,74.53a1.4,1.4,0,1,0,0,2.79A1.4,1.4,0,1,0,861.13,74.53Z"/><path class="cls-4" d="M1066.32,63.65a1.4,1.4,0,1,0,0,2.79A1.4,1.4,0,1,0,1066.32,63.65Z"/><path class="cls-4" d="M1142.95,81.78a1.4,1.4,0,1,0,0,2.79A1.4,1.4,0,1,0,1142.95,81.78Z"/><path class="cls-4" d="M1359.83,91.44a1.4,1.4,0,1,0,0,2.79A1.4,1.4,0,1,0,1359.83,91.44Z"/><path class="cls-4" d="M1322.17,8.5a1.5,1.5,0,0,0,0,3A1.5,1.5,0,0,0,1322.17,8.5Z"/><path class="cls-4" d="M15.68,8.5a1.5,1.5,0,0,0,0,3A1.5,1.5,0,0,0,15.68,8.5Z"/><path class="cls-4" d="M210.48,8.5a1.5,1.5,0,0,0,0,3A1.5,1.5,0,0,0,210.48,8.5Z"/><path class="cls-4" d="M1094.16,27.83a1.39,1.39,0,0,0,0,2.78A1.39,1.39,0,0,0,1094.16,27.83Z"/><path class="cls-4" d="M893.88,25.43a1.39,1.39,0,0,0,0,2.78A1.39,1.39,0,0,0,893.88,25.43Z"/><path class="cls-4" d="M458.52,17a1.39,1.39,0,0,0,0,2.78A1.39,1.39,0,0,0,458.52,17Z"/><path class="cls-4" d="M496.9,25.43a1.39,1.39,0,0,0,0,2.78A1.39,1.39,0,0,0,496.9,25.43Z"/><path class="cls-4" d="M692.39,19.41a1.39,1.39,0,0,0,0,2.78A1.39,1.39,0,0,0,692.39,19.41Z"/><path class="cls-4" d="M1355.94,8.5a1.5,1.5,0,0,0,0,3A1.5,1.5,0,0,0,1355.94,8.5Z"/><path class="cls-4" d="M304,70.22a1.5,1.5,0,0,0,0,3A1.5,1.5,0,0,0,304,70.22Z"/><path class="cls-4" d="M281.91,30a1.5,1.5,0,0,0,0,3A1.5,1.5,0,0,0,281.91,30Z"/><path class="cls-4" d="M100.09,19.57a1.5,1.5,0,0,0,0,3A1.5,1.5,0,0,0,100.09,19.57Z"/><path class="cls-4" d="M106.58,79.31a1.5,1.5,0,0,0,0,3A1.5,1.5,0,0,0,106.58,79.31Z"/><path class="cls-4" d="M78,48.14a1.5,1.5,0,0,0,0,3A1.5,1.5,0,0,0,78,48.14Z"/><path class="cls-4" d="M85.81,68.92a1.5,1.5,0,0,0,0,3A1.5,1.5,0,0,0,85.81,68.92Z"/><path class="cls-4" d="M57.23,35.16a1.5,1.5,0,0,0,0,3A1.5,1.5,0,0,0,57.23,35.16Z"/><path class="cls-4" d="M500.09,79.31a1.5,1.5,0,0,0,0,3A1.5,1.5,0,0,0,500.09,79.31Z"/><path class="cls-4" d="M720.87,65a1.5,1.5,0,0,0,0,3A1.5,1.5,0,0,0,720.87,65Z"/><path class="cls-4" d="M905.29,54.64a1.5,1.5,0,0,0,0,3A1.5,1.5,0,0,0,905.29,54.64Z"/><path class="cls-4" d="M1291,41.65a1.5,1.5,0,0,0,0,3A1.5,1.5,0,0,0,1291,41.65Z"/><path class="cls-4" d="M255.94,9.18a1.5,1.5,0,0,0,0,3A1.5,1.5,0,0,0,255.94,9.18Z"/><path class="cls-4" d="M262.43,59.83a1.5,1.5,0,0,0,0,3A1.5,1.5,0,0,0,262.43,59.83Z"/><path class="cls-4" d="M306.58,9.18a1.5,1.5,0,0,0,0,3A1.5,1.5,0,0,0,306.58,9.18Z"/></g></g></g></svg>