<svg xmlns="http://www.w3.org/2000/svg" viewBox="0 0 139.71 76.77"><defs><style>.cls-1{fill:#eae6d6;}.cls-2{fill:#212020;stroke:#212020;stroke-miterlimit:10;stroke-width:0.5px;}</style></defs><title>資產 10</title><g id="圖層_2" data-name="圖層 2"><g id="圖層_1-2" data-name="圖層 1"><path class="cls-1" d="M134.11,30.85c4.26,1.14,5.86,4.23,5.57,8.48-.41,6-4,12-9.75,14.16-4.77,1.73-10.12.76-14.7-1.07a36,36,0,0,1-7.17-3.88c-2.11-1.45-3.77-3.35-5.79-4.89S98.4,42.3,96.1,43c-3.88,1.24-7.61,2.84-11.53,4a120.07,120.07,0,0,1-23.39,4.36c-3.14.27-7.2-.33-10.08,1.09-2,1-3.09,3-4.12,4.91C43.52,63.73,39.38,70,33,73.78c-7.69,4.51-17.52,4.21-23.4-3-5.61-6.9-4.84-16.41,0-23.48a.64.64,0,0,0-.38-.94c-4.74-.84-8-4.71-9-9.3C-.88,31.66,1.66,26.52,6.09,23.42c9.19-6.44,20.67-2.95,29,3.16,1.08.8,2.35,2.38,3.7,2.63,1,.18,3.56-1.2,4.6-1.54,1.54-.49,3.09-1,4.63-1.43Q56.13,23.79,64.42,22a237.83,237.83,0,0,1,37-5.19.63.63,0,0,0,.47-.25.62.62,0,0,0-.14-.94c-4.79-4.06,1.15-12,5.54-14a22.33,22.33,0,0,1,16.63,0c5.09,2,9.38,6.16,10.33,11.7S133,24.66,128,27.32a.64.64,0,0,0-.13,1C129.74,29.86,131.8,30.23,134.11,30.85Z"/><path class="cls-2" d="M56.09,31c-3.57.59-6.81,2.59-10.45,2.81-.65,0-.67,1.19,0,1.15,3.75-.23,7.06-2.22,10.73-2.83C57,32,56.73,30.87,56.09,31Z"/><path class="cls-2" d="M51.51,41.37l-.05,0a3.09,3.09,0,0,0-.11-3.26,1.68,1.68,0,0,0-1.67-.71c-.74.13-1.29.75-2,.93a.55.55,0,0,0-.33.76.45.45,0,0,0-.31.63l1.12,3.32c.23.7,1.23.48,1-.22L48,39.51l0-.06a6,6,0,0,0,1.31-.65c.38-.22.85-.45,1.23,0,.8.91-.05,2.24-.52,3l-.05.1-.06,0c-.62.2-.37,1.33.25,1.13l1.6-.52C52.39,42.29,52.14,41.16,51.51,41.37Z"/><path class="cls-2" d="M55.33,34.29a.51.51,0,1,0-1,.22Q55.85,40.75,57.15,47c-.59.21-1.56-.22-2.08-.34a10,10,0,0,1-2.17-.59c-.62-.3-.89.78-.28,1.09a13.79,13.79,0,0,0,3,.78c.89.21,1.76.45,2.5-.2a.59.59,0,0,0,.14-.54Q56.89,40.73,55.33,34.29Z"/><path class="cls-2" d="M65.3,32.43,63,33.23l-.07-.11-1.78-2.19c-.46-.56-1.19.2-.73.76l1.54,1.9L60.8,34c-.61.21-.37,1.34.25,1.13l4.51-1.56C66.17,33.34,65.92,32.21,65.3,32.43Z"/><path class="cls-2" d="M65.22,35.21a12.73,12.73,0,0,0-2.5.93c-.59.29-.08,1.32.51,1a11.38,11.38,0,0,1,2.25-.83C66.11,36.17,65.85,35,65.22,35.21Z"/><path class="cls-2" d="M65.68,37.24l-2.51.9c-.61.22-.36,1.35.25,1.13l2.51-.9C66.54,38.15,66.3,37,65.68,37.24Z"/><path class="cls-2" d="M66.7,40.57a2.72,2.72,0,0,0-1.83.05,4.79,4.79,0,0,0-1.37.65.51.51,0,0,0-1,.34,19.94,19.94,0,0,0,1.12,3.3.47.47,0,0,0,.84.09h.06l2.59-.59a.57.57,0,0,0,.28-.85,2.89,2.89,0,0,0,0-1.42C67.37,41.56,67.22,40.84,66.7,40.57Zm-.59,1c.24,0,.13-.06.21.11a2.22,2.22,0,0,1,.12.47,1.51,1.51,0,0,1,0,1.07.62.62,0,0,0-.05.14l-2,.46q-.28-.71-.51-1.43A3.74,3.74,0,0,1,66.12,41.6Z"/><path class="cls-2" d="M67.66,32.34c-.28-.69-1.17-.17-.89.52a21,21,0,0,1,1.44,5.85c.07.73,1.1.82,1,.08A22.92,22.92,0,0,0,67.66,32.34Z"/><path class="cls-2" d="M69.6,32.87l.77,3.39a.51.51,0,1,0,1-.22l-.77-3.39A.51.51,0,1,0,69.6,32.87Z"/><path class="cls-2" d="M71.51,27.41,75,42.69a.51.51,0,1,0,1-.22L72.5,27.19A.51.51,0,1,0,71.51,27.41Z"/><path class="cls-2" d="M83.09,34.16,81.42,32c-.44-.58-1.17.19-.73.76l.28.36a.48.48,0,0,0-.25.11,4.34,4.34,0,0,1-.72.48c-.11.06-.45.13-.65.22v-.05c0-.18.08-.36.13-.54l.23-1,.94-4c.17-.7-.82-1.08-1-.37l-.56,2.38a2,2,0,0,1-.79-.1c-.21-.09-.18.08-.07-.22s.13-.42.2-.62l.8-2.49c.22-.69-.77-1.05-1-.37l-.6,1.87a7.65,7.65,0,0,0-.53,1.82c0,1,.94,1.2,1.71,1.25a15.28,15.28,0,0,0-.53,2.37c-.07.73.34,1.38,1,1.27a4.65,4.65,0,0,0,2.09-1.08.49.49,0,0,0,.14-.17l.79,1C82.8,35.5,83.53,34.74,83.09,34.16Z"/><path class="cls-2" d="M80.82,39.39l-1.62-1.6a.49.49,0,0,0-.73,0,.63.63,0,0,0,0,.81l1.62,1.6a.49.49,0,0,0,.73,0A.63.63,0,0,0,80.82,39.39Z"/><path class="cls-2" d="M82.64,38.66a7,7,0,0,0-1.46-1.31c-.58-.38-1.1.57-.52,1a5.87,5.87,0,0,1,1.25,1.12C82.38,40,83.11,39.22,82.64,38.66Z"/><path class="cls-2" d="M91.91,34.93,88.29,34l-.36-1.08-.19-.55a14.35,14.35,0,0,1,1.7-.36c.54-.08.45-.88,0-1.08a1.63,1.63,0,0,0,.7-1.7,2.19,2.19,0,0,0-1.71-1.73,4.82,4.82,0,0,0-2.37.25q-.28-.79-.55-1.59l2.28-.6c.63-.17.38-1.29-.25-1.13l-2.39.63c-.21-.65-.41-1.31-.59-2a.51.51,0,1,0-1,.22c.19.67.39,1.34.6,2L81.77,26c-.63.17-.38,1.29.25,1.13l2.54-.67q.27.81.55,1.61a12.59,12.59,0,0,0-2.16.84c-.42-.38-1,.32-.64.87a10.85,10.85,0,0,1,1.22,2.34c.26.69,1.15.17.89-.52a11.65,11.65,0,0,0-.83-1.72l.62-.27a.66.66,0,0,0,.07.71l.83,1.11a.48.48,0,0,0,.73,0,.63.63,0,0,0,0-.81L85,29.52a.47.47,0,0,0-.23-.16l.71-.22.7,2,.18.5a15.2,15.2,0,0,0-2.26,1c-.58.32-.07,1.35.51,1a14.12,14.12,0,0,1,2.13-1l.17.5a.48.48,0,0,0-.34.35,7.87,7.87,0,0,1-2.28,3.57.51.51,0,0,0-.14.19,2.86,2.86,0,0,0-1.72-.7c-.66,0-.68,1.11,0,1.15a2,2,0,0,1,1.31.59.47.47,0,0,0,.7-.16.58.58,0,0,0,.05-.13A.46.46,0,0,0,85,38a8.71,8.71,0,0,0,2.24-3.21.45.45,0,0,0,.25.23c.21.67.41,1.34.59,2a4.69,4.69,0,0,0,.24.95,1.3,1.3,0,0,1-.27-.21.53.53,0,1,0-.73.76c.41.41.89.78,1.44.6a1,1,0,0,0,.59-1.21,21.09,21.09,0,0,0-.69-2.51l0-.1,2.95.74C92.28,36.18,92.56,35.1,91.91,34.93Zm-5.07-6.16a2.54,2.54,0,0,1,1.78,0,1,1,0,0,1,.54.59c0,.19,0,.53-.19.6a.67.67,0,0,0-.19,1q-.54.1-1.08.23l.06-.06A2,2,0,0,0,88,29a.52.52,0,1,0-.89.52.72.72,0,0,1-.07.79l0,.05-.52-1.46Z"/><path class="cls-2" d="M97.27,21.38a10,10,0,0,0-3.09-1.21c-.65-.14-.67,1,0,1.15a8.48,8.48,0,0,1,2.59,1C97.34,22.69,97.86,21.74,97.27,21.38Z"/><path class="cls-2" d="M101.46,25.78l-.83.18c-.08-.32-.17-.64-.27-1-.23-.7-1.22-.48-1,.22q.16.49.28,1-.82.23-1.61.53-.16-.73-.29-1.47a.51.51,0,1,0-1,.22q.14.82.33,1.62-.87.37-1.71.81a.48.48,0,0,0-.16.13l-.65-2.94q3.1-.62,6.14-1.49c.63-.18.38-1.31-.25-1.13q-3.29.95-6.65,1.59c-.42.08-.46.59-.25.9a.65.65,0,0,0,0,.25L95,31.7c.4,1.8.9,3.72.34,5.49-.22.69.77,1.06,1,.37a11.08,11.08,0,0,0-.24-5.65l-.66-3a.44.44,0,0,0,.47,0q.73-.38,1.48-.71.21.78.45,1.55a.68.68,0,0,0,.1.2c-.18.37.08,1,.57.88l1.9-.43a.5.5,0,0,0,.37-.57.46.46,0,0,0,.35-.5,15.67,15.67,0,0,0-.22-2.29l.85-.18C102.36,26.78,102.11,25.65,101.46,25.78Zm-1.58,1.57a13.88,13.88,0,0,1,.19,2v0l-1.26.29v0q-.27-.85-.49-1.71Q99.08,27.57,99.88,27.34Z"/><path class="cls-2" d="M104.85,35.18a20.74,20.74,0,0,1-3-1.14c.1-.18.2-.37.29-.56a3.18,3.18,0,0,0,.44-1.42,1.24,1.24,0,0,0-1.5-1.15,4.74,4.74,0,0,0-1.18.38l-1.61.63-.06,0A.58.58,0,0,0,97.95,33a23.13,23.13,0,0,0,2.33,1.47,10.49,10.49,0,0,1-1.48,1.66c-.5.45.22,1.31.72.86a11.25,11.25,0,0,0,1.74-2,21.26,21.26,0,0,0,3.3,1.28C105.21,36.45,105.49,35.36,104.85,35.18ZM99.42,32.7c.49-.21,1-.42,1.5-.58.13,0,.48-.17.61-.06s-.21.63-.28.78-.24.48-.37.71Q100.14,33.16,99.42,32.7Z"/></g></g></svg>