<svg xmlns="http://www.w3.org/2000/svg" viewBox="0 0 137.89 86.64"><defs><style>.cls-1{fill:#ede9da;}.cls-2{fill:#212020;}</style></defs><title>資產 14</title><g id="圖層_2" data-name="圖層 2"><g id="圖層_1-2" data-name="圖層 1"><path class="cls-1" d="M128.51,68.71c3.17,3.06,3.08,6.55.76,10.12-3.25,5-9.3,8.62-15.39,7.65-5-.8-9.21-4.24-12.34-8.07a36,36,0,0,1-4.39-6.87c-1.14-2.29-1.67-4.76-2.69-7.08s-2.74-3.06-5.11-3.53c-4-.79-8-1.21-12-2.12a120.07,120.07,0,0,1-22.57-7.53C51.9,50,48.64,47.5,45.43,47.35c-2.26-.11-4.15,1.13-6,2.29C33.35,53.52,26.67,57,19.27,57.2c-8.92.21-17.36-4.81-19-14C-1.28,34.45,4,26.51,11.68,22.69a.64.64,0,0,0,.13-1c-3.74-3-4.69-8-3.33-12.48,1.6-5.27,6.31-8.54,11.7-9.1C31.34-1.07,39.67,7.56,44,16.94c.56,1.22.89,3.22,2,4.09.82.67,3.69.68,4.76.89,1.59.32,3.17.64,4.74,1q8.29,1.81,16.43,4.22a237.83,237.83,0,0,1,34.86,13.4.63.63,0,0,0,.53,0,.62.62,0,0,0,.34-.89c-2.22-5.87,6.84-10,11.62-9.53a22.33,22.33,0,0,1,14.54,8.07c3.47,4.22,5.22,9.94,3.36,15.24s-6.58,9.33-12.27,9.22a.64.64,0,0,0-.6.81C125.17,65.72,126.8,67,128.51,68.71Z"/><path class="cls-2" d="M35.95,27.11a22.42,22.42,0,0,1,.76-3.17c.2-.63-.77-1-1-.34A24.32,24.32,0,0,0,34.93,27C34.82,27.69,35.84,27.76,35.95,27.11Z"/><path class="cls-2" d="M40.67,25.71a11.62,11.62,0,0,1-2.32,1.14q.45-1.15.8-2.34c.19-.63-.78-1-1-.34a28.65,28.65,0,0,1-1.09,3l-.16,0a.52.52,0,0,0,.08,1,.55.55,0,0,0,.81-.19,12.15,12.15,0,0,0,3.28-1.45C41.67,26.28,41.23,25.36,40.67,25.71Z"/><path class="cls-2" d="M35.71,36.69l-1.46-.4a.5.5,0,0,0,.21-.36q.09-.76.24-1.51l.44.1c.64.14,1-.82.34-1l-.56-.13q.11-.45.25-.89l1.15.3c.63.16,1-.8.34-1l-.57-.15a3.41,3.41,0,0,0,1.83-1.85.49.49,0,0,0,0-.23l.36.07c.64.13.71-.9.07-1q-2.13-.42-4.21-1a.52.52,0,0,0,.06-.48,31.14,31.14,0,0,1-.9-3c-.15-.64-1.16-.45-1,.2.25,1,.55,2,.89,3l-.56-.18a.51.51,0,0,0-.34,1l1.14.37a.53.53,0,0,0-.08.23,5.67,5.67,0,0,0,.22,2.35L32,30.66c-.63-.16-1,.8-.34,1l2.49.65q-.13.43-.24.87-.85-.27-1.67-.61c-.61-.25-.94.71-.34,1s1.18.46,1.78.64q-.17.85-.28,1.72a.51.51,0,0,0,0,.19q-1.09-.34-2.16-.72a.51.51,0,0,0-.34,1q2.18.78,4.42,1.36C36,37.82,36.35,36.85,35.71,36.69Zm-.63-5.76a.44.44,0,0,0-.35.24,4.7,4.7,0,0,1-.32-2.38v0q1.29.37,2.59.66l-.05.1A2.33,2.33,0,0,1,35.07,30.93Z"/><path class="cls-2" d="M45.54,31.92l-.3-.09q.86-2.74,1.67-5.5c.18-.63-.78-1-1-.34q-.81,2.78-1.68,5.55a35.27,35.27,0,0,0-5.19-1.05c-.65-.08-.72.94-.07,1a33.61,33.61,0,0,1,4.95,1q-1.14,3.58-2.38,7.14a6.22,6.22,0,0,1-1.19-2.22c-.18-.63-1.19-.44-1,.2a7.34,7.34,0,0,0,2,3.32.52.52,0,0,0,.87-.16q1.4-4,2.67-8l.28.09A.51.51,0,0,0,45.54,31.92Z"/><path class="cls-2" d="M41.16,35.48a28,28,0,0,1-.92-2.84c-.17-.63-1.17-.44-1,.2a30.51,30.51,0,0,0,1,3.08C40.47,36.54,41.39,36.09,41.16,35.48Z"/><path class="cls-2" d="M50.52,42.17q-1.17-.16-2.33-.36a.54.54,0,0,0,.08-.15l.25-.71.31.11a.51.51,0,0,0,.34-1L48.87,40l.36-1,1.11.39a.51.51,0,0,0,.66-.6c1-.67,1.79-1.85,1.16-3.06a2,2,0,0,0-1.44-1l.47-1.33q1.08.38,2.15.79c.62.24,1-.73.34-1s-1.43-.54-2.15-.79l.8-2.28a.49.49,0,0,0,0-.32q.72-.18,1.43-.42c.62-.21.17-1.13-.44-.92a15.91,15.91,0,0,1-3.88.78c-.66.05-.46,1.06.2,1a16.11,16.11,0,0,0,1.63-.21l-.71,2q-1.16-.38-2.33-.73c-.63-.18-1,.78-.34,1s1.56.47,2.33.73l-.51,1.46q-.62-.11-1.25-.17l0-.19c.16-.63-.81-1-1-.34a29,29,0,0,0-.67,3.77.44.44,0,0,0,.27.48.47.47,0,0,0,.29.26l.84.29-.36,1-1.24-.43a.51.51,0,0,0-.34,1l1.24.43-.25.71a.48.48,0,0,0,0,.34l-2.1-.39c-.64-.13-.71.89-.07,1q2.64.53,5.32.91C51.11,43.28,51.17,42.26,50.52,42.17Zm-.79-4.66.18.06a.51.51,0,0,0,.34-1l-.18-.06.31-.88a1.81,1.81,0,0,1,.65.26c.89.64-.13,1.72-.74,2.06a.52.52,0,0,0-.2.2L49.56,38Zm-1.14.15-.69-.24q0-.26.07-.53l.8.28Zm.51-1.46-.84-.29-.14,0q0-.27.1-.53c.38,0,.75.08,1.13.14Z"/><path class="cls-2" d="M60.3,36.73a3.54,3.54,0,0,0-1.6-.76c.61-1.11,1.21-2.23,1.88-3.29.35-.56-.49-1.14-.84-.58-.73,1.14-1.37,2.39-2,3.62a15.6,15.6,0,0,0-2.16-.32.51.51,0,0,0-.07,1,15,15,0,0,1,1.71.24,14,14,0,0,1-4.48,5.25c-.55.35-.11,1.27.44.92a15.58,15.58,0,0,0,5-5.94q.45.13.89.29c1.13.42,1,2,.73,2.92a7.2,7.2,0,0,1-1.7,2.83,9.36,9.36,0,0,1-1.15,1.13c-.31.23-.34,0-.42-.32a2.87,2.87,0,0,0-.27-.72c-.34-.56-1.26-.12-.92.44s.28,1.4,1,1.71,1.19-.27,1.64-.7a9.87,9.87,0,0,0,2.66-3.71C61.08,39.57,61.29,37.72,60.3,36.73Z"/><path class="cls-2" d="M69,41.68a16.32,16.32,0,0,0-2.37-.76l1-3,.17,0c.62.08.71-.84.15-1L69,33.6a.51.51,0,0,0-1-.34l-1.16,3.57-1.42-.19a5.74,5.74,0,0,0,.73-1.5c.2-.63-.76-1-1-.34a4.73,4.73,0,0,1-1.7,2.38c-.53.4.14,1.17.66.78a5.69,5.69,0,0,0,.49-.41l.11,0,1.77.24-.94,2.9a16.17,16.17,0,0,0-3.34-.22c-.65,0-.73,1-.07,1a15.65,15.65,0,0,1,3.09.19l-1.64,5a.51.51,0,0,0,1,.34l1.68-5.17a15.54,15.54,0,0,1,2.35.74C69.28,42.89,69.61,41.93,69,41.68Z"/><path class="cls-2" d="M76,44.57c.43-1.33,1-3-.09-4.21a3.94,3.94,0,0,0-2.12-1l-1.93-.41A26.25,26.25,0,0,0,74.07,37c.47-.46-.19-1.24-.66-.78a26.25,26.25,0,0,1-3.7,3c-.55.37.12,1.14.66.78l.41-.28a22.93,22.93,0,0,1,3.56.82c1.2.45,1.31,1.49,1,2.61a15.92,15.92,0,0,1-1.28,3.5,4.08,4.08,0,0,1-1,1.35.79.79,0,0,1-.71.21c-.15-.05-.37-.27-.27-.43.36-.55-.48-1.14-.84-.58a1.27,1.27,0,0,0,.27,1.67A1.57,1.57,0,0,0,73.4,49C74.88,48.19,75.52,46.07,76,44.57Z"/><path class="cls-2" d="M72.2,40.7A17.63,17.63,0,0,1,68.1,44c-.56.33-.12,1.26.44.92a18.47,18.47,0,0,0,4.32-3.49C73.3,41,72.65,40.22,72.2,40.7Z"/><path class="cls-2" d="M73.58,42.22A17.7,17.7,0,0,1,68,46.55a.51.51,0,0,0,.44.92,19,19,0,0,0,6-4.67C74.85,42.3,74,41.72,73.58,42.22Z"/><path class="cls-2" d="M85.18,42.34a11,11,0,0,1-3-.81L82,41.47l1.85-3.59c.3-.58-.54-1.17-.84-.58l-2,3.83-1.89-.66a.51.51,0,0,0-.34,1l1.76.62-.87,1.7c-.52,1-1,2-1.56,3a6.46,6.46,0,0,1-1.92,2.41c-.54.37.13,1.15.66.78a6.62,6.62,0,0,0,1.94-2.31c.57-1,1.09-2.1,1.63-3.15l1.09-2.12.48.17a11.25,11.25,0,0,0,3.11.8A.51.51,0,0,0,85.18,42.34Z"/><path class="cls-2" d="M85.16,53.67a17.85,17.85,0,0,1-2.6-4.07,8.21,8.21,0,0,0,1.76-1.41A2.2,2.2,0,0,0,85,46.67a1.24,1.24,0,0,0-.92-1.1,5.23,5.23,0,0,0-3-.29.54.54,0,0,0-.79.3.55.55,0,0,0,.13.83,18.89,18.89,0,0,0,.87,2.76,12.9,12.9,0,0,1-3.45,1.27.51.51,0,0,0,.2,1,13.92,13.92,0,0,0,3.41-1.2l.25-.13a18.89,18.89,0,0,0,2.71,4.23A.51.51,0,0,0,85.16,53.67ZM81.4,46.26a4.25,4.25,0,0,1,2,.16c.17.06.51.12.56.33s-.19.52-.32.68a5.49,5.49,0,0,1-1,.87l-.48.33A17.85,17.85,0,0,1,81.4,46.26Z"/><path class="cls-2" d="M96.15,53q-1.65-.66-3.33-1.25a2.7,2.7,0,0,0,1.27-1,.54.54,0,0,0,.08-.18l.55.19a.51.51,0,0,0,.34-1l-2.53-.88a.42.42,0,0,0,.23-.41,6.93,6.93,0,0,1,0-.93l1,.34a.51.51,0,0,0,.34-1L93,46.49a6.92,6.92,0,0,1,.47-1.22l0,0L96,46.1a.51.51,0,0,0,.34-1l-2.48-.87a3.76,3.76,0,0,0,2.78-2.65c.17-.63-.79-1-1-.34a2.77,2.77,0,0,1-2.53,2.07.48.48,0,0,0,.05-.35l-.52-2.59a.51.51,0,0,0-1,.2l.52,2.59a.47.47,0,0,0,.45.4.59.59,0,0,0-.08.22l-2.71-.95a.51.51,0,0,0-.34,1l3,1,0,0A7.39,7.39,0,0,0,92,46.15l-1.48-.52a.51.51,0,0,0-.34,1l1.6.56a7.47,7.47,0,0,0-.07,1.21.54.54,0,0,0,.05.22L88,47.28a.51.51,0,0,0-.34,1l1.45.51a4.22,4.22,0,0,0,.31,1.87q-1.38-.42-2.77-.79c-.63-.17-1,.8-.34,1a82,82,0,0,1,9.46,3.13C96.42,54.18,96.76,53.21,96.15,53Zm-5.6-2.43a3.26,3.26,0,0,1-.38-1.44l3,1.06a1.68,1.68,0,0,1-1.53.71.46.46,0,0,0-.48.28l-.62-.2A.45.45,0,0,0,90.55,50.54Z"/><path class="cls-2" d="M92.75,53.83a2.19,2.19,0,0,0-1.54-.75,13.68,13.68,0,0,0-2.2-.21.51.51,0,0,0-1,0L87.86,55a.47.47,0,0,0,.23.45.52.52,0,0,0-.16,1l3.18,1.11a.52.52,0,0,0,.62-.72C92.51,56.12,93.41,54.81,92.75,53.83ZM90.2,54a5.11,5.11,0,0,1,1.47.28c.85.37-.52,1.82-.89,2.14l0,0-2.35-.82a.47.47,0,0,0,.48-.46L89,53.89C89.37,53.89,89.79,53.92,90.2,54Z"/><path class="cls-2" d="M105.34,46.23,103.44,44a.51.51,0,0,0-.78.66l1.9,2.26A.51.51,0,0,0,105.34,46.23Z"/><path class="cls-2" d="M107.76,47.79q-4.11-.71-8.17-1.71c-.63-.16-1,.81-.34,1l.52.13a.55.55,0,0,0-.06.13l-2,6.13c-.49,1.48-.9,3.57-2.48,4.29-.6.27-.16,1.2.44.92,1.7-.77,2.27-2.67,2.81-4.3l1-2.87a.44.44,0,0,0,.43.3q.67,0,1.34.06-.3.86-.57,1.73a.49.49,0,0,0,0,.4.55.55,0,0,0,.21.82,4.87,4.87,0,0,0,2.08.44A35.32,35.32,0,0,1,104,55q.58-1.33,1.07-2.69l.16,0c.64.14,1-.83.34-1l-.16,0q.25-.74.48-1.48c.19-.63-.77-1-1-.34s-.34,1.08-.53,1.62c-.6-.11-1.21-.2-1.82-.27q.3-.76.62-1.51c.26-.6-.7-.94-1-.34s-.49,1.16-.71,1.75c-.54,0-1.09-.07-1.63-.08a.51.51,0,0,0-.28.07l1.05-3.18a.51.51,0,0,0,0-.25q3.47.81,7,1.42C108.34,48.92,108.41,47.9,107.76,47.79Zm-5.53,4.13c.62.06,1.23.15,1.84.25q-.39,1.05-.82,2.08a.48.48,0,0,0-.24-.06,4.13,4.13,0,0,1-1.45-.24l0-.06Q101.88,52.89,102.24,51.91Z"/><path class="cls-2" d="M104.05,60.93A10.18,10.18,0,0,1,101.92,59a4.85,4.85,0,0,0,1.32-.89c.47-.45.7-1.23.07-1.67a3.79,3.79,0,0,0-1.16-.38l-1.47-.39a3.43,3.43,0,0,0-1.31,1.14,11.07,11.07,0,0,0,.88,1.66,5.36,5.36,0,0,1-1.15.1c-.66,0-.73,1-.07,1a6.88,6.88,0,0,0,1.87-.23,11.15,11.15,0,0,0,2.57,2.36C104,62.13,104.6,61.29,104.05,60.93Zm-3.63-4.23,1.76.47c.12,0,.24.08.37.1l.17,0s-.08,0-.09,0a2,2,0,0,1-.58.47,5,5,0,0,1-.77.41A10.26,10.26,0,0,1,100.42,56.7Z"/></g></g></svg>