<svg xmlns="http://www.w3.org/2000/svg" viewBox="0 0 139.71 76.77"><defs><style>.cls-1{fill:#f4f3ef;}.cls-2{fill:#212020;stroke:#212020;stroke-miterlimit:10;stroke-width:0.25px;}</style></defs><title>資產 13</title><g id="圖層_2" data-name="圖層 2"><g id="圖層_1-2" data-name="圖層 1"><path class="cls-1" d="M134.11,30.85c4.26,1.14,5.86,4.23,5.57,8.48-.41,6-4,12-9.75,14.16-4.77,1.73-10.12.76-14.7-1.07a36,36,0,0,1-7.17-3.88c-2.11-1.45-3.77-3.35-5.79-4.89S98.4,42.3,96.1,43c-3.88,1.24-7.61,2.84-11.53,4a120.07,120.07,0,0,1-23.39,4.36c-3.14.27-7.2-.33-10.08,1.09-2,1-3.09,3-4.12,4.91C43.52,63.73,39.38,70,33,73.78c-7.69,4.51-17.52,4.21-23.4-3-5.61-6.9-4.84-16.41,0-23.48a.64.64,0,0,0-.38-.94c-4.74-.84-8-4.71-9-9.3C-.88,31.66,1.66,26.52,6.09,23.42c9.19-6.44,20.67-2.95,29,3.16,1.08.8,2.35,2.38,3.7,2.63,1,.18,3.56-1.2,4.6-1.54,1.54-.49,3.09-1,4.63-1.43Q56.13,23.79,64.42,22a237.83,237.83,0,0,1,37-5.19.63.63,0,0,0,.47-.25.62.62,0,0,0-.14-.94c-4.79-4.06,1.15-12,5.54-14a22.33,22.33,0,0,1,16.63,0c5.09,2,9.38,6.16,10.33,11.7S133,24.66,128,27.32a.64.64,0,0,0-.13,1C129.74,29.86,131.8,30.23,134.11,30.85Z"/><path class="cls-2" d="M45.33,41.32l-1.79,2q-.5-1.68-.89-3.39l1.59-.5c.56-.17.3-1.28-.26-1.1l-1.56.49c-.1-.51-.2-1-.28-1.55-.12-.72-1-.5-.88.21q.13.81.29,1.61l-1.74.55c-.56.17-.3,1.28.26,1.1l1.71-.54q.44,2,1,3.9l-2,2.24c-.42.46.25,1.31.67.85l2-2.21a.4.4,0,0,0,.42-.47L46,42.16C46.42,41.7,45.75,40.86,45.33,41.32Z"/><path class="cls-2" d="M55.69,39.92c-.33-.63-1.12-.14-.78.49A14,14,0,0,1,56,43a15.14,15.14,0,0,1-2.52-2.65,24.69,24.69,0,0,0,.2-2.82c0-.72-.91-.81-.92-.09s0,1.18-.09,1.76A35.5,35.5,0,0,1,50,34.29q.73-.25,1.48-.47c.56-.17.3-1.27-.26-1.1s-1.12.35-1.67.54c-.36-.84-.71-1.67-1.05-2.5-.28-.67-1.06-.17-.78.49s.64,1.54,1,2.31q-1.33.49-2.64,1.06c-.54.24,0,1.24.49,1q1.29-.56,2.6-1a35.13,35.13,0,0,0,3.3,6,20.9,20.9,0,0,1-1,4c-.23.63.58,1.27.81.63a22.67,22.67,0,0,0,1-3.57,14.41,14.41,0,0,0,3.27,3c.37.24.76-.07.66-.57A15.21,15.21,0,0,0,55.69,39.92Z"/><path class="cls-2" d="M50,39.3a1.24,1.24,0,0,0-1.24-.62,1.18,1.18,0,0,0-.57.4c-.14.16-.27.46-.47.53a.41.41,0,0,0-.16.1,17.79,17.79,0,0,0-1.2-3.49c-.3-.65-1.09-.16-.78.49a16.25,16.25,0,0,1,1.32,9.49c-.12.69.78,1.07.9.38a17.28,17.28,0,0,0,0-5.85.35.35,0,0,0,.22,0,1.54,1.54,0,0,0,.72-.58c.21-.28.4-.52.67-.06a3.71,3.71,0,0,1,.28,1.38,9.13,9.13,0,0,1,0,1.26.63.63,0,0,1-.22-.2c-.42-.56-1,.18-.63.74a1.31,1.31,0,0,0,1.4.58.44.44,0,0,0,.32-.36C50.69,42.25,50.78,40.39,50,39.3Z"/><path class="cls-2" d="M52.35,30.67a7.12,7.12,0,0,0-1.61-1.95c-.51-.43-1,.5-.44.93a5.6,5.6,0,0,1,1.26,1.51C51.92,31.78,52.71,31.29,52.35,30.67Z"/><path class="cls-2" d="M58.74,28.22l-2.13-1c-.57-.26-.79.8-.22,1.06l2.13,1C59.09,29.53,59.31,28.47,58.74,28.22Z"/><path class="cls-2" d="M62.61,29.24q-3.29.95-6.65,1.64c-.57.12-.31,1.22.26,1.1q3.35-.7,6.65-1.64C63.43,30.18,63.17,29.08,62.61,29.24Z"/><path class="cls-2" d="M59.24,39.92a14.85,14.85,0,0,1-1.84-3.27c-.27-.67-1.06-.17-.78.49a16,16,0,0,0,2,3.51C59,41.21,59.66,40.48,59.24,39.92Z"/><path class="cls-2" d="M64.3,34.8a2.14,2.14,0,0,0-2.63-.31l-1.1.49-.5-2c-.18-.71-1.06-.5-.88.21l.55,2.19q-.87.44-1.72.92c-.52.29,0,1.3.49,1s1-.55,1.51-.81l2.27,9c.18.71,1.06.5.88-.21l-2.32-9.23a7.28,7.28,0,0,1,1.91-.76c.65-.11,1.21.24,1.22,1.14a3.83,3.83,0,0,1-.24,1.2c0,.12-.33.87-.38.74-.27-.67-1.05-.17-.78.49a1,1,0,0,0,1.06.63c.5-.11.73-.68.9-1.2C64.91,37.25,65.18,35.83,64.3,34.8Z"/><path class="cls-2" d="M74.16,24.92q-1.37.29-2.71.69l0-.07a.67.67,0,0,0-.34-.72l-2-1.19c-.23-.14-.5.08-.56.34a.67.67,0,0,0,.34.72l1.91,1.12q-1,.33-2,.73c-.54.22-.28,1.32.26,1.1A32,32,0,0,1,74.42,26C75,25.9,74.73,24.8,74.16,24.92Z"/><path class="cls-2" d="M72.32,30.78l-1.3-2c-.39-.59-1,.15-.63.74l1.3,2C72.07,32.1,72.7,31.36,72.32,30.78Z"/><path class="cls-2" d="M73,28l-.4,2.64c-.1.69.79,1.07.9.38l.4-2.64C74,27.73,73.07,27.35,73,28Z"/><path class="cls-2" d="M82.21,41.1a28.08,28.08,0,0,1-7.6,1.36q-1.12,0-2.24,0a.57.57,0,0,0,.1-.86,5.3,5.3,0,0,1-.61-1.85q-.29-1.07-.56-2.14-.46-1.84-.88-3.68a.34.34,0,0,0,.25,0q1.13-.44,2.29-.82v0l.35,1.49q-.84.31-1.66.69c-.53.24,0,1.25.49,1s1-.41,1.44-.59l.31,1.33,0,.06-.3.28c-.32-.58-1.07-.1-.76.54l.75,1.58a.48.48,0,0,0,.36.3c0,.35.2.79.58.7l1.82-.43.11,0a.32.32,0,0,0,.41-.25c.41-1.11.42-2.53-.74-3.15a1.59,1.59,0,0,0-1.42-.06l-.25-1a.37.37,0,0,0,.17,0l.61-.14A.58.58,0,0,0,75,34.3l-.15,0a.36.36,0,0,0-.38-.1l-.28.09-.33-1.41,0-.1.58-.18a5,5,0,0,1,1.74-.42c.46,0,.76.56,1,1a23.14,23.14,0,0,1,1.24,4.13q.28,1.16.51,2.34c.05.26.18.62-.07.74s-.63-.15-.86-.27c-.56-.31-.78.75-.22,1.06s1.37.58,1.87,0,.23-1.43.08-2.15a41,41,0,0,0-1.54-5.76A4.36,4.36,0,0,0,77,31.54a1.74,1.74,0,0,0-1.72-.34,41.91,41.91,0,0,0-4.93,1.6.44.44,0,0,0-.24.23c-.28-.39-.91-.15-.77.46q.53,2.38,1.14,4.74.3,1.18.62,2.36a4.43,4.43,0,0,0,.69,1.74l.11.1-1.14-.08c-.26,0-.52-.06-.78-.11a1.64,1.64,0,0,0,0-1.31,4.49,4.49,0,0,0-.73-1.15,1.55,1.55,0,0,1-.35-.67,4.1,4.1,0,0,1,.07-.9,4.06,4.06,0,0,0-1.26-3.13c-.49-.46-.93.47-.44.93a2.78,2.78,0,0,1,.74,2.42,2.63,2.63,0,0,0,.53,2c.37.52.94,1,.36,1.54l-.13.11a4.15,4.15,0,0,0-1.86.1.59.59,0,0,0-.19.92,1.61,1.61,0,0,0,2.24.16l.15,0q1,.14,1.91.22a29.13,29.13,0,0,0,3.88.07,28.9,28.9,0,0,0,7.5-1.36C83,42,82.77,40.92,82.21,41.1Zm-6.66-3.52c.7.12.74.79.56,1.4h0l-1.64.39a.66.66,0,0,0-.07-.36l-.28-.59C74.48,38,75,37.47,75.55,37.57Z"/><path class="cls-2" d="M68.15,33a6.4,6.4,0,0,1-.9-1.42c-.3-.65-1.09-.16-.78.49a7.61,7.61,0,0,0,1,1.66C68,34.28,68.6,33.55,68.15,33Z"/><path class="cls-2" d="M84.68,21.58a30.7,30.7,0,0,0-3.22-.82c-.59-.12-.57,1,0,1.12a28.42,28.42,0,0,1,3,.76C85,22.82,85.26,21.76,84.68,21.58Z"/><path class="cls-2" d="M87.27,22.24a29.76,29.76,0,0,1-6.82,2.52.56.56,0,0,0-.27.74.7.7,0,0,0,0,.77,10.45,10.45,0,0,1,1,3.24,28.24,28.24,0,0,1,.56,3.59,13.06,13.06,0,0,1-.76,6.1c-.26.61.55,1.25.81.63A14.37,14.37,0,0,0,82.61,33c-.08-.89-.21-1.77-.38-2.65a13.08,13.08,0,0,0,1-2.06,19.34,19.34,0,0,0,1.11,4.53c.26.68,1,.18.78-.49a17.15,17.15,0,0,1-.78-2.77c.2.24.56.32.74,0a7.43,7.43,0,0,0,.47-1.07q.45,1.94,1,3.85c.2.7,1.08.49.88-.21q-.67-2.39-1.21-4.82a.55.55,0,0,0-.28-.4A9.32,9.32,0,0,0,86,25.4c0-.72-.93-.81-.92-.09a7.21,7.21,0,0,1-.83,3.58l0,.07c0-.24-.07-.48-.1-.72a.59.59,0,0,0-.68-.57c.15-.43.28-.88.39-1.33.16-.67-.73-1-.9-.38a13.18,13.18,0,0,1-1.06,2.87,11.16,11.16,0,0,0-1-3,29.06,29.06,0,0,0,6.8-2.54C88.27,22.94,87.78,21.93,87.27,22.24Z"/><path class="cls-2" d="M90.46,30.23a11,11,0,0,0-1.21.52l-.2-.86,1.15-.67c.51-.3,0-1.31-.49-1l-.93.54-.1-.41.79-.56c.49-.34,0-1.35-.49-1l-.57.41,0-.11a.51.51,0,0,0-.42-.43L89,26c.5-.32,0-1.33-.49-1l-.24.15-.79-.84a.42.42,0,0,0-.65-.05.65.65,0,0,0,0,.79l.59.62-1.14.72c-.5.32,0,1.33.49,1l.68-.43a.63.63,0,0,0,0,.35l.11.47-.47.33c-.49.34,0,1.35.49,1l.26-.18.08.32-.26.15c-.51.3,0,1.31.49,1l0,0,.2.84h0l-.58.39c-.48.35,0,1.36.49,1a9.77,9.77,0,0,1,2.39-1.28C91.27,31.14,91,30,90.46,30.23Z"/><path class="cls-2" d="M83.64,37l.45,2.44c.13.72,1,.5.88-.21l-.45-2.44C84.4,36,83.51,36.26,83.64,37Z"/><path class="cls-2" d="M91.9,34.91c-.52-.42-1,.51-.44.93A2.35,2.35,0,0,1,92.22,37a27,27,0,0,1-3.35,1.21c-1.15.28-1.49-1.28-1.67-2.36-.12-.72-1-.5-.88.21.22,1.33.72,3,2,3.28a4,4,0,0,0,2.13-.49l2.46-.91a.54.54,0,0,0,.31-.66A3.75,3.75,0,0,0,91.9,34.91Z"/><path class="cls-2" d="M89.76,35.51l-1-.55a.41.41,0,0,0-.56.34.66.66,0,0,0,.34.72l1,.55a.41.41,0,0,0,.56-.34A.66.66,0,0,0,89.76,35.51Z"/><path class="cls-2" d="M94.14,32.8l-2.39-.4c-.59-.1-.57,1,0,1.12l2.39.4C94.75,34,94.73,32.9,94.14,32.8Z"/><path class="cls-2" d="M96.57,19.37a6.32,6.32,0,0,1-2.15-.83c-.54-.33-1,.59-.44.93a7.61,7.61,0,0,0,2.6,1C97.18,20.6,97.16,19.48,96.57,19.37Z"/><path class="cls-2" d="M100.92,19.85l-7.62,2.4c-.56.17-.3,1.28.26,1.1l7.62-2.4C101.74,20.78,101.48,19.67,100.92,19.85Z"/><path class="cls-2" d="M95.23,24.51c-.2-.7-1.08-.49-.88.21a51.48,51.48,0,0,1,1.33,6.18c.24,1.61.58,3.52-.17,4.88-.32.57.49,1.2.81.63.8-1.44.58-3.34.34-5.07A51.37,51.37,0,0,0,95.23,24.51Z"/><path class="cls-2" d="M100.9,23.49l-.46.2q-.09-.27-.19-.53c-.27-.67-1.05-.18-.78.49.05.13.1.26.14.39q-.88.37-1.78.7l0-.06c-.21-.69-1.1-.49-.88.21l0,.16-.3.1c-.55.19-.29,1.29.26,1.1l.39-.14q.39,1.09.88,2.14a.47.47,0,0,0,.38.31.38.38,0,0,0,.47.22l1.66-.56c.44-.15.37-.88,0-1.08a7.56,7.56,0,0,0,0-2.36l.67-.3C101.92,24.25,101.43,23.25,100.9,23.49Zm-1,1.67a6.17,6.17,0,0,1,0,2,.69.69,0,0,0,0,.23l-.87.29q-.42-.9-.75-1.83Q99,25.51,99.86,25.16Z"/><path class="cls-2" d="M105.49,33.74a14.53,14.53,0,0,1-4-1c.18-.54.33-1.1.47-1.66a4.14,4.14,0,0,0,.22-1.28c0-.39-.27-.87-.64-.9a1.48,1.48,0,0,0-.65.25l-.66.3-1.57.72c-.53.25,0,1.25.49,1l2-.93,0,.21c-.06.25-.12.49-.19.74s-.21.77-.34,1.15q-.45-.22-.9-.46c-.56-.31-.78.75-.22,1.06l.74.39a5.85,5.85,0,0,1-1.3,1.91c-.45.42.23,1.26.67.85a6.7,6.7,0,0,0,1.53-2.34,15.35,15.35,0,0,0,4.43,1.13C106.11,34.92,106.09,33.8,105.49,33.74Z"/></g></g></svg>