<svg xmlns="http://www.w3.org/2000/svg" viewBox="0 0 134.97 105.03"><defs><style>.cls-1{fill:#b7b7b6;}.cls-2{fill:#212020;}</style></defs><title>資產 1</title><g id="圖層_2" data-name="圖層 2"><g id="圖層_1-2" data-name="圖層 1"><path class="cls-1" d="M126.33,24.36c4.4-.3,6.92,2.1,8,6.21,1.55,5.78.18,12.68-4.62,16.56-3.95,3.19-9.32,4-14.25,3.76a36,36,0,0,1-8-1.34c-2.47-.69-4.66-1.95-7.06-2.74s-4.11,0-6,1.43c-3.26,2.43-6.28,5.16-9.61,7.51A120.07,120.07,0,0,1,64,67.48c-2.88,1.27-6.91,2-9.18,4.31-1.6,1.61-1.94,3.84-2.31,6-1.2,7.13-3.06,14.43-7.88,20.05-5.81,6.77-15.2,9.68-23.11,4.74-7.55-4.71-9.91-14-7.61-22.21a.64.64,0,0,0-.66-.76c-4.76.75-9.08-1.86-11.5-5.88C-1.07,69-.34,63.3,2.85,58.92c6.6-9.08,18.59-9.5,28.45-6.43,1.28.4,3,1.49,4.35,1.28,1-.16,3-2.29,3.85-2.95,1.3-1,2.6-1.92,3.91-2.86Q50.3,43,57.54,38.59A237.83,237.83,0,0,1,90.83,21.67a.63.63,0,0,0,.37-.39.62.62,0,0,0-.44-.85c-5.85-2.29-2.83-11.76.7-15A22.33,22.33,0,0,1,107.19,0c5.46.25,10.88,2.78,13.57,7.71s2.52,11.14-1.37,15.29a.64.64,0,0,0,.2,1C121.88,24.85,124,24.53,126.33,24.36Z"/><path class="cls-2" d="M39.74,60.5l-.91.77a.74.74,0,0,0-.39-.33L36,60a.61.61,0,0,0-.74.43.62.62,0,0,0,.43.74l2.19.87-1.85,1.56c-.59.5.27,1.34.86.84l2.47-2.08A22.35,22.35,0,0,1,36.24,71c-.41.66.64,1.25,1,.6a23.57,23.57,0,0,0,3.48-10.71C40.81,60.35,40.1,60.19,39.74,60.5Z"/><path class="cls-2" d="M45.2,67.25l-2.37.07,1-2.66c.28-.72-.89-1-1.16-.31l-1,2.44-.37-.61a.6.6,0,0,0-1,.6q1.9,3.2,4,6.25c.44.63,1.49,0,1-.6q-1.35-1.93-2.61-3.91l2.37-.07C46,68.43,46,67.22,45.2,67.25Z"/><path class="cls-2" d="M48.51,57.87a11.49,11.49,0,0,0-3.33,2c-.61.47,0,1.51.6,1,.29-.23.59-.45.9-.66a.66.66,0,0,0,0,.17,38.32,38.32,0,0,1,.6,9.27c0,.78,1.16.78,1.2,0a39.62,39.62,0,0,0-.64-9.58.5.5,0,0,0-.34-.41c.31-.19.63-.37,1-.53s.76-.29,1.07.17a11,11,0,0,1,.72,1.41A29.1,29.1,0,0,1,52.14,66a7.64,7.64,0,0,1-1.71-.51c-.7-.3-1.31.74-.6,1a9.46,9.46,0,0,0,3.09.77.61.61,0,0,0,.59-.75,30.46,30.46,0,0,0-2.69-7.44C50.34,58.24,49.61,57.53,48.51,57.87Z"/><path class="cls-2" d="M71.47,39.63q-.42.25-.82.52a.61.61,0,0,0-.31-.09L68.19,40c-.78,0-.78,1.17,0,1.2l1,0a16.68,16.68,0,0,0-2,1.95c-.5.58.35,1.43.86.84a15.78,15.78,0,0,1,4-3.33A.6.6,0,0,0,71.47,39.63Z"/><path class="cls-2" d="M73.87,55a20.81,20.81,0,0,1-3.59-6.15c-.27-.72-1.44-.42-1.17.31A22.55,22.55,0,0,0,73,55.87C73.53,56.46,74.37,55.6,73.87,55Z"/><path class="cls-2" d="M83.07,48.6a10,10,0,0,1-2,3.17.91.91,0,0,0,.14-.41,1.56,1.56,0,0,0-.34-.95L80,49l-1.55-2.52c-.82-1.33-1.69-3.11-3.58-2.53a6.17,6.17,0,0,0-2.13,1.5l-.17.14a15.92,15.92,0,0,0,0-3.58c-.1-.76-1.3-.77-1.2,0a15.91,15.91,0,0,1,.09,3.12l-1.29-.71a.6.6,0,0,0-.6,1l1.69.93.14.06a10.84,10.84,0,0,1-1.09.56c-.71.32-.1,1.36.6,1a12.81,12.81,0,0,0,3.31-2.29c.43-.39,1.1-.92,1.74-.69s.94,1.1,1.25,1.59l2.3,3.73.25.4.18.3-.13,0-.42,0a5.68,5.68,0,0,1-1.93-.24.54.54,0,0,0-.44,0,1.4,1.4,0,0,0-.61-1.22,1.48,1.48,0,0,0-1.62,0,9.87,9.87,0,0,0-.62-1.31,6.87,6.87,0,0,1,.65-.58.61.61,0,0,0,0-.85.62.62,0,0,0-.85,0,6.83,6.83,0,0,0-.52.46c-.49-.23-1.18.28-.8.81l0,.06q-.17.23-.32.47c-.41.63.56,1.21,1,.66a7.82,7.82,0,0,1,.38.87.61.61,0,0,0,.28.34l0,.11a.57.57,0,0,0,0,.31.65.65,0,0,0-.39.18.62.62,0,0,0,0,.85l.82,1a.61.61,0,0,0,.85,0,.57.57,0,0,0,.09-.69.59.59,0,0,0,1-.32,1.22,1.22,0,0,0,.48-.42.57.57,0,0,0,.37.32,6.65,6.65,0,0,0,2.43.27A2.66,2.66,0,0,0,80.81,52a15.19,15.19,0,0,1-4,2.85A28.85,28.85,0,0,1,72,56.66l-1.55.48c0-.06,0-.12,0-.18.11-1.19-.87-1.73-1.87-2a2,2,0,0,0-.29-1.53,2.4,2.4,0,0,0-2.52-.83c-.76.16-.45,1.33.31,1.17a1.22,1.22,0,0,1,1.17.28.7.7,0,0,1,0,1,.61.61,0,0,0,.43,1c.46,0,1.8.11,1.58.86s-1.41.66-2,.63c-.79,0-.76,1.12,0,1.2,1.72.2,3.54-.51,5.16-1a29.78,29.78,0,0,0,5.17-2,13.55,13.55,0,0,0,6.62-6.88C84.51,48.19,83.35,47.88,83.07,48.6Zm-7.33,2.35c0,.14,0,.14-.07.16a.54.54,0,0,0-.43.49.56.56,0,0,0-.17.66l-.55-.71a.58.58,0,0,0,.53-.42c.07-.21.38-.5.61-.38C75.73,50.79,75.74,50.85,75.74,50.95Z"/><path class="cls-2" d="M66.92,49.37a3.56,3.56,0,0,1-1.56-.7.62.62,0,0,0-.85,0,.61.61,0,0,0,0,.85,4.81,4.81,0,0,0,2.09,1C67.37,50.68,67.69,49.52,66.92,49.37Z"/><path class="cls-2" d="M82.88,32.22a4.74,4.74,0,0,0-2.26-.42.62.62,0,0,0-.6.6.61.61,0,0,0,.6.6,3.5,3.5,0,0,1,1.67.26.62.62,0,0,0,.82-.23A.61.61,0,0,0,82.88,32.22Z"/><path class="cls-2" d="M86.75,31.14l-5.63,4.09c-.62.45,0,1.5.6,1l5.63-4.09C88,31.73,87.38,30.68,86.75,31.14Z"/><path class="cls-2" d="M92.11,38.05l-.71.61-.69-1,.67-.56a.61.61,0,0,0,0-.85.62.62,0,0,0-.85,0l-.51.43-.11-.16.66-.51a.61.61,0,0,0,0-.85.62.62,0,0,0-.85,0l-.52.4a.64.64,0,0,0-.65-.07,12.36,12.36,0,0,1,1.36-1c.66-.41.06-1.45-.6-1l-.5.33a.46.46,0,0,0-.2-.09l-1.27-.22a.62.62,0,0,0-.74.43.61.61,0,0,0,.43.74l.54.09-.49.44c-.56.53.3,1.38.86.84l.3-.28a.48.48,0,0,0,0,.52l-.53.41a.57.57,0,0,0-.1.7Q87.3,37,87,36.54a.65.65,0,0,0-.79-.2,11,11,0,0,0-.07-1.44c-.09-.76-1.29-.77-1.2,0a10.49,10.49,0,0,1-.07,3,.66.66,0,0,0,0,.2.67.67,0,0,0-.57-.07q.17-.64.3-1.29c.14-.76-1-1.07-1.16-.31a17.43,17.43,0,0,1-.53,2.09c-.23-.42-.47-.84-.73-1.25-.41-.66-1.45-.06-1,.6s.9,1.53,1.29,2.32a.66.66,0,0,0,.08.17,26.4,26.4,0,0,1,1.27,3,28,28,0,0,1,.8,2.82,4.31,4.31,0,0,1,.12,2.61c-.31.7.73,1.31,1,.6a4.39,4.39,0,0,0,.17-2.68,25.7,25.7,0,0,0-.84-3.22,28.7,28.7,0,0,0-1.44-3.57q.2-.5.37-1a19.7,19.7,0,0,0,1.59,3.39.6.6,0,0,0,1-.6,18.17,18.17,0,0,1-1.51-3.2.54.54,0,0,0,.89-.32q.07-.39.11-.77a34.9,34.9,0,0,1,2.44,3.75.6.6,0,0,0,1-.6Q88.74,39,87.74,37.6a.62.62,0,0,0,.85,0l.36-.28.14.19a.61.61,0,0,0,0,.83.58.58,0,0,0,.66.11l.71,1-.42.36c-.59.5.27,1.35.86.84l.79-.67.06,0,1.19-1C93.56,38.39,92.69,37.55,92.11,38.05Z"/><path class="cls-2" d="M90,46.82a11.09,11.09,0,0,1-1.37-1.52.62.62,0,0,0-.82-.22.61.61,0,0,0-.22.82,12.8,12.8,0,0,0,1.56,1.78C89.7,48.21,90.55,47.35,90,46.82Z"/><path class="cls-2" d="M94.28,40.79c-.76-.17-1.07,1-.31,1.16A.77.77,0,0,1,94.44,43,1.94,1.94,0,0,1,93,44a4.17,4.17,0,0,1-3.26-.59.56.56,0,0,0-.77-.17.59.59,0,0,0-.11.93.62.62,0,0,0,.22.25,5.12,5.12,0,0,0,5.39.26,2.38,2.38,0,0,0,1.2-2.18A1.88,1.88,0,0,0,94.28,40.79Z"/><path class="cls-2" d="M93,42.09l-1-.16a.62.62,0,0,0-.74.43.61.61,0,0,0,.43.74l1,.16a.62.62,0,0,0,.74-.43A.61.61,0,0,0,93,42.09Z"/><path class="cls-2" d="M97.27,40.3l-1.92-1c-.69-.35-1.29.69-.6,1l1.92,1C97.36,41.7,98,40.65,97.27,40.3Z"/><path class="cls-2" d="M99.51,23.19q-1.57,1-3.09,2.11a.67.67,0,0,0-.73-.8l-2.64.39c-.77.11-.45,1.28.31,1.17l2.55-.37q-1.17.87-2.31,1.78c-.6.48.26,1.32.86.84a68.42,68.42,0,0,1,5.65-4.07C100.76,23.82,100.16,22.77,99.51,23.19Z"/><path class="cls-2" d="M94.49,29.12c-.54-.55-1.39.31-.84.86a16.45,16.45,0,0,1,4.69,10.44c0,.77,1.25.78,1.2,0A17.75,17.75,0,0,0,94.49,29.12Z"/><path class="cls-2" d="M100.81,26.43l-.7.6-.44-.91c-.34-.7-1.38-.09-1,.6l.53,1.11L97.84,29q-.37-.49-.72-1c-.43-.64-1.48,0-1,.6q.41.6.85,1.17l-.45.38c-.59.5.27,1.35.86.84l.34-.29q.61.72,1.28,1.39a7.44,7.44,0,0,1,1.5,0l1.34-1a.62.62,0,0,0,.22-.82.66.66,0,0,0-.51-.3l-.87-1.81,1-.88C102.25,26.78,101.39,25.93,100.81,26.43Zm-1.08,4.71q-.59-.6-1.13-1.24L99.7,29l.77,1.62-.62.45Z"/><path class="cls-2" d="M108.89,33.46a11.8,11.8,0,0,1-4.55,1.26,13.54,13.54,0,0,0-.32-2.91.61.61,0,0,0-1-.27,11.3,11.3,0,0,1-2.12,1.59.6.6,0,0,0,.6,1A12.64,12.64,0,0,0,103,33.11a11.19,11.19,0,0,1,.12,1.64,11.72,11.72,0,0,1-2-.23c-.76-.15-1.07,1-.31,1.16a13.25,13.25,0,0,0,2.18.26,5.36,5.36,0,0,1-1,2.47c-.46.61.39,1.46.86.84a6.94,6.94,0,0,0,1.34-3.33,13.13,13.13,0,0,0,5.24-1.42C110.18,34.15,109.58,33.11,108.89,33.46Z"/><path class="cls-2" d="M62,53.74a17.28,17.28,0,0,1-4.52,1.49q.91-.77,1.78-1.6c.56-.54-.3-1.38-.86-.84S57.13,54,56.47,54.52q-.19-.29-.4-.56.31-.25.64-.49c.63-.44,0-1.49-.6-1q-.45.32-.86.66-.22-.2-.46-.38l1.66-1.31c.61-.48-.26-1.32-.86-.84l-.93.74a12.23,12.23,0,0,0-.1-2.66c-.11-.77-1.28-.45-1.17.31a10.32,10.32,0,0,1,.05,2.54.52.52,0,0,0-.36-.22l-2.64-.48c-.76-.14-1.07,1-.31,1.16l2.64.48a.6.6,0,0,0,.58-.2.62.62,0,0,0,0,.1L51.8,53.55c-.61.48.26,1.32.86.84l1.14-.9a.59.59,0,0,0,.22.14l.33.26c-.22.21-.43.43-.63.66-.52.57.34,1.42.86.84q.29-.32.6-.62a6.16,6.16,0,0,1,.35.52q-.87.68-1.77,1.31c-.63.44,0,1.49.6,1l.84-.6a38.09,38.09,0,0,1-1.93,4.8c-.34.69.71,1.3,1,.6a40.21,40.21,0,0,0,2.26-5.73.6.6,0,0,0,0-.23.63.63,0,0,0,.36.05,18.42,18.42,0,0,0,5.67-1.75C63.31,54.44,62.7,53.4,62,53.74Z"/><path class="cls-2" d="M58.63,56.8l-2.12,1.61c-.61.46,0,1.51.6,1l2.12-1.61C59.85,57.38,59.25,56.33,58.63,56.8Z"/><path class="cls-2" d="M60.55,58.13a1.4,1.4,0,0,0-1.35.31c-.57.44-1.11.91-1.67,1.37s.27,1.33.86.84l.91-.75c.11-.09.66-.68.82-.64s.17.23.21.42a.58.58,0,0,0-.71.08l-1.49,1.39-.07.08c-.47-.14-1.06.34-.72.85l2.46,3.74a.61.61,0,0,0,1,.12,5.9,5.9,0,0,0,1.5-2.66A.6.6,0,0,0,61.08,63a4.67,4.67,0,0,1-.71,1.54L59.5,63.2a.63.63,0,0,0,.28-.14A11.93,11.93,0,0,0,61,61.86a.59.59,0,0,0,.66-.58C61.69,60.31,61.66,58.55,60.55,58.13Zm-.1,2.54-.1.1a11.94,11.94,0,0,1-1.43,1.45l0,0-.08-.13A.64.64,0,0,0,59,62l1.47-1.37Z"/><path class="cls-2" d="M66.27,60.43a9.37,9.37,0,0,1-2.87.87l.3-.89a.6.6,0,1,0-1.16-.31l-.48,1.4a.6.6,0,0,0,.35,1.08,10.88,10.88,0,0,0,4.46-1.11C67.57,61.14,67,60.1,66.27,60.43Z"/></g></g></svg>