<svg xmlns="http://www.w3.org/2000/svg" viewBox="0 0 114.58 83.16"><defs><style>.cls-1{fill:#d6cca1;}.cls-2{fill:#212020;}</style></defs><title>資產 12</title><g id="圖層_2" data-name="圖層 2"><g id="圖層_1-2" data-name="圖層 1"><path class="cls-1" d="M108,21.57c3.69,0,5.65,2.16,6.33,5.66,1,4.92-.61,10.59-4.84,13.54-3.48,2.43-8,2.78-12.11,2.29a30.13,30.13,0,0,1-6.62-1.6c-2-.72-3.77-1.9-5.73-2.71s-3.43-.26-5.13.83c-2.87,1.84-5.54,3.93-8.47,5.69a100.43,100.43,0,0,1-18,8.55c-2.48.89-5.89,1.28-7.92,3-1.43,1.25-1.85,3.09-2.28,4.85C41.81,67.6,39.82,73.58,35.46,78c-5.25,5.3-13.26,7.17-19.57,2.58-6-4.38-7.43-12.23-5-19a.53.53,0,0,0-.51-.68c-4,.34-7.46-2.1-9.24-5.6A11.09,11.09,0,0,1,2.9,43C8.95,35.86,19,36.23,27,39.38c1,.41,2.41,1.42,3.55,1.33.88-.07,2.62-1.73,3.39-2.23,1.14-.73,2.28-1.45,3.43-2.15q6-3.72,12.35-7A198.92,198.92,0,0,1,78.53,17.21a.53.53,0,0,0,.33-.3.52.52,0,0,0-.32-.73C73.8,13.92,76.88,6.19,80,3.69A18.67,18.67,0,0,1,93.47.12c4.54.53,8.91,3,10.86,7.24s1.44,9.44-2.05,12.67a.54.54,0,0,0,.11.84C104.24,21.71,106,21.57,108,21.57Z"/><path class="cls-2" d="M40.1,40.7q-1,.51-2.05,1.07h0a14.09,14.09,0,0,0,.71-3.42c.06-.75-1.1-.9-1.16-.15A12.85,12.85,0,0,1,37,41.33a.6.6,0,0,0,.47.79l-1.09.64a.6.6,0,0,0-.18-.59L33.83,40c-.55-.51-1.25.43-.7.94l2.32,2.15a.6.6,0,0,0,.14.1l-1.25.8c-.63.42.11,1.33.73.92a50.47,50.47,0,0,1,5.47-3.15C41.23,41.44,40.77,40.36,40.1,40.7Z"/><path class="cls-2" d="M41.64,46.55l-1.28.86,0-.08c-.22-.57-.47-1.13-.74-1.67l.64-.41c.63-.41-.09-1.33-.72-.93l-.48.3q-.3-.51-.63-1c-.42-.63-1.34.09-.93.72q.3.45.57.92l-1.3.83c-.63.41.09,1.33.72.93l1.13-.72q.36.73.65,1.49a.56.56,0,0,0,.18.25L37,49.64c-.63.42.09,1.34.72.93l4.64-3.09C43,47.05,42.26,46.13,41.64,46.55Z"/><path class="cls-2" d="M45.4,48.1l-3.69,2.18q-.12-.49-.29-1c-.25-.71-1.33-.26-1.08.45a10.45,10.45,0,0,1,.32,1.15L36,53.63c-.65.38.08,1.31.72.93l4.11-2.42a10.62,10.62,0,0,1-.69,4.93.59.59,0,0,0,1.08.45,11.81,11.81,0,0,0,.7-6L46.12,49C46.76,48.64,46,47.72,45.4,48.1Z"/><path class="cls-2" d="M47.75,53.4a16.27,16.27,0,0,1-4.64-1.75c-.66-.37-1.1.72-.45,1.08a17.24,17.24,0,0,0,4.93,1.83C48.33,54.71,48.49,53.55,47.75,53.4Z"/><path class="cls-2" d="M55.82,33.91c-.71-.62-1.64-.21-2.39.1s-1.3.58-1.93.91a.49.49,0,0,0-.36-.51A6.66,6.66,0,0,1,49,33.19c-.58-.49-1.29.45-.71.93a7.56,7.56,0,0,0,2.3,1.33,25.22,25.22,0,0,0-2.82,1.93.54.54,0,0,0-.2.6.62.62,0,0,0-.29.91l1.17,1.79c.41.63,1.34-.09.93-.72l-1-1.58.13-.08a23.41,23.41,0,0,1,3.82-2.47c.65-.33,1.32-.64,2-.91.19-.08.57-.28.75-.12s0,.75-.07,1c-.25.71.83,1.16,1.08.45S56.5,34.5,55.82,33.91Z"/><path class="cls-2" d="M50.78,38.74A10.88,10.88,0,0,1,49.22,43c-.4.63.53,1.35.93.71a12.28,12.28,0,0,0,1.79-4.77A.59.59,0,0,0,50.78,38.74Z"/><path class="cls-2" d="M57.9,37.6a38.81,38.81,0,0,1-4,.37c-.75,0-.61,1.19.14,1.16a38.82,38.82,0,0,0,4-.37A.59.59,0,0,0,57.9,37.6Z"/><path class="cls-2" d="M52.47,41.52a17.86,17.86,0,0,1-3,5.33c-.48.58.45,1.29.93.71A18.83,18.83,0,0,0,53.55,42C53.81,41.26,52.73,40.8,52.47,41.52Z"/><path class="cls-2" d="M60.57,40.28a21.23,21.23,0,0,1-5.36.53c-.75,0-.91,1.14-.16,1.16a22.36,22.36,0,0,0,5.66-.53C61.45,41.27,61.31,40.11,60.57,40.28Z"/><path class="cls-2" d="M60.19,46.09l-.57.3c.21-1.24,0-3.07-1.6-3.11a6,6,0,0,0-2.25.59,11.52,11.52,0,0,0-2.23,1.23c-.62.43.1,1.36.72.93a10.05,10.05,0,0,1,2.88-1.4c.44-.13,1-.36,1.28.12a2.24,2.24,0,0,1,0,1.5.52.52,0,0,0,.33.6,33.46,33.46,0,0,0-2.92,1.86L54.36,46.4c-.41-.63-1.34.09-.93.72l1.79,2.74a.49.49,0,0,0,.4.24.55.55,0,0,0,.46-.11,31.75,31.75,0,0,1,4.55-2.83C61.31,46.83,60.86,45.74,60.19,46.09Z"/><path class="cls-2" d="M63.3,28.65a39.09,39.09,0,0,1-2.79,3.77c-.48.58.45,1.29.93.71a39.09,39.09,0,0,0,2.79-3.77C64.64,28.73,63.71,28,63.3,28.65Z"/><path class="cls-2" d="M66.11,32.21l-1.61,1L64,32c-.3-.69-1.39-.25-1.08.45l.62,1.4-1.52,1c-.64.4.09,1.33.72.93L64,34.94l.34.73a.55.55,0,0,0-.64.63,10.41,10.41,0,0,1-.45,5.14c-.25.71.83,1.16,1.08.45A11.68,11.68,0,0,0,65,37q1.11,2.36,2.3,4.68c-.61,0-.7,1,0,1.18l1,.21a.59.59,0,0,0,.62-.8q-2-3.93-3.87-8l1.84-1.17C67.46,32.73,66.74,31.81,66.11,32.21Z"/><path class="cls-2" d="M70.26,36l-3.5-.43a.59.59,0,0,0-.16,1.16l3.5.43A.59.59,0,0,0,70.26,36Z"/><path class="cls-2" d="M71.82,26.59a2.87,2.87,0,0,0-3.73,1c-.47.59.46,1.3.93.71a1.84,1.84,0,0,1,1.92-.85.75.75,0,0,1,.32,1.34.58.58,0,0,0,.27,1,11,11,0,0,0-2,1.21.58.58,0,0,0-.06-.56l-1.28-1.91c-.42-.63-1.35.09-.93.72l1.28,1.91a.51.51,0,0,0,.76.12.6.6,0,0,0,.91.67A9.5,9.5,0,0,1,72,30.9a.61.61,0,0,0-.1-1.13l.07,0A1.9,1.9,0,0,0,71.82,26.59Z"/><path class="cls-2" d="M72.18,32.47l-1.66,2.37c-.43.62.5,1.33.93.71l1.66-2.37C73.54,32.57,72.61,31.85,72.18,32.47Z"/><path class="cls-2" d="M78.2,35q-1.69.82-3.32,1.74l-.66-1.38.5-.38a.59.59,0,0,0-.72-.93l-.36.27c-.43-.32-1.18.09-.9.67h0l-.73.56a.59.59,0,0,0,.72.93l.53-.4.6,1.24q-1.15.68-2.27,1.4c-.63.41.09,1.33.72.93a58.18,58.18,0,0,1,6.34-3.56C79.32,35.77,78.88,34.68,78.2,35Z"/><path class="cls-2" d="M82.07,20.34q-.7.54-1.43,1.06a.6.6,0,0,0-.51-.59l-1.92-.41a.59.59,0,0,0-.66.5.6.6,0,0,0,.5.66l1.8.39q-1.45,1-3,1.88c-.65.38.07,1.3.72.93a48.56,48.56,0,0,0,5.17-3.49A.59.59,0,0,0,82.07,20.34Z"/><path class="cls-2" d="M78.32,25.42c-.44-.61-1.36.1-.93.72A17,17,0,0,1,80.53,36c0,.75,1.16.6,1.16-.14A18.09,18.09,0,0,0,78.32,25.42Z"/><path class="cls-2" d="M83.61,23.67l-.16.13-.17-.25c-.44-.61-1.37.11-.93.72l.15.23q-.67.47-1.38.87L81,25.21c-.49-.43-1.08.2-.88.7l-.06,0c-.68.33-.23,1.41.45,1.08l.44-.22A7.07,7.07,0,0,1,82,28.56a.6.6,0,0,0,.94.19.54.54,0,0,0,.4-.13l.23-.18a.61.61,0,0,0,.52-.41l.17-.13a.57.57,0,0,0,0-.9A5.31,5.31,0,0,0,84,24.87l.35-.27C84.92,24.12,84.2,23.19,83.61,23.67ZM83,25.59a4.29,4.29,0,0,1,.09,1.79l-.23.18A8.37,8.37,0,0,0,82,26.24Q82.48,25.93,83,25.59Z"/><path class="cls-2" d="M89.76,30.2a18.22,18.22,0,0,1-3.45.2,10.51,10.51,0,0,0,.3-2c0-.41-.37-.84-.8-.62a6,6,0,0,0-2.28,1.93.56.56,0,0,0-.11.42.6.6,0,0,0,.07,1.16q.62.12,1.24.19a9.63,9.63,0,0,1-1.62,2.64c-.49.57.44,1.28.93.71A10.64,10.64,0,0,0,86,31.56a19.23,19.23,0,0,0,3.95-.19C90.64,31.25,90.5,30.09,89.76,30.2Zm-5.19,0a4.94,4.94,0,0,1,.74-.78c-.05.29-.11.57-.19.85Z"/></g></g></svg>