<svg xmlns="http://www.w3.org/2000/svg" viewBox="0 0 120.73 56.65"><defs><style>.cls-1{fill:#fefcee;}.cls-2{fill:#212020;stroke:#212020;stroke-miterlimit:10;stroke-width:0.5px;}</style></defs><title>資產 11</title><g id="圖層_2" data-name="圖層 2"><g id="圖層_1-2" data-name="圖層 1"><path class="cls-1" d="M116.25,38.5c3.32,2,3.92,5,2.64,8.54-1.81,5-6.29,9.22-11.7,9.59-4.46.3-8.74-1.83-12.17-4.5a31.7,31.7,0,0,1-5.11-5c-1.43-1.74-2.37-3.76-3.7-5.55s-3-2.09-5.08-2c-3.58.1-7.13.54-10.72.54a105.67,105.67,0,0,1-20.84-2c-2.72-.54-6-2-8.79-1.54-2,.35-3.34,1.78-4.69,3.14-4.47,4.52-9.51,8.84-15.82,10.45-7.61,1.93-15.84-.72-19-8.28C-1.84,34.58,1.14,26.73,7,21.95a.56.56,0,0,0-.09-.88C3.08,19.2,1.29,15.13,1.58,11A11.66,11.66,0,0,1,9.83.91C19.18-2.3,28,3.47,33.57,10.67c.72.94,1.4,2.59,2.48,3.12.84.41,3.3-.14,4.26-.17,1.42,0,2.85-.07,4.26-.08q7.47-.07,14.92.4A209.32,209.32,0,0,1,92,18.6a.55.55,0,0,0,.46-.09.55.55,0,0,0,.11-.83c-3.05-4.6,3.92-9.9,8.1-10.45a19.65,19.65,0,0,1,14.06,4.07c3.81,2.94,6.43,7.51,5.88,12.42S116.84,33,111.93,34a.56.56,0,0,0-.36.81C112.79,36.6,114.45,37.41,116.25,38.5Z"/><path class="cls-2" d="M39.4,17.32A1.92,1.92,0,0,0,38,16.85c-.7,0-1.41.36-2.1.12-.44-.16-.71.53-.26.68a3,3,0,0,0,1.59,0,2.71,2.71,0,0,1,1.36,0c.53.18.5.65.46,1.13q0,.43-.1.85,0,.21-.08.42l-.06.28v0a.36.36,0,0,0-.18.28.44.44,0,0,0,.19.41.38.38,0,0,0,.45,0c.26-.17.28-.57.34-.86a10.78,10.78,0,0,0,.17-1.13A2.06,2.06,0,0,0,39.4,17.32Z"/><path class="cls-2" d="M40.69,22.21a.88.88,0,0,0-.41-.82,2.62,2.62,0,0,0-1.17-.12q-.81,0-1.61,0a.31.31,0,0,0,0-.28,4.55,4.55,0,0,1-.11-1.66l1.11,0c.47,0,.55-.74.07-.73l-1.46,0a.38.38,0,0,0-.4.33,5.09,5.09,0,0,0,.07,2.18.37.37,0,0,0,.11.19q-.75.06-1.5.16a.31.31,0,0,0,.06-.29,6.26,6.26,0,0,1,0-3c.11-.45-.57-.72-.68-.26a7,7,0,0,0,0,3.4.36.36,0,0,0,.18.24q-.65.1-1.29.23a.36.36,0,0,0-.29.42.36.36,0,0,0-.56.27,4.31,4.31,0,0,1-.44,1.13c-.23.41.36.84.59.43a5.54,5.54,0,0,0,.58-1.49.25.25,0,0,0,0-.07.34.34,0,0,0,.23,0A26.36,26.36,0,0,1,38,22L39,22h.55c.05,0,.3,0,.34,0s0,.62-.06.76a1.6,1.6,0,0,1-.51.71.37.37,0,0,0,.46.57A2.32,2.32,0,0,0,40.69,22.21Z"/><path class="cls-2" d="M38.51,25.51c0-.64.22-1.75-.47-2.12a1.58,1.58,0,0,0-1.11,0,7.77,7.77,0,0,0-1.24.41.41.41,0,0,0-.58.38,24.49,24.49,0,0,1-.63,6.44c-.11.46.62.53.73.07a24.5,24.5,0,0,0,.44-2.43.35.35,0,0,0,.44.13l1.64-.7q0,1.46-.13,2.92a3.77,3.77,0,0,1-.32-.56.37.37,0,0,0-.67.31,4.4,4.4,0,0,0,1.08,1.46.37.37,0,0,0,.58-.26Q38.47,28.53,38.51,25.51Zm-2.61-1A6.7,6.7,0,0,1,37,24.12c.26-.06.73-.25.79.12a6.44,6.44,0,0,1,0,1.13c0,.19,0,.38,0,.57l-1.48-.62a.33.33,0,0,0-.45.19q0-.49,0-1Zm-.12,3.22-.08,0q.1-1,.14-2A.35.35,0,0,0,36,26l1.69.71h0v.15Z"/><path class="cls-2" d="M45.75,19.43a1.68,1.68,0,0,0-.88-.36q.11-.73.18-1.46a.37.37,0,0,0-.73-.07q-.08.77-.2,1.55c-.26,0-.51.12-.77.19a7.11,7.11,0,0,0,0-1.36c-.06-.47-.79-.34-.72.12a6.75,6.75,0,0,1,0,1.37h-.2a.37.37,0,0,0-.07.73h.22v0l0,.6-.44,0q0-.8-.11-1.59c0-.47-.76-.35-.72.12q.15,1.7.15,3.4c0,.37.52.57.69.22a.35.35,0,0,0,.42.36,20.78,20.78,0,0,1,2.09-.26.38.38,0,0,0,.16,0l.16,0a.31.31,0,0,0,.5-.06,5.74,5.74,0,0,0,.7-1.94A1.66,1.66,0,0,0,45.75,19.43Zm-.84,1.17-.3,0q.08-.42.15-.83a1.23,1.23,0,0,1,.26.06c.52.18.46.67.38,1.14A4.68,4.68,0,0,1,45,22.32h0l-.71,0c.08-.33.15-.67.22-1l.57,0C45.5,21.28,45.38,20.56,44.91,20.59Zm-1.69.87.49,0c-.07.33-.14.66-.22,1v0l-.34,0a.38.38,0,0,0,0-.12Zm.56-1.55.23-.06q-.07.41-.15.82l-.59,0,0-.61V20ZM42.39,22.6a.34.34,0,0,0-.23.14.35.35,0,0,0,0-.14q0-.53,0-1.05l.37,0,0,.77a.35.35,0,0,0,.11.29Z"/><path class="cls-2" d="M45,24.43a.37.37,0,0,0-.4-.21,8.59,8.59,0,0,1-2.24.25c-.47,0-.55.72-.07.73A9.43,9.43,0,0,0,44.4,25a.37.37,0,0,0,.27.07A.47.47,0,0,0,45,24.43Z"/><path class="cls-2" d="M44.8,26a1.86,1.86,0,0,0-1.3-.2A4.48,4.48,0,0,0,42,26.2a.33.33,0,0,0-.2.22c-.18-.36-.8-.23-.69.2l.39,1.51a.37.37,0,0,0,.35.29.36.36,0,0,0,.38.22l2.07-.23a.35.35,0,0,0,.23-.55C45,27.3,45.36,26.5,44.8,26ZM42.23,27.9l-.29-1.11a.34.34,0,0,0,.4.07,3.52,3.52,0,0,1,1.83-.32c.27,0,.16.23.07.44a3.78,3.78,0,0,1-.49.75Z"/><path class="cls-2" d="M46,31.54l-.82-.08-.23-.08a.33.33,0,0,0-.32,0l-.69-.05a2.88,2.88,0,0,0,.74-2c0-.47-.74-.54-.73-.07a2.21,2.21,0,0,1-.7,1.7.36.36,0,0,0-.12.3h-.86a.34.34,0,0,0,.13-.34l0-.26a.38.38,0,0,0,0-.12l-.23-1.07c-.1-.46-.82-.34-.72.12l.31,1.45a.36.36,0,0,0,.15.23,2.52,2.52,0,0,1-1.34-.14c-.41-.23-.84.36-.43.59a5.59,5.59,0,0,0,2.74.27c.76,0,1.52.07,2.27.14a3.16,3.16,0,0,0,1,.08C46.41,32.25,46.36,31.58,46,31.54Z"/><path class="cls-2" d="M52.47,23.83c-.35-.44-1-.27-1.44-.21l-2.2.3a1.63,1.63,0,0,0-.78.49,14.85,14.85,0,0,1,.28,2.37.46.46,0,0,0,.77.31.36.36,0,0,0,.35.49l2.21,0c.48,0,.6-.66.24-.81a6.28,6.28,0,0,0,.55-1.36C52.58,24.95,52.81,24.25,52.47,23.83Zm-3.31,3.11a.45.45,0,0,0,0-.09,16.6,16.6,0,0,0-.2-2.11h0l1.41-.19.78-.11c.14,0,.5-.13.63-.07h0a.1.1,0,0,0,0,0,1.47,1.47,0,0,1-.05.36,5.22,5.22,0,0,1-.18.7,5.78,5.78,0,0,1-.6,1.27H49.54A.42.42,0,0,0,49.16,26.94Z"/><path class="cls-2" d="M62.66,31.08a21,21,0,0,1-4.11-2.43.4.4,0,0,0-.62.17L58.07,26q1.24,0,2.47.06a.41.41,0,0,0,.47.12l.31-.12a.42.42,0,0,0-.13-.8q-1.54-.1-3.08-.1l.13-2.49h.29a.33.33,0,0,0,.39.13l.53-.15c.41-.11.48-.84,0-.83l-1.14,0a11.22,11.22,0,0,0-.06-3.42c-.13-.52-1-.38-.83.14a10.69,10.69,0,0,1,0,3.29l-2.54.05c-.53,0-.62.85-.08.84l2.58-.05-.13,2.48q-1.68,0-3.37.17c-.54,0-.39.87.14.83Q55.64,26,57.23,26l0,.75a.39.39,0,0,0-.22.1l-2.26,2a5,5,0,0,1-2.1,1.43c-.53.11-.39.94.14.83A5.06,5.06,0,0,0,55,29.76l2.14-1.92-.08,1.48a23.42,23.42,0,0,1-.19,2.55c-.24-.36-.89,0-.72.44a2.3,2.3,0,0,0,.57.88.43.43,0,0,0,.72-.11,14.3,14.3,0,0,0,.44-3.51l0-.42a.41.41,0,0,0,.14.18,22,22,0,0,0,4.31,2.54C62.85,32.09,63.15,31.3,62.66,31.08Z"/><path class="cls-2" d="M68.53,20a9.73,9.73,0,0,1-2.3,1c-.51.15-.38,1,.14.83a10.5,10.5,0,0,0,2.5-1.09C69.33,20.46,69,19.69,68.53,20Z"/><path class="cls-2" d="M70.54,24.4a8.69,8.69,0,0,0-2.73-.11c0-.34.07-.67.1-1a.42.42,0,0,0-.84-.08q-.06.58-.12,1.16a8.76,8.76,0,0,1-2.42-.08c-.53-.11-.61.73-.08.84a8.39,8.39,0,0,0,2.44,0q-.07.75-.12,1.49a.38.38,0,0,0-.54.11,10.09,10.09,0,0,1-2.36,2.48c-.43.32.1,1,.53.65a10.78,10.78,0,0,0,2.31-2.36q-.14,2.25-.18,4.51c-.22-.37-.87,0-.72.44a3.7,3.7,0,0,0,.8,1.39c.22.24.74.17.74-.22q0-4.29.39-8.57a7.78,7.78,0,0,1,2.5.09C70.75,25.31,71.06,24.53,70.54,24.4Z"/><path class="cls-2" d="M71.87,29.92a12.37,12.37,0,0,1-3.36-2.05c-.41-.35-.9.33-.49.68a13.1,13.1,0,0,0,3.55,2.15A.42.42,0,0,0,71.87,29.92Z"/><path class="cls-2" d="M76.38,22a2.61,2.61,0,0,0-1.51-.5,5.4,5.4,0,0,0-1.95.15.45.45,0,0,0-.31.57.44.44,0,0,0-.74.36l.31,2.58c.06.54.89.4.83-.14l-.31-2.58v-.06a.34.34,0,0,0,.37.11,4.4,4.4,0,0,1,2.46,0c.15,0,.27.08.29.23a1.11,1.11,0,0,1-.15.51,2.29,2.29,0,0,1-.76.9.39.39,0,0,0-.14.18,3.66,3.66,0,0,0-1,.08c-.53.12-.39.94.14.83a2.93,2.93,0,0,1,1.33,0,.43.43,0,0,0,.54-.24.46.46,0,0,0-.06-.42C76.37,23.91,77.11,22.71,76.38,22Z"/><path class="cls-2" d="M74.68,26.31a6.53,6.53,0,0,1-1.74.8c-.51.15-.38,1,.14.83a7.86,7.86,0,0,0,2.13-1C75.67,26.67,75.13,26,74.68,26.31Z"/><path class="cls-2" d="M79,33a.65.65,0,0,0-.43-.42.4.4,0,0,0-.32,0,15.51,15.51,0,0,0-4.13-.77l.11-1.73,1.39-.06c.54,0,.39-.85-.14-.83l-1.2.05,0-.71c0-.54-.8-.62-.84-.08l-.05.83-.64,0c-.54,0-.39.85.14.83l.45,0-.11,1.67A15.52,15.52,0,0,0,71,32a.42.42,0,0,0,.14.83,14.61,14.61,0,0,1,7.33.75A.43.43,0,0,0,79,33Z"/><path class="cls-2" d="M85.86,21.86l-1.52-1.29c-.41-.35-.9.33-.49.68l1.52,1.29C85.78,22.89,86.27,22.21,85.86,21.86Z"/><path class="cls-2" d="M89.32,22.94a39.41,39.41,0,0,0-7.1-.07c-.54,0-.39.87.14.83a38.16,38.16,0,0,1,6.87.08A.42.42,0,0,0,89.32,22.94Z"/><path class="cls-2" d="M82.52,24.2c0-.53-.84-.62-.84-.08A22.31,22.31,0,0,1,81,29.29c-.32,1.44-.53,3.17-1.55,4.31-.36.4.32.89.68.49,1.06-1.18,1.3-2.91,1.64-4.4A23.19,23.19,0,0,0,82.52,24.2Z"/><path class="cls-2" d="M88.1,25.19h-.17c0-.11,0-.22,0-.33a.42.42,0,0,0-.84-.08c0,.14,0,.28-.05.41l-2.38,0q0-.25,0-.51c0-.54-.86-.39-.83.14,0,.11,0,.23,0,.34h-.31c-.54,0-.62.81-.08.84l.43,0q0,1.08,0,2.16a.44.44,0,0,0,.46.45.4.4,0,0,0,.39.16,8.23,8.23,0,0,1,1.67-.05.43.43,0,0,0,.41-.62,6.58,6.58,0,0,0,.93-2H88C88.55,26,88.64,25.19,88.1,25.19Zm-3.35,2.69q0-.95,0-1.89l2.15,0A5.82,5.82,0,0,1,86,27.81,9.39,9.39,0,0,0,84.75,27.88Z"/><path class="cls-2" d="M90.36,34.77a17.39,17.39,0,0,1-4.21-2A5.16,5.16,0,0,0,86.7,32c.31-.52.6-1.45,0-1.9a1.18,1.18,0,0,0-1-.06l-1.36.26a.42.42,0,0,0,.14.83l.91-.18c.16,0,.69-.21.79-.1s-.18.65-.26.77a4.91,4.91,0,0,1-.5.63l-.69-.53c-.42-.34-.91.34-.49.68l.56.43a6.37,6.37,0,0,1-2,1.08c-.51.17-.16.93.35.76a7.14,7.14,0,0,0,2.39-1.34,18,18,0,0,0,4.52,2.2C90.57,35.72,90.88,34.94,90.36,34.77Z"/></g></g></svg>