<svg xmlns="http://www.w3.org/2000/svg" viewBox="0 0 136.63 57.64"><defs><style>.cls-1{fill:#fefcee;}.cls-2{fill:#212020;}</style></defs><title>資產 16</title><g id="圖層_2" data-name="圖層 2"><g id="圖層_1-2" data-name="圖層 1"><path class="cls-1" d="M132.41,34.39c3.95,2,4.91,5.31,3.78,9.42-1.58,5.77-6.26,11-12.36,11.95-5,.75-10.07-1.26-14.2-4a36,36,0,0,1-6.25-5.22c-1.78-1.84-3-4-4.7-5.94s-3.54-2.09-5.94-1.83c-4,.45-8,1.27-12.09,1.61a120.07,120.07,0,0,1-23.79-.36c-3.13-.36-7-1.75-10.1-.93-2.19.58-3.62,2.33-5,4C37.09,48.66,31.79,54,24.79,56.43c-8.44,2.9-18,.66-22.34-7.6-4.13-7.88-1.49-17,4.67-23a.64.64,0,0,0-.18-1C2.46,23.07.05,18.63,0,13.94c-.06-5.51,3.44-10,8.4-12.21,10.29-4.49,20.84,1.21,27.79,8.85.9,1,1.83,2.8,3.1,3.31,1,.39,3.72-.47,4.81-.59,1.61-.18,3.22-.34,4.82-.49q8.45-.78,16.94-.94a237.83,237.83,0,0,1,37.28,2.25.63.63,0,0,0,.51-.15.62.62,0,0,0,0-1C99.82,8.07,107.22,1.43,111.9.41a22.33,22.33,0,0,1,16.3,3.3c4.59,3,8,7.9,7.81,13.51s-3.46,10.88-8.91,12.49a.64.64,0,0,0-.33,1C128.31,32.56,130.27,33.33,132.41,34.39Z"/><path class="cls-2" d="M52.79,32.64a50.07,50.07,0,0,1-6.93-7,.65.65,0,0,0-.13-.12l0-.17q3.23.07,6.45-.11c.77,0,.63-1.11-.14-1.06q-3,.16-6,.11c.32-1.36.55-2.74.88-4,.17-.66-1-.87-1.2-.21-.33,1.32-.56,2.78-.89,4.2q-2.26-.07-4.53-.26c-.77-.06-1,1-.18,1q2.22.18,4.44.26a8.23,8.23,0,0,1-3.83,5.36c-.65.36.07,1.24.72.89a8.48,8.48,0,0,0,3.88-4.79A51.81,51.81,0,0,0,52,33.44C52.61,33.93,53.37,33.12,52.79,32.64Z"/><path class="cls-2" d="M53.89,22.15A16.1,16.1,0,0,1,52,19.25c-.32-.63-1.45-.29-1.12.35a17.47,17.47,0,0,0,2,3.15C53.38,23.32,54.35,22.73,53.89,22.15Z"/><path class="cls-2" d="M61.26,24.39c-1.05-1.46-3.13-1.68-4.78-1.18a.51.51,0,0,0-.32.23.45.45,0,0,0-.38.4,19.76,19.76,0,0,0-.1,3.16q0,.81.15,1.61c.06.42.05.88.47,1.16a.69.69,0,0,0,.74,0,.87.87,0,0,0,.19-.17h2.64a.46.46,0,0,0,.51-.53.58.58,0,0,0,.13-.13C61.4,27.77,62.3,25.84,61.26,24.39ZM57.2,28.61a.68.68,0,0,0-.2,0c0-.27,0-.61,0-.69q-.07-.66-.09-1.31A17.74,17.74,0,0,1,57,24.21c1.18-.34,2.8-.25,3.41.93a2.1,2.1,0,0,1,0,1.6,6.39,6.39,0,0,1-.92,1.8l0,.08Z"/><path class="cls-2" d="M69.79,32.67c-.39-4.32-.69-8.65-1.33-13-.1-.68-1.3-.61-1.2.08.31,2.09.54,4.18.74,6.28a.57.57,0,0,0-.54-.05,8.69,8.69,0,0,1-2,.51c-.31,0-.62.05-.93.06a.25.25,0,0,0-.11,0,.19.19,0,0,0,0-.08c-.07-.12,0-.38,0-.51a34,34,0,0,1,.17-4c.07-.68-1.13-.89-1.2-.21q-.14,1.42-.17,2.85c0,.39,0,.78,0,1.16a3.28,3.28,0,0,0,.1,1.22c.3.72,1.24.68,1.93.63A9.88,9.88,0,0,0,67.9,27a.63.63,0,0,0,.17-.1c.18,1.94.33,3.88.51,5.82C68.65,33.43,69.85,33.35,69.79,32.67Z"/><path class="cls-2" d="M81.35,29.25,77.9,26.74a.67.67,0,0,0-.3-.12c-.06-.68-.13-1.35-.24-2L79,24.34a.54.54,0,1,0-.14-1.06l-1.71.27a15.78,15.78,0,0,0-.46-1.66.51.51,0,0,0-.47-.35,11.63,11.63,0,0,0,1.29-1.07c.52-.5-.43-1.2-.94-.71a10.72,10.72,0,0,1-2.77,1.91c-.67.33.05,1.21.72.89.36-.17.7-.36,1-.57a.5.5,0,0,0,0,.25,14.29,14.29,0,0,1,.42,1.5l-2.65.41a.54.54,0,1,0,.14,1.06l2.71-.42c0,.11,0,.21,0,.32a.56.56,0,0,0-.84.19,8.86,8.86,0,0,1-2.53,3.43c-.55.46.4,1.17.94.71a9.57,9.57,0,0,0,2.56-3.34c.06.55.1,1.1.13,1.65.05.89.08,1.78.12,2.68,0,.45,0,.89.08,1.34q0,.38.07.76l0,.23a.46.46,0,0,0-.2.23c-.4,1,1.44,1.3,1.45.15,0-.6-.13-1.23-.17-1.84s-.07-1.28-.1-1.91c0-.48,0-1-.07-1.44l2.9,2.1C81.21,30.49,82,29.7,81.35,29.25Z"/><path class="cls-2" d="M86,23.21c.76-1,1.23-2.32.11-3.33-1.27-1.14-3.09-.74-4.52-.27-.72.24-.27,1.25.45,1,.92-.3,2.13-.74,3.07-.14s.21,1.75-.32,2.34a.47.47,0,0,0-.13.29l-2.43,0h-.13l-.8-2.43c-.22-.67-1.34-.32-1.12.35l1,3a.61.61,0,0,0,1,.13l.18,0,3.37-.06A.51.51,0,0,0,86,23.21Z"/><path class="cls-2" d="M85.06,25a18.29,18.29,0,0,1-3,1.32c-.71.24-.27,1.25.45,1a20,20,0,0,0,3.24-1.44C86.42,25.49,85.71,24.6,85.06,25Z"/><path class="cls-2" d="M89.28,30.47q-1.83-.08-3.66,0a9,9,0,0,0,.16-1.55q.87,0,1.75,0c.78,0,.63-1.06-.14-1.06l-1.66,0c0-.2,0-.39-.08-.59-.11-.68-1.31-.61-1.2.08,0,.19.05.38.07.57L83,28a.54.54,0,1,0,.14,1.06L84.56,29a8.29,8.29,0,0,1-.2,1.55q-1.37.08-2.73.23a.54.54,0,1,0,.14,1.06,48.63,48.63,0,0,1,7.64-.26C90.19,31.57,90,30.5,89.28,30.47Z"/><path class="cls-2" d="M101.81,20.53q-1.55,0-3.1.14a.51.51,0,0,0-.17-.87,9.18,9.18,0,0,1-2-1.21c-.59-.47-1.35.33-.76.8A10.49,10.49,0,0,0,98,20.73q-2.12.17-4.21.46a.54.54,0,0,0-.12,1.05.53.53,0,0,0-.41.68,9.16,9.16,0,0,1-1.38,8.54c-.42.55.51,1.26.94.71a10.19,10.19,0,0,0,1.57-9.6.5.5,0,0,0-.35-.33,68.49,68.49,0,0,1,7.93-.64C102.73,21.58,102.58,20.51,101.81,20.53Z"/><path class="cls-2" d="M101,23.34l-.67,0q0-.5-.12-1c-.11-.68-1.31-.61-1.2.08q.08.49.12,1l-2.19.11-.06-.28c-.14-.67-1.35-.6-1.2.08l.06.28c-.59.16-.43,1,.26,1a24,24,0,0,0,.79,2.39.63.63,0,0,0,1,.16.66.66,0,0,0,.29,0L100,27a.54.54,0,0,0,.31-1,15.28,15.28,0,0,0,.06-1.62l.76,0C101.9,24.36,101.76,23.3,101,23.34Zm-3,2.84a.66.66,0,0,0-.23.07q-.3-.81-.53-1.64l2-.1A13.9,13.9,0,0,1,99.09,26Z"/><path class="cls-2" d="M102.57,31.66a23.42,23.42,0,0,1-2.4-1.25,8.37,8.37,0,0,0,1.42-2.09.55.55,0,0,0-.46-.76,11.92,11.92,0,0,0-3.78.36c-.52.14-.45.69-.1.92a.49.49,0,0,0-.06.85q.57.44,1.16.84a8.65,8.65,0,0,1-2.41,1.37c-.7.26-.26,1.27.45,1a10.08,10.08,0,0,0,3-1.73,25,25,0,0,0,2.72,1.43A.54.54,0,1,0,102.57,31.66ZM97.95,28.9h0a10.14,10.14,0,0,1,2.12-.3,7.7,7.7,0,0,1-.9,1.17Q98.54,29.36,97.95,28.9Z"/></g></g></svg>