<svg xmlns="http://www.w3.org/2000/svg" viewBox="0 0 111.63 61.78"><defs><style>.cls-1{fill:#fefcee;}.cls-2{fill:#212020;}</style></defs><title>資產 15</title><g id="圖層_2" data-name="圖層 2"><g id="圖層_1-2" data-name="圖層 1"><path class="cls-1" d="M107.12,24.55c3.41.89,4.71,3.35,4.49,6.75-.3,4.77-3.1,9.64-7.72,11.36-3.8,1.41-8.08.66-11.75-.78a28.78,28.78,0,0,1-5.74-3.06c-1.69-1.15-3-2.66-4.65-3.88s-3.11-1.06-4.94-.46c-3.09,1-6.07,2.3-9.19,3.23A95.92,95.92,0,0,1,49,41.31c-2.5.23-5.75-.23-8.05.92-1.62.81-2.45,2.41-3.27,3.94-2.72,5.09-6,10.15-11.08,13.17C20.43,63,12.58,62.8,7.84,57,3.33,51.56,3.9,44,7.75,38.29a.51.51,0,0,0-.31-.75A9.16,9.16,0,0,1,.24,30.16,10.59,10.59,0,0,1,4.81,19.24C12.13,14,21.31,16.79,28,21.62c.87.63,1.89,1.89,3,2.08.84.14,2.84-1,3.66-1.25,1.23-.4,2.46-.79,3.69-1.17q6.48-2,13.09-3.5a190,190,0,0,1,29.52-4.33.5.5,0,0,0,.38-.2.49.49,0,0,0-.12-.75C77.34,9.29,82,2.88,85.54,1.32a17.84,17.84,0,0,1,13.29-.08c4.07,1.58,7.53,4.88,8.31,9.29s-.93,9.08-4.93,11.22a.51.51,0,0,0-.1.8C103.62,23.78,105.27,24.07,107.12,24.55Z"/><path class="cls-2" d="M46.92,22.85a7.15,7.15,0,0,0-3.53.61l-4.13,1.27a.4.4,0,0,0-.3.46.55.55,0,0,0-.73.67,12.34,12.34,0,0,0,1.43,2.92c.36.55,1.16-.09.79-.64a11.29,11.29,0,0,1-1.24-2.55.52.52,0,0,0,.46.07l3.07-.95a26.88,26.88,0,0,1,2.87-.84c.72-.14,1.74-.11,2.08.69A2.12,2.12,0,0,1,47,26.71c-.46.46.18,1.27.64.8a3.44,3.44,0,0,0,1.11-2.69A2.28,2.28,0,0,0,46.92,22.85Z"/><path class="cls-2" d="M49.39,33.2q-1.6.35-3.18.83L46,33.45q.4-.12.81-.22a.53.53,0,0,0,.21-.1.42.42,0,0,0,.57-.3c.37-1.29.66-3.05-.75-3.85A2.34,2.34,0,0,0,45,29q-.17-.9-.31-1.8l1.24-.25c.64-.13.49-1.15-.15-1l-1.24.25,0-.19a.51.51,0,0,0-1,.15l0,.24-1.19.24c-.64.13-.49,1.15.15,1l1.19-.24q.15,1,.34,1.94a11.07,11.07,0,0,0-1.56.78.55.55,0,0,0-.26.57.48.48,0,0,0-.5.7l1.11,2.14c.3.58,1.24.17.93-.41l-.24-.46.14,0q.49-.22,1-.41l.16.63-.66.27a.52.52,0,0,0,.41.94l.51-.22.16.55q-1.65.54-3.25,1.22a.52.52,0,0,0,.41.94q1.54-.65,3.13-1.18.3,1,.63,1.91c.22.62,1.15.21.93-.41s-.41-1.2-.6-1.8q1.5-.45,3-.8C50.17,34.08,50,33.06,49.39,33.2Zm-3.3-3.41a.84.84,0,0,1,.8.74.45.45,0,0,0-.3,0q-.61.14-1.21.32-.1-.45-.19-.9A2.32,2.32,0,0,1,46.09,29.79Zm-2.85,1.84a.51.51,0,0,0-.18.13l-.35-.67a.5.5,0,0,0,.16-.06,11.07,11.07,0,0,1,1.35-.7q.09.42.19.83Q43.82,31.37,43.24,31.63Zm2.38.2q.56-.17,1.12-.3l.15-.06a6.32,6.32,0,0,1-.15.73h0q-.47.11-.93.25Z"/><path class="cls-2" d="M38.78,31.57l-1.3-1.24a.51.51,0,0,0-.71.11.53.53,0,0,0,.11.72l1.3,1.24a.51.51,0,0,0,.71-.11A.53.53,0,0,0,38.78,31.57Z"/><path class="cls-2" d="M52.3,35.8a19.12,19.12,0,0,1-7.17,2,33,33,0,0,1-3.7.11l-1.49-.05a1,1,0,0,0,0-.91,3,3,0,0,0-.94-.76,2.09,2.09,0,0,0-1.06-2.8.51.51,0,0,0-.38,1A1.06,1.06,0,0,1,38,35.93a.53.53,0,0,0,.13.88,4.88,4.88,0,0,1,.9.6,1,1,0,0,1-.3.42,7.17,7.17,0,0,0-1.1.15c-.45.1-.64.82-.11,1A2,2,0,0,0,39,38.84c.89,0,1.79,0,2.68,0a34.44,34.44,0,0,0,3.79-.14,19.76,19.76,0,0,0,7.24-2C53.29,36.44,52.89,35.49,52.3,35.8Z"/><path class="cls-2" d="M65,23.38a4.19,4.19,0,0,0-1.59.49c-.09-1.14-.22-2.28-.35-3.4-.08-.66-1.08-.48-1,.18.14,1.21.29,2.43.37,3.66L60.94,25c-.6.27-.16,1.2.44.93l1.12-.51a15.11,15.11,0,0,1-1.37,7.41.47.47,0,0,0-.51-.06q-1.21.55-2.36,1.22l-.35-1q.4-.2.83-.37c.61-.24.17-1.17-.44-.93-.25.1-.48.2-.72.32q-.16-.5-.32-1l.74-.21a.55.55,0,0,0,.22-.93c.62-1.06,1.11-2.67-.29-3.35a2.15,2.15,0,0,0-1.84,0Q56,26,55.85,25.43L58,24.69c.62-.21.17-1.14-.44-.93l-1.93.66q-.11-.63-.22-1.27a.47.47,0,0,0-.59-.4,6.69,6.69,0,0,0,.57-.92.51.51,0,1,0-1-.36,5,5,0,0,1-1.61,1.81c-.54.38.13,1.16.66.79a5.67,5.67,0,0,0,.92-.81.6.6,0,0,0,0,.07q.11.72.24,1.43l-2.16.73c-.62.21-.17,1.14.44.93l1.91-.65q.13.64.27,1.27c-.33.19-.66.39-1,.55a.48.48,0,0,0-.23.21.53.53,0,0,0-.54.73l1,2.39a.47.47,0,0,0,.72.2.51.51,0,0,0,.72.48l.45-.2c.12.38.24.76.37,1.14l-.55.37c-.53.38.13,1.16.66.79l.23-.16.36,1-1,.64c-.54.37.12,1.15.66.79a27.69,27.69,0,0,1,4-2.24.48.48,0,0,0,.23-.2.56.56,0,0,0,.76-.23A16.2,16.2,0,0,0,63.5,25l.9-.38c.41-.16.95-.33,1.19.16a3.83,3.83,0,0,1,.18,1.47q.06,1.71,0,3.42,0,.83-.07,1.66c0,.06,0,.23,0,.34a1.07,1.07,0,0,1-.13,0,6.58,6.58,0,0,0-.86-.33.51.51,0,0,0-.35,1c.53.21,1.33.72,1.89.37s.47-1.12.49-1.68q.12-2.44,0-4.88C66.72,24.85,66.52,23.34,65,23.38Zm-9.6,7.27,0,0a.54.54,0,0,0,0-.21l-.82-1.92.09,0a6.85,6.85,0,0,0,.78-.46l.08.31a4.09,4.09,0,0,0-.38.27c-.51.41.15,1.2.66.79q.13.49.27,1Zm1.24-1.73a3,3,0,0,1,.42-.1.52.52,0,0,0-.18-1,3.94,3.94,0,0,0-.49.12l-.1-.39a1.84,1.84,0,0,1,.77-.15c1.25.05.6,1.46.2,2.08a.49.49,0,0,0,0,.5L57,30Q56.81,29.48,56.66,28.92Z"/><path class="cls-2" d="M75.95,17.19c-1.1-1.34-2.88-.79-4.2-.19-.59.27-.21,1.23.39,1,.86-.39,2.2-1,3-.14.54.6,0,1.7-.43,2.44l-.19,0L73,20.74a.44.44,0,0,0-.27.28l-1.3-3a.51.51,0,0,0-.94.39l1.36,3.1a.52.52,0,0,0,1,0,.54.54,0,0,0,.59.16l1-.3a.47.47,0,0,0,.77,0C75.94,20.29,77,18.43,75.95,17.19Z"/><path class="cls-2" d="M74.17,18.64l-1.33.59c-.6.26-.21,1.22.39,1l1.33-.59C75.16,19.33,74.77,18.38,74.17,18.64Z"/><path class="cls-2" d="M78.83,21.11a48.87,48.87,0,0,0-8.47,1.94c-.62.2-.23,1.15.39,1A47.31,47.31,0,0,1,79,22.13.52.52,0,0,0,78.83,21.11Z"/><path class="cls-2" d="M81.15,29.81l-.93.11A.5.5,0,0,0,80,30q-1.64.31-3.26.73l-.24-1.1,1.25-.42c.62-.21.23-1.16-.39-1l-1.08.36-.17-.75.45-.15a.43.43,0,0,0,.61-.14,3.18,3.18,0,0,0,.71-1.85,1.71,1.71,0,0,0-.92-1.42c-1.28-.7-2.56.11-3.55.92a.48.48,0,0,0-.19.39l-.08-.26c-.19-.63-1.13-.24-.94.39a12.94,12.94,0,0,0,1.1,2.59c.32.57,1.26.19.94-.39a12.93,12.93,0,0,1-.9-2,.47.47,0,0,0,.7.11l.54-.43.06.29-.37.1a.51.51,0,0,0,.39,1l.2-.05.07.33-.34.15c-.59.28-.2,1.23.39,1l.18-.08.15.69-.11,0c-.6.2-.25,1.1.33,1l.23,1q-1.31.37-2.6.8c-.62.21-.23,1.16.39,1a47.32,47.32,0,0,1,7.74-1.93A.52.52,0,0,0,81.15,29.81Zm-4.62-3.14-.65.2,0-.22.73-.2.11-.05C76.62,26.49,76.57,26.59,76.52,26.67Zm-.35-1.57c.45.11.62.36.64.65a.52.52,0,0,0-.65-.26l-.56.15,0-.18a.52.52,0,0,0-.19-.31A1.4,1.4,0,0,1,76.17,25.11Z"/></g></g></svg>