<svg xmlns="http://www.w3.org/2000/svg" viewBox="0 0 139.71 76.77"><defs><style>.cls-1{fill:#fefcee;}.cls-2{fill:#212020;}</style></defs><title>資產 2</title><g id="圖層_2" data-name="圖層 2"><g id="圖層_1-2" data-name="圖層 1"><path class="cls-1" d="M134.11,30.85c4.26,1.14,5.86,4.23,5.57,8.48-.41,6-4,12-9.75,14.16-4.77,1.73-10.12.76-14.7-1.07a36,36,0,0,1-7.17-3.88c-2.11-1.45-3.77-3.35-5.79-4.89S98.4,42.3,96.1,43c-3.88,1.24-7.61,2.84-11.53,4a120.07,120.07,0,0,1-23.39,4.36c-3.14.27-7.2-.33-10.08,1.09-2,1-3.09,3-4.12,4.91C43.52,63.73,39.38,70,33,73.78c-7.69,4.51-17.52,4.21-23.4-3-5.61-6.9-4.84-16.41,0-23.48a.64.64,0,0,0-.38-.94c-4.74-.84-8-4.71-9-9.3C-.88,31.66,1.66,26.52,6.09,23.42c9.19-6.44,20.67-2.95,29,3.16,1.08.8,2.35,2.38,3.7,2.63,1,.18,3.56-1.2,4.6-1.54,1.54-.49,3.09-1,4.63-1.43Q56.13,23.79,64.42,22a237.83,237.83,0,0,1,37-5.19.63.63,0,0,0,.47-.25.62.62,0,0,0-.14-.94c-4.79-4.06,1.15-12,5.54-14a22.33,22.33,0,0,1,16.63,0c5.09,2,9.38,6.16,10.33,11.7S133,24.66,128,27.32a.64.64,0,0,0-.13,1C129.74,29.86,131.8,30.23,134.11,30.85Z"/><path class="cls-2" d="M41.31,40.63a67,67,0,0,1-1.37-7.87c-.06-.7-1.14-.5-1.08.2a67,67,0,0,0,1.37,7.87l1.64,8.07a.55.55,0,0,0,1.08-.2Z"/><path class="cls-2" d="M45.42,37.74a.59.59,0,0,0-.06-.21C45,36,45.08,34.46,44.57,33c-.22-.63-.56-1.26-1.33-1.15a18.29,18.29,0,0,0-2.69.82c-.67.21-.47,1.29.2,1.08l2.24-.7c.41-.13.37-.18.53.25a6,6,0,0,1,.28,1.07c0,.26.08.53.12.79a.64.64,0,0,0-.56,0,8.79,8.79,0,0,0-2,1,.57.57,0,0,0-.25.73.55.55,0,0,0,.73.25,8.79,8.79,0,0,1,2-1A.39.39,0,0,0,44,36c.05.46.11.93.21,1.38a10.79,10.79,0,0,0-2.12,1.15c-.58.4.14,1.23.72.83a9.26,9.26,0,0,1,1.69-.92l0,.1c.25.66,1.24.18,1-.48Z"/><path class="cls-2" d="M46.56,32.13a28.09,28.09,0,0,0,.86,5c.18.68,1.26.48,1.08-.2a28.09,28.09,0,0,1-.86-5C47.58,31.22,46.5,31.43,46.56,32.13Z"/><path class="cls-2" d="M53.59,36.29Q53.29,35,53,33.65a15.37,15.37,0,0,0-.68-2.52,1.28,1.28,0,0,0-1.66-.66,13.87,13.87,0,0,0-2.53.84c-.65.28-.17,1.27.48,1a11.8,11.8,0,0,1,2.25-.75c.17,0,.32-.1.44,0s.12.37.13.4c.1.35.19.7.28,1.05q.59,2.27,1.08,4.56T53.62,42q.2,1.13.37,2.26a7.37,7.37,0,0,1,.12,1.14,5.33,5.33,0,0,0-2-.88l-.32-1.8a.55.55,0,0,0-1.08.2L51,44.42a5.22,5.22,0,0,1-1.12.08l-.11-.91c-.08-.7-1.16-.5-1.08.2l.55,4.6c.08.7,1.16.5,1.08-.2L50,45.6a6.17,6.17,0,0,0,1.58-.19.57.57,0,0,0,.35.22,4,4,0,0,1,2.11,1.22.56.56,0,0,0,.93-.17,4.22,4.22,0,0,0,.14-2.19c-.13-.92-.28-1.84-.44-2.75Q54.2,39,53.59,36.29Z"/><path class="cls-2" d="M50.76,33a9.19,9.19,0,0,0-2.39.61c-.66.26-.17,1.25.48,1A8.08,8.08,0,0,1,51,34.07C51.66,34,51.46,32.91,50.76,33Z"/><path class="cls-2" d="M51.39,34.79a8.38,8.38,0,0,0-2.53.64c-.65.27-.17,1.26.48,1a7.42,7.42,0,0,1,2.25-.54C52.29,35.81,52.09,34.73,51.39,34.79Z"/><path class="cls-2" d="M52.68,40.7l-.92-1a.56.56,0,0,0-.95.53A16.06,16.06,0,0,1,49.3,41c0-.14.1-.29.15-.43l.09,0a.55.55,0,0,0,.25-.73h0q.16-.31.34-.62c.36-.61-.54-1.23-.91-.62a10.61,10.61,0,0,0-.56,1.09,2.42,2.42,0,0,1-.62,0,6.26,6.26,0,0,1,.43-.61c.44-.56-.47-1.18-.91-.62a6.87,6.87,0,0,0-.85,1.42.56.56,0,0,0,.33.7,3.56,3.56,0,0,0,1.19.22,11.21,11.21,0,0,0-.3,1.14h0l-.64-.5a.55.55,0,0,0-.76.14l0,.07a.52.52,0,0,0-.28.21,3.59,3.59,0,0,1-1.47,1.25q.27-.49.55-1a.6.6,0,0,0,.38-.6l.13-.21c.39-.59-.52-1.21-.91-.62l-.31.5a5.4,5.4,0,0,1-.81.13l.82-1c.46-.54-.45-1.15-.91-.62l-1.52,1.78c-.29.33,0,.81.41.86a6.2,6.2,0,0,0,1.3,0c-.25.45-.48.9-.7,1.35s.25.77.62.73A4.69,4.69,0,0,0,47,42.63l.7.55a.55.55,0,0,0,.76-.14.53.53,0,0,0,0-.52.59.59,0,0,0,.19,0,16,16,0,0,0,2.67-1.32l.12-.1.33.36C52.33,41.94,53.16,41.22,52.68,40.7Z"/><path class="cls-2" d="M47.2,45c-.22-.66-1.3-.47-1.08.2,0,.11.07.23.1.34l-.53.31c-.19.11-.44.22-.63.35l0-.81c0-.7-1.08-.8-1.1-.09s-.29,1.94.62,2.14a1.38,1.38,0,0,0,1-.26l.84-.49a6.25,6.25,0,0,1-.1,1.7c-.14.69,1,.78,1.1.09A6.87,6.87,0,0,0,47.2,45Z"/><path class="cls-2" d="M62.63,28,56.51,30c-.67.21-.47,1.29.2,1.08l6.12-1.94C63.5,28.89,63.31,27.81,62.63,28Z"/><path class="cls-2" d="M66.45,33.12C66.12,31.91,65,32,64,32.27l-.78.24a6,6,0,0,0,.31-1.36.55.55,0,0,0-1.1-.09,4.71,4.71,0,0,1-.69,2l-.77.33a.63.63,0,0,0-.1-.54l-.61-.92a.55.55,0,0,0-.78-.06.56.56,0,0,0-.06.78l.61.92a.41.41,0,0,0,.21.16c-.47.22-.93.46-1.39.7l-.07-.07a1.53,1.53,0,0,1-.51-1,.57.57,0,0,0-.5-.59.55.55,0,0,0-.59.5A2.74,2.74,0,0,0,57.91,35l-.81.44c-.62.34-.14,1.33.48,1,1.39-.76,2.78-1.53,4.23-2.16a.53.53,0,0,0,.63-.19l.07-.11.31-.12c.4-.15,2.24-1,2.53-.5a2.41,2.41,0,0,1,.1,1.26,4.42,4.42,0,0,1-.34,1.33c-.27.66.76,1,1,.37A5,5,0,0,0,66.45,33.12Z"/><path class="cls-2" d="M57.14,38.29,56,36.7a.55.55,0,0,0-.78-.06.56.56,0,0,0-.06.78L56.31,39a.55.55,0,0,0,.78.06A.56.56,0,0,0,57.14,38.29Z"/><path class="cls-2" d="M58,37.78l.27,1.42a.55.55,0,0,0,1.08-.2l-.27-1.42A.55.55,0,0,0,58,37.78Z"/><path class="cls-2" d="M64.65,36.06c-.59-.39-1.22.52-.62.91-.14-.09-.66.29-.83.37q-.58.29-1.18.52c-.39.15-.68.3-1,0a2.55,2.55,0,0,1-.5-.83c-.29-.64-1.28-.16-1,.48A3,3,0,0,0,60.65,39a2.49,2.49,0,0,0,2.2-.26,5.23,5.23,0,0,0,2-1.11A1,1,0,0,0,64.65,36.06Z"/><path class="cls-2" d="M62.38,36.39a3.5,3.5,0,0,1-1.07-.84.55.55,0,0,0-.83.72A4.86,4.86,0,0,0,62,37.43a.55.55,0,0,0,.7-.33A.56.56,0,0,0,62.38,36.39Z"/><path class="cls-2" d="M64.45,34.86l-.67-.46a.55.55,0,1,0-.62.91l.67.46a.55.55,0,0,0,.62-.91Z"/><path class="cls-2" d="M70.19,43.32a11.66,11.66,0,0,1-5.53-.38,4.54,4.54,0,0,0,.86-3.25.56.56,0,0,0-.78-.39l-2.36.82c-.67.23-.18,1.22.48,1l1.61-.56a4.72,4.72,0,0,1-.86,2,11.79,11.79,0,0,1-2.11-1.17L62,40.12a.55.55,0,0,0-1-.37l-.42,1.09a.59.59,0,0,0-.35.92l0,.05c-.22.56.5.91.88.6a12.6,12.6,0,0,0,1.91,1.06,9.9,9.9,0,0,1-2.45,2.19c-.59.37-.12,1.37.48,1a11.33,11.33,0,0,0,3-2.76,12.86,12.86,0,0,0,6.38.51A.55.55,0,0,0,70.19,43.32Z"/><path class="cls-2" d="M79.13,26.4a8.07,8.07,0,0,0-2.43.45l-1.2.33c-.08-.48-.16-1-.25-1.45a.56.56,0,0,0-.09-.21l.08,0c.67-.19.48-1.28-.2-1.08l-4.47,1.29c-.67.19-.48,1.28.2,1.08l1-.28a.6.6,0,0,0,0,.19,17.56,17.56,0,0,0,.2,1.84,16.9,16.9,0,0,0-2.19,1.28q-.06-.26-.11-.52a.55.55,0,0,0-1.08.2,24.28,24.28,0,0,0,1.22,4.18c.26.66,1.25.17,1-.48A22.26,22.26,0,0,1,70,30.86a.57.57,0,0,0,.3-.11,14.57,14.57,0,0,1,1.85-1.11,18,18,0,0,0,1.27,3.67.55.55,0,0,0,1-.48,16.85,16.85,0,0,1-1.23-3.66c.46-.2.94-.38,1.42-.54q.26,2,.32,4.09c0,.7,1.12.8,1.1.09q-.07-2.27-.36-4.53c.57-.17,1.15-.33,1.73-.47a4.75,4.75,0,0,1,1.74-.31c.58.1.8.85.91,1.34a4,4,0,0,1,.11.9c0,.19,0,.82-.11,1l0,.06-.18-.07c-.1,0-.2-.1-.3-.14A1.75,1.75,0,0,0,79,30.4c-.71,0-.8,1.07-.09,1.1s1,.61,1.7.24.68-1.27.68-1.9C81.24,28.51,80.75,26.5,79.13,26.4Zm-4.86,1.17q-.66.22-1.3.49-.11-.78-.16-1.57a.49.49,0,0,0-.09-.27l1.42-.41a.61.61,0,0,0,0,.12q.15.79.27,1.58Z"/><path class="cls-2" d="M82.48,36a3,3,0,0,0-2.25-.11,28,28,0,0,0-2.85.73L75.89,37a4.22,4.22,0,0,0,.55-2,.6.6,0,0,0,0-.15l1.52-.52c.67-.23.18-1.21-.48-1l-4,1.36c-.67.23-.18,1.21.48,1l1.38-.47a3.25,3.25,0,0,1-.81,1.78.43.43,0,0,0-.1.46,6.14,6.14,0,0,0-2.05,1.09c0-.1,0-.19,0-.29,0-.7-1.11-.8-1.1-.09a7.88,7.88,0,0,0,1,3.81c.35.61,1.34.13,1-.48a7,7,0,0,1-.75-1.9.48.48,0,0,0,.47-.13,5.57,5.57,0,0,1,2.07-1.09L75.52,41a.55.55,0,0,0,1.08-.2l-.5-2.66.21-.07,1.27-.41a.57.57,0,0,0,0,.15l.8,2.94c.18.68,1.27.48,1.08-.2l-.8-2.94a.57.57,0,0,0-.12-.23c.55-.15,1.1-.29,1.66-.4s1.21-.36,1.64-.1.43.82.43,1.2a2.8,2.8,0,0,1-.3,1.46c-.19.3-.74.58-.92.12-.26-.66-1.24-.17-1,.48A1.42,1.42,0,0,0,81.6,41a1.85,1.85,0,0,0,1.5-1.22C83.57,38.62,83.61,36.71,82.48,36Z"/><path class="cls-2" d="M96.58,34.18a12.85,12.85,0,0,1-5.7-2.24.49.49,0,0,0-.62,0l-.75-4,2.86-.6a.55.55,0,0,0-.2-1.08l-2.86.6-.86-4.61a.55.55,0,0,0-1.08.2l.87,4.63L84.09,28a.55.55,0,0,0,.2,1.08l4.13-.87.65,3.48.84,4.49c0,.17.08.36.11.54h-.09a4.69,4.69,0,0,1-1-.27,5.4,5.4,0,0,1-1.67-1c-.53-.47-1.14.44-.62.91a6.25,6.25,0,0,0,1.92,1.17,3,3,0,0,0,2,.27c.75-.32.5-1.15.39-1.77l-.5-2.67L90.44,33a14,14,0,0,0,6,2.3C97.19,35.37,97.27,34.28,96.58,34.18Z"/><path class="cls-2" d="M87.46,32l-1.88-1.42c-.57-.43-1.18.48-.62.91l1.88,1.42C87.41,33.37,88,32.46,87.46,32Z"/><path class="cls-2" d="M86.83,33.18a6.17,6.17,0,0,0-2,1.7c-.43.56.48,1.18.91.62a4.86,4.86,0,0,1,1.56-1.33C87.93,33.83,87.45,32.84,86.83,33.18Z"/><path class="cls-2" d="M93.84,29a15.48,15.48,0,0,0-2.53,2c-.5.5.22,1.33.72.83A14.19,14.19,0,0,1,94.32,30C94.9,29.65,94.43,28.65,93.84,29Z"/><path class="cls-2" d="M94.47,24.7a9.5,9.5,0,0,1-1.66-1.49.55.55,0,0,0-.83.72,10.76,10.76,0,0,0,1.87,1.68C94.43,26,95,25.11,94.47,24.7Z"/><path class="cls-2" d="M101.21,20.32a8.27,8.27,0,0,1-2.77-1.07c-.6-.37-1.23.54-.62.91a9.75,9.75,0,0,0,3.29,1.26C101.82,21.55,101.9,20.45,101.21,20.32Z"/><path class="cls-2" d="M105.78,20.4a80.37,80.37,0,0,0-9.15,3c-.66.26-.17,1.24.48,1h0a36.29,36.29,0,0,1,1.94,11.1c0,.7,1.11.8,1.1.09a38,38,0,0,0-2-11.59A77.9,77.9,0,0,1,106,21.48C106.66,21.3,106.46,20.22,105.78,20.4Z"/><path class="cls-2" d="M105.49,24.41l-.44.18-.19-1a.55.55,0,0,0-1.08.2L104,25q-.85.28-1.71.48-.33-.79-.72-1.56a.55.55,0,0,0-1,.48q.32.64.6,1.29-.58.09-1.17.15c-.7.07-.5,1.15.2,1.08q.7-.07,1.39-.19c.24.64.44,1.28.62,1.94a.55.55,0,0,0,.19.3.58.58,0,0,0,.79.53l2-.84a.51.51,0,0,0,.14-.86.5.5,0,0,0,.17-.49l-.3-1.6.71-.29C106.62,25.12,106.14,24.13,105.49,24.41Zm-1.28,1.65.27,1.42a.54.54,0,0,0,.11.24l-1.32.54q-.25-.9-.56-1.79Q103.47,26.31,104.21,26.07Z"/><path class="cls-2" d="M111.37,34.73q-2.48-.58-4.9-1.36a12.74,12.74,0,0,0,.86-1.1,2,2,0,0,0,.54-1.43A1.08,1.08,0,0,0,107,30a4.06,4.06,0,0,0-1.6.16l-2.11.42a.55.55,0,0,0,.2,1.08l2.51-.5a3.42,3.42,0,0,1,.56-.1c.14,0,.2,0,.22.08s-.5.76-.61.9a11.4,11.4,0,0,1-.83,1q-1.25-.42-2.48-.89a.55.55,0,0,0-.37,1q1,.37,2,.71c-.2.17-.41.34-.62.5s-.35.26-.54.38-.34.1-.21.23c-.49-.5-1.33.21-.83.72.81.82,1.92-.19,2.59-.72.28-.22.55-.46.81-.71q2.65.87,5.38,1.51C111.68,35.92,112.05,34.89,111.37,34.73Z"/></g></g></svg>