<svg xmlns="http://www.w3.org/2000/svg" viewBox="0 0 139.77 78.76"><defs><style>.cls-1{fill:#fefcee;}.cls-2{fill:#212020;stroke:#212020;stroke-miterlimit:10;stroke-width:0.5px;}</style></defs><title>資產 3</title><g id="圖層_2" data-name="圖層 2"><g id="圖層_1-2" data-name="圖層 1"><path class="cls-1" d="M134,30.44c4.28,1,6,4.11,5.75,8.36-.28,6-3.69,12.13-9.44,14.37-4.73,1.84-10.1,1-14.72-.75a36,36,0,0,1-7.25-3.72c-2.14-1.41-3.85-3.27-5.89-4.76s-3.91-1.27-6.2-.48c-3.85,1.33-7.55,3-11.44,4.23a120.07,120.07,0,0,1-23.29,4.86c-3.13.34-7.2-.18-10.06,1.31-2,1-3,3.07-4,5-3.31,6.42-7.31,12.81-13.61,16.7-7.6,4.68-17.42,4.59-23.46-2.52-5.76-6.78-5.19-16.31-.49-23.47a.64.64,0,0,0-.4-.93c-4.76-.73-8.08-4.54-9.16-9.11C-.93,34.16,1.49,29,5.86,25.77c9.05-6.64,20.6-3.39,29.05,2.54,1.1.77,2.4,2.33,3.75,2.55,1,.16,3.53-1.27,4.56-1.64,1.53-.52,3.06-1,4.6-1.53q8.07-2.61,16.32-4.63a237.83,237.83,0,0,1,36.87-6,.63.63,0,0,0,.47-.26.62.62,0,0,0-.16-.94c-4.87-4,.89-12.06,5.24-14.08a22.33,22.33,0,0,1,16.63-.36c5.13,1.9,9.51,6,10.58,11.47s-1,11.38-6,14.14a.64.64,0,0,0-.11,1C129.61,29.55,131.68,29.87,134,30.44Z"/><path class="cls-2" d="M42.47,40.44a36.17,36.17,0,0,1-2.89-3.75c-.38-.56-1.19.12-.81.68a36.17,36.17,0,0,0,2.89,3.75C42.11,41.63,42.92,41,42.47,40.44Z"/><path class="cls-2" d="M41.58,44.31A18.83,18.83,0,0,1,39.45,42c-.42-.54-1.23.15-.81.68A20.4,20.4,0,0,0,41,45.17C41.47,45.63,42.08,44.76,41.58,44.31Z"/><path class="cls-2" d="M43.65,45.21q-1.15,2.55-2.41,5.05c-.31.61.69,1,1,.37q1.26-2.5,2.41-5.05C44.92,45,43.93,44.59,43.65,45.21Z"/><path class="cls-2" d="M53.46,41.36a6.81,6.81,0,0,1-1.84-2.51c-.27-.63-1.23-.18-1,.45q.13.3.28.58A20.49,20.49,0,0,1,46.83,41a13.76,13.76,0,0,0,.64-3.55q1.8-.39,3.6-.81c.66-.15.49-1.2-.18-1q-1.7.4-3.41.77a13.87,13.87,0,0,0-.17-1.78.53.53,0,0,0-1,.18,12.76,12.76,0,0,1,.16,1.82l-2.34.48a.53.53,0,0,0,.18,1l2.13-.44a12.75,12.75,0,0,1-.85,3.78.53.53,0,0,0,.59.71,21.61,21.61,0,0,0,5.39-1.35,8.26,8.26,0,0,0,1.33,1.43C53.37,42.67,54,41.8,53.46,41.36Z"/><path class="cls-2" d="M47,43.78l-1,4.3c-.16.66.83,1,1,.37l1-4.3C48.13,43.5,47.14,43.12,47,43.78Z"/><path class="cls-2" d="M48.79,44.48l.57,3.29a.53.53,0,0,0,1-.18l-.57-3.29A.53.53,0,0,0,48.79,44.48Z"/><path class="cls-2" d="M56.46,45.71l-1.72.3a4.2,4.2,0,0,1-1.74.21c-.4-.14-.49-.67-.54-1a8.14,8.14,0,0,0-.27-1.58c-.22-.64-1.17-.19-1,.45.36,1.06,0,2.51,1.26,3.1a3,3,0,0,0,1.82,0l2.32-.41A.53.53,0,0,0,56.46,45.71Z"/><path class="cls-2" d="M64.45,35.42a5.5,5.5,0,0,0-2.23.21q-1.22.23-2.43.51c-1.36.31-2.71.67-4.05,1.06l-.16-.48c-.22-.64-1.17-.19-1,.45l.14.4c-.31.32-.15,1,.31.92q.86,2.49,1.83,4.94a.46.46,0,0,0,.65.26c-.09.34.13.77.57.66l6.82-1.66a.54.54,0,0,0,.41-.1l.39-.1a.56.56,0,0,0,.11-1,8.35,8.35,0,0,0,.33-3.28C66.07,37.09,65.68,35.72,64.45,35.42Zm-6.58,7.9a.53.53,0,0,0,0-.34q-.93-2.37-1.77-4.78a69.29,69.29,0,0,1,7.13-1.68c.58-.1,1.16-.23,1.53.35a3.31,3.31,0,0,1,.39,1.41,7.2,7.2,0,0,1-.47,3.4l-6.72,1.63Z"/><path class="cls-2" d="M71.89,29.95,74,42.17a7.2,7.2,0,0,1-2.52-1.68c-.47-.49-1.29.19-.81.68a8.34,8.34,0,0,0,3.81,2.27.54.54,0,0,0,.71-.59L72.93,29.77A.53.53,0,0,0,71.89,29.95Z"/><path class="cls-2" d="M70.24,36.24c-.61-.47-1.52.07-2.13.28s-.19,1.18.45,1a7.74,7.74,0,0,0,.84-.29c.23-.11.22-.12.19.17A4.75,4.75,0,0,1,69,38.82a9.53,9.53,0,0,1-2,2.68c-.49.47.19,1.28.68.81a10.6,10.6,0,0,0,2.73-4.23C70.69,37.5,70.81,36.68,70.24,36.24Z"/><path class="cls-2" d="M81.12,38.81a16.46,16.46,0,0,1-3.71-1.55,6,6,0,0,0,1.67-2.37.53.53,0,0,0-1-.37,5,5,0,0,1-1.64,2.15q-.41-.27-.8-.57c-.55-.41-1.15.45-.61.86a17.19,17.19,0,0,0,5.71,2.83C81.41,40,81.78,39,81.12,38.81Z"/><path class="cls-2" d="M88.34,37.93l-2.91-1.55-.53-2.67.24-.53a.45.45,0,0,0-.17-.6l1.17-.37c.65-.21.19-1.16-.45-1l-1.2.38L84,29.27a.52.52,0,0,0-.14-.27l.37-.23c.57-.36.13-1.32-.45-1l-3.19,2c-.57.36-.13,1.32.45,1L83,29.55l.48,2.39L80.11,33c-.65.21-.19,1.16.45,1l3.11-1,.12.59L81.6,38.4c-.28.62.71,1,1,.37l1-2.19.9.48.72,3.63a.53.53,0,0,0,1-.18l-.56-2.81,2,1.09C88.32,39.11,88.94,38.25,88.34,37.93ZM84,35.62l.12-.27.08.38Z"/><path class="cls-2" d="M92.18,27.22a2.91,2.91,0,0,0-4,.46l0,0-.29-.58a.53.53,0,0,0-1,.45l1.74,3.54a.5.5,0,0,0,.58.28c-.32.33-.1,1,.45.89l2.56-.59a.54.54,0,0,0,0-1.06A2.24,2.24,0,0,0,92.18,27.22Zm-.75,2.71a.49.49,0,0,0,.12.85l-2,.47a.47.47,0,0,0,.09-.57l-1-2a.45.45,0,0,0,.27-.15,2,2,0,0,1,2.45-.58A1.18,1.18,0,0,1,91.43,29.92Z"/><path class="cls-2" d="M97.48,37.4l-4.25,1.07a.56.56,0,0,0,0-.19q-.1-.65-.23-1.3a16.29,16.29,0,0,0,1.53-.58c.62-.27.18-1.23-.45-1q-.64.28-1.3.49-.21-.9-.47-1.79a.56.56,0,0,0-.14-.24A19.2,19.2,0,0,0,94,32.34c.48-.48-.2-1.29-.68-.81a18.56,18.56,0,0,1-4.38,3.23c-.6.32-.15,1.28.45,1a19.94,19.94,0,0,0,1.95-1.18q.24.84.44,1.7a15.29,15.29,0,0,1-2.63.42c-.68,0-.49,1.09.18,1A15.68,15.68,0,0,0,92,37.27q.12.59.21,1.19a.52.52,0,0,0,.1.24l-3.12.79c-.66.17-.48,1.21.18,1l8.32-2.1C98.32,38.27,98.14,37.23,97.48,37.4Z"/><path class="cls-2" d="M101.88,24.12A8.81,8.81,0,0,1,100,22c-.37-.57-1.18.12-.81.68A9.66,9.66,0,0,0,101.27,25C101.8,25.41,102.41,24.55,101.88,24.12Z"/><path class="cls-2" d="M105.9,24.06q-3.72,1-7.48,1.78c-.66.14-.49,1.19.18,1q3.76-.8,7.48-1.78C106.73,24.93,106.56,23.89,105.9,24.06Z"/><path class="cls-2" d="M99.51,27.41c-.18-.65-1.23-.48-1,.18a19.34,19.34,0,0,1,.14,10c-.17.65.82,1,1,.37A20.38,20.38,0,0,0,99.51,27.41Z"/><path class="cls-2" d="M106.5,27.53l-1.1.31c0-.23,0-.47-.07-.7-.07-.68-1.11-.5-1,.18,0,.26.05.52.07.79q-1.08.27-2.17.5l-.3-1.17c-.17-.66-1.21-.48-1,.18l.31,1.19-.31.06a.53.53,0,0,0,.18,1l.39-.07.65,2.52c.09.34.56.64.86.32l.21-.23a.61.61,0,0,0,.53.05l1.95-.65a.53.53,0,0,0,.25-.7.48.48,0,0,0-.33-.27q0-1-.07-2l1.2-.33C107.32,28.38,107.15,27.34,106.5,27.53Zm-3.27,4-.06,0a.5.5,0,0,0-.24-.14l-.46-1.8q1-.21,2-.46,0,.89.06,1.79a.59.59,0,0,0,0,.14Z"/><path class="cls-2" d="M110,36a20.1,20.1,0,0,1-4.4-.52,9.94,9.94,0,0,0,1.21-2.66.54.54,0,0,0-.72-.67,24.56,24.56,0,0,0-3,1.38.55.55,0,0,0-.16.83.53.53,0,0,0-.24,1,7.83,7.83,0,0,0,1.19.67,9.15,9.15,0,0,1-1.41,1.3c-.55.41.14,1.22.68.81A10,10,0,0,0,105,36.38a19.55,19.55,0,0,0,4.95.67C110.62,37.08,110.72,36,110,36Zm-4.58-2.43a9.07,9.07,0,0,1-.85,1.55,7,7,0,0,1-1.12-.59l.11,0Q104.51,34,105.46,33.57Z"/></g></g></svg>