<svg xmlns="http://www.w3.org/2000/svg" viewBox="0 0 109.8 53"><defs><style>.cls-1{fill:#fefcee;}.cls-2{fill:#212020;stroke:#212020;stroke-miterlimit:10;stroke-width:0.5px;}</style></defs><title>資產 4</title><g id="圖層_2" data-name="圖層 2"><g id="圖層_1-2" data-name="圖層 1"><path class="cls-1" d="M105.45,36.7c3,1.88,3.47,4.62,2.24,7.79C106,49,101.83,52.75,96.91,53c-4,.19-7.9-1.82-11-4.3A28.78,28.78,0,0,1,81.4,44c-1.27-1.61-2.09-3.45-3.26-5.1S75.5,37,73.56,37c-3.25,0-6.48.36-9.74.31a95.92,95.92,0,0,1-18.88-2.21c-2.46-.54-5.41-2-8-1.55-1.79.28-3.06,1.56-4.31,2.77-4.13,4-8.78,7.86-14.54,9.21C11.21,47.15,3.78,44.6,1,37.69-1.64,31.09,1.2,24,6.57,19.78a.51.51,0,0,0-.07-.8A9.16,9.16,0,0,1,1.87,9.75a10.59,10.59,0,0,1,7.66-9C18.07-2,26,3.37,30.91,10c.64.86,1.23,2.37,2.2,2.88.75.39,3-.07,3.87-.08,1.29,0,2.59,0,3.87,0q6.78.06,13.54.62a190,190,0,0,1,29.45,4.79.5.5,0,0,0,.42-.08.49.49,0,0,0,.12-.75C81.68,13.15,88.09,8.47,91.9,8A17.84,17.84,0,0,1,104.59,12c3.41,2.74,5.7,6.92,5.12,11.37s-3.63,8.37-8.09,9.21a.51.51,0,0,0-.34.73C102.35,34.91,103.84,35.68,105.45,36.7Z"/><path class="cls-2" d="M39.33,18l-5.8-.5c-.65-.06-.77.95-.12,1l5.8.5C39.86,19,40,18,39.33,18Z"/><path class="cls-2" d="M40.37,22.7c-.56-1-1.91-.83-2.91-.85l-1.53,0a6.51,6.51,0,0,0,1-2.19c.16-.62-.77-1-.94-.38a5.77,5.77,0,0,1-.93,2,.47.47,0,0,0,0,.59l-1.68,0c-.64,0-.77,1-.12,1l3.24,0,1.67,0c.42,0,1-.1,1.27.34.36.7,0,1.87-.18,2.57a12.93,12.93,0,0,1-.78,2.27l-.75-1c-.39-.52-1.18.1-.79.63l1.24,1.67a.51.51,0,0,0,.87-.12,14.56,14.56,0,0,0,1.26-3.51A4.55,4.55,0,0,0,40.37,22.7Z"/><path class="cls-2" d="M32.61,27.89c-.57-.77-.38-2-.38-2.89v-3.4a.53.53,0,0,0-.07-.27.46.46,0,0,0-.43-.43.51.51,0,0,0-.51.73v3.86a4.84,4.84,0,0,0,.59,3C32.21,29,33,28.41,32.61,27.89Z"/><path class="cls-2" d="M34.46,27.45a21.71,21.71,0,0,1,.11-3.77.51.51,0,0,0-1-.12,23.28,23.28,0,0,0-.1,4C33.5,28.25,34.5,28.1,34.46,27.45Z"/><path class="cls-2" d="M36.2,23.6,35.68,28a.51.51,0,0,0,1,.12l.52-4.4A.51.51,0,0,0,36.2,23.6Z"/><path class="cls-2" d="M47.5,20.78l-1.18-.08.17-3c0-.65-1-.77-1-.12l-.17,3.06L42,20.43c-.65,0-.77,1-.12,1l3.41.22-.15,2.78c-.1,1.83,0,3.84-.72,5.57a5.17,5.17,0,0,1-.85-1.62c-.2-.62-1.13-.21-.93.4a6,6,0,0,0,1.61,2.5c.26.25.63,0,.77-.21,1.07-1.9,1-4.22,1.11-6.34l.17-3,1.12.07C48,21.83,48.15,20.82,47.5,20.78Z"/><path class="cls-2" d="M44.59,25.46l-1.15-2.09c-.31-.57-1.24-.17-.93.4l1.15,2.09C44,26.43,44.91,26,44.59,25.46Z"/><path class="cls-2" d="M55.94,17.88l-.81-1.36a.52.52,0,0,0-.67-.26.51.51,0,0,0-.26.67L55,18.29a.52.52,0,0,0,.67.26A.51.51,0,0,0,55.94,17.88Z"/><path class="cls-2" d="M51,19.37l-.83,1.16c-.38.53.43,1.14.81.61L51.8,20C52.18,19.46,51.38,18.85,51,19.37Z"/><path class="cls-2" d="M60.66,21.14a1.8,1.8,0,0,0-1.55-1.59A15.77,15.77,0,0,0,56,19.33c-1.2,0-2.4,0-3.59,0-.65,0-.49,1,.15,1q2.6-.05,5.2.09c.52,0,1.42,0,1.77.46s-.34,1.35-.71,1.72.16,1.25.63.79A3.14,3.14,0,0,0,60.66,21.14Z"/><path class="cls-2" d="M59.6,25.87l-3.65-.16a.51.51,0,0,0,.13-.19q.2-.48.36-1l1.22-.06c.65,0,.49-1-.15-1l-.79,0c.06-.25.1-.51.14-.77l.59.08c.64.1.76-.91.12-1l-.6-.08c0-.06,0-.12,0-.18,0-.65-1-.77-1-.12,0,.07,0,.14,0,.21q-.9-.05-1.79,0c-.12-.51-1-.57-1,0v0l-.19,0c-.65.07-.49,1.07.15,1h0c0,.26,0,.52,0,.78l-.38,0c-.65,0-.77,1-.12,1l.52,0c0,.35,0,.7.05,1.05l-2.09-.09c-.65,0-.77,1-.12,1l8.47.36C60.12,26.9,60.25,25.9,59.6,25.87Zm-3.76-3.18q-.07.45-.18.89c-.5,0-1,0-1.51,0q0-.45,0-.89Q55,22.64,55.84,22.69Zm-1.67,1.89h1.18c-.07.19-.14.38-.22.56a.45.45,0,0,0,.12.54l-1,0Q54.19,25.11,54.17,24.58Z"/><path class="cls-2" d="M53.36,26.86q-1.88,1-3.82,2c-.59.28-.19,1.21.4.93q1.94-.93,3.82-2C54.33,27.47,53.93,26.54,53.36,26.86Z"/><path class="cls-2" d="M59.58,29.28c-1.15-.65-2.28-1.35-3.37-2.09-.54-.37-1.15.44-.61.81q1.75,1.19,3.59,2.22C59.77,30.53,60.14,29.59,59.58,29.28Z"/><path class="cls-2" d="M55.61,29.92l-1.14-1c-.5-.42-1.1.39-.61.81l1.14,1C55.49,31.15,56.1,30.34,55.61,29.92Z"/><path class="cls-2" d="M55.66,32.65l-2-1.55a.51.51,0,0,0-.61.81l2,1.55A.51.51,0,0,0,55.66,32.65Z"/><path class="cls-2" d="M67.13,20.49,65,21.8c-.55.35.08,1.14.63.79l2.09-1.31C68.31,20.94,67.68,20.15,67.13,20.49Z"/><path class="cls-2" d="M69.36,24.65c.64,0,.77-1,.12-1l-2.55,0,0-.35c0-.65-1-.77-1-.12l0,.49-1.88,0c-.64,0-.77,1-.12,1l1.93,0,0,.37a.51.51,0,0,0-.54.28A11.34,11.34,0,0,1,62.39,29c-.5.42.13,1.21.63.79a12.51,12.51,0,0,0,2.68-3.15l-.33,4.65a9.23,9.23,0,0,1-.4-1c-.22-.61-1.14-.21-.93.4a9.75,9.75,0,0,0,1.33,2.5.51.51,0,0,0,.9-.25l.4-5.65a.47.47,0,0,0,.26.24,3.29,3.29,0,0,1,1.35,1c.41.5,1.21-.12.79-.63a4.34,4.34,0,0,0-1.76-1.3.47.47,0,0,0-.61.22l.15-2.18Z"/><path class="cls-2" d="M75.15,22c-.86-1.12-2.27-.6-3.44-.69-.65,0-.77,1-.12,1s1.75-.3,2.47.08c.95.49-.17,1.34-.67,1.66a.52.52,0,0,0-.12.1l-1.77.09a.41.41,0,0,0-.36.21V22.15c0-.64-1-.77-1-.12l0,2.65c0,.62.92.76,1,.19a.52.52,0,0,0,.52.34l2.39-.13a.43.43,0,0,0,.4-.58C75.22,23.87,75.87,22.9,75.15,22Z"/><path class="cls-2" d="M73.1,26.27l-1.9.93c-.58.28-.18,1.21.4.93l1.9-.93C74.09,26.91,73.69,26,73.1,26.27Z"/><path class="cls-2" d="M75.7,32.38q-1.85-.28-3.72-.45a.46.46,0,0,0,.42-.43l.18-1.5,1.43.09c.65,0,.77-1,.12-1L72.71,29l0-.39a.51.51,0,0,0-1-.12l-.05.44-1-.07c-.65,0-.77,1-.12,1l1,.07-.17,1.44a.47.47,0,0,0,.35.53q-1-.08-2-.14c-.65,0-.77,1-.12,1q3,.16,5.93.61C76.23,33.49,76.35,32.48,75.7,32.38Z"/><path class="cls-2" d="M86.18,24l-2.35-.22a.43.43,0,0,0,0-.44,6.18,6.18,0,0,0-1.09-1.56.52.52,0,0,0-.71-.08.51.51,0,0,0-.08.71,5.35,5.35,0,0,1,.93,1.29l-2.08-.2a.51.51,0,0,0-.12,1l5.38.51A.51.51,0,0,0,86.18,24Z"/><path class="cls-2" d="M79.87,25a.51.51,0,0,0-1,.15,12.85,12.85,0,0,1-2.11,9c-.37.54.44,1.15.81.61A13.93,13.93,0,0,0,79.87,25Z"/><path class="cls-2" d="M85.41,27l-.51-.08.1-.44c.14-.64-.87-.75-1-.12,0,.15-.07.29-.1.44q-.91-.1-1.83-.14v-.38c0-.65-1-.49-1,.15v.2c-.58.06-.67,1,0,1h.07l0,1.73a.41.41,0,0,0,.5.41.42.42,0,0,0,.36.19l1.67,0a.55.55,0,0,0,.51-.77q.26-.66.47-1.35l.66.1C85.94,28.06,86.05,27.06,85.41,27Zm-1.8.79q-.19.61-.44,1.21l-1.06,0,0-1.3Q82.85,27.67,83.61,27.75Z"/><path class="cls-2" d="M87.62,35.36a10.12,10.12,0,0,1-3.68-2,9.31,9.31,0,0,0,1.72-2.15.51.51,0,0,0-.34-.81,7.41,7.41,0,0,0-3.36.13.56.56,0,0,0-.23.93.51.51,0,0,0-.19.76,11,11,0,0,0,.88,1.07,8.61,8.61,0,0,1-2.28,1.16c-.62.21-.21,1.13.4.93A9.38,9.38,0,0,0,83.15,34a10.92,10.92,0,0,0,4.09,2.28C87.86,36.48,88.24,35.54,87.62,35.36ZM82.23,31.5a6.74,6.74,0,0,1,2.17-.2,8.63,8.63,0,0,1-1.2,1.35,10.15,10.15,0,0,1-.88-1.05Z"/></g></g></svg>