<svg xmlns="http://www.w3.org/2000/svg" viewBox="0 0 114.57 62.34"><defs><style>.cls-1{fill:#fefcee;}.cls-2{fill:#212020;}</style></defs><title>資產 5</title><g id="圖層_2" data-name="圖層 2"><g id="圖層_1-2" data-name="圖層 1"><path class="cls-1" d="M110,25.43c3.49,1,4.78,3.51,4.51,7-.38,4.9-3.32,9.86-8.09,11.55-3.92,1.39-8.3.55-12.05-1a29.55,29.55,0,0,1-5.85-3.23c-1.72-1.21-3.07-2.78-4.71-4s-3.18-1.13-5.07-.54c-3.19,1-6.26,2.28-9.49,3.18a98.49,98.49,0,0,1-19.21,3.42c-2.57.2-5.9-.32-8.28.83-1.67.81-2.55,2.44-3.42,4C35.5,51.79,32.06,56.93,26.8,60c-6.34,3.65-14.4,3.34-19.17-2.64-4.55-5.7-3.86-13.5.18-19.26a.52.52,0,0,0-.3-.77A9.4,9.4,0,0,1,.21,29.6,10.87,10.87,0,0,1,5.07,18.47c7.58-5.22,17-2.28,23.76,2.79.88.66,1.91,2,3,2.18.86.16,2.93-1,3.78-1.23,1.27-.39,2.54-.78,3.81-1.15q6.68-1.94,13.49-3.4a195.08,195.08,0,0,1,30.37-4,.52.52,0,0,0,.39-.2.51.51,0,0,0-.11-.77c-3.9-3.36,1-9.87,4.64-11.42a18.31,18.31,0,0,1,13.64.11c4.16,1.68,7.65,5.12,8.4,9.67s-1.09,9.3-5.23,11.45a.53.53,0,0,0-.12.82C106.45,24.59,108.14,24.91,110,25.43Z"/><path class="cls-2" d="M43.72,31.86a18.52,18.52,0,0,0-4,.26.52.52,0,0,0,.2,1,17.2,17.2,0,0,1,3.77-.24A.52.52,0,0,0,43.72,31.86Z"/><path class="cls-2" d="M47.94,34.7l-4.92,1-.17-.9a11.82,11.82,0,0,0,1.52-.3.52.52,0,0,0,.39-.57.56.56,0,0,0,1-.21c.3-1.61.14-3.77-1.74-4.31a4.38,4.38,0,0,0-2.41.16l-.8.26a.43.43,0,0,0,0-.35q-.3-.89-.52-1.81a.53.53,0,0,0,.62.17l2.75-1.07c.62-.24.15-1.17-.47-.93L40.46,26.9a.43.43,0,0,0-.27.26q-.1-.45-.18-.91c-.11-.66-1.13-.45-1,.2a20.89,20.89,0,0,0,.81,3.22.54.54,0,0,0,.38.36l-1.53.54c0-.13,0-.26,0-.38.08-.66-1-.73-1-.07a6.36,6.36,0,0,0,.11,2.2.46.46,0,0,0-.46,0,25.6,25.6,0,0,0-2.22,1.32c-.19-.91-.38-1.83-.58-2.74q1.4-.39,2.77-.87c.63-.22.16-1.14-.47-.93q-1.25.44-2.53.79c-.23-1-.47-2-.74-3.05-.17-.64-1.19-.44-1,.2.27,1,.52,2.07.75,3.11q-1.71.42-3.45.69c-.66.1-.45,1.12.2,1q1.75-.27,3.47-.7c.21,1,.41,2,.62,2.93l0,.19A25.38,25.38,0,0,0,32,36c-.49.45.19,1.23.69.77s1.1-1,1.68-1.39l.41,2a15.82,15.82,0,0,1,.37,2.72,3.91,3.91,0,0,1-.73-.62c-.45-.49-1.23.2-.77.69a5,5,0,0,0,1.84,1.27A.52.52,0,0,0,36.2,41a22.31,22.31,0,0,0-.87-6.26,24.32,24.32,0,0,1,2.45-1.48A.51.51,0,0,0,38,33a6.75,6.75,0,0,0,.92,1.73.49.49,0,0,0,.87-.25.48.48,0,0,0,.42.3,12,12,0,0,0,1.62,0l.19,1-4.5.9a.52.52,0,0,0,.2,1l4.49-.9q.44,2.26,1,4.5c.15.65,1.17.45,1-.2q-.52-2.24-1-4.5l4.92-1A.52.52,0,0,0,47.94,34.7Zm-8.2-.52-.06-.11a5.3,5.3,0,0,1-1-2.52.55.55,0,0,0,.31,0c.84-.29,1.68-.6,2.53-.88a4.68,4.68,0,0,1,1.88-.33c1.64.17,1.55,2.09,1.32,3.3a.56.56,0,0,0,0,.12.44.44,0,0,0-.55-.28,11,11,0,0,1-3.9.32A.47.47,0,0,0,39.75,34.18Z"/><path class="cls-2" d="M61.55,32.36c-.25-.62-1.17-.15-.93.47A5.85,5.85,0,0,1,61,34a.72.72,0,0,1-.33.87,7.33,7.33,0,0,1-1.8.95c-1,.38-2.73.82-3.66,0a4.62,4.62,0,0,1-.93-2q-.22-.62-.41-1.24a47.29,47.29,0,0,1,4.91-1c.66-.1.46-1.12-.2-1a47.2,47.2,0,0,0-5,1v0q-.19-.7-.35-1.42L55,29.84a.52.52,0,0,0-.2-1L53,29.19q-.21-1.09-.36-2.19a16.56,16.56,0,0,0,1.7-1.83c.42-.52-.45-1.09-.86-.57A15,15,0,0,1,49.56,28c-.56.35-.1,1.28.47.93a16.57,16.57,0,0,0,1.65-1.16q.12.8.28,1.59l-1.49.3a.52.52,0,0,0,.2,1l1.5-.3q.18.77.39,1.53-1.91.55-3.78,1.25c-.62.24-.15,1.16.47.93q1.78-.67,3.6-1.19l0,.16c.47,1.5.86,3.57,2.58,4.08a6.67,6.67,0,0,0,4.66-.75c.63-.32,1.57-.79,1.83-1.5A4,4,0,0,0,61.55,32.36Z"/><path class="cls-2" d="M69.91,28.45a8.41,8.41,0,0,1-3.07-1.33.56.56,0,0,0-.21-.09l-.18-.89,1.95-.64c.67-.22.46-1.31-.22-1.08l-1.95.64-.35-1.77a.5.5,0,0,0-.32-.39l.93-.61c.6-.38.11-1.37-.5-1a29.76,29.76,0,0,0-3.88,2.9.55.55,0,0,0,.74.83q.93-.83,1.93-1.57v0l.38,1.9L61,26.76c-.67.22-.46,1.31.22,1.08l4.14-1.35.1.49,0,0L62,30.64c-.49.51.24,1.34.74.83l3-3.17,1.17,5.88a.54.54,0,0,0-.07.78l.4.48a.56.56,0,0,0,1-.48l-1.29-6.48a9.15,9.15,0,0,0,2.63,1C70.24,29.64,70.61,28.6,69.91,28.45Z"/><path class="cls-2" d="M74.29,20.37A1.45,1.45,0,0,0,72.73,20c-.76.2-1.51.48-2.26.72a.56.56,0,0,0-1.06.32,14.68,14.68,0,0,0,1,3.17v0a.56.56,0,0,0,.52.92l2.54-.51a.55.55,0,0,0,.29-.92.58.58,0,0,0,.15-.11A2.44,2.44,0,0,0,74.29,20.37Zm-1.08,2.41a.55.55,0,0,0,0,.79l-1.7.34a.58.58,0,0,0-.05-.21,13.23,13.23,0,0,1-.7-1.93l1.27-.4A5.32,5.32,0,0,1,73.18,21C74,21,73.54,22.46,73.21,22.78Z"/><path class="cls-2" d="M74.18,25.12a15.38,15.38,0,0,1-2.3,2.16c-.57.44.17,1.26.74.83a16.69,16.69,0,0,0,2.49-2.37C75.57,25.19,74.64,24.59,74.18,25.12Z"/><path class="cls-2" d="M78.86,30.34l-3.39.84q-.19-.65-.34-1.3l.81-.16a.55.55,0,0,0-.22-1.08l-.82.16c-.08-.41-.15-.83-.21-1.25-.1-.7-1.19-.48-1.09.22.06.42.13.83.21,1.25l-1.52.3a.55.55,0,0,0,.22,1.08L74,30.09q.16.68.36,1.35l-2.94.72c-.69.17-.48,1.26.22,1.08l7.41-1.82C79.77,31.25,79.55,30.17,78.86,30.34Z"/><path class="cls-2" d="M81.6,19.59c-.18-.69-1.27-.47-1.09.22a54.63,54.63,0,0,1,1.29,6.73c.23,1.8.74,4.15-.27,5.8-.37.61.55,1.22.93.61,1.1-1.79.74-4,.52-6A54.56,54.56,0,0,0,81.6,19.59Z"/><path class="cls-2" d="M89.66,15.86,86,16.93a.47.47,0,0,0-.16-.38,7.56,7.56,0,0,1-1.63-2.25c-.3-.64-1.3-.15-1,.5A8.44,8.44,0,0,0,85,17.23l-3.39,1c-.68.2-.47,1.28.22,1.08l5.64-1.64a.58.58,0,0,0,0,.29,8.12,8.12,0,0,1,.31,1.11l-1.46.51h0c-.09-.71-1.18-.48-1.09.22l0,.16-2.09.74c-.67.24-.17,1.22.5,1L85.44,21a14.45,14.45,0,0,0,.43,1.56.6.6,0,0,0,.6.41.57.57,0,0,0,1,.27,1,1,0,0,1,.61-.41.58.58,0,0,0,.43-.41A.54.54,0,0,0,89,22a9.45,9.45,0,0,0,0-2.19h0c.57-.2.3-.94-.21-1a10.45,10.45,0,0,0-.38-1.31l0-.08,1.45-.42C90.56,16.75,90.34,15.66,89.66,15.86Zm-2.74,6.41a14.44,14.44,0,0,1-.42-1.6l1.43-.5a9,9,0,0,1,0,1.61h0A2.21,2.21,0,0,0,86.92,22.27Z"/><path class="cls-2" d="M94.3,28.22a15.68,15.68,0,0,1-4.57-.63A9.17,9.17,0,0,0,90.65,26c.38-.86.78-2.18-.47-2.51a1.89,1.89,0,0,0-1.51.41L87,25c-.58.39-.09,1.39.5,1l1.19-.8c.2-.13.88-.74,1.15-.67s.14.11.09.31a6,6,0,0,1-.23.63,7.41,7.41,0,0,1-.51,1,8.14,8.14,0,0,1-.52.76,15.06,15.06,0,0,1-2-.93c-.62-.35-1.24.57-.62.92a16.9,16.9,0,0,0,1.84.88,8.23,8.23,0,0,1-2.1,1.47.55.55,0,0,0,.5,1,9.28,9.28,0,0,0,2.74-2,16.37,16.37,0,0,0,5.24.81C94.93,29.32,95,28.22,94.3,28.22Z"/></g></g></svg>