<svg xmlns="http://www.w3.org/2000/svg" viewBox="0 0 136.92 93.58"><defs><style>.cls-1{fill:#f4ecce;}.cls-2{fill:#212020;}</style></defs><title>資產 6</title><g id="圖層_2" data-name="圖層 2"><g id="圖層_1-2" data-name="圖層 1"><path class="cls-1" d="M126,76.62c2.93,3.29,2.57,6.76,0,10.15-3.63,4.76-9.93,7.89-15.93,6.46-4.94-1.17-8.87-4.93-11.69-9a36,36,0,0,1-3.85-7.18c-1-2.37-1.31-4.88-2.15-7.27s-2.5-3.26-4.83-3.91c-3.92-1.09-7.92-1.82-11.82-3a120.07,120.07,0,0,1-21.93-9.22c-2.77-1.5-5.83-4.23-9-4.64-2.25-.28-4.23.81-6.14,1.83-6.37,3.41-13.29,6.4-20.69,6C9.06,56.41,1,50.76.09,41.48c-.89-8.85,5-16.37,12.93-19.6a.64.64,0,0,0,.2-1c-3.5-3.31-4.08-8.32-2.37-12.7,2-5.13,6.94-8,12.35-8.19C34.42-.32,42.08,8.91,45.67,18.59c.47,1.26.65,3.28,1.64,4.23.77.73,3.63,1,4.68,1.24,1.56.44,3.11.88,4.65,1.35q8.13,2.43,16.06,5.45a237.83,237.83,0,0,1,33.74,16,.63.63,0,0,0,.53.05.62.62,0,0,0,.4-.87c-1.77-6,7.58-9.43,12.31-8.62a22.33,22.33,0,0,1,13.89,9.15c3.14,4.47,4.45,10.31,2.2,15.45s-7.27,8.81-12.93,8.26a.64.64,0,0,0-.66.76C122.92,73.39,124.44,74.83,126,76.62Z"/><path class="cls-2" d="M69.64,40.24l-1.93-.79.42-.87q.81.39,1.64.73c.73.29,1.31-.79.58-1.09q-.86-.34-1.69-.75l.56-1.16c.34-.71-.74-1.29-1.09-.58l-.56,1.17q-.5-.28-1-.58c-.67-.42-1.25.67-.58,1.09q.51.32,1,.61l-.46,1-1.63-.66c-.73-.3-1.31.79-.58,1.09l4.71,1.92C69.79,41.62,70.37,40.54,69.64,40.24Z"/><path class="cls-2" d="M64.74,40.09,62.26,41.8c-.65.45,0,1.5.65,1l2.48-1.71C66,40.69,65.39,39.64,64.74,40.09Z"/><path class="cls-2" d="M69,44.62A7.91,7.91,0,0,1,68,42.06a.62.62,0,0,0-.77-.41.63.63,0,0,0-.41.77,8.86,8.86,0,0,0,1.05,2.85C68.31,46,69.35,45.31,69,44.62Z"/><path class="cls-2" d="M66.18,46q-.94-.27-1.9-.49.26-.45.48-.91l.67.29c.72.31,1.31-.77.58-1.09l-.75-.32q.15-.36.28-.73c.26-.74-.94-1-1.2-.27-.06.17-.13.34-.2.51L64,43c-.72-.31-1.31.77-.58,1.09l.22.09q-.29.57-.62,1.11v0l-.74-.13c-.78-.12-1.05,1.08-.27,1.2a32.22,32.22,0,0,1,3.91.88C66.67,47.44,66.94,46.24,66.18,46Z"/><path class="cls-2" d="M75.54,48.43c-.64,0-2.45-.1-2.21-1.2.11-.5.73-1.08,1-1.47l1-1.35a.62.62,0,0,0-.16-1l-1.14-.55q.58-.72,1.14-1.45c.48-.62-.41-1.48-.89-.85s-.91,1.18-1.39,1.75l-.49-.24c-.71-.34-1.29.74-.58,1.09l.25.12-.83.94a.65.65,0,0,0-1.15.37q0,.44,0,.88-.82.86-1.68,1.68c-.57.55.32,1.39.89.85l.87-.85q0,.5.11,1c.1.78,1.33.74,1.23,0A21.35,21.35,0,0,1,71.39,46q1-1,1.9-2.12l.72.34-1.2,1.57a2.35,2.35,0,0,0-.67,2c.37,1.59,2.08,1.87,3.46,1.91C76.38,49.69,76.33,48.46,75.54,48.43Z"/><path class="cls-2" d="M60.67,49.93a8,8,0,0,1,.91-1.82c.44-.66-.65-1.23-1.09-.58a9.28,9.28,0,0,0-1,2.13.62.62,0,0,0,.47.73A.63.63,0,0,0,60.67,49.93Z"/><path class="cls-2" d="M64.63,51.64l.21-1.8a.63.63,0,0,0-.47-.73.62.62,0,0,0-.73.47l-.21,1.8a.63.63,0,0,0,.47.73A.62.62,0,0,0,64.63,51.64Z"/><path class="cls-2" d="M68.75,53l.17-1.5a.63.63,0,0,0-.47-.73.62.62,0,0,0-.73.47l-.25,2.2c0,.41.31.91.78.72l.26-.1A.66.66,0,0,0,68.75,53Z"/><path class="cls-2" d="M73.64,54.06l-.71-1.9a.63.63,0,0,0-.77-.41.62.62,0,0,0-.41.77l.71,1.9a.63.63,0,0,0,.77.41A.62.62,0,0,0,73.64,54.06Z"/><path class="cls-2" d="M52.29,31.21l-6.58-2.62c-.73-.29-1.23.83-.49,1.13l6.58,2.62C52.54,32.63,53,31.51,52.29,31.21Z"/><path class="cls-2" d="M51.84,37.09c-.29-1.42-1.93-1.64-3.09-2L47,34.52a7.92,7.92,0,0,0,2-2.18c.41-.67-.55-1.45-1-.77a7,7,0,0,1-1.77,2,.57.57,0,0,0-.2.68l-1.95-.62c-.75-.24-1.25.89-.49,1.13l3.75,1.19,1.93.61c.48.15,1.25.25,1.36.84.17.94-.67,2.18-1.11,2.93a15.72,15.72,0,0,1-1.7,2.38l-.52-1.44c-.27-.75-1.41-.29-1.14.45L47,44.08a.62.62,0,0,0,1.05.16,17.72,17.72,0,0,0,2.7-3.64C51.34,39.59,52.08,38.3,51.84,37.09Z"/><path class="cls-2" d="M41,40.41c-.4-1.09.26-2.46.57-3.5l1.18-4a.65.65,0,0,0,0-.34.56.56,0,0,0-.35-.65.62.62,0,0,0-.84.67l-1.34,4.49c-.37,1.22-.84,2.48-.38,3.74C40.12,41.61,41.26,41.16,41,40.41Z"/><path class="cls-2" d="M43.29,40.56a26.4,26.4,0,0,1,1.44-4.35.62.62,0,0,0-1.13-.49,28.32,28.32,0,0,0-1.53,4.67C41.89,41.15,43.11,41.32,43.29,40.56Z"/><path class="cls-2" d="M46.67,36.68l-2.15,4.94a.62.62,0,0,0,1.13.49l2.15-4.94A.62.62,0,0,0,46.67,36.68Z"/><path class="cls-2" d="M60.82,37.36l-1.35-.5,1.25-3.45c.27-.74-.86-1.24-1.13-.49l-1.27,3.51L54.5,35c-.74-.27-1.23.85-.49,1.13l3.9,1.45-1.16,3.19C56,42.87,55.38,45.25,54,47a6.29,6.29,0,0,1-.42-2.18c0-.79-1.24-.64-1.22.15a7.31,7.31,0,0,0,1,3.48c.22.39.72.26,1,0,1.92-1.83,2.64-4.57,3.51-7L59.05,38l1.28.48C61.07,38.77,61.57,37.64,60.82,37.36Z"/><path class="cls-2" d="M55.79,41.79,55.18,39c-.16-.77-1.39-.63-1.22.15l.61,2.83C54.73,42.7,56,42.56,55.79,41.79Z"/><path class="cls-2" d="M83.79,43.91l-2.89.79c-.76.21-.31,1.35.45,1.14l2.89-.79C85,44.85,84.55,43.71,83.79,43.91Z"/><path class="cls-2" d="M84.92,49.54c.75.21,1.25-.91.49-1.13l-3-.85.15-.4c.28-.74-.85-1.23-1.13-.49l-.21.56L79,46.59c-.75-.21-1.25.91-.49,1.13l2.25.64-.16.42a.61.61,0,0,0-.73.14,13.8,13.8,0,0,1-4.64,3.27c-.73.31-.28,1.46.45,1.14A15.22,15.22,0,0,0,80,50.61l-2,5.3a11.22,11.22,0,0,1-.13-1.26c0-.79-1.26-.64-1.22.15a11.86,11.86,0,0,0,.67,3.37.62.62,0,0,0,1.14,0l2.45-6.45a.57.57,0,0,0,.22.37,4,4,0,0,1,1.22,1.62.62.62,0,0,0,1.14-.45,5.29,5.29,0,0,0-1.59-2.13.57.57,0,0,0-.79,0L82,48.7Z"/><path class="cls-2" d="M92.61,48.45c-.61-1.6-2.43-1.5-3.76-2-.74-.28-1.23.85-.49,1.13s2.14.27,2.85,1c.93.9-.66,1.5-1.36,1.7a.63.63,0,0,0-.18.08l-2.09-.51a.5.5,0,0,0-.5.12l.81-2.64c.23-.75-.89-1.25-1.13-.49l-.95,3.08c-.22.72.81,1.21,1.1.57a.64.64,0,0,0,.49.58l2.83.69a.53.53,0,0,0,.67-.54C92,50.69,93.12,49.78,92.61,48.45Z"/><path class="cls-2" d="M88.71,52.73l-2.54.41c-.78.13-.64,1.35.15,1.22L88.86,54C89.64,53.83,89.5,52.6,88.71,52.73Z"/><path class="cls-2" d="M89.6,60.77q-2.06-1-4.17-1.83a.56.56,0,0,0,.64-.35l.73-1.68,1.64.61c.74.28,1.23-.85.49-1.13l-1.64-.61.19-.44a.62.62,0,0,0-1.13-.49l-.22.49L85,54.92c-.74-.28-1.23.85-.49,1.13l1.16.43-.71,1.62a.57.57,0,0,0,.22.73Q84,58.39,82.91,58c-.74-.27-1.24.86-.49,1.13q3.41,1.23,6.69,2.79C89.82,62.24,90.31,61.11,89.6,60.77Z"/><path class="cls-2" d="M104.73,54.7l-2.66-1.08a.53.53,0,0,0,.17-.51,7.52,7.52,0,0,0-.73-2.21.63.63,0,0,0-.8-.35.62.62,0,0,0-.35.8,6.51,6.51,0,0,1,.63,1.83l-2.35-1c-.73-.3-1.23.83-.49,1.13l6.08,2.48C105,56.13,105.47,55,104.73,54.7Z"/><path class="cls-2" d="M97,53.63a.62.62,0,0,0-1.22-.17A15.63,15.63,0,0,1,90.2,63.2c-.62.5.11,1.49.73,1A16.94,16.94,0,0,0,97,53.63Z"/><path class="cls-2" d="M102.81,57.86l-.57-.27.27-.48c.38-.69-.75-1.18-1.13-.49l-.27.47q-1-.43-2.08-.8l.12-.44c.21-.76-1-.93-1.22-.17l-.07.24c-.7-.13-1.13.92-.41,1.15l.08,0-.56,2a.5.5,0,0,0,.44.65.51.51,0,0,0,.35.35l1.92.64a.67.67,0,0,0,.86-.71q.54-.68,1-1.41l.74.34C103,59.33,103.52,58.2,102.81,57.86Zm-2.37.29q-.44.65-.93,1.26L98.28,59l.42-1.52Q99.58,57.79,100.44,58.14Z"/><path class="cls-2" d="M102.43,68.41a12.31,12.31,0,0,1-3.58-3.62,11.33,11.33,0,0,0,2.76-1.9.63.63,0,0,0-.12-1.06,9,9,0,0,0-4-1,.68.68,0,0,0-.6,1,.62.62,0,0,0-.49.82,13.32,13.32,0,0,0,.65,1.55,10.47,10.47,0,0,1-3.06.56c-.79,0-.64,1.25.15,1.22a11.41,11.41,0,0,0,3.53-.68,13.29,13.29,0,0,0,4,4.09C102.32,69.8,103.09,68.85,102.43,68.41ZM97.51,62a8.19,8.19,0,0,1,2.6.53,10.49,10.49,0,0,1-1.87,1.15,12.34,12.34,0,0,1-.65-1.53A.65.65,0,0,0,97.51,62Z"/></g></g></svg>