<svg xmlns="http://www.w3.org/2000/svg" viewBox="0 0 118.51 67.8"><defs><style>.cls-1{fill:#fefcee;}.cls-2{fill:#212020;}</style></defs><title>資產 7</title><g id="圖層_2" data-name="圖層 2"><g id="圖層_1-2" data-name="圖層 1"><path class="cls-1" d="M113.54,25.6c3.64.84,5.09,3.41,5,7-.17,5.07-3,10.33-7.84,12.28-4,1.61-8.55.94-12.49-.47A30.54,30.54,0,0,1,92,41.36c-1.83-1.17-3.3-2.73-5-4s-3.33-1-5.26-.34c-3.25,1.17-6.37,2.63-9.65,3.71a101.8,101.8,0,0,1-19.69,4.38c-2.65.32-6.11-.07-8.51,1.22-1.69.91-2.53,2.63-3.35,4.28C37.74,56.13,34.42,61.59,29.13,65,22.74,69,14.41,69,9.21,63.08c-5-5.68-4.58-13.77-.67-19.89a.54.54,0,0,0-.35-.78c-4-.57-6.9-3.76-7.87-7.62A11.24,11.24,0,0,1,4.84,23.07c7.6-5.73,17.43-3.1,24.66,1.83.94.64,2.06,2,3.21,2.12.89.13,3-1.12,3.85-1.44,1.29-.46,2.59-.92,3.88-1.35q6.82-2.31,13.78-4.11a201.64,201.64,0,0,1,31.19-5.48.53.53,0,0,0,.39-.22.53.53,0,0,0-.15-.8c-4.18-3.3.62-10.24,4.28-12A18.93,18.93,0,0,1,104,1.12c4.37,1.55,8.13,4.95,9.1,9.61s-.71,9.66-4.89,12.06a.54.54,0,0,0-.08.85C109.8,24.89,111.56,25.14,113.54,25.6Z"/><path class="cls-2" d="M31.69,40.49l-.9-.34a.6.6,0,1,0-.4,1.13l.9.34a.6.6,0,1,0,.4-1.13Z"/><path class="cls-2" d="M30.72,42.07l-1.18,1c-.59.5.2,1.4.79.9l1.18-1C32.09,42.47,31.31,41.57,30.72,42.07Z"/><path class="cls-2" d="M59.91,36A20.56,20.56,0,0,1,52,33.16a19.91,19.91,0,0,0,1.17-3.62c.16-.74-1-1.15-1.13-.4a19.31,19.31,0,0,1-5.21,9.54c-.54.54.24,1.45.79.9a20.7,20.7,0,0,0,3.87-5.33,22,22,0,0,0,8.32,2.94C60.58,37.3,60.67,36.11,59.91,36Z"/><path class="cls-2" d="M69.06,31.3a9.08,9.08,0,0,1-3.3-1.46.6.6,0,0,0-.23-.1l-.18-1,2.11-.67c.73-.23.51-1.41-.22-1.17l-2.11.67-.36-1.92a.54.54,0,0,0-.34-.42q.5-.34,1-.65c.65-.4.13-1.48-.53-1.07a32.14,32.14,0,0,0-4.22,3.09.6.6,0,0,0,.79.9q1-.88,2.1-1.67v.05L64,28l-4.49,1.42c-.73.23-.51,1.41.22,1.17l4.49-1.42.1.53,0,0-3.79,3.88c-.54.55.25,1.45.79.9l3.32-3.39,1.2,6.36a.58.58,0,0,0-.09.84l.43.52a.61.61,0,0,0,1-.5l-1.33-7a9.88,9.88,0,0,0,2.83,1.12C69.41,32.59,69.82,31.47,69.06,31.3Z"/><path class="cls-2" d="M73.88,22.62a1.57,1.57,0,0,0-1.68-.42c-.82.21-1.64.5-2.45.75a.6.6,0,0,0-1.15.34,15.86,15.86,0,0,0,1.09,3.44v0a.61.61,0,0,0,.55,1L73,27.22a.6.6,0,0,0,.32-1,.63.63,0,0,0,.16-.11A2.63,2.63,0,0,0,73.88,22.62Zm-1.19,2.6a.6.6,0,0,0,0,.85l-1.84.35a.62.62,0,0,0-.05-.22A14.29,14.29,0,0,1,70,24.11l1.38-.42a5.75,5.75,0,0,1,1.27-.37C73.59,23.27,73,24.88,72.69,25.22Z"/><path class="cls-2" d="M73.71,27.75a16.61,16.61,0,0,1-2.51,2.3c-.62.46.17,1.36.79.9a18,18,0,0,0,2.71-2.53C75.21,27.85,74.21,27.18,73.71,27.75Z"/><path class="cls-2" d="M78.7,33.44,75,34.3q-.2-.7-.36-1.41l.88-.17a.6.6,0,0,0-.22-1.17l-.89.17c-.08-.45-.15-.9-.21-1.35-.1-.76-1.28-.54-1.18.22.06.45.13.9.21,1.35l-1.65.31a.6.6,0,0,0,.22,1.17l1.66-.32q.17.74.37,1.46l-3.18.75c-.75.18-.53,1.35.22,1.17l8-1.89C79.68,34.43,79.46,33.26,78.7,33.44Z"/><path class="cls-2" d="M81.78,21.85c-.18-.74-1.36-.52-1.18.22a59,59,0,0,1,1.32,7.28c.22,1.94.76,4.49-.36,6.26-.41.65.58,1.33,1,.67,1.2-1.92.84-4.33.62-6.46A58.92,58.92,0,0,0,81.78,21.85Z"/><path class="cls-2" d="M90.52,17.92l-4,1.11a.51.51,0,0,0-.17-.41,8.17,8.17,0,0,1-1.73-2.45c-.32-.7-1.4-.17-1.08.53a9.12,9.12,0,0,0,1.85,2.65l-3.67,1c-.74.21-.52,1.38.22,1.17l6.11-1.72a.63.63,0,0,0,0,.31,8.77,8.77,0,0,1,.32,1.2l-1.58.54h0c-.09-.76-1.27-.54-1.18.22l0,.17-2.27.77c-.73.25-.2,1.32.53,1.07l1.93-.66a15.6,15.6,0,0,0,.44,1.69.64.64,0,0,0,.64.44.62.62,0,0,0,1.11.3,1.1,1.1,0,0,1,.67-.43.62.62,0,0,0,.47-.43.59.59,0,0,0,.5-.52,10.2,10.2,0,0,0,0-2.36h0c.62-.21.33-1-.21-1.1a11.29,11.29,0,0,0-.39-1.42l0-.09,1.57-.44C91.48,18.89,91.27,17.71,90.52,17.92Zm-3,6.89a15.59,15.59,0,0,1-.44-1.73l1.55-.53a9.68,9.68,0,0,1-.06,1.74h0A2.39,2.39,0,0,0,87.5,24.81Z"/><path class="cls-2" d="M95.41,31.32a16.93,16.93,0,0,1-4.93-.73,9.91,9.91,0,0,0,1-1.73c.42-.92.87-2.35-.48-2.72a2,2,0,0,0-1.63.42l-1.84,1.22c-.64.42-.12,1.5.53,1.07L89.35,28c.21-.14,1-.79,1.25-.71s.15.12.09.33a6.43,6.43,0,0,1-.26.68,8,8,0,0,1-.56,1.07,8.79,8.79,0,0,1-.57.82,16.27,16.27,0,0,1-2.15-1c-.67-.38-1.35.6-.68,1a18.25,18.25,0,0,0,2,1,8.89,8.89,0,0,1-2.29,1.56.6.6,0,0,0,.53,1.07,10,10,0,0,0,3-2.17,17.68,17.68,0,0,0,5.65.94C96.08,32.51,96.18,31.32,95.41,31.32Z"/><path class="cls-2" d="M36.62,38.06l-3.79-1.21a.57.57,0,0,0-.52.07.64.64,0,0,0-.36-.3l-.48-2.54a.57.57,0,0,0,.46.31,10.25,10.25,0,0,1,3,.87c.7.32,1.1-.81.4-1.13A11.32,11.32,0,0,0,32,33.21a.54.54,0,0,0-.63.53l-.09-.49q1.36-.5,2.7-1.06c.71-.3.18-1.37-.53-1.07s-1.59.65-2.4.95l-.26-1.36a.55.55,0,0,0-.27-.39l.8-.51c.64-.41.12-1.49-.53-1.07l-3.11,2c-.64.41-.12,1.49.53,1.07l1.4-.89v0l.29,1.55q-1.59.56-3.21,1c-.73.22-.52,1.39.22,1.17s1.59-.49,2.37-.75A16.13,16.13,0,0,1,27,36.4c-.59.5.2,1.4.79.9a17.26,17.26,0,0,0,2.59-2.71l.59,3.11a8,8,0,0,1-2.55,3.21c-.62.47.17,1.36.79.9A9.09,9.09,0,0,0,32,38.32a.53.53,0,0,0,.2-.49h0a.58.58,0,0,0,.25.15l3.79,1.21C37,39.42,37.35,38.29,36.62,38.06Z"/><path class="cls-2" d="M33,39.11c-.24-.73-1.32-.19-1.08.53a14.07,14.07,0,0,1,.71,4.5A.61.61,0,0,0,32,45.2a1.51,1.51,0,0,0,1.25.27.61.61,0,0,0,.49-.54A15.76,15.76,0,0,0,33,39.11Z"/><path class="cls-2" d="M37.49,42.74a10.72,10.72,0,0,0-2.09-.54.45.45,0,0,0,.1-.12l.62-1.12a.6.6,0,1,0-1-.67l-.62,1.12a.62.62,0,0,0,.09.77.61.61,0,0,0,.21,1.15,9.46,9.46,0,0,1,2.29.55A.6.6,0,0,0,37.49,42.74Z"/><path class="cls-2" d="M40.33,33.64l-.74.35-.4-1.72c-.17-.75-1.36-.53-1.18.22l.48,2a.62.62,0,0,0,.23,1L39,37c.17.75,1.36.53,1.18-.22l-.36-1.55,1-.47A.6.6,0,0,0,40.33,33.64Z"/><path class="cls-2" d="M43.28,37.54c-1.2-1.07-3.13.16-4.24,1l-.24-.41c-.38-.66-1.47-.14-1.08.53l1.41,2.42c.38.66,1.47.14,1.08-.53l-.56-1A7.5,7.5,0,0,1,41,38.73c.35-.17,1-.56,1.36-.39,1,.44-.09,1.74-.52,2.12a.56.56,0,0,0-.2.38l-1.1.21a.6.6,0,0,0,.22,1.17l1.78-.34A.58.58,0,0,0,43,41C43.88,40.06,44.46,38.58,43.28,37.54Z"/></g></g></svg>