<svg xmlns="http://www.w3.org/2000/svg" viewBox="0 0 136.68 74.67"><defs><style>.cls-1{fill:#d6cca1;}.cls-2{fill:#212020;stroke:#212020;stroke-miterlimit:10;stroke-width:0.5px;}</style></defs><title>資產 8</title><g id="圖層_2" data-name="圖層 2"><g id="圖層_1-2" data-name="圖層 1"><path class="cls-1" d="M131.23,30.27c4.16,1.14,5.72,4.17,5.41,8.33-.43,5.84-3.92,11.77-9.6,13.81-4.67,1.67-9.9.69-14.38-1.12a35.24,35.24,0,0,1-7-3.83C103.61,46,102,44.16,100,42.65s-3.79-1.34-6-.63c-3.8,1.2-7.46,2.74-11.3,3.84A117.48,117.48,0,0,1,59.78,50c-3.07.25-7-.36-9.87,1-2,1-3,2.92-4.06,4.78-3.4,6.2-7.48,12.35-13.74,16-7.55,4.38-17.16,4-22.88-3.07-5.46-6.78-4.66-16.08.13-23A.62.62,0,0,0,9,44.85C4.35,44,1.2,40.2.26,35.7-.84,30.43,1.66,25.41,6,22.4c9-6.26,20.23-2.78,28.35,3.23,1.06.78,2.28,2.34,3.61,2.59,1,.19,3.49-1.16,4.5-1.48,1.51-.47,3-.94,4.53-1.38Q55,23,63.09,21.24a232.7,232.7,0,0,1,36.21-4.9.62.62,0,0,0,.46-.24.61.61,0,0,0-.13-.92c-4.67-4,1.18-11.78,5.49-13.64a21.85,21.85,0,0,1,16.27.08c5,2,9.15,6.08,10.06,11.49s-1.26,11.1-6.19,13.68a.63.63,0,0,0-.14,1C127,29.28,129,29.66,131.23,30.27Z"/><path class="cls-2" d="M33.36,33.64A23.15,23.15,0,0,0,34.18,39c.17.62,1.09.46.91-.17a22,22,0,0,1-.8-5.09C34.27,33.09,33.34,33,33.36,33.64Z"/><path class="cls-2" d="M39.31,37.92q-1,.38-1.92.73l1.68-3.16c.29-.55-.48-1.14-.78-.58l-1.23,2.31-.65-3.44a.46.46,0,1,0-.91.17l.83,4.37a.46.46,0,0,0,.35.39.58.58,0,0,0,.17.13q-1.78.62-3.61,1.1c-.57.15-.39,1.15.19,1a53.91,53.91,0,0,0,6.31-2.11C40.29,38.61,39.87,37.69,39.31,37.92Z"/><path class="cls-2" d="M33.83,38.26l-1.28-1.31a.45.45,0,0,0-.66-.06.54.54,0,0,0,0,.71l1.28,1.31a.45.45,0,0,0,.66.06A.54.54,0,0,0,33.83,38.26Z"/><path class="cls-2" d="M39.13,43.05l-2.51.77a.53.53,0,0,0,0-.57,9.24,9.24,0,0,1-1.06-2c-.24-.6-1.07-.17-.83.43a10.34,10.34,0,0,0,1.2,2.18A.53.53,0,0,0,36,44l-1.38.43c-.57.17-.38,1.17.19,1l4.52-1.39C39.88,43.88,39.7,42.88,39.13,43.05Z"/><path class="cls-2" d="M38.22,39.94a4.32,4.32,0,0,1-1,2.57c-.4.47.22,1.25.62.77A5.42,5.42,0,0,0,39.15,40,.47.47,0,1,0,38.22,39.94Z"/><path class="cls-2" d="M41.23,48.69l-2,.59-.7-2.47,1.34-.49c.56-.21.13-1.12-.42-.92l-1.19.44L38,45.07c-.18-.62-1.09-.46-.91.17l.26.93-1.32.49c-.56.21-.13,1.12.42.92l1.17-.43.69,2.41-2.51.74c-.57.17-.38,1.17.19,1l5.38-1.59C42,49.52,41.8,48.53,41.23,48.69Z"/><path class="cls-2" d="M46.25,37.71l-.63.18c-.27-1.2-.53-2.4-.78-3.6a.46.46,0,1,0-.91.17c.26,1.22.52,2.44.8,3.66a22.28,22.28,0,0,1-3,.49c-.59.06-.4,1.05.19,1a22.28,22.28,0,0,0,3-.49c.28,1.19.58,2.38.91,3.56A34.35,34.35,0,0,1,47,46.53a2.17,2.17,0,0,1,0,1c-.12.21-.45,0-.62,0a6.26,6.26,0,0,1-1.56-.89c-.5-.38-1,.45-.51.83.76.58,2.43,1.76,3.29.93a2.18,2.18,0,0,0,.32-1.77,12.47,12.47,0,0,0-.63-2.41c-.56-1.76-1-3.55-1.44-5.34l.59-.17C47,38.53,46.82,37.53,46.25,37.71Z"/><path class="cls-2" d="M45.28,43.76a12.19,12.19,0,0,1-2-1.48c-.46-.43-1,.4-.51.83a12.19,12.19,0,0,0,2,1.48A.49.49,0,0,0,45.28,43.76Z"/><path class="cls-2" d="M55.66,43.13,55,39.73a27.88,27.88,0,0,0-1.72-6.45.47.47,0,1,0-.83.43,25.9,25.9,0,0,1,1.6,6l.64,3.11L55,44.38a4.18,4.18,0,0,1,.12.81q-1.52-.6-3.08-1.08c-.58-.18-.88.77-.3.95q1.81.55,3.58,1.27a.45.45,0,0,0,.59-.3C56.25,45.16,55.84,44,55.66,43.13Z"/><path class="cls-2" d="M51.26,39.48l-1.19,3.91c-.19.61.7,1,.88.35l1.19-3.91C52.32,39.23,51.44,38.87,51.26,39.48Z"/><path class="cls-2" d="M60.75,40.48a12.46,12.46,0,0,1-3.63-2.11c-.48-.4-1,.43-.51.83a13.25,13.25,0,0,0,3.84,2.23C61,41.64,61.32,40.69,60.75,40.48Z"/><path class="cls-2" d="M65,35.77l-.89,1.09a23.17,23.17,0,0,0-1.58-2.46,9.71,9.71,0,0,0,1-3.89A.51.51,0,0,0,63,30a8.53,8.53,0,0,0-3.81,1.92c-.46.4.16,1.17.62.77a7.58,7.58,0,0,1,2.76-1.54,8.44,8.44,0,0,1-.94,3,.57.57,0,0,0,0,.62,21.43,21.43,0,0,1,1.84,2.89l-1.62,2c-.39.47.23,1.25.62.77l1.43-1.75.12.34a6.52,6.52,0,0,1,.33,2.32c0,.13,0,.45-.07.54.06-.07-.23-.06-.27-.07l-1.15-.2c-.6-.1-.65.91-.06,1s1.88.61,2.29-.22a4.81,4.81,0,0,0,0-2.76,9.13,9.13,0,0,0-.56-1.77l1.05-1.28C66.06,36.08,65.44,35.3,65,35.77Z"/><path class="cls-2" d="M70,29.73l-1,.34a.5.5,0,0,0-.1-.47,7.41,7.41,0,0,0-1.35-1.1.45.45,0,0,0-.64.12.55.55,0,0,0,.13.71,6.37,6.37,0,0,1,1.17.92l.06.05L66.08,31c-.56.18-.38,1.18.19,1l3.9-1.26C70.74,30.55,70.56,29.55,70,29.73Z"/><path class="cls-2" d="M70.19,32.65q-.65,1.18-1.33,2.35a.45.45,0,0,0-.24-.19L67,34.22A10.25,10.25,0,0,1,67.71,33c.36-.51-.42-1.09-.78-.58a11.1,11.1,0,0,0-1.06,1.91.54.54,0,0,0,.29.65l2.16.76.09,0q-.88,1.51-1.8,3c-.33.53.45,1.12.78.58q1.86-3,3.57-6.11C71.27,32.68,70.5,32.09,70.19,32.65Z"/><path class="cls-2" d="M70.74,35.08a15.25,15.25,0,0,1-3.32,5.32c-.42.44.2,1.22.62.77a16.42,16.42,0,0,0,3.58-5.74A.48.48,0,1,0,70.74,35.08Z"/><path class="cls-2" d="M75.34,39.63a4.29,4.29,0,0,1-.8-.42l-.94-.46-2-1c-.55-.27-.85.68-.3.95L74,40c.57.28,1.47,1,2,.32A.5.5,0,0,0,75.34,39.63Z"/><path class="cls-2" d="M80.73,26.09l-3.4,1.21a19.64,19.64,0,0,0-.57-2.74c-.19-.66-1.15-.48-1,.18a19.1,19.1,0,0,1,.58,2.89l-1.55.55c-.59.21-.14,1.18.45,1l1.2-.43a18.26,18.26,0,0,1-2,9.68c-.31.59.51,1.21.82.62a19.58,19.58,0,0,0,2.14-10.64l3.73-1.32C81.77,26.85,81.32,25.88,80.73,26.09Z"/><path class="cls-2" d="M84.63,36.77a21.6,21.6,0,0,1-3.24-1.33A10.18,10.18,0,0,0,82,33.28a1.65,1.65,0,0,0-.19-1.44,1.12,1.12,0,0,0-1-.33,7.71,7.71,0,0,0-3,1.56c-.52.37.14,1.19.66.82a9.25,9.25,0,0,1,2.23-1.25c.07,0,.35-.15.42-.07s-.05.41-.06.45a8.84,8.84,0,0,1-.28,1.12q-.13.42-.31.83-.65-.37-1.28-.78c-.55-.36-1.09.51-.54.88s.9.57,1.35.83a8.63,8.63,0,0,1-1.57,2c-.47.44.19,1.27.66.82a9.62,9.62,0,0,0,1.81-2.33,22,22,0,0,0,3.38,1.4A.53.53,0,0,0,84.63,36.77Z"/><path class="cls-2" d="M88.2,23.42a6.56,6.56,0,0,1-1.76-1.22.44.44,0,0,0-.64.12.56.56,0,0,0,.13.71,7.3,7.3,0,0,0,2,1.34C88.46,24.63,88.75,23.68,88.2,23.42Z"/><path class="cls-2" d="M91.65,23.55q-1,.22-2.05.49a15.92,15.92,0,0,0,.75-2.65c.12-.63-.76-1-.88-.35a15.92,15.92,0,0,1-.77,2.7.46.46,0,0,0,.11.52q-1.41.4-2.79.9c-.56.2-.13,1.12.42.92a40.8,40.8,0,0,1,5.4-1.52C92.42,24.43,92.23,23.43,91.65,23.55Z"/><path class="cls-2" d="M94,28.39a9.13,9.13,0,0,0-3.64.64l-.16,0L90,27.69l1.4-.42c.57-.17.38-1.17-.19-1l-1.33.4-.09-.78c-.08-.65-1-.47-.91.17l.1.88-1.19.36c-.57.17-.38,1.17.19,1L89.15,28l.16,1.39-2.73.83c-.57.17-.38,1.17.19,1l3.61-1.1a9.07,9.07,0,0,1,3.56-.68C94.54,29.46,94.6,28.46,94,28.39Z"/><path class="cls-2" d="M95.87,31.54q-2,.53-4,1.15a7.27,7.27,0,0,0,.4-2,.47.47,0,1,0-.93-.1,6.31,6.31,0,0,1-.38,1.83.58.58,0,0,0-.08-.16l-1.08-1.48c-.38-.52-1.07.13-.69.65l1.08,1.48a.41.41,0,0,0,.7,0,.44.44,0,0,0,.06.12q-1.87.6-3.73,1.26c-.56.2-.13,1.12.42.92q4.15-1.5,8.43-2.61C96.64,32.39,96.45,31.39,95.87,31.54Z"/><path class="cls-2" d="M94.83,37.39c.39-.92.62-2.06-.1-2.69-.94-.81-2.59-.14-3.48.35-.52.29-.1,1.21.42.92a4.6,4.6,0,0,1,1.3-.51,1.9,1.9,0,0,1,1-.06c.58.26,0,1.56-.34,2.15L91.8,38a.43.43,0,0,0-.26.17.61.61,0,0,0,0-.15l-.81-2.11c-.23-.61-1.06-.17-.83.43l.81,2.11a.42.42,0,0,0,.77.08c0,.28.22.54.54.46l1.88-.46a.38.38,0,0,0,.38-.09l.46-.11A.54.54,0,0,0,94.83,37.39Z"/><path class="cls-2" d="M103.43,21.64l-2.59.79a.44.44,0,0,0-.07-.57L99.16,20.2a.48.48,0,0,0-.69.65l1.61,1.67a.53.53,0,0,0,.14.1l-2.9.88c-.57.17-.38,1.17.19,1l6.11-1.87C104.19,22.47,104,21.47,103.43,21.64Z"/><path class="cls-2" d="M97.85,25.37c-.2-.62-1-.18-.83.43a18.4,18.4,0,0,1,.31,10.27c-.16.62.72,1,.88.35A19.68,19.68,0,0,0,97.85,25.37Z"/><path class="cls-2" d="M103.3,25.06l-.78.3c0-.1,0-.2-.07-.31a.46.46,0,1,0-.91.17q.05.22.09.44-.75.24-1.5.43a.46.46,0,0,0-.81.19l-.17,0c-.58.12-.4,1.12.19,1l.21,0,.63,2.32c.16.6,1,.47.92-.11a.49.49,0,0,0,.46,0l.11,0a.45.45,0,0,0,.44-.17l.18-.07a.52.52,0,0,0,.2-.67.53.53,0,0,0-.07-.11,6.69,6.69,0,0,0,.23-2.08l1.08-.41C104.28,25.75,103.86,24.84,103.3,25.06Zm-2.37,3.78-.48-1.77q.64-.16,1.27-.36a5.69,5.69,0,0,1-.3,1.8l-.28.11A.38.38,0,0,0,100.93,28.84Z"/><path class="cls-2" d="M107.62,34.77a11.9,11.9,0,0,1-4.09-1.44l.16-.28a12,12,0,0,0,.76-1.73,2.07,2.07,0,0,0,0-1.76.47.47,0,0,0-.63-.24,17.66,17.66,0,0,0-2.41,1.4c-.49.34-.07,1.26.42.92a17.7,17.7,0,0,1,1.87-1.13,4.24,4.24,0,0,1-.34,1,10.54,10.54,0,0,1-.68,1.37l-1-.59c-.53-.31-1,.51-.51.83l1,.58a10.63,10.63,0,0,1-1.35,1.54c-.44.42.18,1.19.62.77A11.57,11.57,0,0,0,103,34.16a13.06,13.06,0,0,0,4.55,1.62C108.16,35.85,108.22,34.84,107.62,34.77Z"/></g></g></svg>