<svg xmlns="http://www.w3.org/2000/svg" viewBox="0 0 126.11 69.92"><defs><style>.cls-1{fill:#f4ecce;}.cls-2{fill:#212020;stroke:#212020;stroke-miterlimit:10;stroke-width:0.5px;}</style></defs><title>資產 9</title><g id="圖層_2" data-name="圖層 2"><g id="圖層_1-2" data-name="圖層 1"><path class="cls-1" d="M119.4,52.39c3.17,2.48,3.41,5.65,1.64,9.11-2.48,4.87-7.62,8.7-13.24,8.4-4.62-.25-8.76-3-12-6.15a32.86,32.86,0,0,1-4.63-5.81c-1.25-2-2-4.16-3.11-6.17s-2.78-2.52-5-2.72c-3.7-.34-7.4-.34-11.1-.78a109.54,109.54,0,0,1-21.19-4.7c-2.73-.9-5.92-2.85-8.85-2.69-2.06.11-3.66,1.42-5.22,2.65-5.16,4.1-10.89,7.91-17.59,8.77C11.11,53.32,3,49.55.62,41.37-1.62,33.57,2.43,25.87,9,21.68a.58.58,0,0,0,0-.92c-3.68-2.4-5-6.81-4.2-11,1-4.93,4.92-8.34,9.75-9.36,10-2.12,18.4,4.92,23.2,13,.62,1.06,1.12,2.84,2.16,3.53.81.53,3.41.27,4.41.35,1.47.14,2.94.28,4.4.45q7.69.86,15.31,2.28A217,217,0,0,1,97,28.88a.57.57,0,0,0,.48,0,.57.57,0,0,0,.22-.84c-2.57-5.12,5.27-9.7,9.64-9.74a20.37,20.37,0,0,1,14,5.95c3.55,3.5,5.67,8.53,4.49,13.51s-5.09,9.09-10.26,9.52A.59.59,0,0,0,115,48C116.08,50,117.68,51,119.4,52.39Z"/><path class="cls-2" d="M34.54,19a18.88,18.88,0,0,0-1.43,4.62c-.1.57.78.81.87.23a18,18,0,0,1,1.33-4.4C35.56,19,34.78,18.51,34.54,19Z"/><path class="cls-2" d="M38.09,24.88q-1-.08-2-.2l2.75-1.85c.48-.32,0-1.11-.45-.78l-2,1.35.8-3a.45.45,0,0,0-.87-.23L35.3,24a.41.41,0,0,0,.15.45.53.53,0,0,0,.09.17q-1.82-.23-3.63-.58c-.57-.11-.8.76-.23.87a57.33,57.33,0,0,0,6.42.88C38.68,25.83,38.67,24.93,38.09,24.88Z"/><path class="cls-2" d="M33.11,22.93l-.61-1.57a.47.47,0,0,0-.56-.32.46.46,0,0,0-.32.56l.61,1.57a.47.47,0,0,0,.56.32A.46.46,0,0,0,33.11,22.93Z"/><path class="cls-2" d="M35.87,28.92l-2.53-.4a.44.44,0,0,0,.19-.47,7.74,7.74,0,0,1-.16-2c0-.58-.88-.57-.91,0a8.67,8.67,0,0,0,.19,2.23.47.47,0,0,0,0,.13l-1.39-.22c-.57-.09-.81.78-.23.87l4.56.72C36.21,29.88,36.45,29,35.87,28.92Z"/><path class="cls-2" d="M36.32,26.06a3.82,3.82,0,0,1-1.9,1.66c-.54.21-.3,1.09.24.87a4.81,4.81,0,0,0,2.44-2.07A.45.45,0,0,0,36.32,26.06Z"/><path class="cls-2" d="M35.47,34.28l-2-.34.37-2.26,1.38.15c.58.06.56-.84,0-.91L34,30.8l.12-.71c.09-.57-.78-.81-.87-.23l-.14.85-1.36-.15c-.58-.06-.56.84,0,.91l1.21.13-.36,2.2-2.51-.42c-.57-.1-.81.78-.23.87l5.4.91C35.81,35.25,36,34.38,35.47,34.28Z"/><path class="cls-2" d="M44.31,27.54l-.63-.11c.24-1.07.5-2.14.75-3.2a.45.45,0,0,0-.87-.23c-.26,1.08-.52,2.16-.76,3.25A23.79,23.79,0,0,1,40,26.44c-.55-.2-.78.68-.23.87a23.79,23.79,0,0,0,2.84.82c-.23,1.07-.44,2.14-.62,3.22a28.05,28.05,0,0,1-.57,3.53c-.06.21-.19.72-.39.84s-.41-.15-.54-.27a6,6,0,0,1-1-1.35.45.45,0,0,0-.78.45c.44.77,1.44,2.4,2.54,2.08.55-.16.82-.79,1-1.29a10.17,10.17,0,0,0,.41-2.18c.21-1.63.52-3.25.86-4.86l.59.1C44.65,28.5,44.89,27.63,44.31,27.54Z"/><path class="cls-2" d="M41,32a11.29,11.29,0,0,1-1.14-2c-.24-.53-1-.07-.78.45a11.29,11.29,0,0,0,1.14,2C40.59,32.9,41.37,32.45,41,32Z"/><path class="cls-2" d="M79.08,33.31l-3.62-.43a16.62,16.62,0,0,0,.62-2.51c.1-.63-.86-.89-1-.26a16.16,16.16,0,0,1-.67,2.65l-1.65-.2c-.63-.08-.62.92,0,1l1.28.15a16.16,16.16,0,0,1-5.86,7.2c-.53.36,0,1.22.5.86a17.31,17.31,0,0,0,6.39-7.94l4,.47C79.73,34.38,79.71,33.38,79.08,33.31Z"/><path class="cls-2" d="M78.23,43.82a22.22,22.22,0,0,1-2.42-2.47,9.17,9.17,0,0,0,1.5-1.52,1.41,1.41,0,0,0,.42-1.28,1.17,1.17,0,0,0-.82-.72,8.37,8.37,0,0,0-3.38,0c-.63.09-.36,1.05.27,1a10,10,0,0,1,2.57-.1c.08,0,.38,0,.42.12s-.22.31-.24.35a7.87,7.87,0,0,1-.73.81,8.23,8.23,0,0,1-.62.56q-.44-.58-.85-1.19c-.35-.53-1.22,0-.86.5s.58.85.9,1.26a8.57,8.57,0,0,1-2.27,1,.5.5,0,0,0,.27,1A9.53,9.53,0,0,0,75,41.94a22.6,22.6,0,0,0,2.52,2.59C78,44.95,78.71,44.25,78.23,43.82Z"/><path class="cls-2" d="M85.81,33.62a6.14,6.14,0,0,1-1.07-1.69.46.46,0,0,0-.62-.16.46.46,0,0,0-.16.62,6.85,6.85,0,0,0,1.21,1.88C85.56,34.69,86.2,34,85.81,33.62Z"/><path class="cls-2" d="M88.8,35.12q-1-.25-2-.44a13.75,13.75,0,0,0,1.73-1.82c.36-.45-.28-1.1-.64-.64a13.75,13.75,0,0,1-1.76,1.85.38.38,0,0,0-.11.46q-1.41-.25-2.83-.42c-.58-.07-.56.84,0,.91a43.5,43.5,0,0,1,5.38,1A.45.45,0,0,0,88.8,35.12Z"/><path class="cls-2" d="M89,40a9.74,9.74,0,0,0-3.47-1l-.16,0,.41-1.17,1.41.23c.57.09.81-.78.23-.87L86,36.92l.23-.66c.19-.55-.68-.78-.87-.23l-.26.74-1.2-.2c-.57-.09-.81.78-.23.87l1.13.19-.41,1.18-2.75-.45c-.57-.09-.81.78-.23.87l3.64.59a9.67,9.67,0,0,1,3.42.9A.45.45,0,0,0,89,40Z"/><path class="cls-2" d="M89.34,43.23q-2-.4-4-.72a6.18,6.18,0,0,0,1.17-1.46.45.45,0,0,0-.78-.46,5.36,5.36,0,0,1-1.06,1.31.48.48,0,0,0,0-.16l-.36-1.62c-.13-.57-1-.33-.87.24L83.77,42a.42.42,0,0,0,.63.26.37.37,0,0,0,0,.12q-1.9-.28-3.8-.5c-.58-.07-.56.84,0,.91q4.27.49,8.5,1.33C89.68,44.22,89.92,43.35,89.34,43.23Z"/><path class="cls-2" d="M86.08,47.48c.71-.58,1.38-1.4,1-2.19-.5-1-2.24-1.17-3.22-1.13a.45.45,0,0,0,0,.91,4.87,4.87,0,0,1,1.35.12,2,2,0,0,1,.94.38c.41.44-.64,1.24-1.16,1.58l-1.84-.4a.44.44,0,0,0-.3,0,.5.5,0,0,0,0-.13l.13-2c0-.58-.87-.57-.91,0l-.13,2a.43.43,0,0,0,.65.38.41.41,0,0,0,.29.59l1.85.4a.4.4,0,0,0,.37.08l.45.1A.47.47,0,0,0,86.08,47.48Z"/><path class="cls-2" d="M100,38.2l-2.61-.42a.37.37,0,0,0,.17-.48l-.76-2c-.21-.54-1.08-.3-.87.24l.76,2a.49.49,0,0,0,.08.14l-2.92-.47c-.57-.09-.81.78-.23.87l6.15,1C100.38,39.17,100.61,38.3,100,38.2Z"/><path class="cls-2" d="M93.61,38.92c.07-.58-.84-.56-.91,0a15.15,15.15,0,0,1-3.84,8.35c-.39.43.25,1.07.64.64A16.2,16.2,0,0,0,93.61,38.92Z"/><path class="cls-2" d="M98.56,40.89l-.81-.08c0-.09,0-.18.06-.27.11-.57-.76-.8-.87-.23,0,.13-.06.26-.09.39q-.75-.11-1.5-.27a.47.47,0,0,0-.79-.18l-.16,0a.45.45,0,0,0-.23.87l.2,0L94,43.24c-.1.55.71.79.86.29a.51.51,0,0,0,.39.22h.11a.47.47,0,0,0,.45,0l.19,0a.46.46,0,0,0,.45-.46.45.45,0,0,0,0-.11,5.59,5.59,0,0,0,1-1.57l1.12.11C99.15,41.84,99.13,40.93,98.56,40.89Zm-3.61,2.06.28-1.61q.63.13,1.27.23a4.81,4.81,0,0,1-1,1.32l-.29,0A.37.37,0,0,0,94.95,42.94Z"/><path class="cls-2" d="M98.49,50.41a11.92,11.92,0,0,1-3-2.81l.25-.16a10.74,10.74,0,0,0,1.36-1.07A1.72,1.72,0,0,0,97.78,45a.47.47,0,0,0-.46-.45,18.35,18.35,0,0,0-2.69.14c-.57.07-.57,1,0,.91a18.35,18.35,0,0,1,2.1-.14,3.72,3.72,0,0,1-.7.65,9.53,9.53,0,0,1-1.15.82L94.24,46c-.34-.46-1.13,0-.78.45l.64.87a10.3,10.3,0,0,1-1.81.69.45.45,0,0,0,.24.87A11.19,11.19,0,0,0,94.66,48,13.07,13.07,0,0,0,98,51.19.45.45,0,0,0,98.49,50.41Z"/><path class="cls-2" d="M48.66,25.76A10,10,0,0,1,44.57,31c-.44.28-.07,1,.37.73A10.93,10.93,0,0,0,49.44,26,.41.41,0,0,0,48.66,25.76Z"/><path class="cls-2" d="M54.94,38.58q-2.4-.61-4.83-1.13h0a2.77,2.77,0,0,0,.14-.64l.16-.79.31-1.5L51,33.17l2.3.26c.52.06.56-.76,0-.82l-2.16-.24.21-.92q.2-.86.42-1.71,1.22.22,2.43.5c.51.12.77-.66.25-.78Q53.27,29.17,52,29c.32-1.18.68-2.35,1.08-3.51a.41.41,0,0,0-.78-.25c-.42,1.19-.78,2.41-1.11,3.63q-1.14-.19-2.29-.33c-.52-.06-.56.75,0,.82q1.06.13,2.12.3-.21.8-.39,1.6-.13.54-.25,1.08l-1.89-.21c-.52-.06-.56.76,0,.82l1.75.2L50,34.18l-.32,1.57-.14.71c0,.14,0,.31-.08.47a.39.39,0,0,0-.15.34q-2.39-.5-4.8-.9c-.52-.09-.55.73,0,.82q5.17.87,10.25,2.17C55.19,39.48,55.45,38.71,54.94,38.58Z"/><path class="cls-2" d="M63.61,29.56a17.19,17.19,0,0,1-7.91,7.83.45.45,0,0,0,.36.83c3.75-1.62,6.47-4.81,8.39-8.33C64.73,29.39,63.89,29.06,63.61,29.56Z"/><path class="cls-2" d="M66.74,40.66A13.61,13.61,0,0,1,64,37.8a38.73,38.73,0,0,1-2.33-3.36c-.31-.5-1,.07-.71.56a38.69,38.69,0,0,0,2.43,3.5,14.09,14.09,0,0,0,2.82,2.9C66.67,41.72,67.22,41,66.74,40.66Z"/></g></g></svg>