<svg xmlns="http://www.w3.org/2000/svg" viewBox="0 0 121.94 53.86"><defs><style>.cls-1{fill:#fff;}.cls-2{fill:none;stroke:#f95f5f;stroke-miterlimit:10;stroke-width:7px;}</style></defs><title>資產 15</title><g id="圖層_2" data-name="圖層 2"><g id="圖層_1-2" data-name="圖層 1"><rect class="cls-1" x="3.5" y="3.5" width="114.94" height="46.86" rx="10" ry="10"/><rect class="cls-2" x="3.5" y="3.5" width="114.94" height="46.86" rx="10" ry="10"/><path d="M23.34,35.27l-.67-16.94a1.08,1.08,0,0,1,1.18-.93q18.17-.1,19.08.13t.58,1.83q-.62,15-.85,15.78a1,1,0,0,1-1.13.75q-.9-.05-17,.05Q23.57,36,23.34,35.27Zm17.45-1.39.67-14.52-16.68-.05.46,14.57Zm-5.28-3.47H30.11A1,1,0,0,1,29,29.56q-.14-.85-.3-5.74A1.2,1.2,0,0,1,30,22.89q7.21.1,7.72.24T38.14,25L38,29.33q-.08.88-.68,1A6.84,6.84,0,0,1,35.51,30.41Zm.51-2,.05-3.4-5.25-.1L31,28.35Z"/><path d="M53.48,38q-1.13-.05-1.2-.59a10,10,0,0,1,0-1.57V24q-.13-1.16,1.31-1.18H55.8q1.34-1.8,1.7-2.42L50,20.63a1.36,1.36,0,0,1-.72-.31,1.27,1.27,0,0,1-.26-1l.26-.51a2.92,2.92,0,0,1,1.65-.36h4.3q-.52-1.49-.88-2.73l.26-.51a1.2,1.2,0,0,1,.93-.26l.51.26a8.65,8.65,0,0,1,.88,1.57,7.94,7.94,0,0,1,.46,1.57l3.81-.05q.31-.93.64-1.83t.75-1.78a1.25,1.25,0,0,1,1-.31l.51.26a1.37,1.37,0,0,1,.26,1l-1,2.73,5.17.05a1.38,1.38,0,0,1,.72.31,1.2,1.2,0,0,1,.26.93l-.26.54a2.06,2.06,0,0,1-.87.31l-8.16-.15q-.57.62-2.06,2.57l7.1.15a1.68,1.68,0,0,1,1,.27q.4.27.35,1.27L66.27,37q.1,1-.48,1T53.48,38ZM64.29,27.27l.15-2.16L54.3,24.85l.1,2.32ZM64.24,36l-.1-2.57H54.3l.05,2.52Zm0-4.66V29.23l-9.83-.05v2.21Z"/><path d="M79.78,33.88q-1.06-.08-1.2-.7T78,22.07q-.15-.87.39-1.14a18.89,18.89,0,0,1,4.74-.14l1.39-2.7L77.85,18a3.19,3.19,0,0,1-1.91-.36,1.2,1.2,0,0,1-.26-.93l.26-.51a3,3,0,0,1,1.85-.26l16.4.49a3.65,3.65,0,0,1,1.42.33,1.2,1.2,0,0,1,.26.93l-.26.52a1.51,1.51,0,0,1-.93.31l-8-.26-1.39,2.65,7.49.1a1,1,0,0,1,.93,1.26v10.6q-.28,1.05-1,.82Zm-.72,4.58-.54-.26a1.19,1.19,0,0,1-.26-.93l.31-.57a11.2,11.2,0,0,1,3.83-2.06l.51.26a1.2,1.2,0,0,1,.26.93l-.26.51A13,13,0,0,0,81,37.57,4.63,4.63,0,0,1,79.06,38.47ZM91.68,24.39V23l-11.61-.13,0,1.42Zm.05,3.6-.05-1.6-11.53-.1L80.2,28Zm0,3.66L91.78,30H80.45l.05,1.85Zm1.06,7a26.07,26.07,0,0,1-3.63-2.42,1.25,1.25,0,0,1-.31-1l.26-.51a1.37,1.37,0,0,1,1-.26q.93.51,3.58,2.37a1.37,1.37,0,0,1,.26,1l-.26.51A2.06,2.06,0,0,1,92.78,38.67Z"/></g></g></svg>