<svg xmlns="http://www.w3.org/2000/svg" viewBox="0 0 219 69.44"><defs><style>.cls-1{fill:#ff9797;}.cls-2{fill:#fff;}.cls-3{fill:#494949;}.cls-4{font-size:27px;font-family:MicrosoftJhengHeiBold, Microsoft JhengHei;font-weight:700;}</style></defs><title>資產 9</title><g id="圖層_2" data-name="圖層 2"><g id="圖層_1-2" data-name="圖層 1"><rect class="cls-1" width="219" height="69.44" rx="29.5" ry="29.5"/><path class="cls-2" d="M55.79,36.9a.87.87,0,0,0-.67-.09.93.93,0,0,0-.52.4l0,0a.87.87,0,0,0,.31,1.19.88.88,0,0,0,1.28-.52v0A.87.87,0,0,0,55.79,36.9Z"/><path class="cls-2" d="M56.65,39.72a.7.7,0,0,0-1,0,.77.77,0,0,0-.22.58.71.71,0,1,0,1.43,0A.77.77,0,0,0,56.65,39.72Z"/><path class="cls-3" d="M60.57,24.92a.61.61,0,0,0,.06-.26.9.9,0,0,0-1-.91H57.4a1,1,0,0,0-1,1c0,.13,0,0,.06.32H51.87l-1.42-2.91a3.76,3.76,0,0,0-3.07-1.94h-9.7a3.72,3.72,0,0,0-3.07,1.94L33.18,25H31.85V23.59c0-.19-.13-.16-.32-.16H25.06c-.19,0-.32,0-.32.16v1.3a2.9,2.9,0,0,0-2.91,2.91v22a3,3,0,0,0,2.91,3.08H60.31a3,3,0,0,0,2.91-3.08v-22a2.91,2.91,0,0,0-2.65-2.88ZM37.35,23.14a.31.31,0,0,1,.32-.32h9.7a.31.31,0,0,1,.32.32v1.3a.31.31,0,0,1-.32.32h-9.7a.31.31,0,0,1-.32-.32Zm-11,8.26a1.94,1.94,0,1,1,1.94-1.94,1.95,1.95,0,0,1-1.94,1.94ZM28.94,33a1,1,0,1,1,1-1,1,1,0,0,1-1,1ZM42.53,50.17A11.33,11.33,0,1,1,53.84,38.84,11.34,11.34,0,0,1,42.53,50.17Zm0,0"/><path class="cls-3" d="M42.53,29.77a9.07,9.07,0,1,0,9.06,9.07,9.09,9.09,0,0,0-9.06-9.07Zm0,13.92a4.86,4.86,0,1,1,4.85-4.86,4.85,4.85,0,0,1-4.85,4.86Zm0,0"/><rect class="cls-2" x="71.23" y="14.17" width="122.69" height="40.9"/><text class="cls-4" transform="translate(79.22 45.75)">使用這張</text></g></g></svg>