<svg xmlns="http://www.w3.org/2000/svg" viewBox="0 0 306.78 69"><defs><style>.cls-1{fill:#9bf;}.cls-2{fill:#fff;}.cls-3{fill:#494949;}.cls-4{font-size:27px;font-family:MicrosoftJhengHeiBold, Microsoft JhengHei;font-weight:700;}</style></defs><title>資產 11</title><g id="圖層_2" data-name="圖層 2"><g id="圖層_1-2" data-name="圖層 1"><rect class="cls-1" width="306.78" height="69" rx="29.5" ry="29.5"/><path class="cls-2" d="M59.57,36.46a.87.87,0,0,0-.67-.09.93.93,0,0,0-.52.4l0,0A.87.87,0,0,0,58.68,38,.88.88,0,0,0,60,37.46v0A.87.87,0,0,0,59.57,36.46Z"/><path class="cls-2" d="M60.43,39.28a.7.7,0,0,0-1,0,.77.77,0,0,0-.22.58.71.71,0,1,0,1.43,0A.77.77,0,0,0,60.43,39.28Z"/><path class="cls-3" d="M64.36,24.48a.61.61,0,0,0,.06-.26.9.9,0,0,0-1-.91H61.19a1,1,0,0,0-1,1c0,.13,0,0,.06.32H55.66l-1.42-2.91a3.76,3.76,0,0,0-3.07-1.94h-9.7a3.72,3.72,0,0,0-3.07,1.94L37,24.61H35.64V23.15c0-.19-.13-.16-.32-.16H28.85c-.19,0-.32,0-.32.16v1.3a2.9,2.9,0,0,0-2.91,2.91v22a3,3,0,0,0,2.91,3.08H64.1A3,3,0,0,0,67,49.38v-22a2.91,2.91,0,0,0-2.65-2.88ZM41.14,22.7a.31.31,0,0,1,.32-.32h9.7a.31.31,0,0,1,.32.32V24a.31.31,0,0,1-.32.32h-9.7a.31.31,0,0,1-.32-.32ZM30.14,31A1.94,1.94,0,1,1,32.08,29,1.95,1.95,0,0,1,30.14,31Zm2.59,1.62a1,1,0,1,1,1-1,1,1,0,0,1-1,1ZM46.31,49.73A11.33,11.33,0,1,1,57.63,38.4,11.34,11.34,0,0,1,46.31,49.73Zm0,0"/><path class="cls-3" d="M46.31,29.33a9.07,9.07,0,1,0,9.06,9.07,9.09,9.09,0,0,0-9.06-9.07Zm0,13.92a4.86,4.86,0,1,1,4.85-4.86,4.85,4.85,0,0,1-4.85,4.86Zm0,0"/><rect class="cls-2" x="75.01" y="13.73" width="204.77" height="40.9"/><text class="cls-4" transform="translate(83 45.31)">使用自己的圖片</text></g></g></svg>