<svg xmlns="http://www.w3.org/2000/svg" viewBox="0 0 203.71 166.79"><defs><style>.cls-1{fill:#edd0b4;}.cls-2{fill:#e2c3aa;}.cls-3{fill:#756675;}.cls-4{fill:#d6b499;}.cls-5{fill:#594a42;}.cls-6,.cls-9{fill:none;}.cls-6{stroke:#edd0b4;stroke-miterlimit:10;}.cls-7{fill:#f26522;}.cls-8{fill:#f9968c;}.cls-9{stroke:#594a42;stroke-linecap:round;stroke-linejoin:round;stroke-width:2px;}.cls-10{fill:#d8501a;}.cls-11{fill:#89563f;}</style></defs><title>資產 18</title><g id="圖層_2" data-name="圖層 2"><g id="圖層_1-2" data-name="圖層 1"><g id="_群組_" data-name="&lt;群組&gt;"><path id="_路徑_" data-name="&lt;路徑&gt;" class="cls-1" d="M35.45,97.1l-4.73,13c-.77-.24-1.51-.51-2.23-.8l-1.12-.47a27.5,27.5,0,0,1-2.93-1.52q-.58-.34-1.12-.7C6.29,95.27,11.59,70,11.59,70A44.62,44.62,0,0,0,35.45,97.1Z"/><path id="_路徑_2" data-name="&lt;路徑&gt;" class="cls-2" d="M30.5,99.13l-2,10.16-1.12-.47a27.5,27.5,0,0,1-2.93-1.52C25.82,102.59,30.5,99.13,30.5,99.13Z"/><ellipse id="_路徑_3" data-name="&lt;路徑&gt;" class="cls-3" cx="102.1" cy="152.08" rx="101.61" ry="14.71"/><path id="_路徑_4" data-name="&lt;路徑&gt;" class="cls-4" d="M72.16,140.29a8.2,8.2,0,0,0-2.27.33L58.76,138.2l13.39-15s27.22-2.68,41.16-13.89H35.45V148.5H80.37A8.21,8.21,0,0,0,72.16,140.29Z"/><path id="_路徑_5" data-name="&lt;路徑&gt;" class="cls-4" d="M122.46,140.68a8.19,8.19,0,0,0-2.16.3l6-94.35-15.93-1.77-3.09,104h23.42A8.21,8.21,0,0,0,122.46,140.68Z"/><polygon id="_路徑_6" data-name="&lt;路徑&gt;" class="cls-4" points="105.71 18.73 105.71 0 133.48 16.97 105.71 18.73"/><path id="_路徑_7" data-name="&lt;路徑&gt;" class="cls-1" d="M148.88,44.83C140.79,46.82,130.36,48,117,48V14.55h58.63S183.07,36.45,148.88,44.83Z"/><path id="_路徑_8" data-name="&lt;路徑&gt;" class="cls-2" d="M148.88,44.83c26-13.92,21.19-22.57,21.19-22.57-2.63-1.71-3.05-5.65-3.11-7.71h8.62S183.07,36.45,148.88,44.83Z"/><circle id="_路徑_9" data-name="&lt;路徑&gt;" class="cls-5" cx="176.13" cy="14.55" r="6.06"/><circle id="_路徑_10" data-name="&lt;路徑&gt;" class="cls-5" cx="131.28" cy="24.47" r="2.2"/><polygon id="_路徑_11" data-name="&lt;路徑&gt;" class="cls-1" points="116.95 14.55 83.45 5.29 97.11 31.3 97.11 48.05 116.95 48.05 116.95 14.55"/><polygon id="_路徑_12" data-name="&lt;路徑&gt;" class="cls-1" points="124.44 43.64 105.71 152.08 94.03 152.08 97.11 48.05 124.44 43.64"/><path id="_路徑_13" data-name="&lt;路徑&gt;" class="cls-1" d="M101,152.08a8.21,8.21,0,1,1,16.42,0Z"/><path id="_路徑_14" data-name="&lt;路徑&gt;" class="cls-1" d="M54.53,152.08a8.21,8.21,0,1,1,16.42,0Z"/><path id="_路徑_15" data-name="&lt;路徑&gt;" class="cls-1" d="M140.1,42.1s-.16,1.73-.61,4.52c-.36,2.28-.91,5.27-1.71,8.62a93,93,0,0,1-4,12.78A54,54,0,0,1,128,79c-4,5.66-9.21,10-16.06,10.84a20.19,20.19,0,0,1-2.69.18c-12.54,0-12.44-11.7-8.89-23.95a109.58,109.58,0,0,1,4.33-12c.5-1.17,1-2.32,1.5-3.41,3.2-7.06,6.14-12.23,6.14-12.23Z"/><path id="_路徑_16" data-name="&lt;路徑&gt;" class="cls-1" d="M111.83,99.63c-.81,8.54-8.08,14.5-16.8,18.61h0a87.68,87.68,0,0,1-15.69,5.44,124.67,124.67,0,0,1-16.61,3.06l-13.39,15,11.4,2.47v7.82H26V121.4a59.54,59.54,0,0,1,34-53.77s2.89-1.72,7-4.55h0C73.2,58.94,82,52.46,88.54,45.58a50.93,50.93,0,0,0,4.32-5.12c2.29-3.13,3.86-6.25,4.25-9.16,1.17-8.69,5.41,2.87,9.07,19.39.39,1.76.78,3.58,1.15,5.44,1.19,5.92,2.27,12.21,3.09,18.3.74,5.47,1.28,10.76,1.5,15.44A70.62,70.62,0,0,1,111.83,99.63Z"/><path id="_路徑_17" data-name="&lt;路徑&gt;" class="cls-2" d="M129.74,76.31a58.49,58.49,0,0,0,4-8.3,78.3,78.3,0,0,1-26.46-11.89c-.89-.64-1.78-1.31-2.65-2A50,50,0,0,1,92.86,40.46a48,48,0,0,1-3.22,3.94C93,51.63,104.52,71.83,129.74,76.31Z"/><path id="_路徑_18" data-name="&lt;路徑&gt;" class="cls-2" d="M95,93v25.22h0a88.25,88.25,0,0,1-15.68,5.44,125.72,125.72,0,0,1-16.61,3.05L57.6,104.09C88.4,129,95,93,95,93Z"/><path id="_路徑_19" data-name="&lt;路徑&gt;" class="cls-6" d="M3.71,74.33s1.16-8.27,13.22-10.08"/><path id="_路徑_20" data-name="&lt;路徑&gt;" class="cls-6" d="M.5,71.6s1.16-8.27,13.22-10.08"/><path id="_路徑_21" data-name="&lt;路徑&gt;" class="cls-7" d="M136.67,68c-.47,1.42-1.8,2.91-4.74,4.18,0,0-19-.19-33.61-17.86l0,0a59.67,59.67,0,0,1-7.38-11.41s-.61-8.45,5.44-8.67c0,0,4.25,27.66,39.21,28.88C135.56,63.14,137.55,65.44,136.67,68Z"/><path id="_路徑_22" data-name="&lt;路徑&gt;" class="cls-8" d="M166.48,32.54,171.17,39a4.24,4.24,0,0,1-.95,5.93h0A4.24,4.24,0,0,1,164.3,44l-4.69-6.47Z"/><path id="_路徑_23" data-name="&lt;路徑&gt;" class="cls-9" d="M168.91,28.34s-4.19,9.3-13.11,10.13"/><path id="_路徑_24" data-name="&lt;路徑&gt;" class="cls-2" d="M139.49,46.62c-.36,2.28-.91,5.27-1.71,8.62-11.54-.72-21.27-7.41-21.27-7.41Z"/><polygon id="_路徑_25" data-name="&lt;路徑&gt;" class="cls-8" points="84.78 7.83 104.35 22.26 97.11 31.3 84.78 7.83"/><path id="_路徑_26" data-name="&lt;路徑&gt;" class="cls-10" d="M136.67,68c-.47,1.42-1.8,2.91-4.74,4.18,0,0-19-.19-33.61-17.86C99.44,55.29,119.32,71.55,136.67,68Z"/><path id="_路徑_27" data-name="&lt;路徑&gt;" class="cls-11" d="M67.1,63.08C66,68.41,63.34,77.45,57.82,80.46c-8,4.38,6.79,38.31-29.62,33.56-.58-.07-1.13-.16-1.66-.27A59.5,59.5,0,0,1,60.05,67.63S62.94,65.91,67.1,63.08Z"/></g></g></g></svg>