<svg xmlns="http://www.w3.org/2000/svg" viewBox="0 0 66.97 115.06"><defs><style>.cls-1{fill:#9b9b9b;}</style></defs><title>資產 17</title><g id="圖層_2" data-name="圖層 2"><g id="圖層_1-2" data-name="圖層 1"><path class="cls-1" d="M30.51,60.43c.79,5.94,7.42,9.65,11.63,13.17L58.22,87c4.91,4.1,12-2.94,7.07-7.07L53.6,70.19l-5.85-4.88c-1.74-1.45-5.36-3.48-6.43-5.39s.58-3.15,2.05-5L48.14,49,58.26,36.35c4-5-3-12.09-7.07-7.07L38.09,45.63C34.7,49.86,29.72,54.51,30.51,60.43Z"/><path class="cls-1" d="M6.86,76q6.23,6.73,12.81,13.13A363.87,363.87,0,0,0,48,113.89c5,3.95,12.12-3.08,7.07-7.07q-12.6-10-24.32-21-6-5.67-11.74-11.61-2.87-3-5.67-6c-2.25-2.44-3.77-3.42-2.2-6.72C20.25,42.32,32.19,24.14,45,7.17,48.83,2,40.15-3,36.32,2.13,29.08,11.75,22.29,21.7,16,32q-4.68,7.72-9,15.68C4.55,52.34.43,58,0,63.45S3.48,72.35,6.86,76Z"/></g></g></svg>