<svg xmlns="http://www.w3.org/2000/svg" viewBox="0 0 548.21 594.23"><defs><style>.cls-1{fill:#aaa;}.cls-2{fill:#f1f1f1;}.cls-3{fill:#fff;stroke:#565456;stroke-miterlimit:10;stroke-width:6px;}.cls-4{fill:#fffc99;}.cls-5{fill:#ffabd7;}.cls-6{fill:#eac39d;}.cls-7{fill:#1b1464;}.cls-8{fill:#100e5b;}.cls-9{fill:#1a1a1a;opacity:0.2;}.cls-10{fill:#8cc63f;}.cls-11{fill:#83b239;}</style></defs><title>資產 10</title><g id="圖層_2" data-name="圖層 2"><g id="圖層_1-2" data-name="圖層 1"><polygon class="cls-1" points="471.37 560.01 68 563.61 63.82 30.84 467.18 27.23 471.37 560.01"/><polygon class="cls-2" points="468.94 557.52 63.28 561.14 59.07 25.32 464.74 21.7 468.94 557.52"/><polygon class="cls-3" points="449.95 443.25 81.68 446.54 78.59 53.85 446.87 50.57 449.95 443.25"/><polygon class="cls-4" points="181.33 46.03 45.65 163.14 47.33 153.62 39.85 155.5 38 146.51 32.68 146.06 31.18 137.53 25.16 136.16 26.56 126.27 18.17 126.95 18.8 119.43 10.7 117.11 146.38 0 149.76 6.51 147.13 11.06 154.9 11.22 153.78 19.81 161.54 19.97 161.3 29.71 169.24 30.1 167.24 37.54 175.18 37.93 173.53 45.83 181.33 46.03"/><polygon class="cls-5" points="548.21 488.51 408.06 594.23 410.07 585.34 402.51 586.87 400.97 578.37 395.65 577.78 394.44 569.72 388.45 568.24 390.2 559 381.76 559.37 382.65 552.33 374.61 549.89 514.76 444.17 517.92 450.4 515.13 454.59 522.91 454.98 521.49 463.01 529.27 463.41 528.68 472.56 536.63 473.17 534.37 480.09 542.32 480.71 540.39 488.08 548.21 488.51"/><polygon class="cls-6" points="77.4 452.09 93.89 454.58 95.22 445.77 90.2 423.16 78.73 443.28 77.4 452.09"/><polygon class="cls-7" points="57.76 582.26 74.25 584.75 95.22 445.77 87.5 441.08 78.73 443.28 57.76 582.26"/><path class="cls-6" d="M83.18,435.47a6.27,6.27,0,0,1,4.68,3.19A6.27,6.27,0,0,1,93.27,437l1.93,8.71a7.35,7.35,0,0,1-3.1.18,6.32,6.32,0,0,1-4.85-3.22,6.32,6.32,0,0,1-5.59,1.64,7.36,7.36,0,0,1-2.91-1.09Z"/><polygon class="cls-8" points="90.2 423.16 92.41 433.12 85.15 432.03 90.2 423.16"/><polygon class="cls-9" points="57.76 582.26 77.4 452.09 78.73 443.28 85.15 432.03 90.2 423.16 66 583.5 57.76 582.26"/><polygon class="cls-6" points="2.23 386.37 18.61 383.2 16.37 371.66 2.77 345.24 0 374.83 2.23 386.37"/><polygon class="cls-10" points="35.23 556.94 51.61 553.78 16.37 371.66 7.31 368.73 0 374.83 35.23 556.94"/><path class="cls-6" d="M1.08,363.35a5.92,5.92,0,0,1,5.62,2.21,5.91,5.91,0,0,1,4.39-4.15l5.24,10.18a5.9,5.9,0,0,1-8.62-.78A5.9,5.9,0,0,1,0,374.75Z"/><polygon class="cls-11" points="2.77 345.24 8.76 356.88 1.55 358.28 2.77 345.24"/><polygon class="cls-9" points="35.23 556.94 2.23 386.37 0 374.83 1.55 358.28 2.77 345.24 43.42 555.36 35.23 556.94"/></g></g></svg>