<svg xmlns="http://www.w3.org/2000/svg" xmlns:xlink="http://www.w3.org/1999/xlink" viewBox="0 0 201.91 247.96"><defs><style>.cls-1,.cls-4{fill:#4f4f4f;}.cls-1,.cls-2,.cls-8{fill-rule:evenodd;}.cls-2,.cls-6{fill:#959595;}.cls-3{fill:#696969;}.cls-5{fill:#f0f0f0;}.cls-7{fill:#fafafc;}.cls-8{fill:url(#未命名漸層_17);}</style><radialGradient id="未命名漸層_17" cx="57.94" cy="45.99" r="65.68" gradientTransform="matrix(0.92, 0, -0.03, 1.04, 30.88, 0.73)" gradientUnits="userSpaceOnUse"><stop offset="0" stop-color="#fff"/><stop offset="1" stop-color="#fffc83"/></radialGradient></defs><title>資產 6</title><g id="圖層_2" data-name="圖層 2"><g id="圖層_1-2" data-name="圖層 1"><path class="cls-1" d="M83.83,172.49a38.31,38.31,0,1,0-38.31-38.31A38.38,38.38,0,0,0,83.83,172.49Z"/><path class="cls-2" d="M49.66,106.66H149.75c6.22,0,8.2,2.72,11.47,7.1l36.25,48.61c3.27,4.38-38.08,23.28-43.55,23.28H46.49C41,185.64-.2,166.71,3,162.28l35.15-48.59C41.36,109.26,44.2,106.66,49.66,106.66Z"/><rect class="cls-3" x="21.45" y="230.39" width="11.03" height="17.57"/><rect class="cls-3" x="167.92" y="230.39" width="11.03" height="17.57"/><rect class="cls-4" x="108.65" y="153.63" width="81.96" height="69.49"/><path class="cls-1" d="M15.76,153.63h94.7v26.43a39.61,39.61,0,1,0,79.21,0V154a15.83,15.83,0,0,1,12.22,15.36v51a15.81,15.81,0,0,1-15.76,15.76H15.76A15.81,15.81,0,0,1,0,220.44v-51A15.81,15.81,0,0,1,15.76,153.63Z"/><polygon class="cls-5" points="20.11 156.2 35.34 134.09 35.59 133.62 36.12 133.62 90.29 133.62 91.13 133.62 91.18 134.47 92.55 156.58 92.55 156.63 92.55 178.43 92.55 179.32 91.66 179.32 20.89 179.32 19.99 179.32 19.99 178.43 19.99 156.63 19.99 156.41 20.11 156.2"/><path class="cls-6" d="M92.55,156.63v22.69H20V156.63Z"/><rect class="cls-4" x="49.26" y="171.58" width="14.03" height="2.41"/><rect class="cls-7" x="111.9" y="180.18" width="75.87" height="5.69"/><rect class="cls-7" x="111.9" y="211.48" width="75.87" height="5.69"/><rect class="cls-7" x="111.9" y="194.41" width="75.87" height="5.69"/><path class="cls-8" d="M58,95.71h45a3.72,3.72,0,0,1,2.59,1L157.42,0h-147L56.84,95.86A4.24,4.24,0,0,1,58,95.71Z"/></g></g></svg>