<svg xmlns="http://www.w3.org/2000/svg" viewBox="0 0 66.97 115.06"><defs><style>.cls-1{fill:#9b9b9b;}</style></defs><title>資產 19</title><g id="圖層_2" data-name="圖層 2"><g id="圖層_1-2" data-name="圖層 1"><path class="cls-1" d="M36.46,54.63C35.67,48.69,29,45,24.83,41.46L8.75,28c-4.91-4.1-12,2.94-7.07,7.07l11.69,9.76,5.85,4.88c1.74,1.45,5.36,3.48,6.43,5.39s-.58,3.15-2.05,5l-4.77,5.94L8.71,78.71c-4,5,3,12.09,7.07,7.07l13.1-16.35C32.27,65.2,37.25,60.54,36.46,54.63Z"/><path class="cls-1" d="M60.1,39.05q-6.23-6.73-12.81-13.13A363.87,363.87,0,0,0,19,1.16C14-2.78,6.88,4.25,11.93,8.24q12.6,10,24.32,21,6,5.67,11.74,11.61,2.87,3,5.67,6c2.25,2.44,3.77,3.42,2.2,6.72C46.72,72.73,34.78,90.92,22,107.89c-3.87,5.14,4.81,10.13,8.63,5,7.24-9.63,14-19.58,20.28-29.88q4.68-7.72,9-15.68c2.51-4.66,6.63-10.36,7-15.77S63.49,42.71,60.1,39.05Z"/></g></g></svg>