<svg xmlns="http://www.w3.org/2000/svg" xmlns:xlink="http://www.w3.org/1999/xlink" viewBox="0 0 1366 638.97"><defs><style>.cls-1{fill:#c7ffcf;opacity:0.65;}.cls-2{fill:#343535;}.cls-3{fill:#5a5b5b;}.cls-4{fill:#fff;}.cls-5{fill:#f2f4f4;}.cls-6{opacity:0.05;}.cls-7{fill:#f5f7f7;}.cls-15,.cls-8,.cls-9{opacity:0.1;}.cls-8{fill:url(#未命名漸層_13);}.cls-9{fill:url(#未命名漸層_13-2);}.cls-10{fill:#4f4f4e;}.cls-11{fill:#666161;}.cls-12{fill:#443c3c;}.cls-13{fill:#fcf9e0;}.cls-14{fill:#1e1a1a;}.cls-16{fill:#878786;}.cls-17{fill:#282826;}.cls-18{fill:#343738;}.cls-19{fill:#535556;}.cls-20{fill:#232728;}.cls-21{fill:#4c4c4c;}.cls-22{fill:#82c5d8;}.cls-23{fill:#b4e4ef;}.cls-24{fill:#def8fc;}.cls-25{fill:#2e3030;}.cls-26{fill:#212323;}.cls-27{fill:#181919;}.cls-28{fill:#6b6b6b;}.cls-29{fill:#565654;}.cls-30{fill:#404444;}.cls-31{fill:#151f21;}.cls-32{fill:#2c3333;}.cls-33{fill:#d3d4d6;}.cls-34{fill:#515656;}.cls-35{fill:#30302f;}.cls-36{fill:#4b4c4c;}.cls-37{fill:#0d0d0d;}.cls-38{fill:#191a1a;}.cls-39{fill:#2e2e2d;}.cls-40{fill:#466a74;}.cls-41{fill:#464646;}.cls-42{fill:#555656;}.cls-43{fill:#6d6d6d;}.cls-44{fill:#292929;}.cls-45{fill:#778587;}.cls-46{fill:#617a80;}.cls-47{fill:#697070;}.cls-48{fill:#434949;}.cls-49{fill:#03127f;}.cls-50{fill:#ebeded;}</style><linearGradient id="未命名漸層_13" x1="318.21" y1="362.26" x2="673.4" y2="362.26" gradientTransform="matrix(0.05, 1, 1, -0.05, 405.24, -218.42)" gradientUnits="userSpaceOnUse"><stop offset="0" stop-color="#f7931e"/><stop offset="1" stop-color="#f9ee87" stop-opacity="0.1"/></linearGradient><linearGradient id="未命名漸層_13-2" x1="306.98" y1="145.92" x2="662.16" y2="145.92" gradientTransform="translate(818.18 -218.42) rotate(92.71)" xlink:href="#未命名漸層_13"/></defs><title>辨識中</title><g id="圖層_2" data-name="圖層 2"><g id="圖層_1-2" data-name="圖層 1"><rect class="cls-1" width="1366" height="638.97"/><rect class="cls-2" x="335.07" y="75.5" width="751.08" height="5.98"/><rect class="cls-3" x="345.08" y="81.48" width="3.71" height="405.23"/><rect class="cls-3" x="1072.87" y="81.48" width="3.71" height="405.23"/><path class="cls-4" d="M1047,488.36V81.48H374.18V488.36s-4.07,46-114,59H1161C1051.12,534.39,1047,488.36,1047,488.36Z"/><rect class="cls-5" x="260.22" y="547.38" width="900.78" height="3.12"/><path class="cls-6" d="M1047,115.36V81.48H374.18V90S1047,90.51,1047,115.36Z"/><path class="cls-6" d="M346.38,521.89h728.46c-26.27-16.34-27.79-33.53-27.79-33.53V474.78H374.18v13.58S372.65,505.55,346.38,521.89Z"/><rect class="cls-7" x="358.14" y="70.97" width="704.95" height="14.15"/><path class="cls-6" d="M358.14,78S1009.57,82,1020.88,71h42.21V85.12h-705Z"/><path class="cls-8" d="M939.92,74.83l-317.47,226S631.14,431,777,438.14L952.44,87.36Z"/><path class="cls-9" d="M500.13,73.85l317.47,226S808.91,430,663,437.15L487.61,86.37Z"/><rect class="cls-10" x="978.81" y="5.97" width="2.8" height="41.46"/><ellipse class="cls-11" cx="961.46" cy="68.6" rx="3.88" ry="16.85" transform="translate(233.1 699.95) rotate(-45)"/><path class="cls-12" d="M994.58,59.31a36,36,0,0,0-23.83-23.83L949.42,56.8s17.87,6.67,23.83,23.83Z"/><path class="cls-13" d="M946,67.78c-.51.51.29,3.56,6.48,9.76,6.67,6.67,9.25,7,9.76,6.48s-1.76-5.51-6.25-10S946.55,67.27,946,67.78Z"/><path class="cls-12" d="M969.4,76.9a47.19,47.19,0,0,0-16.24-16.24L946,67.82s10.22,3.64,16.24,16.24Z"/><polygon class="cls-12" points="950.91 62.9 943.46 70.36 935.86 72.87 944.54 64.19 950.91 62.9"/><polygon class="cls-12" points="967.15 79.14 959.7 86.6 957.19 94.2 965.87 85.52 967.15 79.14"/><polygon class="cls-14" points="951.33 62.48 959.45 70.61 967.57 78.73 965.95 84.85 955.58 74.48 945.21 64.11 951.33 62.48"/><polygon class="cls-14" points="952.52 77.54 959.69 86.61 953.33 92.96 945.21 84.84 937.09 76.72 943.45 70.37 952.52 77.54"/><rect class="cls-10" x="466.04" y="8.97" width="2.8" height="41.46"/><ellipse class="cls-11" cx="486.19" cy="71.6" rx="16.85" ry="3.88" transform="translate(91.78 364.76) rotate(-45)"/><path class="cls-12" d="M453.07,62.31A36,36,0,0,1,476.9,38.48L498.23,59.8s-17.87,6.67-23.83,23.83Z"/><path class="cls-13" d="M501.61,70.78c.51.51-.29,3.56-6.48,9.76-6.67,6.67-9.25,7-9.76,6.48s1.76-5.51,6.25-10S501.1,70.27,501.61,70.78Z"/><path class="cls-12" d="M478.25,79.9a47.19,47.19,0,0,1,16.24-16.24l7.17,7.17s-10.22,3.64-16.24,16.24Z"/><polygon class="cls-12" points="496.74 65.9 504.19 73.36 511.79 75.87 503.11 67.19 496.74 65.9"/><polygon class="cls-12" points="480.49 82.14 487.95 89.6 490.46 97.2 481.78 88.52 480.49 82.14"/><polygon class="cls-14" points="496.32 65.48 488.2 73.61 480.08 81.73 481.7 87.85 492.07 77.48 502.44 67.11 496.32 65.48"/><polygon class="cls-14" points="495.13 80.54 487.96 89.61 494.32 95.96 502.44 87.84 510.56 79.72 504.2 73.37 495.13 80.54"/><ellipse class="cls-15" cx="586.51" cy="596.74" rx="61.36" ry="5.79"/><polygon class="cls-10" points="635.75 597.6 588.72 416.69 588.72 416.7 588.72 416.69 583.85 416.69 583.85 416.75 536.84 596.73 541.77 599.34 583.85 435.42 583.85 599.34 588.72 599.34 588.72 435.33 630.82 599.34 635.75 597.6"/><rect class="cls-16" x="581.82" y="384.4" width="8.96" height="36.56"/><rect class="cls-10" x="578.02" y="405.61" width="16.54" height="7.58"/><rect class="cls-17" x="579.42" y="406.58" width="1" height="5.63"/><rect class="cls-17" x="581.01" y="406.58" width="1" height="5.63"/><rect class="cls-17" x="582.61" y="406.58" width="1" height="5.63"/><rect class="cls-17" x="584.2" y="406.58" width="1" height="5.63"/><rect class="cls-17" x="585.79" y="406.58" width="1" height="5.63"/><rect class="cls-17" x="587.39" y="406.58" width="1" height="5.63"/><rect class="cls-17" x="588.99" y="406.58" width="1" height="5.63"/><rect class="cls-17" x="590.58" y="406.58" width="1" height="5.63"/><rect class="cls-17" x="592.17" y="406.58" width="1" height="5.63"/><path class="cls-17" d="M582,413.18h8.57a1.59,1.59,0,0,1,1.59,1.59v4.8a1.59,1.59,0,0,1-1.59,1.59H582a1.6,1.6,0,0,1-1.6-1.6v-4.8A1.59,1.59,0,0,1,582,413.18Z"/><rect class="cls-10" x="578.02" y="378.56" width="16.54" height="7.57"/><rect class="cls-17" x="579.42" y="379.53" width="1" height="5.63"/><rect class="cls-17" x="581.01" y="379.53" width="1" height="5.63"/><rect class="cls-17" x="582.61" y="379.53" width="1" height="5.63"/><rect class="cls-17" x="584.2" y="379.53" width="1" height="5.63"/><rect class="cls-17" x="585.79" y="379.53" width="1" height="5.63"/><rect class="cls-17" x="587.39" y="379.53" width="1" height="5.63"/><rect class="cls-17" x="588.99" y="379.53" width="1" height="5.63"/><rect class="cls-17" x="590.58" y="379.53" width="1" height="5.63"/><rect class="cls-17" x="592.17" y="379.53" width="1" height="5.63"/><rect class="cls-18" x="580.67" y="561.36" width="11.69" height="38.14" rx="2.03" ry="2.03"/><rect class="cls-19" x="579.21" y="563.65" width="14.62" height="13.48"/><rect class="cls-19" x="579.21" y="579.92" width="14.62" height="13.22"/><path class="cls-18" d="M544.9,598.39a2,2,0,0,1-2.49,1.45L535,597.89a2,2,0,0,1-1.45-2.49l8.71-32.93a2,2,0,0,1,2.49-1.45l7.37,1.95a2,2,0,0,1,1.45,2.49Z"/><rect class="cls-19" x="539.43" y="563.41" width="13.47" height="14.62" transform="translate(-145.17 952.9) rotate(-75.19)"/><rect class="cls-19" x="535.43" y="579.02" width="13.22" height="14.62" transform="translate(-163.37 960.47) rotate(-75.19)"/><path class="cls-18" d="M627.75,598.39a2,2,0,0,0,2.49,1.45l7.37-1.95a2,2,0,0,0,1.45-2.49l-8.71-32.93a2,2,0,0,0-2.49-1.45L620.49,563a2,2,0,0,0-1.45,2.49Z"/><rect class="cls-19" x="619.17" y="563.98" width="14.62" height="13.47" transform="translate(-125.05 179.05) rotate(-14.81)"/><rect class="cls-19" x="623.3" y="579.72" width="14.62" height="13.22" transform="translate(-128.94 180.69) rotate(-14.81)"/><path class="cls-20" d="M613.73,339.36a1.66,1.66,0,0,1-1.66,1.66h-5.45a1.66,1.66,0,0,1-1.66-1.66h0a1.66,1.66,0,0,1,1.66-1.66h5.45a1.66,1.66,0,0,1,1.66,1.66Z"/><path class="cls-21" d="M558,340.45h56.55a5.18,5.18,0,0,1,5.18,5.18v27.76a5.17,5.17,0,0,1-5.17,5.17H558a5.17,5.17,0,0,1-5.17-5.17V345.63A5.17,5.17,0,0,1,558,340.45Z"/><rect class="cls-22" x="558.93" y="346.16" width="39.49" height="26.7"/><rect class="cls-23" x="561.27" y="348.26" width="34.82" height="22.48"/><polygon class="cls-24" points="561.27 356.13 569.29 348.26 573.38 348.26 561.27 360.65 561.27 356.13"/><polygon class="cls-24" points="561.27 366.14 579.93 348.26 584.89 348.26 562.44 370.75 561.27 370.75 561.27 366.14"/><polygon class="cls-24" points="571.27 370.75 593.22 348.26 596.09 348.26 574.69 370.75 571.27 370.75"/><polygon class="cls-24" points="581.63 370.75 596.09 356.57 596.09 360.21 584.89 370.75 581.63 370.75"/><path class="cls-21" d="M596.08,329H576.13l-7,11.44h34.15Zm-2.28,8.5H578.72v-5.36H593.8Z"/><circle class="cls-25" cx="608.46" cy="365.47" r="7.53"/><path class="cls-26" d="M609,365.47l5-5.07q-.25-.27-.52-.52l-5,5.07-5.07-5q-.27.25-.52.52l5.07,5-5,5.07a7.36,7.36,0,0,0,.52.52l5-5.07,5.07,5q.27-.25.52-.53Z"/><circle class="cls-27" cx="608.46" cy="365.47" r="3.47"/><circle class="cls-25" cx="604.76" cy="347.45" r="1.25"/><circle class="cls-25" cx="608.46" cy="347.45" r="1.25"/><circle class="cls-25" cx="612.16" cy="347.45" r="1.25"/><circle class="cls-28" cx="605.35" cy="353.26" r="2.32"/><circle class="cls-29" cx="605.35" cy="353.26" r="1.81"/><circle class="cls-28" cx="611.57" cy="353.26" r="2.32"/><circle class="cls-29" cx="611.57" cy="353.26" r="1.81"/><ellipse class="cls-15" cx="1162.19" cy="591.92" rx="40.52" ry="5.79"/><path class="cls-30" d="M1154.17,317s.74-28-14.51-49.09l-79.35-7L1140.53,317Z"/><path class="cls-31" d="M1152.17,346.12s-4.33,48.36-37,65.61l-76.85-31.92,98.33-38.87Z"/><path class="cls-32" d="M1140.53,317s-6.47-52.15-80.21-56.06l-22,118.92s64.78,0,98.33-38.87Z"/><path class="cls-33" d="M1131.79,329.86a16.92,16.92,0,1,0,16.92-16.92A16.92,16.92,0,0,0,1131.79,329.86Zm10.38,0c0-5.52,1-10,6.54-10a10,10,0,0,1,0,20C1143.19,339.85,1142.17,335.38,1142.17,329.86Z"/><path class="cls-32" d="M1145.79,319.87h35.06c1.84,0,3.34,4.72,3.34,10.54s-1.49,10.54-3.34,10.54h-35.06s-5.27-2.73-5.27-11.27S1145.79,319.87,1145.79,319.87Z"/><ellipse class="cls-34" cx="1180.44" cy="330.39" rx="2.73" ry="9.46"/><path class="cls-34" d="M1164.73,315.73a4.52,4.52,0,0,0-4.52,4.52h-2.08a6.6,6.6,0,1,1,13.2,0h-2.08A4.52,4.52,0,0,0,1164.73,315.73Z"/><rect class="cls-35" x="1160.12" y="340.95" width="4.13" height="208.5"/><path class="cls-35" d="M1151.39,576.91l8.73,6.61v9.4h4.13v-9.4l9-6.82,16,16.23h6.09l-31.14-30.12V544.15h-4.13V562.8L1129,592.92h6.1Zm12.87,3.37V567.56l7.1,7.19ZM1153.34,575l6.78-6.66v11.94Z"/><rect class="cls-18" x="1157.9" y="396.18" width="8.57" height="18.54" rx="1.49" ry="1.49"/><rect class="cls-19" x="1156.83" y="400.37" width="10.71" height="9.69"/><rect class="cls-18" x="1157.9" y="488.01" width="8.57" height="18.54" rx="1.49" ry="1.49"/><rect class="cls-19" x="1156.83" y="492.21" width="10.71" height="9.69"/><ellipse class="cls-15" cx="323.25" cy="583.4" rx="71.14" ry="6.71"/><polygon class="cls-10" points="369.69 571.33 325.75 421.89 325.75 421.89 325.75 421.89 321.35 421.89 321.35 421.95 276.93 570.94 281.38 573.29 321.35 438.78 321.35 586.67 325.75 586.67 325.75 438.71 365.24 572.9 369.69 571.33"/><path class="cls-18" d="M320,552.4h6.88a1.83,1.83,0,0,1,1.83,1.83V585a1.84,1.84,0,0,1-1.84,1.84H320a1.84,1.84,0,0,1-1.84-1.84V554.24A1.84,1.84,0,0,1,320,552.4Z"/><rect class="cls-19" x="316.89" y="554.46" width="13.19" height="12.16"/><rect class="cls-19" x="316.89" y="569.14" width="13.19" height="11.93"/><path class="cls-18" d="M282.61,580.47a1.84,1.84,0,0,1-2.24,1.31L273.71,580a1.84,1.84,0,0,1-1.3-2.24l7.85-29.71a1.84,1.84,0,0,1,2.24-1.31l6.65,1.76a1.84,1.84,0,0,1,1.3,2.24Z"/><rect class="cls-19" x="277.67" y="548.91" width="12.15" height="13.19" transform="matrix(0.26, -0.97, 0.97, 0.26, -325.83, 687.86)"/><rect class="cls-19" x="274.06" y="562.99" width="11.93" height="13.19" transform="translate(-342.22 694.69) rotate(-75.19)"/><path class="cls-18" d="M364.43,581.49a1.84,1.84,0,0,0,2.24,1.31l6.65-1.76a1.84,1.84,0,0,0,1.3-2.24l-7.85-29.71a1.84,1.84,0,0,0-2.24-1.31l-6.65,1.76a1.84,1.84,0,0,0-1.31,2.24Z"/><rect class="cls-19" x="356.69" y="550.45" width="13.19" height="12.15" transform="matrix(0.97, -0.26, 0.26, 0.97, -130.17, 111.33)"/><rect class="cls-19" x="360.41" y="564.65" width="13.19" height="11.93" transform="translate(-133.68 112.79) rotate(-14.81)"/><rect class="cls-16" x="319.52" y="392.76" width="8.08" height="32.98"/><rect class="cls-10" x="316.09" y="411.89" width="14.92" height="6.83"/><rect class="cls-17" x="317.35" y="412.77" width="0.9" height="5.08"/><rect class="cls-17" x="318.79" y="412.77" width="0.9" height="5.08"/><rect class="cls-17" x="320.23" y="412.77" width="0.9" height="5.08"/><rect class="cls-17" x="321.67" y="412.77" width="0.9" height="5.08"/><rect class="cls-17" x="323.11" y="412.77" width="0.9" height="5.08"/><rect class="cls-17" x="324.55" y="412.77" width="0.9" height="5.08"/><rect class="cls-17" x="325.99" y="412.77" width="0.9" height="5.08"/><rect class="cls-17" x="327.42" y="412.77" width="0.9" height="5.08"/><rect class="cls-17" x="328.86" y="412.77" width="0.9" height="5.08"/><rect class="cls-17" x="318.25" y="418.73" width="10.61" height="7.2" rx="1.44" ry="1.44"/><rect class="cls-10" x="316.09" y="387.49" width="14.92" height="6.83"/><rect class="cls-17" x="317.35" y="388.37" width="0.9" height="5.08"/><rect class="cls-17" x="318.79" y="388.37" width="0.9" height="5.08"/><rect class="cls-17" x="320.23" y="388.37" width="0.9" height="5.08"/><rect class="cls-17" x="321.67" y="388.37" width="0.9" height="5.08"/><rect class="cls-17" x="323.11" y="388.37" width="0.9" height="5.08"/><rect class="cls-17" x="324.55" y="388.37" width="0.9" height="5.08"/><rect class="cls-17" x="325.99" y="388.37" width="0.9" height="5.08"/><rect class="cls-17" x="327.42" y="388.37" width="0.9" height="5.08"/><rect class="cls-17" x="328.86" y="388.37" width="0.9" height="5.08"/><path class="cls-36" d="M327.6,374.15s8.94,3.05,9,3.22l6.17,18.29-10.31-2.22-4.58-12.59Z"/><path class="cls-37" d="M334.28,386.35l.34.09a5.06,5.06,0,0,1,1.65,1,6,6,0,0,1,.47.44,4.33,4.33,0,0,1,1,1.53,1.25,1.25,0,0,1-.07,1.18.79.79,0,0,1-.25.21,1.47,1.47,0,0,1-1,.09l-.34-.09a5,5,0,0,1-1.64-1,6.08,6.08,0,0,1-.47-.44,4.34,4.34,0,0,1-1-1.53,1.26,1.26,0,0,1,.07-1.18.78.78,0,0,1,.25-.21A1.45,1.45,0,0,1,334.28,386.35Z"/><path class="cls-38" d="M333.76,383.91a11.64,11.64,0,0,1,6.75,6.37c.79,2.35-.46,3.69-2.84,3.21a6.68,6.68,0,0,1-.74-.19,11.63,11.63,0,0,1-6.75-6.36c-.79-2.36.45-3.69,2.83-3.22A6.54,6.54,0,0,1,333.76,383.91Zm6.23,9.28a1.57,1.57,0,0,0,.25-.21l-2.58-2.43a1.25,1.25,0,0,0,.07-1.18,4.33,4.33,0,0,0-1-1.53l1.36-1.16-.47-.44-1.36,1.16a5.06,5.06,0,0,0-1.65-1l-.34-.09a1.45,1.45,0,0,0-1,.09L330.71,384a2,2,0,0,0-.25.21l2.59,2.43a1.26,1.26,0,0,0-.07,1.18,4.34,4.34,0,0,0,1,1.53l-1.36,1.16.47.44,1.36-1.16a5,5,0,0,0,1.64,1l.34.09a1.47,1.47,0,0,0,1-.09l2.58,2.42"/><path class="cls-39" d="M330.08,379.12l.19,0a2.81,2.81,0,0,1,1.63,1.54c.19.57-.11.88-.68.77l-.18,0a2.8,2.8,0,0,1-1.62-1.54C329.21,379.33,329.51,379,330.08,379.12Z"/><path class="cls-38" d="M331.17,376.56l.13,0a1.93,1.93,0,0,1,1.12,1.06c.13.39-.07.61-.47.53l-.13,0a1.93,1.93,0,0,1-1.12-1.06C330.57,376.71,330.78,376.49,331.17,376.56Z"/><path class="cls-38" d="M333.71,377.39l.12,0a1.93,1.93,0,0,1,1.12,1.06c.13.39-.07.61-.46.53l-.13,0a1.93,1.93,0,0,1-1.12-1.05C333.11,377.53,333.32,377.31,333.71,377.39Z"/><path class="cls-38" d="M328.64,375.74l.12,0a1.94,1.94,0,0,1,1.12,1.06c.13.39-.08.61-.47.53l-.12,0a1.94,1.94,0,0,1-1.12-1.06C328,375.88,328.24,375.66,328.64,375.74Z"/><path class="cls-39" d="M334.35,380.51l.19,0a2.8,2.8,0,0,1,1.63,1.53c.19.56-.11.89-.68.77l-.19,0a2.8,2.8,0,0,1-1.62-1.53C333.48,380.72,333.78,380.4,334.35,380.51Z"/><path class="cls-40" d="M297.3,365.48l27.1,8.84L330,391,303,382.25ZM325,380.29l-1.75-5.18-2-.64-5.72-1.86-2.4-.78-5.5-1.79-.46-.15-7.85-2.56,4.76,14.12.81.26,6,2,2.34.76,6.78,2.19.21.07,7.67,2.48-2.22-6.58-.77-2.28"/><path class="cls-32" d="M341.14,342.95c-8.8-5.43-13.17-.26-13.17-.26L319.22,354l17.16,17.65L350,356.9C353,353.65,349.94,348.37,341.14,342.95Z"/><path class="cls-41" d="M326.68,344.35A24.43,24.43,0,0,1,340.33,349c6.36,4.76,7.81,10,7.81,10l-2.81,2.9a30.9,30.9,0,0,0-21.7-13.65Z"/><path class="cls-36" d="M293.5,361.55l10-11.46s1.18-1,3.73,0,4.27,1.61,4.27,1.61l4.32-5,13.7,4.5,7.39,8.77,7.71,2.52s3.56,1.19,4.64,4.38l5.5,16.3s.9,2.1-.26,3.27-9.56,10.77-9.56,10.77-1.54-5.09-3.57-10.52-2.48-10.54-6.59-12-8.17-2.9-8.17-2.9l-7.39-8.77-13.7-4.5-2.35,5.83S293.84,361.16,293.5,361.55Z"/><polygon class="cls-42" points="319.18 363.09 329.49 351.25 336.88 360.02 326.92 371.99 319.18 363.09"/><polygon class="cls-43" points="305.48 358.59 315.79 346.74 329.49 351.25 319.18 363.09 305.48 358.59"/><path class="cls-44" d="M330,391l-5.62-16.66-27.1-8.84L303,382.25,330,391m7.65,2.5c2.38.47,3.63-.86,2.84-3.21a11.64,11.64,0,0,0-6.75-6.37,6.54,6.54,0,0,0-.75-.2c-2.37-.47-3.62.86-2.83,3.22a11.63,11.63,0,0,0,6.75,6.36,6.68,6.68,0,0,0,.74.19m-7.75-14.69c-.73-.14-1.11.26-.87,1a3.59,3.59,0,0,0,2.08,2l.23.06c.73.15,1.12-.26.87-1a3.58,3.58,0,0,0-2.08-2l-.24-.06m4.27,1.39c-.73-.14-1.11.27-.86,1a3.57,3.57,0,0,0,2.07,2l.24.06c.73.14,1.11-.26.86-1a3.58,3.58,0,0,0-2.07-2l-.23-.06m-5.56-4.45c-.4-.08-.6.14-.47.53a1.94,1.94,0,0,0,1.12,1.06l.12,0c.39.08.6-.14.47-.53a1.94,1.94,0,0,0-1.12-1.06l-.12,0m2.53.83c-.39-.08-.59.14-.46.53a1.93,1.93,0,0,0,1.12,1.06l.13,0c.39.08.6-.14.47-.53a1.93,1.93,0,0,0-1.12-1.06l-.13,0m2.54.83c-.4-.08-.6.14-.47.53a1.93,1.93,0,0,0,1.12,1.05l.13,0c.39.08.59-.14.46-.53a1.93,1.93,0,0,0-1.12-1.06l-.12,0m.57-3a8.07,8.07,0,0,1,4.64,4.38L344.74,396c.54,1.61-.33,2.53-2,2.21a4.55,4.55,0,0,1-.5-.13l-38.73-12.47a8,8,0,0,1-4.65-4.4L293,363.78c-.55-1.63.31-2.55,1.94-2.23a4.4,4.4,0,0,1,.52.14l7.66,2.51,23.44,7.67,1.39.45,5.47,1.79Z"/><polygon class="cls-45" points="304.86 369.12 307.2 369.88 307.66 370.03 301.98 375.1 301.02 372.26 304.86 369.12"/><polygon class="cls-46" points="313.16 371.83 312.16 371.5 303.14 378.55 301.98 375.1 307.66 370.03 313.16 371.83"/><polygon class="cls-46" points="327.98 389.15 320.31 386.67 325.76 382.57 327.98 389.15"/><polygon class="cls-46" points="315.56 372.61 321.27 374.47 310.97 383.65 304.92 381.7 315.56 372.61"/><polygon class="cls-45" points="321.27 374.47 323.24 375.11 313.31 384.41 310.97 383.66 321.27 374.47"/><polygon class="cls-46" points="307.2 369.88 304.86 369.12 301.02 372.26 299.35 367.32 307.2 369.88"/><polygon class="cls-46" points="313.31 384.41 323.24 375.11 324.99 380.29 318.07 385.95 320.1 386.6 313.31 384.41"/><polygon class="cls-45" points="312.16 371.5 313.16 371.83 315.56 372.61 304.92 381.7 304.12 381.44 303.14 378.55 312.16 371.5"/><polygon class="cls-45" points="324.99 380.29 325.76 382.57 320.31 386.67 320.1 386.6 318.07 385.95 324.99 380.29"/><path class="cls-44" d="M326.57,371.86l-23.44-7.67,2.35-5.61,6.85,2.25,6.85,2.25Zm-7.16-4-1.13-3.35-10.36-3.4,1.13,3.36,10.36,3.39"/><polygon class="cls-43" points="307.92 361.14 309.05 364.5 319.41 367.89 318.28 364.54 307.92 361.14"/><ellipse class="cls-15" cx="858.54" cy="579.74" rx="40.52" ry="5.79"/><rect class="cls-35" x="856.86" y="551.77" width="3.92" height="26.7"/><rect class="cls-10" x="856.86" y="418.03" width="3.92" height="136.63"/><polygon class="cls-10" points="884.55 578.46 890.33 578.46 859.42 551.77 856.87 554.74 884.55 578.46"/><polygon class="cls-10" points="833.11 578.46 827.33 578.46 858.24 551.77 860.79 554.74 833.11 578.46"/><polygon class="cls-10" points="858.83 573.95 843.39 567.21 844.72 564.15 858.83 570.31 872.93 564.15 874.26 567.21 858.83 573.95"/><rect class="cls-18" x="854.54" y="488.7" width="8.57" height="18.54" rx="1.49" ry="1.49"/><rect class="cls-19" x="853.47" y="492.89" width="10.71" height="9.69"/><ellipse class="cls-47" cx="848.22" cy="410.99" rx="19.16" ry="17.01" transform="translate(242.59 1133.2) rotate(-75.87)"/><path class="cls-32" d="M859.76,396.2a15.22,15.22,0,0,0-4.25-1.8c-9.11-2.29-18.59,4.17-21.17,14.43-1.83,7.29.3,14.53,5,18.94a15.24,15.24,0,0,0,4.25,1.8c9.11,2.29,18.59-4.17,21.17-14.43C866.55,407.85,864.41,400.61,859.76,396.2Z"/><path class="cls-31" d="M850.55,414c-2.42,3.6-1,8.83,3.16,11.62l13.35,8.95c4.16,2.79,9.53,2.12,11.95-1.49l2.47-3.68c2.42-3.6,1-8.83-3.16-11.62L865,408.86c-4.16-2.79-9.53-2.12-11.95,1.49Z"/><path class="cls-48" d="M879,433.1l2.47-3.68c1.94-2.9,1.4-6.85-1.05-9.74a7.87,7.87,0,0,0-8.06,3.05l-2.47,3.68c-1.94,2.9-1.4,6.85,1.05,9.73A7.87,7.87,0,0,0,879,433.1Z"/><path class="cls-49" d="M612.6,245.33l-1.17-.59a2.72,2.72,0,0,1-.59-2.11,43.29,43.29,0,0,0,4-7.59,21.17,21.17,0,0,0,1.29-6.77l-7.38.59-1.17-.59a2.72,2.72,0,0,1-.59-2.11l.59-1.17a10.58,10.58,0,0,1,4.28-1q2.29-.06,4.51-.29a43.13,43.13,0,0,0-.23-6.8h-4.92a5.88,5.88,0,0,1-3.52-.82,2.72,2.72,0,0,1-.59-2.11l.59-1.17a4.5,4.5,0,0,1,3.4-.59l1.64.12-.82-9.55-2.7.12A2.33,2.33,0,0,1,607,200l.59-1.17,1.17-.59h7l-.23-3.87a3.4,3.4,0,0,1,.82-1.87,2.73,2.73,0,0,1,2.11-.59l1.23.59a18.08,18.08,0,0,1,.82,5.51h5.63l1.17.59a2.73,2.73,0,0,1,.59,2.11l-.59,1.17a5.55,5.55,0,0,1-3,.82l-.23,9.67a3.6,3.6,0,0,1,2.58.7,2.73,2.73,0,0,1,.59,2.11l-.59,1.17a3.22,3.22,0,0,1-2.58.59l-3-.12q.12,3.87,0,6.56l2.7-.23,1.17.59a2.73,2.73,0,0,1,.59,2.11l-.59,1.17a9,9,0,0,1-4.1.94,27.9,27.9,0,0,1-1.44,8.23,34.83,34.83,0,0,1-4.48,8.47A2.86,2.86,0,0,1,612.6,245.33Zm7-33.34v-9.2h-3.11l.82,9.55Zm12.19,6-1.17-.59a3.1,3.1,0,0,1-.7-1.64l-.23-17.52a3.1,3.1,0,0,1,.7-1.64,2.73,2.73,0,0,1,2.11-.59l1.17.59.59,1.17.23,18.46-.59,1.17A2.72,2.72,0,0,1,631.76,218Zm.82,28.42-1.17-.59a3.11,3.11,0,0,1-.59-2.23,37.73,37.73,0,0,0,6-15.21,108.47,108.47,0,0,0,1.41-14.85q.12-6.68.12-16.46a3.1,3.1,0,0,1,.7-1.64,2.73,2.73,0,0,1,2.11-.59l1.17.59a5.68,5.68,0,0,1,.7,3.28q-.06,8.26-.21,15.18a115.49,115.49,0,0,1-1.55,15.67,39.43,39.43,0,0,1-6.56,16.26A2.73,2.73,0,0,1,632.58,246.39Zm20.33.29-1.17-.59a5,5,0,0,1-.76-2.93q.06-1.64.18-13.12a27.1,27.1,0,0,0-3.08-.06,5.39,5.39,0,0,1-2.84-.64,2.85,2.85,0,0,1-.7-2.23l.59-1.17a7.36,7.36,0,0,1,4.39-.59l1.52.12L650.8,219a12.7,12.7,0,0,1-5.8-.82,2.72,2.72,0,0,1-.59-2.11l.59-1.17a5.77,5.77,0,0,1,3.87-.59l-.35-10.72-2,.29-1.17-.64a2.85,2.85,0,0,1-.7-2.23l.59-1.17A10.92,10.92,0,0,1,651,199l-.59-3.87a2.33,2.33,0,0,1,2.93-2.23l1.17.59A11.6,11.6,0,0,1,655.6,199a11.22,11.22,0,0,1,5.16.7,2.73,2.73,0,0,1,.59,2.11l-.59,1.17-1.17.47-.23,11.07a4.42,4.42,0,0,1,3,.59,3.11,3.11,0,0,1,.59,2.23l-.59,1.17a4,4,0,0,1-2.93.59l-4-.23.12,6.8a12.18,12.18,0,0,1,5.63.59,3.11,3.11,0,0,1,.59,2.23l-.59,1.17a11.56,11.56,0,0,1-5.51.59q-.12,9-.06,11.43a12.23,12.23,0,0,1-.64,4.39A2.73,2.73,0,0,1,652.91,246.68Zm1.88-32.34.23-10.72h-1.87l.35,10.72Z"/><path class="cls-49" d="M668.44,206.78l-1.11-.53a3.11,3.11,0,0,1-.59-2.23l.59-1.17a13.59,13.59,0,0,1,4.92-.88l11.25-.12,1.11.53a2.73,2.73,0,0,1,.59,2.11l-.59,1.17a3.44,3.44,0,0,1-1.7.7Zm3.81,37.62q-2.87,0-3-1.38t-.35-3.78q-.18-2.4-.29-8.55.18-2,1.46-2.2t12.07-.09Q684,228.34,684,230t.06,4.19q.06,2.49.26,6t-1.61,3.72a33.82,33.82,0,0,1-4.78.18A37.83,37.83,0,0,0,672.24,244.39ZM672,215.51a3.1,3.1,0,0,1-1.64-.7,2.76,2.76,0,0,1-.53-2.05l.53-1.17a9.78,9.78,0,0,1,3.93-.76H679a6.55,6.55,0,0,1,3.46.64,2.63,2.63,0,0,1,.59,2.05l-.59,1.17a4.7,4.7,0,0,1-3.34.7Zm.12,10.14a3.1,3.1,0,0,1-1.64-.7,2.67,2.67,0,0,1-.53-2.05l.53-1.11a11.28,11.28,0,0,1,4.34-.82h7l1.11.59a2.63,2.63,0,0,1,.59,2.05l-.59,1.17a4.13,4.13,0,0,1-1.7.64Zm4.45-24.84-1.17-.59-3.52-4a4.63,4.63,0,0,1-.7-1.93,2.8,2.8,0,0,1,.7-1.58,2.54,2.54,0,0,1,2.05-.59l1.11.59,1.05,1.23a14.9,14.9,0,0,0,2.29,2.75,2.75,2.75,0,0,1,.82,2.4l-.59,1.11A2.63,2.63,0,0,1,676.58,200.8Zm3.11,38.79-.18-6.74L673,233l.35,6.86Zm37.15,5.1A14.94,14.94,0,0,1,715,241a39.3,39.3,0,0,1-1.14-4,19.23,19.23,0,0,0-3.57,4.45,2.64,2.64,0,0,1-2.11.59l-1.11-.59a2.91,2.91,0,0,1-.59-2.17,18.83,18.83,0,0,1,3-4.37,30.1,30.1,0,0,0,3.22-4.25q-.65-3.75-1.23-7.53t-1.17-7.65l-23-.12a3.05,3.05,0,0,1-1.58-.7,2.63,2.63,0,0,1-.59-2.05l.59-1.17a5.62,5.62,0,0,1,3-.7,29.6,29.6,0,0,0,3.25-.06l-.23-9.43a8.85,8.85,0,0,1-5-.7,2.76,2.76,0,0,1-.53-2.05l.53-1.11,1.17-.59,6.74.12a14.43,14.43,0,0,1-.47-3.34l.59-1.11a2.63,2.63,0,0,1,2.05-.59l1.17.59a7.45,7.45,0,0,1,1.11,4.45l6.62-.12,1.29.64a3.08,3.08,0,0,1,.59,2.11l-.59,1.11a8.85,8.85,0,0,1-5,.7l-.12,9.2,8.09.23a67,67,0,0,0-.79-8.2,62.42,62.42,0,0,1-.79-6.5,2.38,2.38,0,0,1,2.81-2.17l1.11.59q.82,4,1.41,8.12a74.78,74.78,0,0,1,.7,8.41,17.45,17.45,0,0,1,5.57.64,3,3,0,0,1,.59,2.17l-.59,1.17a3.19,3.19,0,0,1-2.05.7l-3-.23,1.41,9.38,2.4-3.81a2.8,2.8,0,0,1,2.29-.59l1.11.59a2.63,2.63,0,0,1,.59,2.05L722,224.3l-4.69,8.2a15.19,15.19,0,0,0,1.52,5.1,2.35,2.35,0,0,1,2.05-.7l1.11.59a3,3,0,0,1,.59,2.17,28.14,28.14,0,0,0-2.64,5Q718.82,246.62,716.83,244.69Zm-26-.59q-2.23-.18-2.31-1.35t-.26-10.34q-.18-9.17,0-10.63t2.26-1.41l12.25.47q1.29.12,1.05,2.58l-.18,18.4q.06,2.64-2.87,2.29Zm9.61-14.24.12-4.45-9.08-.47v4.92Zm-.12,9.79v-5.27h-8.73l.12,5.27Zm-1.87-28.95.12-9.32H695l.23,9.32Zm20-5-1.17-.59q-.65-1.52-1.41-3.08a8.67,8.67,0,0,1-.88-3.25l.59-1.17a2.77,2.77,0,0,1,2.05-.53l1.17.53q.76,1.52,1.46,3a9.25,9.25,0,0,1,.82,3.28l-.59,1.17A2.63,2.63,0,0,1,718.42,205.66Z"/><path class="cls-49" d="M755.27,245.1l-1.17-.59a3.11,3.11,0,0,1-.7-1.64l-.23-16.58-17.05.12q-2.17-.06-2.58-1.2T732.24,206q-.18-1.76,1-2.14t19.54-.15l-.12-8.2.59-1.17a3.11,3.11,0,0,1,2.23-.59l1.17.59a3.83,3.83,0,0,1,.7,1.76v7.79q16.93-.18,18.22.15t1.52,2.31l-.94,18.4a2.17,2.17,0,0,1-2.7,1.88l-15.76-.35.23,17.05-.59,1.17A2.73,2.73,0,0,1,755.27,245.1Zm-2.11-23.38-.35-13.36-16-.12,1.05,13.59Zm18.69.12.7-13.12-15.18-.23.35,13.24Z"/><path class="cls-49" d="M791.42,241.58a4.57,4.57,0,0,1-2.75-1.64,4.3,4.3,0,0,1-1.11-3.22,4.7,4.7,0,0,1,1.58-3.19,3.61,3.61,0,0,1,3.49-.91,5.92,5.92,0,0,1,3.22,1.85,4,4,0,0,1,1,3.11,4.63,4.63,0,0,1-1.52,3A4.87,4.87,0,0,1,791.42,241.58Z"/><path class="cls-49" d="M821.42,241.58a4.57,4.57,0,0,1-2.75-1.64,4.3,4.3,0,0,1-1.11-3.22,4.7,4.7,0,0,1,1.58-3.19,3.61,3.61,0,0,1,3.49-.91,5.92,5.92,0,0,1,3.22,1.85,4,4,0,0,1,1,3.11,4.63,4.63,0,0,1-1.52,3A4.87,4.87,0,0,1,821.42,241.58Z"/><path class="cls-49" d="M851.42,241.58a4.57,4.57,0,0,1-2.75-1.64,4.3,4.3,0,0,1-1.11-3.22,4.7,4.7,0,0,1,1.58-3.19,3.61,3.61,0,0,1,3.49-.91,5.92,5.92,0,0,1,3.22,1.85,4,4,0,0,1,1,3.11,4.63,4.63,0,0,1-1.52,3A4.87,4.87,0,0,1,851.42,241.58Z"/><path class="cls-49" d="M625.78,278.25q-12.95-.35-14.65-.23a4.8,4.8,0,0,1-3-.7,2.82,2.82,0,0,1-.59-2.17l.59-1.17,1.17-.59,16.35.12a6,6,0,0,1,3.75.7,2.82,2.82,0,0,1,.59,2.17l-.59,1.17A5.57,5.57,0,0,1,625.78,278.25Zm-12.36,37.09q-2.29-.12-2.67-1.14a24.72,24.72,0,0,1-.5-5.6,50.5,50.5,0,0,0-.5-6.74q-.38-2.17.35-3a2.69,2.69,0,0,1,2.37-.62h15.64q2.05-.18,1.76,3.28-.47,9.9-.82,11.54t-1.7,1.76Q626,315,613.42,315.34Zm7.21-20.92-6.86-.12-1.17-.59a3.11,3.11,0,0,1-.59-2.23l.59-1.17,1.17-.59h6.74a9.29,9.29,0,0,1,4.69.7,2.73,2.73,0,0,1,.59,2.11l-.59,1.17A7.4,7.4,0,0,1,620.62,294.42Zm.47-8.67a36.69,36.69,0,0,0-4.22-.47,16.49,16.49,0,0,1-4-.7,3.11,3.11,0,0,1-.59-2.23l.59-1.17a6.47,6.47,0,0,1,4.1-.59,43.6,43.6,0,0,0,7.09.47l1.17.59a2.73,2.73,0,0,1,.59,2.11l-.59,1.17A6.51,6.51,0,0,1,621.09,285.75Zm.82-13.42q-1.76-.7-3.6-1.52a22.83,22.83,0,0,0-3.72-1.29,3.11,3.11,0,0,1-.59-2.23l.59-1.17a4.42,4.42,0,0,1,3-.59q1.64.59,3.19,1.29t3.08,1.52a2.86,2.86,0,0,1,.7,2.23l-.59,1.17A2.72,2.72,0,0,1,621.91,272.33Zm2.7,37.73.47-7.09-10.61.12.47,7.44Zm7.15-21.74-1.17-.59a3.9,3.9,0,0,1-.7-1.87,3.1,3.1,0,0,1,.7-1.64l1.17-.59,12,.12-.23-2.93h-5.16a3.1,3.1,0,0,1-1.64-.7,2.72,2.72,0,0,1-.59-2.11l.59-1.17,1.17-.59h5.51l-.12-2.64h-7.73a3.1,3.1,0,0,1-1.64-.7,2.72,2.72,0,0,1-.59-2.11l.59-1.17L635,269h8.2a5.44,5.44,0,0,1,.94-3.52,2.73,2.73,0,0,1,2.11-.59l1.17.59q.7.94.35,3.52h8.5l1.17.59a3.11,3.11,0,0,1,.59,2.23l-.59,1.17-1.17.59h-8.5l.12,3h5.8l1.17.59a2.73,2.73,0,0,1,.59,2.11l-.59,1.17a3.8,3.8,0,0,1-1.76.7H648l.23,2.58h11.31l1.17.59a2.73,2.73,0,0,1,.59,2.11l-.59,1.17a3.81,3.81,0,0,1-1.76.7Zm21.39,28.3q-2.81-1.88-4.16-2.93a2.72,2.72,0,0,1-.59-2.11l.59-1.17a2.91,2.91,0,0,1,2.17-.59l1.64.82.12-2.7-11.07-.35.23,6.33-.59,1.17a2.86,2.86,0,0,1-2.23.7l-1.17-.59a8.83,8.83,0,0,1-.82-4.8l-.47-18.11q-.06-2.23,1.46-2.17t8.85.06a61.76,61.76,0,0,1,8.91.35,1.91,1.91,0,0,1,1.58,2.11q-.12,15.88-.18,18.63a11.34,11.34,0,0,1-.79,4.37Q655.9,317.27,653.14,316.63Zm-.12-20v-1.87l-11.54-.35.12,2Zm.12,6.68v-2.11L641.72,301v1.76Z"/><path class="cls-49" d="M679.45,317.8l-1.23-.59a7.13,7.13,0,0,1-.7-4.45V293.13q-1.64,3.63-3.28,7.15a59.68,59.68,0,0,0-2.81,7.21,2.73,2.73,0,0,1-2.11.59l-1.17-.59a3.12,3.12,0,0,1-.59-2.52,87,87,0,0,1,4.57-11.43,76.91,76.91,0,0,0,4.45-11.43l-7.15.35-1.17-.59a2.72,2.72,0,0,1-.59-2.11l.59-1.17a13,13,0,0,1,4.34-.94q2.34-.12,4.69-.12l-.12-5.1a25.21,25.21,0,0,1-4.45.94l-1.17-.59a2.72,2.72,0,0,1-.59-2.11l.59-1.17a31.66,31.66,0,0,1,6.83-2.05q3.54-.64,7.18-1.11l1.17.59a2.73,2.73,0,0,1,.59,2.11l-.59,1.17a20.8,20.8,0,0,1-4.8,1.29v6l6.68-.12,1.29.7a2.73,2.73,0,0,1,.59,2.11l-.59,1.17a3.81,3.81,0,0,1-1.76.7h-5.39q5.86,7.5,6.45,10.55l-.59,1.17a2.73,2.73,0,0,1-2.11.59l-1.17-.59-3.16-4.34.12,23.61a7.3,7.3,0,0,1-.7,4.1A2.73,2.73,0,0,1,679.45,317.8Zm13-37.09-1.17-.59a2.72,2.72,0,0,1-.59-2.11q1.52-2.4,5.63-9.43a3,3,0,0,1,2.34-.7l1.17.59a2.73,2.73,0,0,1,.59,2.11,101.94,101.94,0,0,1-5.74,9.43A2.85,2.85,0,0,1,692.46,280.71ZM696.09,318l-1.17-.59a18.66,18.66,0,0,1-.64-7.53q.41-4.25-.29-26-.41-2.81,2.81-2.58l7.62-.23-.47-14.36a3.11,3.11,0,0,1,.7-1.64,2.73,2.73,0,0,1,2.11-.59l1.17.59.59,1.17.12,14.82a78.13,78.13,0,0,1,8.14.38q1.52.26,1.05,2.61-.47,30.94-.59,32.75t-2.93.06l-4.63-3a2.72,2.72,0,0,1-.59-2.11l.59-1.17a3.32,3.32,0,0,1,2.29-.59l.82.23-.12-6.62-13.65.35-.23,12.36-.59,1.17A2.73,2.73,0,0,1,696.09,318Zm16.7-27.25.23-5-14.47.12.12,4.8Zm-.12,8.2v-3.63H698.79v4Zm7.15-17.58a3.11,3.11,0,0,1-1.64-.7l-6.56-9.32a3.1,3.1,0,0,1-.59-2.23l.59-1.17a2.73,2.73,0,0,1,2.11-.59l1.17.59q1.88,2.23,7.15,10.14l.12,1.41-.59,1.17A3.81,3.81,0,0,1,719.82,281.41Z"/><path class="cls-49" d="M729.9,287.1a3.38,3.38,0,0,1-1.64-.64,3.53,3.53,0,0,1-.59-2.23q2.69-4.45,5.51-9a58.69,58.69,0,0,0,4.75-9.46,2.82,2.82,0,0,1,2.11-.59l1.17.59a2.62,2.62,0,0,1,.59,2.29,50.08,50.08,0,0,1-4.69,9.38q-2.87,4.51-5.51,9A4.14,4.14,0,0,1,729.9,287.1Zm11.43,30.59a2.82,2.82,0,0,1-1.58-.7,3.06,3.06,0,0,1-.7-1.58l-.12-24.49-4.1,5.86a3.84,3.84,0,0,1-3.22,1.64l-1.11-.59a2.63,2.63,0,0,1-.59-2.05q4.92-7.15,8.53-12.69t7.06-11.1a2.85,2.85,0,0,1,2.29-.7l1.17.59a2.77,2.77,0,0,1,.53,2.05L743.26,284l.35,31.88-.53,1.11A3.83,3.83,0,0,1,741.33,317.68Zm36.5-1.41a21.73,21.73,0,0,1-7.12-2.84,52.18,52.18,0,0,0-6.94-3.6,38.2,38.2,0,0,1-6.21,4.19,14.89,14.89,0,0,1-7.15,1.73l-1.11-.59a2.72,2.72,0,0,1-.59-2.11l.59-1.11q2.75-.7,5.39-1.61a12.66,12.66,0,0,0,4.92-3.25,30.56,30.56,0,0,0-4.34-3.52L753.87,305a2.69,2.69,0,0,1-2.17.59l-1.17-.59a2.72,2.72,0,0,1-.59-2.11l.59-1.11a33.85,33.85,0,0,0,4.6-4.39,32.77,32.77,0,0,0,3.6-5l-6.91.47a2.75,2.75,0,0,1-1.64-.82,2.37,2.37,0,0,1-.59-2q.47-1.23,9.9-9.43l-3.87-4.34a2.77,2.77,0,0,1-.7-2.23,5.56,5.56,0,0,1,1.79-2.34,22.38,22.38,0,0,0,2.87-3.16,21.38,21.38,0,0,1,2.9-3.16l1.52-.12,1.11.59a3,3,0,0,1,.59,2.17l-.59,1.17a12,12,0,0,0-2.26,2.46,12.16,12.16,0,0,1-2.43,2.58l2.75,3,2.4-2.58a3.14,3.14,0,0,1,2.58-.94l1.17.59a2.82,2.82,0,0,1,.59,2.17l-.59,1.11L758.26,287.8l13.48-.12a4.93,4.93,0,0,1-1.35-3.46l.59-1.11a2.54,2.54,0,0,1,2.05-.59l1.17.59a36.23,36.23,0,0,0,2.61,3.6l2.67,3.25a3.38,3.38,0,0,1,1.05,2.58l-.59,1.11a3.11,3.11,0,0,1-2.23.59l-1.23-.7L775.08,292l-10.72.23-1.76,2.75q8.14.35,10,.85t1.08,2.64a18.6,18.6,0,0,1-2.11,4.22,22.55,22.55,0,0,1-3.37,4q2.81,1.76,5.63,3.31a30.34,30.34,0,0,0,5.92,2.49,2.54,2.54,0,0,1,.59,2.05l-.59,1.17A4.31,4.31,0,0,1,777.83,316.28Zm-14.06-12.13a11.47,11.47,0,0,0,4.22-4.57l-8.73-.23-.53,1q1.23,1.05,2.37,2.14A8,8,0,0,0,763.77,304.15Z"/><path class="cls-49" d="M791.42,313.58a4.58,4.58,0,0,1-2.75-1.64,4.3,4.3,0,0,1-1.11-3.22,4.7,4.7,0,0,1,1.58-3.19,3.61,3.61,0,0,1,3.49-.91,5.91,5.91,0,0,1,3.22,1.85,4,4,0,0,1,1,3.11,4.63,4.63,0,0,1-1.52,3A4.87,4.87,0,0,1,791.42,313.58Z"/><path class="cls-49" d="M821.42,313.58a4.58,4.58,0,0,1-2.75-1.64,4.3,4.3,0,0,1-1.11-3.22,4.7,4.7,0,0,1,1.58-3.19,3.61,3.61,0,0,1,3.49-.91,5.91,5.91,0,0,1,3.22,1.85,4,4,0,0,1,1,3.11,4.63,4.63,0,0,1-1.52,3A4.87,4.87,0,0,1,821.42,313.58Z"/><path class="cls-49" d="M851.42,313.58a4.58,4.58,0,0,1-2.75-1.64,4.3,4.3,0,0,1-1.11-3.22,4.7,4.7,0,0,1,1.58-3.19,3.61,3.61,0,0,1,3.49-.91,5.91,5.91,0,0,1,3.22,1.85,4,4,0,0,1,1,3.11,4.63,4.63,0,0,1-1.52,3A4.87,4.87,0,0,1,851.42,313.58Z"/><path class="cls-32" d="M78.29,112.73l-3.73-1L64.69,120l-.63-15.48L49.22,116.13l-.63-15.48L33.75,112.28,33.12,96.8,18.28,108.43l-.63-15.48L7,101.29v2.85l8.11-6.36.52,12.72L7,117.27v2.85l8.74-6.85.63,15.48,14.84-11.63.63,15.48L46.69,121l.63,15.48,14.84-11.63L62.69,138l2.73-.14-.61-15.06ZM18.91,123.91l-.52-12.72,12.19-9.55.52,12.72Zm15.47,3.85L33.86,115l12.19-9.55.52,12.72Zm15.47,3.85-.51-12.72,12.19-9.55L62,122.06Z"/><path class="cls-32" d="M137.29,129.73l-3.73-1L123.69,137l-.63-15.48-14.84,11.63-.63-15.48L92.75,129.28l-.63-15.48L77.28,125.43l-.63-15.48L66,118.29v2.85l8.11-6.36.52,12.72L66,134.27v2.85l8.74-6.85.63,15.48,14.84-11.63.63,15.48L105.69,138l.63,15.48,14.84-11.63.53,13.13,2.73-.14-.61-15.06ZM77.91,140.91l-.52-12.72,12.19-9.55.52,12.72Zm15.47,3.85L92.86,132l12.19-9.55.52,12.72Zm15.47,3.85-.51-12.72,12.19-9.55.51,12.72Z"/><path class="cls-30" d="M236.56,78.34s12.09,44.22,12.75,51.39S227.34,215.24,219,225s-26.06,30.33-26.06,30.33S171,223.3,169.06,208.49s15.74-97.12,27.82-105.11S236.56,78.34,236.56,78.34Z"/><rect class="cls-32" x="114.37" y="129.03" width="29.4" height="28.08" transform="translate(-44.45 226.85) rotate(-73.72)"/><path class="cls-32" d="M162.44,104.1C179,90.24,236.56,78.34,236.56,78.34l-34.13,30.49s-13.14,17.86-20.56,48.33a183.68,183.68,0,0,0-5,55.36l16.06,42.86s-45.45-37.29-53.66-57.25-10.12-57.19-10.12-57.19S145.89,118,162.44,104.1Z"/><path class="cls-31" d="M130,151.82c1.2,12.56,3.87,33.17,9.27,46.3,8.21,20,53.66,57.25,53.66,57.25l-16.06-42.86S144,191.69,130,151.82Z"/><path class="cls-30" d="M162.44,104.1c-16.55,13.86-33.29,36.83-33.29,36.83,30.54-24.58,73.28-32.1,73.28-32.1l34.13-30.49S179,90.24,162.44,104.1Z"/><path class="cls-50" d="M207.08,112.18s21.84-21.53,24.8-21.84S242.5,123.15,242,131.13,218.6,212.4,215.9,217.35s-20.74,26.2-22,25.73S182,212.33,181.78,206,187.79,137.88,207.08,112.18Z"/><path class="cls-4" d="M197,159c4.09-10.69,13.52-36.14,22.4-37.09s14.35,22.42,5.33,50.3-20.85,52.3-29.75,42.29S192.19,171.45,197,159Z"/></g></g></svg>